<svg xmlns="http://www.w3.org/2000/svg" width="70" height="50.001" viewBox="0 0 70 50.001">
  <g id="Groupe_900" data-name="Groupe 900" transform="translate(-1369.352 -1955.166)">
    <g id="Groupe_896" data-name="Groupe 896" transform="translate(1369.352 1987.904)">
      <g id="Groupe_894" data-name="Groupe 894">
        <path id="Tracé_42" data-name="Tracé 42" d="M1376.922,1999.009a3.677,3.677,0,0,1,.39,1.5,5.184,5.184,0,0,1-.757.263,8.3,8.3,0,0,1-.828.173c-.283.044-.559.084-.836.107s-.525.037-.745.037a4.665,4.665,0,0,1-3.547-1.3,5,5,0,0,1-1.239-3.589,10.72,10.72,0,0,1,.438-3.061,8.06,8.06,0,0,1,1.313-2.612,6.627,6.627,0,0,1,2.154-1.823,6.241,6.241,0,0,1,2.973-.685,8.344,8.344,0,0,1,1.594.132,6.036,6.036,0,0,1,1.117.325,6.781,6.781,0,0,1-.2.739,4.513,4.513,0,0,1-.344.739,5.586,5.586,0,0,0-1-.282,6.242,6.242,0,0,0-1.108-.087,4.433,4.433,0,0,0-2.251.545,4.6,4.6,0,0,0-1.558,1.451,6.487,6.487,0,0,0-.9,2.068,9.683,9.683,0,0,0-.291,2.392,3.608,3.608,0,0,0,.836,2.586,3.176,3.176,0,0,0,2.418.879,5.811,5.811,0,0,0,1.241-.122A6,6,0,0,0,1376.922,1999.009Z" transform="translate(-1369.352 -1987.904)" fill="#c5d0e0"/>
        <path id="Tracé_43" data-name="Tracé 43" d="M1380.566,1991.6q.174-.987.27-1.7a11.937,11.937,0,0,0,.112-1.278v-.334a2.628,2.628,0,0,0-.015-.318c.126-.022.284-.038.468-.051s.334-.018.466-.018.248.006.4.018.285.029.415.051a1.542,1.542,0,0,1,.034.318v.334c0,.129-.009.287-.026.466s-.037.373-.06.572-.054.406-.09.616-.071.412-.106.6l-1.373,7.423a3.288,3.288,0,0,0-.05.476,1.016,1.016,0,0,0,.079.448.533.533,0,0,0,.2.247.659.659,0,0,0,.27.1,2.634,2.634,0,0,0,.294.016,2.282,2.282,0,0,0,.36-.035c.131-.024.25-.046.341-.071a3.365,3.365,0,0,1,.159,1.091.728.728,0,0,1-.009.132c0,.043-.007.081-.007.113a3.2,3.2,0,0,1-.642.132,6.285,6.285,0,0,1-.75.046,3.721,3.721,0,0,1-.835-.088,1.516,1.516,0,0,1-.65-.318,1.475,1.475,0,0,1-.423-.607,2.622,2.622,0,0,1-.15-.941,3.74,3.74,0,0,1,.072-.7c.046-.245.091-.487.141-.722Z" transform="translate(-1369.352 -1987.904)" fill="#c5d0e0"/>
        <path id="Tracé_44" data-name="Tracé 44" d="M1387.6,2001.087a3.172,3.172,0,0,1-2.464-.907,3.669,3.669,0,0,1-.828-2.559,7.523,7.523,0,0,1,.3-2.033,6.138,6.138,0,0,1,.923-1.936,5.28,5.28,0,0,1,1.566-1.441,4.206,4.206,0,0,1,2.227-.573,3.184,3.184,0,0,1,2.482.916,3.7,3.7,0,0,1,.826,2.568,7.4,7.4,0,0,1-.3,2.042,6.164,6.164,0,0,1-.916,1.926,5.046,5.046,0,0,1-1.563,1.435A4.353,4.353,0,0,1,1387.6,2001.087Zm.175-1.391a2.276,2.276,0,0,0,1.419-.448,3.585,3.585,0,0,0,.96-1.133,5.9,5.9,0,0,0,.542-1.488,6.939,6.939,0,0,0,.178-1.505,2.305,2.305,0,0,0-.45-1.53,1.587,1.587,0,0,0-1.278-.528,2.2,2.2,0,0,0-1.4.457,3.6,3.6,0,0,0-.951,1.145,5.418,5.418,0,0,0-.535,1.486,7.2,7.2,0,0,0-.171,1.485,2.366,2.366,0,0,0,.434,1.53A1.52,1.52,0,0,0,1387.777,1999.7Z" transform="translate(-1369.354 -1987.904)" fill="#c5d0e0"/>
        <path id="Tracé_45" data-name="Tracé 45" d="M1395.467,1991.851a3.793,3.793,0,0,1,.45-.054c.171-.009.318-.016.448-.016s.268.007.42.016a3.719,3.719,0,0,1,.422.054l-.951,5.417a5.788,5.788,0,0,0-.1,1,1.3,1.3,0,0,0,.326,1,1.229,1.229,0,0,0,.869.3,1.737,1.737,0,0,0,.932-.291,3.2,3.2,0,0,0,.861-.854,6.331,6.331,0,0,0,.732-1.391,10.006,10.006,0,0,0,.519-1.9l.579-3.289c.143-.025.294-.041.46-.054s.31-.016.44-.016.269.007.429.016a3.6,3.6,0,0,1,.415.054l-.934,5.223c-.129.7-.232,1.308-.31,1.813a9.242,9.242,0,0,0-.112,1.319c0,.154,0,.273.006.363s.016.2.028.325a3.365,3.365,0,0,1-.412.05c-.138.013-.276.019-.415.019a3.082,3.082,0,0,1-.4-.019,3,3,0,0,1-.4-.05,3.28,3.28,0,0,1-.068-.81,4.191,4.191,0,0,1,.044-.634c.028-.2.06-.393.1-.579a4.271,4.271,0,0,1-.492.764,4,4,0,0,1-.741.712,4.167,4.167,0,0,1-.941.529,2.878,2.878,0,0,1-1.1.212,2.023,2.023,0,0,1-2.241-1.777,2.049,2.049,0,0,1,.009-.53,5.27,5.27,0,0,1,.034-.59c.024-.216.051-.425.087-.623Z" transform="translate(-1369.355 -1987.904)" fill="#c5d0e0"/>
        <path id="Tracé_46" data-name="Tracé 46" d="M1411.58,1997.038q-.192,1.058-.3,1.814a9.687,9.687,0,0,0-.1,1.319v.36a2.1,2.1,0,0,0,.034.326c-.128.022-.265.041-.412.053s-.285.018-.415.018-.265-.006-.4-.018a3.891,3.891,0,0,1-.387-.053c-.024-.094-.046-.2-.063-.309a3.457,3.457,0,0,1-.025-.466,5.034,5.034,0,0,1,.043-.588,4.482,4.482,0,0,1,.134-.7,5.739,5.739,0,0,1-.529.792,4.4,4.4,0,0,1-.737.738,3.835,3.835,0,0,1-.942.547,2.934,2.934,0,0,1-1.119.212,2.1,2.1,0,0,1-1.758-.766,3.307,3.307,0,0,1-.6-2.085,7.787,7.787,0,0,1,.387-2.437,6.457,6.457,0,0,1,1.144-2.111,5.673,5.673,0,0,1,1.891-1.488,5.8,5.8,0,0,1,2.611-.563c.132,0,.265.007.407.019s.259.025.351.034c.129-.678.228-1.267.3-1.757a9.579,9.579,0,0,0,.1-1.3v-.353a2.312,2.312,0,0,0-.015-.3c.126-.022.284-.038.466-.051s.338-.018.466-.018.247,0,.4.009a2.838,2.838,0,0,1,.4.043,4.333,4.333,0,0,1,.056.653,8.216,8.216,0,0,1-.084,1.038c-.05.422-.112.828-.182,1.213Zm-1.019-3.856a2.406,2.406,0,0,0-.44-.069c-.153-.012-.323-.019-.512-.019a3.051,3.051,0,0,0-1.572.406,3.95,3.95,0,0,0-1.192,1.082,5.019,5.019,0,0,0-.766,1.53,5.936,5.936,0,0,0-.266,1.751,2.45,2.45,0,0,0,.3,1.31,1,1,0,0,0,.9.467,1.832,1.832,0,0,0,1.054-.353,3.647,3.647,0,0,0,.932-.978,6.961,6.961,0,0,0,.739-1.458,10.073,10.073,0,0,0,.491-1.788Z" transform="translate(-1369.356 -1987.904)" fill="#c5d0e0"/>
        <path id="Tracé_47" data-name="Tracé 47" d="M1413.623,1998.289a13.642,13.642,0,0,0,1.366.422,5.527,5.527,0,0,0,1.342.175,3.972,3.972,0,0,0,1.013-.122,2.463,2.463,0,0,0,.809-.369,1.831,1.831,0,0,0,.538-.6,1.717,1.717,0,0,0,.193-.828,1.143,1.143,0,0,0-.157-.615,1.945,1.945,0,0,0-.4-.476,3.46,3.46,0,0,0-.582-.4c-.225-.123-.445-.256-.667-.4a8.057,8.057,0,0,1-1.786-1.38,2.4,2.4,0,0,1-.662-1.682,4.1,4.1,0,0,1,.337-1.7,3.4,3.4,0,0,1,.948-1.257,4.371,4.371,0,0,1,1.488-.784,6.546,6.546,0,0,1,1.961-.273,8.7,8.7,0,0,1,1.673.141,8.944,8.944,0,0,1,1.477.44,6.385,6.385,0,0,1-.247,1,5.064,5.064,0,0,1-.494,1.038,6.991,6.991,0,0,0-1.047-.406,5.074,5.074,0,0,0-1.4-.157,4.66,4.66,0,0,0-.678.053,2.056,2.056,0,0,0-.653.2,1.416,1.416,0,0,0-.484.413,1.136,1.136,0,0,0-.191.688,1.269,1.269,0,0,0,.428.985,6.949,6.949,0,0,0,1.1.773c.4.223.764.447,1.107.669a5.775,5.775,0,0,1,.9.72,2.958,2.958,0,0,1,.607.87,2.713,2.713,0,0,1,.219,1.117,4.681,4.681,0,0,1-.325,1.726,3.8,3.8,0,0,1-1,1.441,4.964,4.964,0,0,1-1.716.985,7.351,7.351,0,0,1-2.462.372,9.023,9.023,0,0,1-3.255-.617,5.63,5.63,0,0,1,.254-1.064C1413.3,1999.048,1413.448,1998.676,1413.623,1998.289Z" transform="translate(-1369.357 -1987.904)" fill="#c5d0e0"/>
        <path id="Tracé_48" data-name="Tracé 48" d="M1423.21,1991.779a8.425,8.425,0,0,1,1.355-.1,7.279,7.279,0,0,1,1.233.1l.472,7.95q.688-1.443,1.156-2.507c.307-.709.57-1.317.782-1.829s.372-.935.484-1.276.2-.628.254-.863a3.685,3.685,0,0,0,.106-.587c.013-.16.019-.309.019-.45a1.307,1.307,0,0,0-.019-.265c-.013-.057-.022-.118-.034-.175.2-.035.41-.062.632-.081s.451-.024.687-.024a7.782,7.782,0,0,1,1.32.1,1.15,1.15,0,0,1,.051.369,2.923,2.923,0,0,1-.079.659,6.473,6.473,0,0,1-.194.722c-.075.241-.157.473-.244.7s-.169.422-.238.6q-.459,1.094-1.276,2.789t-2.1,4.3a9.753,9.753,0,0,1-1.073,1.742,4.408,4.408,0,0,1-1.076.985,3.12,3.12,0,0,1-1.089.429,6.038,6.038,0,0,1-1.107.1,4.011,4.011,0,0,1-.7-.053,5.845,5.845,0,0,1-.639-.159,6.055,6.055,0,0,1,.138-.967,3.115,3.115,0,0,1,.353-.881,1.977,1.977,0,0,0,.376.116,2.016,2.016,0,0,0,.379.044,3.221,3.221,0,0,0,.491-.044,1.562,1.562,0,0,0,.609-.265,3.153,3.153,0,0,0,.685-.67,6.106,6.106,0,0,0,.732-1.239l.087-.193a3.472,3.472,0,0,1-.422.044c-.153,0-.312.009-.473.009h-.406a2.066,2.066,0,0,1-.4-.035Z" transform="translate(-1369.359 -1987.904)" fill="#c5d0e0"/>
        <path id="Tracé_49" data-name="Tracé 49" d="M1434.611,1996.865a3.579,3.579,0,0,1-.563-.276,2.233,2.233,0,0,1-.517-.422,1.958,1.958,0,0,1-.39-.62,2.43,2.43,0,0,1-.15-.881,2.882,2.882,0,0,1,.294-1.313,2.786,2.786,0,0,1,.807-.967,3.81,3.81,0,0,1,1.216-.606,5.047,5.047,0,0,1,1.5-.212c.187,0,.394.009.615.026s.448.043.679.081a4.56,4.56,0,0,1,.666.147,3.315,3.315,0,0,1,.591.237,4.192,4.192,0,0,1-.169.909,3.317,3.317,0,0,1-.429.906,3.676,3.676,0,0,0-.9-.316,4.324,4.324,0,0,0-1.006-.125,3.1,3.1,0,0,0-.429.035,1.943,1.943,0,0,0-.448.123.88.88,0,0,0-.353.265.678.678,0,0,0-.141.438c0,.353.222.629.669.828l.688.3a5.858,5.858,0,0,1,.65.322,2.545,2.545,0,0,1,.563.45,2.138,2.138,0,0,1,.4.616,2.065,2.065,0,0,1,.15.826,3.122,3.122,0,0,1-.353,1.525,3.209,3.209,0,0,1-.951,1.072,4.166,4.166,0,0,1-1.414.642,6.933,6.933,0,0,1-1.732.212,7.72,7.72,0,0,1-1.25-.115,5.506,5.506,0,0,1-1.232-.344,4.435,4.435,0,0,1,.526-1.9,4.758,4.758,0,0,0,1.116.341,6.64,6.64,0,0,0,1.1.1,3.113,3.113,0,0,0,.562-.051,1.988,1.988,0,0,0,.547-.176,1.184,1.184,0,0,0,.412-.341.853.853,0,0,0,.169-.54.724.724,0,0,0-.247-.569,2.3,2.3,0,0,0-.685-.4Z" transform="translate(-1369.359 -1987.904)" fill="#c5d0e0"/>
      </g>
      <g id="Groupe_895" data-name="Groupe 895" opacity="0.4">
        <path id="Tracé_50" data-name="Tracé 50" d="M1376.922,1999.009a3.677,3.677,0,0,1,.39,1.5,5.184,5.184,0,0,1-.757.263,8.3,8.3,0,0,1-.828.173c-.283.044-.559.084-.836.107s-.525.037-.745.037a4.665,4.665,0,0,1-3.547-1.3,5,5,0,0,1-1.239-3.589,10.72,10.72,0,0,1,.438-3.061,8.06,8.06,0,0,1,1.313-2.612,6.627,6.627,0,0,1,2.154-1.823,6.241,6.241,0,0,1,2.973-.685,8.344,8.344,0,0,1,1.594.132,6.036,6.036,0,0,1,1.117.325,6.781,6.781,0,0,1-.2.739,4.513,4.513,0,0,1-.344.739,5.586,5.586,0,0,0-1-.282,6.242,6.242,0,0,0-1.108-.087,4.433,4.433,0,0,0-2.251.545,4.6,4.6,0,0,0-1.558,1.451,6.487,6.487,0,0,0-.9,2.068,9.683,9.683,0,0,0-.291,2.392,3.608,3.608,0,0,0,.836,2.586,3.176,3.176,0,0,0,2.418.879,5.811,5.811,0,0,0,1.241-.122A6,6,0,0,0,1376.922,1999.009Z" transform="translate(-1369.352 -1987.904)" fill="#c5d0e0"/>
        <path id="Tracé_51" data-name="Tracé 51" d="M1380.566,1991.6q.174-.987.27-1.7a11.937,11.937,0,0,0,.112-1.278v-.334a2.628,2.628,0,0,0-.015-.318c.126-.022.284-.038.468-.051s.334-.018.466-.018.248.006.4.018.285.029.415.051a1.542,1.542,0,0,1,.034.318v.334c0,.129-.009.287-.026.466s-.037.373-.06.572-.054.406-.09.616-.071.412-.106.6l-1.373,7.423a3.288,3.288,0,0,0-.05.476,1.016,1.016,0,0,0,.079.448.533.533,0,0,0,.2.247.659.659,0,0,0,.27.1,2.634,2.634,0,0,0,.294.016,2.282,2.282,0,0,0,.36-.035c.131-.024.25-.046.341-.071a3.365,3.365,0,0,1,.159,1.091.728.728,0,0,1-.009.132c0,.043-.007.081-.007.113a3.2,3.2,0,0,1-.642.132,6.285,6.285,0,0,1-.75.046,3.721,3.721,0,0,1-.835-.088,1.516,1.516,0,0,1-.65-.318,1.475,1.475,0,0,1-.423-.607,2.622,2.622,0,0,1-.15-.941,3.74,3.74,0,0,1,.072-.7c.046-.245.091-.487.141-.722Z" transform="translate(-1369.352 -1987.904)" fill="#c5d0e0"/>
        <path id="Tracé_52" data-name="Tracé 52" d="M1387.6,2001.087a3.172,3.172,0,0,1-2.464-.907,3.669,3.669,0,0,1-.828-2.559,7.523,7.523,0,0,1,.3-2.033,6.138,6.138,0,0,1,.923-1.936,5.28,5.28,0,0,1,1.566-1.441,4.206,4.206,0,0,1,2.227-.573,3.184,3.184,0,0,1,2.482.916,3.7,3.7,0,0,1,.826,2.568,7.4,7.4,0,0,1-.3,2.042,6.164,6.164,0,0,1-.916,1.926,5.046,5.046,0,0,1-1.563,1.435A4.353,4.353,0,0,1,1387.6,2001.087Zm.175-1.391a2.276,2.276,0,0,0,1.419-.448,3.585,3.585,0,0,0,.96-1.133,5.9,5.9,0,0,0,.542-1.488,6.939,6.939,0,0,0,.178-1.505,2.305,2.305,0,0,0-.45-1.53,1.587,1.587,0,0,0-1.278-.528,2.2,2.2,0,0,0-1.4.457,3.6,3.6,0,0,0-.951,1.145,5.418,5.418,0,0,0-.535,1.486,7.2,7.2,0,0,0-.171,1.485,2.366,2.366,0,0,0,.434,1.53A1.52,1.52,0,0,0,1387.777,1999.7Z" transform="translate(-1369.354 -1987.904)" fill="#c5d0e0"/>
        <path id="Tracé_53" data-name="Tracé 53" d="M1395.467,1991.851a3.793,3.793,0,0,1,.45-.054c.171-.009.318-.016.448-.016s.268.007.42.016a3.719,3.719,0,0,1,.422.054l-.951,5.417a5.788,5.788,0,0,0-.1,1,1.3,1.3,0,0,0,.326,1,1.229,1.229,0,0,0,.869.3,1.737,1.737,0,0,0,.932-.291,3.2,3.2,0,0,0,.861-.854,6.331,6.331,0,0,0,.732-1.391,10.006,10.006,0,0,0,.519-1.9l.579-3.289c.143-.025.294-.041.46-.054s.31-.016.44-.016.269.007.429.016a3.6,3.6,0,0,1,.415.054l-.934,5.223c-.129.7-.232,1.308-.31,1.813a9.242,9.242,0,0,0-.112,1.319c0,.154,0,.273.006.363s.016.2.028.325a3.365,3.365,0,0,1-.412.05c-.138.013-.276.019-.415.019a3.082,3.082,0,0,1-.4-.019,3,3,0,0,1-.4-.05,3.28,3.28,0,0,1-.068-.81,4.191,4.191,0,0,1,.044-.634c.028-.2.06-.393.1-.579a4.271,4.271,0,0,1-.492.764,4,4,0,0,1-.741.712,4.167,4.167,0,0,1-.941.529,2.878,2.878,0,0,1-1.1.212,2.023,2.023,0,0,1-2.241-1.777,2.049,2.049,0,0,1,.009-.53,5.27,5.27,0,0,1,.034-.59c.024-.216.051-.425.087-.623Z" transform="translate(-1369.355 -1987.904)" fill="#c5d0e0"/>
        <path id="Tracé_54" data-name="Tracé 54" d="M1411.58,1997.038q-.192,1.058-.3,1.814a9.687,9.687,0,0,0-.1,1.319v.36a2.1,2.1,0,0,0,.034.326c-.128.022-.265.041-.412.053s-.285.018-.415.018-.265-.006-.4-.018a3.891,3.891,0,0,1-.387-.053c-.024-.094-.046-.2-.063-.309a3.457,3.457,0,0,1-.025-.466,5.034,5.034,0,0,1,.043-.588,4.482,4.482,0,0,1,.134-.7,5.739,5.739,0,0,1-.529.792,4.4,4.4,0,0,1-.737.738,3.835,3.835,0,0,1-.942.547,2.934,2.934,0,0,1-1.119.212,2.1,2.1,0,0,1-1.758-.766,3.307,3.307,0,0,1-.6-2.085,7.787,7.787,0,0,1,.387-2.437,6.457,6.457,0,0,1,1.144-2.111,5.673,5.673,0,0,1,1.891-1.488,5.8,5.8,0,0,1,2.611-.563c.132,0,.265.007.407.019s.259.025.351.034c.129-.678.228-1.267.3-1.757a9.579,9.579,0,0,0,.1-1.3v-.353a2.312,2.312,0,0,0-.015-.3c.126-.022.284-.038.466-.051s.338-.018.466-.018.247,0,.4.009a2.838,2.838,0,0,1,.4.043,4.333,4.333,0,0,1,.056.653,8.216,8.216,0,0,1-.084,1.038c-.05.422-.112.828-.182,1.213Zm-1.019-3.856a2.406,2.406,0,0,0-.44-.069c-.153-.012-.323-.019-.512-.019a3.051,3.051,0,0,0-1.572.406,3.95,3.95,0,0,0-1.192,1.082,5.019,5.019,0,0,0-.766,1.53,5.936,5.936,0,0,0-.266,1.751,2.45,2.45,0,0,0,.3,1.31,1,1,0,0,0,.9.467,1.832,1.832,0,0,0,1.054-.353,3.647,3.647,0,0,0,.932-.978,6.961,6.961,0,0,0,.739-1.458,10.073,10.073,0,0,0,.491-1.788Z" transform="translate(-1369.356 -1987.904)" fill="#c5d0e0"/>
        <path id="Tracé_55" data-name="Tracé 55" d="M1413.623,1998.289a13.642,13.642,0,0,0,1.366.422,5.527,5.527,0,0,0,1.342.175,3.972,3.972,0,0,0,1.013-.122,2.463,2.463,0,0,0,.809-.369,1.831,1.831,0,0,0,.538-.6,1.717,1.717,0,0,0,.193-.828,1.143,1.143,0,0,0-.157-.615,1.945,1.945,0,0,0-.4-.476,3.46,3.46,0,0,0-.582-.4c-.225-.123-.445-.256-.667-.4a8.057,8.057,0,0,1-1.786-1.38,2.4,2.4,0,0,1-.662-1.682,4.1,4.1,0,0,1,.337-1.7,3.4,3.4,0,0,1,.948-1.257,4.371,4.371,0,0,1,1.488-.784,6.546,6.546,0,0,1,1.961-.273,8.7,8.7,0,0,1,1.673.141,8.944,8.944,0,0,1,1.477.44,6.385,6.385,0,0,1-.247,1,5.064,5.064,0,0,1-.494,1.038,6.991,6.991,0,0,0-1.047-.406,5.074,5.074,0,0,0-1.4-.157,4.66,4.66,0,0,0-.678.053,2.056,2.056,0,0,0-.653.2,1.416,1.416,0,0,0-.484.413,1.136,1.136,0,0,0-.191.688,1.269,1.269,0,0,0,.428.985,6.949,6.949,0,0,0,1.1.773c.4.223.764.447,1.107.669a5.775,5.775,0,0,1,.9.72,2.958,2.958,0,0,1,.607.87,2.713,2.713,0,0,1,.219,1.117,4.681,4.681,0,0,1-.325,1.726,3.8,3.8,0,0,1-1,1.441,4.964,4.964,0,0,1-1.716.985,7.351,7.351,0,0,1-2.462.372,9.023,9.023,0,0,1-3.255-.617,5.63,5.63,0,0,1,.254-1.064C1413.3,1999.048,1413.448,1998.676,1413.623,1998.289Z" transform="translate(-1369.357 -1987.904)" fill="#c5d0e0"/>
        <path id="Tracé_56" data-name="Tracé 56" d="M1423.21,1991.779a8.425,8.425,0,0,1,1.355-.1,7.279,7.279,0,0,1,1.233.1l.472,7.95q.688-1.443,1.156-2.507c.307-.709.57-1.317.782-1.829s.372-.935.484-1.276.2-.628.254-.863a3.685,3.685,0,0,0,.106-.587c.013-.16.019-.309.019-.45a1.307,1.307,0,0,0-.019-.265c-.013-.057-.022-.118-.034-.175.2-.035.41-.062.632-.081s.451-.024.687-.024a7.782,7.782,0,0,1,1.32.1,1.15,1.15,0,0,1,.051.369,2.923,2.923,0,0,1-.079.659,6.473,6.473,0,0,1-.194.722c-.075.241-.157.473-.244.7s-.169.422-.238.6q-.459,1.094-1.276,2.789t-2.1,4.3a9.753,9.753,0,0,1-1.073,1.742,4.408,4.408,0,0,1-1.076.985,3.12,3.12,0,0,1-1.089.429,6.038,6.038,0,0,1-1.107.1,4.011,4.011,0,0,1-.7-.053,5.845,5.845,0,0,1-.639-.159,6.055,6.055,0,0,1,.138-.967,3.115,3.115,0,0,1,.353-.881,1.977,1.977,0,0,0,.376.116,2.016,2.016,0,0,0,.379.044,3.221,3.221,0,0,0,.491-.044,1.562,1.562,0,0,0,.609-.265,3.153,3.153,0,0,0,.685-.67,6.106,6.106,0,0,0,.732-1.239l.087-.193a3.472,3.472,0,0,1-.422.044c-.153,0-.312.009-.473.009h-.406a2.066,2.066,0,0,1-.4-.035Z" transform="translate(-1369.359 -1987.904)" fill="#c5d0e0"/>
        <path id="Tracé_57" data-name="Tracé 57" d="M1434.611,1996.865a3.579,3.579,0,0,1-.563-.276,2.233,2.233,0,0,1-.517-.422,1.958,1.958,0,0,1-.39-.62,2.43,2.43,0,0,1-.15-.881,2.882,2.882,0,0,1,.294-1.313,2.786,2.786,0,0,1,.807-.967,3.81,3.81,0,0,1,1.216-.606,5.047,5.047,0,0,1,1.5-.212c.187,0,.394.009.615.026s.448.043.679.081a4.56,4.56,0,0,1,.666.147,3.315,3.315,0,0,1,.591.237,4.192,4.192,0,0,1-.169.909,3.317,3.317,0,0,1-.429.906,3.676,3.676,0,0,0-.9-.316,4.324,4.324,0,0,0-1.006-.125,3.1,3.1,0,0,0-.429.035,1.943,1.943,0,0,0-.448.123.88.88,0,0,0-.353.265.678.678,0,0,0-.141.438c0,.353.222.629.669.828l.688.3a5.858,5.858,0,0,1,.65.322,2.545,2.545,0,0,1,.563.45,2.138,2.138,0,0,1,.4.616,2.065,2.065,0,0,1,.15.826,3.122,3.122,0,0,1-.353,1.525,3.209,3.209,0,0,1-.951,1.072,4.166,4.166,0,0,1-1.414.642,6.933,6.933,0,0,1-1.732.212,7.72,7.72,0,0,1-1.25-.115,5.506,5.506,0,0,1-1.232-.344,4.435,4.435,0,0,1,.526-1.9,4.758,4.758,0,0,0,1.116.341,6.64,6.64,0,0,0,1.1.1,3.113,3.113,0,0,0,.562-.051,1.988,1.988,0,0,0,.547-.176,1.184,1.184,0,0,0,.412-.341.853.853,0,0,0,.169-.54.724.724,0,0,0-.247-.569,2.3,2.3,0,0,0-.685-.4Z" transform="translate(-1369.359 -1987.904)" fill="#c5d0e0"/>
      </g>
    </g>
    <g id="Groupe_899" data-name="Groupe 899" transform="translate(1378.343 1955.166)">
      <g id="Groupe_897" data-name="Groupe 897">
        <path id="Tracé_58" data-name="Tracé 58" d="M1422.43,1960.513a10.691,10.691,0,0,0-11.382,2.684v-.007c-.065.06-.144.153-.241.259-.219.238-.431.485-.635.745l.01.006c-.222.276-.46.582-.7.891a9.007,9.007,0,0,1,4.222,3.186c.468-.55.95-1.1,1.369-1.588a5.45,5.45,0,0,1,5.639-1.15,6.3,6.3,0,0,1,4.356,5.688c0,6.129-6.246,6.5-7.484,6.511h-4.756c-1.852,1.989-4.854,3.165-8.585,3.165h-.113a10.845,10.845,0,0,1-1.357-.134,10.572,10.572,0,0,0-1.4-.135,2.145,2.145,0,0,0-1.541.5l-.041.037-.048.032-.11.078c-.079.056-.134.1-.14.1l-1.9,1.574-.1.087h20.092c4.425,0,12.8-2.468,12.8-11.823A11.492,11.492,0,0,0,1422.43,1960.513Z" transform="translate(-1378.35 -1955.166)" fill="#c5d0e0"/>
        <path id="Tracé_60" data-name="Tracé 60" d="M1401.02,1961.9c0-1.173,1.067-1.76,2.661-1.76a17.227,17.227,0,0,1,6.869,2.049c.147-.143.291-.279.442-.413l.007-.006h0a11.774,11.774,0,0,1,4.787-2.555c-.5-.35-6.435-4.053-11.59-4.053-5.8,0-9.639,2.833-9.639,7.29,0,8.568,12.784,6.013,12.784,10.3,0,1.382-1.211,2.1-3.145,2.1a9.255,9.255,0,0,1-1.592-.172v.013c-.071-.022-.14-.034-.2-.051-.209-.041-.416-.09-.631-.146-3.817-.637-5.406,3.245-10.4,3.245a7.068,7.068,0,1,1,2.27-13.707,8.883,8.883,0,0,1-.14-1.586,7.539,7.539,0,0,1,.886-3.59,13.129,13.129,0,0,0-3.12-.4c-7.356,0-12.921,5.253-12.921,12.233,0,7.084,5.424,12.442,12.713,12.442a14.078,14.078,0,0,0,7.748-2.584v.016s.079-.065.2-.153c.034-.026.071-.049.107-.076,1.523-1.36,3.6-.515,5.015-.5,5.39.031,9.674-2.559,9.674-7.4C1413.8,1963.7,1401.02,1966.087,1401.02,1961.9Z" transform="translate(-1378.343 -1955.166)" fill="#c5d0e0"/>
      </g>
    </g>
  </g>
</svg>
