<svg xmlns="http://www.w3.org/2000/svg" width="20" height="17.209" viewBox="0 0 20 17.209">
  <path id="Path_66" data-name="Path 66" d="M520.333,293v6.512c0,3.4-1.954,5.349-5.349,5.349h-9.3a.7.7,0,1,1,0-1.4h9.3c2.66,0,3.953-1.293,3.953-3.953V293c0-2.66-1.293-3.953-3.953-3.953h-9.3c-2.661,0-3.954,1.293-3.954,3.953a.7.7,0,1,1-1.4,0c0-3.4,1.953-5.349,5.349-5.349h9.3C518.38,287.655,520.333,289.608,520.333,293Zm-10,4.065a3.422,3.422,0,0,0,2.167-.735l2.912-2.326.013-.011a.687.687,0,0,0,.1-.966l-.011-.014a.685.685,0,0,0-.965-.1l-2.912,2.326a2.22,2.22,0,0,1-2.614,0l-2.912-2.326a.7.7,0,0,0-.865,1.088l2.912,2.326A3.458,3.458,0,0,0,510.333,297.069Zm-3.023,3.377a.7.7,0,0,0-.7-.7h-5.581a.7.7,0,0,0,0,1.4h5.581A.7.7,0,0,0,507.31,300.446Zm-6.279-3.023h2.791a.7.7,0,1,0,0-1.4h-2.791a.7.7,0,0,0,0,1.4Z" transform="translate(-500.333 -287.655)" fill="#834ba4"/>
</svg>
