<svg xmlns="http://www.w3.org/2000/svg" width="31.777" height="35" viewBox="0 0 31.777 35">
  <path id="Path_215" data-name="Path 215" d="M833.822,83.178V73.943c0-3.63,0-7.733-7.733-7.733h-9.767c-7.733,0-7.733,4.1-7.733,7.733v9.248c-3.256,1.325-3.256,4.311-3.256,7.031V91.85c0,4.4,0,9.36,9.36,9.36h13.023c6.219,0,9.36-3.142,9.393-9.36V90.222C837.111,87.493,837.109,84.5,833.822,83.178Zm-22.791-9.235c0-3.63,0-5.291,5.291-5.291h9.767c5.291,0,5.291,1.66,5.291,5.291V82.61a16.8,16.8,0,0,0-2-.12,5,5,0,0,0-3.663,1.221,1.551,1.551,0,0,0-.163.147l-1.661,1.758-.016.018a3.764,3.764,0,0,1-5.323-.018l-1.66-1.758a1.391,1.391,0,0,0-.163-.147,5.066,5.066,0,0,0-3.663-1.221,16.926,16.926,0,0,0-2.035.124Zm23.6,17.907c0,4.851-2.067,6.919-6.919,6.919H814.694c-6.919,0-6.919-2.458-6.919-6.919V90.222c0-3.63,0-5.291,5.291-5.291a2.671,2.671,0,0,1,2.116.667l1.579,1.677q.127.137.264.264a6.1,6.1,0,0,0,8.625-.264l1.579-1.677a2.671,2.671,0,0,1,2.116-.667c5.291,0,5.291,1.66,5.291,5.291ZM825.487,79.2a1.221,1.221,0,0,1-1.221,1.221h-5.421a1.221,1.221,0,1,1,0-2.442h5.421A1.221,1.221,0,0,1,825.487,79.2Zm-9.214-4.884a1.23,1.23,0,0,1,1.221-1.221h8.14a1.221,1.221,0,1,1,0,2.442h-8.14A1.229,1.229,0,0,1,816.274,74.317Z" transform="translate(-805.334 -66.21)" fill="#fff"/>
</svg>
