<svg xmlns="http://www.w3.org/2000/svg" width="35" height="35" viewBox="0 0 35 35">
  <path id="Path_214" data-name="Path 214" d="M957.843,146.953v4.017a3.9,3.9,0,0,0,7.807,0v-4.017a3.9,3.9,0,0,0-7.807,0Zm5.367.016v4.017a1.464,1.464,0,0,1-2.928,0v-4.017a1.464,1.464,0,0,1,2.928,0Zm-1.464,13.093a9.364,9.364,0,0,1-9.352-9.352v-3.481a9.352,9.352,0,0,1,18.656-.96,1.218,1.218,0,0,1-2.423.244,6.914,6.914,0,0,0-13.793.716v3.481a6.916,6.916,0,0,0,13.809.553,1.224,1.224,0,1,1,2.44.2A9.409,9.409,0,0,1,961.747,160.062Zm3.659-27.357a1.229,1.229,0,0,1,1.22-1.22h3.253a8.853,8.853,0,0,1,9.352,8.324,9.024,9.024,0,0,1,0,1.028v3.253a1.22,1.22,0,1,1-2.44,0v-3.253a6.48,6.48,0,0,0-6.016-6.913,6.334,6.334,0,0,0-.9,0h-3.253A1.229,1.229,0,0,1,965.406,132.7Zm-21.144,8.132a8.854,8.854,0,0,1,8.325-9.352,9.028,9.028,0,0,1,1.028,0h3.253a1.22,1.22,0,1,1,0,2.44h-3.253a6.48,6.48,0,0,0-6.913,6.016,6.292,6.292,0,0,0,0,.9v3.253a1.22,1.22,0,1,1-2.44,0Zm26.645,25.617a9.021,9.021,0,0,1-1.028,0h-3.253a1.22,1.22,0,1,1,0-2.44h3.253A6.48,6.48,0,0,0,976.792,158a6.328,6.328,0,0,0,0-.9v-3.253a1.22,1.22,0,1,1,2.44,0V157.1A8.853,8.853,0,0,1,970.907,166.454Zm-12.82-1.22a1.22,1.22,0,0,1-1.22,1.22h-3.253a8.853,8.853,0,0,1-9.352-8.324,9,9,0,0,1,0-1.028v-3.253a1.22,1.22,0,0,1,2.44,0V157.1a6.48,6.48,0,0,0,6.016,6.913,6.345,6.345,0,0,0,.9,0h3.253A1.22,1.22,0,0,1,958.087,165.234Z" transform="translate(-944.247 -131.47)" fill="#fff"/>
</svg>
