<svg xmlns="http://www.w3.org/2000/svg" width="35" height="29.251" viewBox="0 0 35 29.251">
  <path id="Path_213" data-name="Path 213" d="M963.4,146c-.959-3.353-3.666-5.2-7.759-5.2H941.718c-5.181,0-8.16,2.979-8.16,8.16v8.16c0,4.848,2.488,6.8,4.595,7.589.17.068.353.094.529.146a6.781,6.781,0,0,0,4.208,4.607,9.982,9.982,0,0,0,3.581.586H960.4c5.189,0,8.16-2.963,8.16-8.16v-8.16C968.558,149.68,966.723,146.981,963.4,146Zm-27.453,11.148v-8.16c0-3.9,1.885-5.783,5.783-5.783h13.927c3.226,0,5.058,1.285,5.61,3.942,0,.011,0,.022,0,.035a8.809,8.809,0,0,1,.158,1.79v8.16c0,3.9-1.885,5.783-5.783,5.783H941.718a8.556,8.556,0,0,1-1.775-.174c-.014,0-.029,0-.044,0h0a5.527,5.527,0,0,1-.9-.238C936.949,161.725,935.951,159.982,935.951,157.146Zm30.247,4.737c0,3.9-1.885,5.783-5.783,5.783H946.487a7.867,7.867,0,0,1-2.741-.428,4.161,4.161,0,0,1-2.313-1.949h14.228c5.181,0,8.16-2.979,8.16-8.16v-8.445c1.6.871,2.377,2.535,2.377,5.039Zm-17.508-3.454a5.371,5.371,0,1,0-5.371-5.371A5.377,5.377,0,0,0,948.689,158.43Zm0-8.366a2.995,2.995,0,1,1-2.995,2.995A3,3,0,0,1,948.689,150.064Zm-9.063,7.669a1.2,1.2,0,0,1-1.188-1.188v-6.971a1.188,1.188,0,1,1,2.377,0v6.971a1.187,1.187,0,0,1-1.185,1.188Zm16.922-1.188v-6.971a1.188,1.188,0,1,1,2.377,0v6.971a1.187,1.187,0,0,1-1.185,1.188h0A1.2,1.2,0,0,1,956.548,156.544Z" transform="translate(-933.558 -140.795)" fill="#fff"/>
</svg>
