<svg xmlns="http://www.w3.org/2000/svg" width="31.889" height="35" viewBox="0 0 31.889 35">
  <path id="Path_210" data-name="Path 210" d="M946.763,160.616a1.641,1.641,0,0,1,.451,1.1,2.626,2.626,0,0,1-.031.311.971.971,0,0,1-.093.28,1.155,1.155,0,0,1-.14.28l-.187.233a1.584,1.584,0,0,1-2.209,0,1.6,1.6,0,0,1-.451-1.109,1.523,1.523,0,0,1,.124-.591,1.793,1.793,0,0,1,.327-.512A1.629,1.629,0,0,1,946.763,160.616Zm3.749-.328a1.614,1.614,0,0,0-.513.327,1.772,1.772,0,0,0-.327.513,1.526,1.526,0,0,0-.124.591,1.6,1.6,0,0,0,.451,1.1,1.578,1.578,0,0,0,.513.333,1.515,1.515,0,0,0,.591.124,1.637,1.637,0,0,0,1.1-.451,2.244,2.244,0,0,0,.187-.233,1.151,1.151,0,0,0,.14-.28.971.971,0,0,0,.093-.28,2.626,2.626,0,0,0,.031-.311,1.645,1.645,0,0,0-.451-1.1A1.584,1.584,0,0,0,950.511,160.287Zm-3.749,5.771a1.608,1.608,0,0,0-1.7-.327,1.4,1.4,0,0,0-.84.84,1.47,1.47,0,0,0,0,1.184,1.439,1.439,0,0,0,.327.513,1.418,1.418,0,0,0,.513.327,1.466,1.466,0,0,0,1.182,0,1.4,1.4,0,0,0,.84-.84,1.47,1.47,0,0,0,0-1.184A1.477,1.477,0,0,0,946.763,166.059Zm21.062,4.216a7.273,7.273,0,0,1-1.073,3.811,7.365,7.365,0,0,1-6.316,3.578,7.2,7.2,0,0,1-4.472-1.556H944.88c-5.678,0-8.944-3.267-8.944-8.944V153.941c0-5.266,2.839-8.422,7.778-8.856V143.83a1.167,1.167,0,0,1,2.333,0V145h10.111V143.83a1.167,1.167,0,1,1,2.333,0v1.255c4.939.434,7.778,3.59,7.778,8.856v11.847A7.318,7.318,0,0,1,967.825,170.274Zm-29.54-16.582h25.634c-.076-3.864-1.86-5.927-5.427-6.286v1.09a1.167,1.167,0,1,1-2.333,0V147.33H946.047V148.5a1.167,1.167,0,0,1-2.333,0v-1.09C940.147,147.765,938.361,149.828,938.285,153.692Zm15.649,20.082c-.065-.118-.114-.244-.171-.366s-.106-.218-.153-.33c-.079-.19-.143-.386-.205-.582-.036-.107-.076-.215-.1-.325a6.674,6.674,0,0,1-.137-.658c-.016-.093-.041-.185-.053-.28a7.293,7.293,0,0,1-.064-.96,7.381,7.381,0,0,1,7.373-7.389l.009,0,.006,0,.022,0a7.355,7.355,0,0,1,1.28.129c.107.019.213.036.317.059a7.345,7.345,0,0,1,1.14.355c.115.045.222.1.334.154.135.062.274.117.406.187v-7.747H938.269v11.138c0,4.449,2.162,6.611,6.611,6.611Zm11.558-3.5a5.167,5.167,0,0,0-1.243-3.318c-.009-.011-.023-.016-.033-.026a5.012,5.012,0,0,0-1.294-1.025c-.115-.065-.223-.145-.342-.2a4.722,4.722,0,0,0-.451-.163,4.781,4.781,0,0,0-.523-.173c-.142-.034-.288-.048-.432-.07a5.022,5.022,0,0,0-.6-.064c-.145,0-.288.006-.432.014a5.124,5.124,0,0,0-.582.061c-.126.022-.249.054-.373.086a5.142,5.142,0,0,0-.6.187c-.1.039-.2.089-.3.135a4.911,4.911,0,0,0-.591.32c-.079.051-.155.112-.233.168a5.237,5.237,0,0,0-.549.453c-.062.061-.117.129-.176.193a5.021,5.021,0,0,0-.485.588c-.019.026-.031.056-.048.082a5.032,5.032,0,0,0-.828,2.753,4.922,4.922,0,0,0,.731,2.6,4.526,4.526,0,0,0,.98,1.182,4.926,4.926,0,0,0,3.344,1.276A5.063,5.063,0,0,0,965.491,170.274Zm-3.424-2.377-2.489,2.3-.747-.747a1.167,1.167,0,0,0-1.649,1.646l1.54,1.54a1.149,1.149,0,0,0,.824.342,1.209,1.209,0,0,0,.793-.308l3.313-3.064a1.167,1.167,0,0,0-1.587-1.711Z" transform="translate(-935.936 -142.663)" fill="#fff"/>
</svg>
