<svg xmlns="http://www.w3.org/2000/svg" width="35" height="30.333" viewBox="0 0 35 30.333">
  <path id="Path_212" data-name="Path 212" d="M1023.642,154.113a5.056,5.056,0,1,0,5.055,5.056A5.055,5.055,0,0,0,1023.642,154.113Zm0,7.778a2.722,2.722,0,1,1,2.722-2.722A2.722,2.722,0,0,1,1023.642,161.89Zm11.278-6.611v7.778a1.167,1.167,0,0,1-2.333,0v-7.778a1.167,1.167,0,0,1,2.333,0Zm-18.886,10.908a1.167,1.167,0,0,1-.062,1.649l-3.313,3.064a1.225,1.225,0,0,1-.793.308,1.162,1.162,0,0,1-.824-.342l-1.54-1.54a1.167,1.167,0,1,1,1.556-1.739q.049.044.093.093l.747.747,2.489-2.3A1.166,1.166,0,0,1,1016.034,166.187Zm15.386-20.63h-15.556c-5.678,0-8.944,3.267-8.944,8.944v9.512a7.32,7.32,0,0,0-1.556,4.488,7.158,7.158,0,0,0,1.073,3.8,7.337,7.337,0,0,0,12.308.482h12.675c5.678,0,8.944-3.267,8.944-8.944V154.5C1040.364,148.824,1037.1,145.557,1031.42,145.557Zm-16.078,27.288a5.042,5.042,0,0,1-6.913-1.745,4.928,4.928,0,0,1-.731-2.6,5.056,5.056,0,1,1,10.111,0,4.984,4.984,0,0,1-.731,2.613A5.062,5.062,0,0,1,1015.341,172.845Zm22.689-9.01c0,4.449-2.162,6.611-6.611,6.611h-11.542a7.306,7.306,0,0,0,.265-1.944,7.389,7.389,0,0,0-7.389-7.389,7.3,7.3,0,0,0-3.5.919V154.5c0-4.449,2.162-6.611,6.611-6.611h15.556c4.449,0,6.611,2.162,6.611,6.611Z" transform="translate(-1005.364 -145.557)" fill="#fff"/>
</svg>
