<svg xmlns="http://www.w3.org/2000/svg" width="35" height="35" viewBox="0 0 35 35">
  <path id="Path_211" data-name="Path 211" d="M944.608,165.065a15.022,15.022,0,0,1-3.679-.472,1.231,1.231,0,0,0-.052-.318,44.71,44.71,0,0,1-1.537-6.106,47.927,47.927,0,0,0,5.261.322,1.221,1.221,0,1,0,0-2.442,45.472,45.472,0,0,1-5.641-.391,45.567,45.567,0,0,1,0-11.29,45.576,45.576,0,0,1,11.291,0,45.451,45.451,0,0,1,.391,5.639,1.221,1.221,0,1,0,2.442.008v-.008a47.936,47.936,0,0,0-.329-5.261,44.818,44.818,0,0,1,6.113,1.538,1.18,1.18,0,0,0,.329.054,15.044,15.044,0,0,1,.469,3.669,1.221,1.221,0,0,0,2.442,0,17.5,17.5,0,1,0-17.5,17.5,1.221,1.221,0,1,0,0-2.442Zm13.569-21.554a47.03,47.03,0,0,0-5.744-1.321,47.554,47.554,0,0,0-1.329-5.752A15.093,15.093,0,0,1,958.177,143.511Zm-9.884-8.089a1.163,1.163,0,0,0,.039.32,45.429,45.429,0,0,1,1.542,6.124,47.953,47.953,0,0,0-10.536,0,44.633,44.633,0,0,1,1.54-6.123,1.164,1.164,0,0,0,.04-.319,14.581,14.581,0,0,1,7.375,0Zm-10.4,1.119a1.1,1.1,0,0,0,.161.035,47,47,0,0,0-1.257,5.61,47.1,47.1,0,0,0-5.762,1.324A15.091,15.091,0,0,1,937.9,136.541Zm-1.445,18.736a45.168,45.168,0,0,1-6.116-1.543,1.2,1.2,0,0,0-.313-.039,14.583,14.583,0,0,1,0-7.372,1.179,1.179,0,0,0,.316-.039,44.649,44.649,0,0,1,6.114-1.538A48.031,48.031,0,0,0,936.453,155.277Zm-5.314,1.432a1.266,1.266,0,0,0,.033-.154,47.72,47.72,0,0,0,5.628,1.265,46.977,46.977,0,0,0,1.258,5.62,1.186,1.186,0,0,0-.157.034A15.089,15.089,0,0,1,931.139,156.709Zm29.719-.579a7.206,7.206,0,0,1,1.225,4.064,7.3,7.3,0,1,1-7.428-7.3,1.208,1.208,0,0,1,.2-1.582,1.224,1.224,0,0,1,1.722.116l2.035,2.328c.011.015.013.034.026.049s.031.023.044.039a13.334,13.334,0,0,0,.18.389,1.268,1.268,0,0,1,.029.238,1.129,1.129,0,0,1,.008.225,1.443,1.443,0,0,1-.06.226,1.283,1.283,0,0,1-.08.217l-.262.342a.4.4,0,0,1-.05.031c-.013.009-.019.027-.034.037l-2.378,1.726a1.215,1.215,0,0,1-1.481-1.926,4.867,4.867,0,1,0,5.094,4.845,4.78,4.78,0,0,0-.817-2.7,1.222,1.222,0,0,1,2.027-1.364Z" transform="translate(-927.108 -132.507)" fill="#fff"/>
</svg>
