<svg xmlns="http://www.w3.org/2000/svg" width="35" height="35" viewBox="0 0 35 35">
  <g id="Group_2157" data-name="Group 2157" transform="translate(-335.883 -369.117)">
    <path id="Path_2094" data-name="Path 2094" d="M362.532,380.3h-8.547a1.221,1.221,0,0,0,0,2.442h8.547a1.221,1.221,0,0,0,0-2.442Z" fill="#fff"/>
    <path id="Path_2095" data-name="Path 2095" d="M348.237,378.235l-2.8,2.8-.358-.358a1.221,1.221,0,0,0-1.726,1.725l1.221,1.221a1.206,1.206,0,0,0,.863.358,1.218,1.218,0,0,0,.858-.358l3.662-3.663a1.221,1.221,0,0,0-1.725-1.725Z" fill="#fff"/>
    <path id="Path_2096" data-name="Path 2096" d="M362.532,391.7h-8.547a1.221,1.221,0,0,0,0,2.442h8.547a1.221,1.221,0,0,0,0-2.442Z" fill="#fff"/>
    <path id="Path_2097" data-name="Path 2097" d="M348.237,389.63l-2.8,2.8-.358-.359a1.221,1.221,0,0,0-1.726,1.726l1.221,1.221a1.216,1.216,0,0,0,1.721,0l3.662-3.663a1.221,1.221,0,0,0-1.725-1.726Z" fill="#fff"/>
    <path id="Path_2098" data-name="Path 2098" d="M358.266,369.117H348.5c-8.84,0-12.616,3.777-12.616,12.616V391.5c0,8.839,3.776,12.616,12.616,12.616h9.767c8.84,0,12.617-3.777,12.617-12.616v-9.768C370.883,372.894,367.106,369.117,358.266,369.117ZM368.441,391.5c0,7.5-2.67,10.174-10.175,10.174H348.5c-7.505,0-10.174-2.67-10.174-10.174v-9.768c0-7.5,2.669-10.174,10.174-10.174h9.767c7.505,0,10.175,2.67,10.175,10.174Z" fill="#fff"/>
  </g>
</svg>
