<svg xmlns="http://www.w3.org/2000/svg" width="35" height="33.659" viewBox="0 0 35 33.659">
  <path id="Path_2092" data-name="Path 2092" d="M320.53,429.837c-.169-1.814-.552-3.7-2.382-4.745l-.681-3.252h1.146a1.221,1.221,0,1,0,0-2.443h-1.628l-.026,0-.619-2.96c-.6-2.838-1.821-5.463-6.667-5.463H298.242c-4.848,0-6.069,2.625-6.667,5.465l-.619,2.959-.026,0H289.3a1.221,1.221,0,0,0,0,2.443h1.146l-.679,3.252c-1.832,1.041-2.215,2.933-2.384,4.747l-.914,9.933a4,4,0,0,0-.013.417,4.5,4.5,0,0,0,4.49,4.449h3.109c2.633,0,3.135-1.5,3.47-2.513l.327-.977c.376-1.127.464-1.4,1.935-1.4h8.338c1.457,0,1.511.158,1.935,1.4l.329.984c.332,1,.834,2.506,3.469,2.506h3.061c.135,0,.267,0,.409-.015a4.5,4.5,0,0,0,4.113-4.858v-.011Zm-28.1-5.555,1.532-7.336c.448-2.13.988-3.526,4.276-3.526h4.494v1.091h-1.221a1.221,1.221,0,0,0,0,2.443H306.4a1.221,1.221,0,0,0,0-2.443h-1.221v-1.091h4.494c3.288,0,3.827,1.4,4.276,3.522l1.532,7.339H292.433Zm26.094,17.185a2.036,2.036,0,0,1-1.392.721c-.072,0-.143.007-.215.007h-3.061c-.873,0-.878-.015-1.153-.842l-.339-1.013c-.586-1.716-1.272-3.03-4.24-3.03h-8.338c-3.231,0-3.822,1.772-4.252,3.065l-.331.992c-.272.814-.277.829-1.15.829h-3.1a2.061,2.061,0,0,1-2.06-2.039,1.506,1.506,0,0,1,0-.179l.912-9.916c.2-2.192.464-3.337,3.75-3.337h20.779c3.288,0,3.547,1.145,3.75,3.335l.912,9.911A2.037,2.037,0,0,1,318.527,441.467Zm-18.233-9.45a1.221,1.221,0,0,1-1.221,1.221h-4.885a1.221,1.221,0,0,1,0-2.443h4.885A1.222,1.222,0,0,1,300.293,432.017Zm14.656,0a1.221,1.221,0,0,1-1.221,1.221h-4.885a1.221,1.221,0,0,1,0-2.443h4.885A1.222,1.222,0,0,1,314.949,432.017Z" transform="translate(-286.457 -410.978)" fill="#fff"/>
</svg>
