<svg xmlns="http://www.w3.org/2000/svg" width="35" height="34.999" viewBox="0 0 35 34.999">
  <path id="Path_2093" data-name="Path 2093" d="M286.068,387.1v-8.133a8.894,8.894,0,0,0-7.005-9.146,7.173,7.173,0,0,0-1.811-3.426l-2.927-2.928a7.075,7.075,0,0,0-9.873.016l-5.189,5.351a4.481,4.481,0,0,0-.882,1.063,8.68,8.68,0,0,0-7.282,9.07v1.627a1.219,1.219,0,0,0,2.439,0v-1.627l0-.063a6.251,6.251,0,0,1,5.763-6.7.641.641,0,0,0,.244-.049,2.421,2.421,0,0,1,.911-.1H277.87a6.524,6.524,0,0,1,5.744,6.506h-3.646a4.473,4.473,0,0,0,0,8.945h3.66c0,.163.011.327,0,.49a6.479,6.479,0,0,1-6.912,6.016h-8.133a1.22,1.22,0,0,0,0,2.44h8.133a8.853,8.853,0,0,0,9.352-9.352ZM261.9,369.611l4.3-4.424a4.584,4.584,0,0,1,6.408,0l2.928,2.928a4.364,4.364,0,0,1,.943,1.5Zm16.037,13.418A2.034,2.034,0,0,1,279.968,381h3.66v4.066h-3.66A2.033,2.033,0,0,1,277.935,383.029Zm-19.436-.406a6.419,6.419,0,0,0-5.3,10.048,1.08,1.08,0,0,0-.117.072l-1.626,1.626a1.226,1.226,0,0,0,0,1.724,1.217,1.217,0,0,0,1.724,0l1.626-1.626a1.184,1.184,0,0,0,.073-.116,6.423,6.423,0,1,0,3.621-11.728Zm0,10.409a3.985,3.985,0,1,1,3.985-3.985A3.985,3.985,0,0,1,258.5,393.032Z" transform="translate(-251.083 -361.464)" fill="#fff"/>
</svg>
