<svg xmlns="http://www.w3.org/2000/svg" width="45" height="12.587" viewBox="0 0 45 12.587">
  <g id="paypal-logo" transform="translate(0 -19.229)">
    <g id="Group_1610" data-name="Group 1610" transform="translate(0 19.229)">
      <g id="Group_1609" data-name="Group 1609">
        <path id="Path_1908" data-name="Path 1908" d="M8.886,20.581a2.01,2.01,0,0,0-.738-.8,3.455,3.455,0,0,0-1.173-.431,9.589,9.589,0,0,0-1.594-.126l-2.82,0a.706.706,0,0,0-.649.515L.015,28.01a.4.4,0,0,0,.408.513h1.35a.691.691,0,0,0,.648-.513L2.885,26a.692.692,0,0,1,.647-.512h.387a6.4,6.4,0,0,0,3.848-1.015A3.161,3.161,0,0,0,9.146,21.8,2.512,2.512,0,0,0,8.886,20.581Zm-2.912,2.7a2.84,2.84,0,0,1-1.707.448h-.33a.4.4,0,0,1-.41-.515l.406-1.755a.683.683,0,0,1,.643-.512l.443,0a2.161,2.161,0,0,1,1.174.263.893.893,0,0,1,.389.8A1.462,1.462,0,0,1,5.974,23.281Z" transform="translate(0 -19.229)" fill="#5e5b88"/>
      </g>
    </g>
    <g id="Group_1616" data-name="Group 1616" transform="translate(8.396 21.332)">
      <g id="Group_1615" data-name="Group 1615">
        <path id="Path_1911" data-name="Path 1911" d="M15.539,21.8a5.125,5.125,0,0,0-2.414-.431,10.666,10.666,0,0,0-1.634.127c-.4.062-.444.074-.692.128a.792.792,0,0,0-.594.625l-.165.68c-.093.434.156.417.261.381a7.018,7.018,0,0,1,.807-.238,5.789,5.789,0,0,1,1.265-.169,3.334,3.334,0,0,1,1.228.173.62.62,0,0,1,.407.614l-.024.191L13.79,24c-.766.048-1.32.119-1.992.216a6.177,6.177,0,0,0-1.712.471,2.662,2.662,0,0,0-1.163.917,2.5,2.5,0,0,0-.387,1.412,1.668,1.668,0,0,0,.55,1.282,2.064,2.064,0,0,0,1.423.486,3.882,3.882,0,0,0,.848-.079l.654-.225.554-.307.509-.336.007.01-.051.216,0,.009v0a.4.4,0,0,0,.361.506l0,.006h1.254l.018-.008a.7.7,0,0,0,.581-.506l.984-4.262.051-.347.024-.326A1.425,1.425,0,0,0,15.539,21.8Zm-2.177,4.792-.21.277-.531.274a1.891,1.891,0,0,1-.706.152,1.62,1.62,0,0,1-.769-.147l-.261-.507a1.012,1.012,0,0,1,.2-.659l.572-.389a4.951,4.951,0,0,1,.89-.2c.309-.038.919-.108,1-.11l.093.164C13.617,25.539,13.444,26.263,13.361,26.589Z" transform="translate(-8.537 -21.367)" fill="#5e5b88"/>
      </g>
    </g>
    <g id="Group_1618" data-name="Group 1618" transform="translate(32.923 21.337)">
      <g id="Group_1617" data-name="Group 1617">
        <path id="Path_1912" data-name="Path 1912" d="M40.477,21.8a5.135,5.135,0,0,0-2.413-.432,10.281,10.281,0,0,0-1.633.13c-.405.059-.446.072-.7.125a.79.79,0,0,0-.592.626l-.165.679c-.092.434.151.414.266.381a8,8,0,0,1,.8-.239,6.039,6.039,0,0,1,1.268-.169,3.316,3.316,0,0,1,1.225.174.619.619,0,0,1,.407.613l-.021.19L38.732,24c-.774.046-1.329.117-1.994.214a6.18,6.18,0,0,0-1.713.471,2.66,2.66,0,0,0-1.163.919,2.467,2.467,0,0,0-.388,1.406,1.65,1.65,0,0,0,.553,1.284,2.066,2.066,0,0,0,1.42.489,3.762,3.762,0,0,0,.847-.08l.652-.222.559-.307.506-.34.009.011-.046.218,0,0,0,0a.4.4,0,0,0,.359.506l0,0h1.253l.021-.007a.691.691,0,0,0,.574-.509l.987-4.256.052-.349.029-.327A1.423,1.423,0,0,0,40.477,21.8ZM38.3,26.6l-.219.28-.526.272a1.913,1.913,0,0,1-.7.152,1.573,1.573,0,0,1-.768-.148l-.264-.5a1.055,1.055,0,0,1,.193-.661,1.384,1.384,0,0,1,.578-.388,5.016,5.016,0,0,1,.889-.2c.307-.038.915-.11.993-.111l.1.164C38.559,25.546,38.385,26.267,38.3,26.6Z" transform="translate(-33.475 -21.372)" fill="#5e5b88"/>
      </g>
    </g>
    <g id="Group_1620" data-name="Group 1620" transform="translate(24.522 19.259)">
      <g id="Group_1619" data-name="Group 1619">
        <path id="Path_1913" data-name="Path 1913" d="M33.82,20.612a2.089,2.089,0,0,0-.744-.8,3.314,3.314,0,0,0-1.173-.431,9.284,9.284,0,0,0-1.588-.124l-2.824,0a.7.7,0,0,0-.644.513l-1.9,8.267a.4.4,0,0,0,.407.512l1.352,0a.7.7,0,0,0,.649-.511l.457-2.007a.7.7,0,0,1,.649-.512h.387a6.428,6.428,0,0,0,3.857-1.014,3.2,3.2,0,0,0,1.373-2.682A2.634,2.634,0,0,0,33.82,20.612Zm-2.912,2.7a2.875,2.875,0,0,1-1.7.443h-.336a.4.4,0,0,1-.413-.514l.409-1.752a.687.687,0,0,1,.645-.512l.438,0a2.186,2.186,0,0,1,1.174.262.9.9,0,0,1,.392.8A1.482,1.482,0,0,1,30.908,23.316Z" transform="translate(-24.934 -19.259)" fill="#5e5b88"/>
      </g>
    </g>
    <g id="Group_1622" data-name="Group 1622" transform="translate(40.909 19.332)">
      <g id="Group_1621" data-name="Group 1621">
        <path id="Path_1914" data-name="Path 1914" d="M45.674,19.841a.4.4,0,0,0-.405-.507h-1.21a.685.685,0,0,0-.58.41l-.067.1-.061.268L41.66,27.8l-.055.236,0,.006a.383.383,0,0,0,.339.48l.021.029h1.256a.686.686,0,0,0,.582-.417l.065-.1,1.808-8.194Z" transform="translate(-41.595 -19.334)" fill="#5e5b88"/>
      </g>
    </g>
    <g id="Group_1624" data-name="Group 1624" transform="translate(16.615 21.435)">
      <g id="Group_1623" data-name="Group 1623">
        <path id="Path_1915" data-name="Path 1915" d="M24.853,21.472c-.32,0-1.619,0-1.619,0a1.171,1.171,0,0,0-.85.515s-1.934,3.318-2.121,3.652l-.224,0-.6-3.626a.744.744,0,0,0-.736-.529l-1.21,0a.4.4,0,0,0-.4.515s.919,5.227,1.1,6.458c.086.679-.011.8-.011.8l-1.2,2.083c-.177.283-.082.514.209.514l1.4,0a1.13,1.13,0,0,0,.847-.513l5.38-9.1S25.333,21.461,24.853,21.472Z" transform="translate(-16.893 -21.472)" fill="#5e5b88"/>
      </g>
    </g>
  </g>
</svg>
