<svg id="Mada_Logo" xmlns="http://www.w3.org/2000/svg" width="45" height="15.006" viewBox="0 0 45 15.006">
  <rect id="Rectangle_182" data-name="Rectangle 182" width="19.035" height="6.341" transform="translate(0 8.653)" fill="#5e5b88"/>
  <rect id="Rectangle_183" data-name="Rectangle 183" width="19.035" height="6.347" fill="#5e5b88"/>
  <path id="Path_1902" data-name="Path 1902" d="M619.161,138.906l-.085.017a2.776,2.776,0,0,1-.616.079c-.5,0-1.085-.254-1.085-1.453,0-.616.1-1.436,1.029-1.436h.006a2.784,2.784,0,0,1,.678.13l.073.023v2.639Zm.153-5.974-.153.028v2.216l-.136-.04-.04-.011a3.12,3.12,0,0,0-.842-.147c-1.854,0-2.244,1.4-2.244,2.577a2.286,2.286,0,0,0,2.481,2.538,5.029,5.029,0,0,0,1.656-.232.732.732,0,0,0,.622-.8V132.7c-.441.079-.9.158-1.345.232" transform="translate(-581.09 -125.2)" fill="#5e5b88"/>
  <path id="Path_1903" data-name="Path 1903" d="M717.793,176.5l-.079.023-.283.073a2.946,2.946,0,0,1-.684.107c-.435,0-.7-.215-.7-.582,0-.237.107-.639.82-.639h.921Zm-.65-4a6.254,6.254,0,0,0-1.888.328l-.475.141.158,1.074.463-.153a5.45,5.45,0,0,1,1.543-.26c.2,0,.825,0,.825.673v.294h-.865c-1.577,0-2.306.5-2.306,1.583,0,.921.673,1.475,1.8,1.475a5.828,5.828,0,0,0,1.255-.17l.023-.006.023.006.141.023c.441.079.9.158,1.345.243v-3.527c0-1.142-.69-1.724-2.046-1.724" transform="translate(-674.212 -162.751)" fill="#5e5b88"/>
  <path id="Path_1904" data-name="Path 1904" d="M523.493,176.5l-.079.023-.283.073a2.9,2.9,0,0,1-.684.107c-.435,0-.7-.215-.7-.582,0-.237.107-.639.814-.639h.921l.006,1.017Zm-.644-4a6.226,6.226,0,0,0-1.888.328l-.475.141.158,1.074.464-.153a5.449,5.449,0,0,1,1.543-.26c.2,0,.825,0,.825.673v.294h-.865c-1.577,0-2.312.5-2.312,1.583,0,.921.673,1.475,1.809,1.475a5.828,5.828,0,0,0,1.255-.17l.023-.006.023.006.136.023c.447.079.9.158,1.345.249v-3.527c.006-1.153-.684-1.729-2.04-1.729" transform="translate(-490.893 -162.751)" fill="#5e5b88"/>
  <path id="Path_1905" data-name="Path 1905" d="M383,172.606a3.814,3.814,0,0,0-1.532.339l-.057.028-.051-.04a2.319,2.319,0,0,0-1.373-.333,5.619,5.619,0,0,0-1.622.243c-.48.147-.667.379-.667.814v4.03h1.5v-3.725l.073-.023a1.913,1.913,0,0,1,.661-.119.6.6,0,0,1,.656.684v3.188h1.481v-3.25a1.094,1.094,0,0,0-.045-.328l-.051-.1.1-.045a1.782,1.782,0,0,1,.735-.153.6.6,0,0,1,.656.684v3.188h1.475v-3.335c0-1.181-.633-1.752-1.944-1.752" transform="translate(-356.353 -162.845)" fill="#5e5b88"/>
  <path id="Path_1906" data-name="Path 1906" d="M590.542,4.137a5.129,5.129,0,0,1-.876-.079l-.085-.017V1.865a1.064,1.064,0,0,0-.04-.311l-.045-.09.1-.04c.023-.011.045-.017.073-.028l.017-.011.1-.034a.144.144,0,0,1,.04-.011,3.51,3.51,0,0,1,.774-.09h.006c.921,0,1.029.82,1.029,1.436-.006,1.2-.6,1.453-1.091,1.453M590.536,0h-.04a2.663,2.663,0,0,0-2.069.7,1.414,1.414,0,0,0-.271.842h0V3.787a.664.664,0,0,1-.045.283l-.051.1h-2.73V2.606h-.006A2.325,2.325,0,0,0,582.912.057h-1.373c-.057.4-.1.684-.158,1.085h1.368c.718,0,1.1.61,1.1,1.549V4.261l-.1-.051a1.037,1.037,0,0,0-.322-.045h-2.362c-.045.3-.1.69-.164,1.08h7.263c.249-.051.537-.1.786-.136a4.091,4.091,0,0,0,1.52.277,2.48,2.48,0,0,0,2.6-2.685A2.492,2.492,0,0,0,590.536,0" transform="translate(-548.068)" fill="#5e5b88"/>
  <path id="Path_1907" data-name="Path 1907" d="M386.087,6.944h.068c1.577,0,2.312-.52,2.312-1.8a1.651,1.651,0,0,0-1.8-1.656h-1.453a.626.626,0,0,1-.7-.667c0-.283.107-.633.82-.633h3.176c.068-.413.1-.673.164-1.085h-3.3c-1.537,0-2.312.644-2.312,1.718s.673,1.616,1.8,1.616h1.453a.686.686,0,0,1,.7.706.71.71,0,0,1-.814.729h-.243l-4.651-.011h-.848c-.718,0-1.221-.407-1.221-1.351v-.65c0-.983.39-1.594,1.221-1.594h1.379c.062-.418.1-.684.158-1.08h-1.882A2.358,2.358,0,0,0,377.7,3.773h0v.735a2.231,2.231,0,0,0,2.413,2.43h1.373l2.521.006h2.08Z" transform="translate(-356.353 -1.038)" fill="#5e5b88"/>
</svg>
