<svg xmlns="http://www.w3.org/2000/svg" width="45" height="13.853" viewBox="0 0 45 13.853">
  <g id="symbols" transform="translate(0 -16.554)">
    <g id="Group_1644" data-name="Group 1644" transform="translate(15.731 16.784)">
      <g id="Group_1643" data-name="Group 1643" transform="translate(0 0)">
        <path id="Path_1925" data-name="Path 1925" d="M19.009,16.8,16.722,30.22H20.38L22.669,16.8Z" transform="translate(-16.722 -16.799)" fill="#5e5b88"/>
      </g>
    </g>
    <g id="Group_1646" data-name="Group 1646" transform="translate(3.633 16.797)">
      <g id="Group_1645" data-name="Group 1645" transform="translate(0 0)">
        <path id="Path_1926" data-name="Path 1926" d="M12.893,16.815,9.311,25.967l-.382-1.382a14.36,14.36,0,0,0-5.067-5.564L7.138,30.214l3.87-.007,5.76-13.4Z" transform="translate(-3.862 -16.812)" fill="#5e5b88"/>
      </g>
    </g>
    <g id="Group_1648" data-name="Group 1648" transform="translate(0 16.67)">
      <g id="Group_1647" data-name="Group 1647" transform="translate(0 0)">
        <path id="Path_1927" data-name="Path 1927" d="M7.312,17.767a1.472,1.472,0,0,0-1.594-1.09H.047L0,16.944c4.413,1.071,7.333,3.65,8.545,6.752Z" transform="translate(0 -16.677)" fill="#5e5b88"/>
      </g>
    </g>
    <g id="Group_1650" data-name="Group 1650" transform="translate(21.678 16.554)">
      <g id="Group_1649" data-name="Group 1649">
        <path id="Path_1928" data-name="Path 1928" d="M30.456,19.357a6.753,6.753,0,0,1,2.738.514l.33.155.495-2.909a9.441,9.441,0,0,0-3.277-.564c-3.614,0-6.162,1.82-6.182,4.429-.024,1.928,1.815,3,3.2,3.646,1.425.659,1.9,1.077,1.9,1.665-.011.9-1.136,1.31-2.187,1.31a7.678,7.678,0,0,1-3.444-.7l-.471-.214-.515,3a11.584,11.584,0,0,0,4.075.715c3.845,0,6.344-1.8,6.37-4.586.016-1.525-.96-2.689-3.073-3.644-1.279-.623-2.062-1.037-2.055-1.665C28.36,19.954,29.024,19.357,30.456,19.357Z" transform="translate(-23.043 -16.554)" fill="#5e5b88"/>
      </g>
    </g>
    <g id="Group_1652" data-name="Group 1652" transform="translate(31.867 16.8)">
      <g id="Group_1651" data-name="Group 1651" transform="translate(0 0)">
        <path id="Path_1929" data-name="Path 1929" d="M44.047,16.815H41.221A1.82,1.82,0,0,0,39.3,17.929l-5.431,12.3h3.841s.627-1.654.769-2.016l4.684.006c.109.468.446,2.01.446,2.01h3.393Zm-4.511,8.65c.3-.77,1.457-3.751,1.457-3.751-.02.037.3-.776.487-1.281l.246,1.157.848,3.875Z" transform="translate(-33.874 -16.815)" fill="#5e5b88"/>
      </g>
    </g>
  </g>
</svg>
