<svg xmlns="http://www.w3.org/2000/svg" width="25" height="19.477" viewBox="0 0 25 19.477">
  <g id="surface1" transform="translate(356.848 49.848)">
    <path id="Path_1931" data-name="Path 1931" d="M27.653,16.815q-.15.117-.293.243a7.779,7.779,0,0,0,0,11.712q.143.125.293.243c.1-.079.2-.16.293-.243a7.779,7.779,0,0,0,0-11.712c-.1-.083-.194-.164-.293-.243m4.774-1.662a7.661,7.661,0,0,0-4.276,1.3c.062.051.126.1.186.155a8.381,8.381,0,0,1,0,12.618c-.061.052-.125.1-.187.155a7.662,7.662,0,0,0,4.276,1.3,7.761,7.761,0,0,0,0-15.523Zm-5.459,14.07c.06.052.124.1.187.155a7.664,7.664,0,0,1-4.277,1.3,7.761,7.761,0,0,1,0-15.523,7.664,7.664,0,0,1,4.277,1.3c-.063.051-.127.1-.187.155a8.382,8.382,0,0,0,0,12.618Zm-6.414,4.324a.622.622,0,1,1,.622.66A.617.617,0,0,1,20.554,33.547Zm1.661,0v-1.03h-.446v.25a.778.778,0,0,0-.648-.3,1.084,1.084,0,0,0,0,2.164.777.777,0,0,0,.648-.3v.25h.446Zm15.071,0a.622.622,0,1,1,.623.66A.617.617,0,0,1,37.286,33.547Zm1.661,0V31.689H38.5v1.078a.778.778,0,0,0-.648-.3,1.084,1.084,0,0,0,0,2.164.777.777,0,0,0,.648-.3v.25h.446Zm-11.2-.68a.511.511,0,0,1,.52.5H27.206A.528.528,0,0,1,27.751,32.866Zm.009-.4a1.083,1.083,0,0,0,.029,2.164,1.243,1.243,0,0,0,.842-.289l-.219-.332a.974.974,0,0,1-.6.216.571.571,0,0,1-.614-.5h1.523c0-.056.009-.112.009-.173A.987.987,0,0,0,27.76,32.465Zm5.385,1.082a.622.622,0,1,1,.622.66A.617.617,0,0,1,33.145,33.547Zm1.661,0v-1.03H34.36v.25a.778.778,0,0,0-.648-.3,1.084,1.084,0,0,0,0,2.164.777.777,0,0,0,.648-.3v.25h.446Zm-4.18,0a1.039,1.039,0,0,0,1.095,1.082,1.07,1.07,0,0,0,.738-.245l-.215-.362a.9.9,0,0,1-.536.185.661.661,0,0,1,0-1.32.9.9,0,0,1,.536.185l.215-.362a1.071,1.071,0,0,0-.738-.246A1.039,1.039,0,0,0,30.626,33.547Zm5.751-1.082a.6.6,0,0,0-.541.3v-.25h-.442v2.061h.446V33.422c0-.34.146-.531.438-.531a.727.727,0,0,1,.279.052l.137-.423A.956.956,0,0,0,36.377,32.465Zm-11.956.216a1.53,1.53,0,0,0-.837-.216c-.519,0-.853.25-.853.66,0,.336.248.543.708.607l.21.03c.245.035.36.1.36.216,0,.16-.163.25-.468.25a1.086,1.086,0,0,1-.682-.216l-.21.349a1.477,1.477,0,0,0,.889.267c.592,0,.936-.28.936-.672,0-.362-.27-.552-.717-.616l-.21-.03c-.193-.026-.347-.065-.347-.2s.146-.241.391-.241a1.316,1.316,0,0,1,.639.176Zm5.755-.216a.6.6,0,0,0-.541.3v-.25h-.443v2.061h.447V33.422c0-.34.146-.531.438-.531a.73.73,0,0,1,.279.052l.137-.423A.947.947,0,0,0,30.176,32.465Zm-3.807.052H25.64v-.625h-.451v.625h-.417v.409h.417v.94c0,.479.184.763.713.763a1.042,1.042,0,0,0,.557-.159l-.128-.384a.825.825,0,0,1-.395.117c-.224,0-.3-.138-.3-.345v-.931h.729ZM19.7,34.578V33.284a.766.766,0,0,0-.806-.819.794.794,0,0,0-.721.367.752.752,0,0,0-.678-.367.678.678,0,0,0-.6.307v-.254h-.446v2.061h.45V33.435a.481.481,0,0,1,.5-.547c.3,0,.447.195.447.543v1.147h.45V33.435a.485.485,0,0,1,.5-.547c.305,0,.451.195.451.543v1.147h.45" transform="translate(-372 -65)" fill="#5e5b88"/>
  </g>
</svg>
