<svg xmlns="http://www.w3.org/2000/svg" width="45" height="18.477" viewBox="0 0 45 18.477">
  <path id="XMLID_34_" d="M8.281,2.382A2.764,2.764,0,0,1,6.066,3.428a3.134,3.134,0,0,1,.791-2.294A3.3,3.3,0,0,1,9.055,0a3.338,3.338,0,0,1-.774,2.382M9.046,3.6c-1.222-.07-2.268.694-2.848.694S4.721,3.63,3.754,3.648A3.611,3.611,0,0,0,.686,5.511c-1.319,2.268-.343,5.626.932,7.472.624.914,1.371,1.916,2.356,1.881.932-.035,1.3-.607,2.426-.607s1.459.607,2.444.589c1.02-.018,1.661-.914,2.285-1.828a8.018,8.018,0,0,0,1.02-2.1A3.312,3.312,0,0,1,10.162,7.9a3.382,3.382,0,0,1,1.609-2.83A3.484,3.484,0,0,0,9.046,3.6M16.1,1.046v13.7h2.127V10.065h2.945a4.35,4.35,0,0,0,4.58-4.518,4.3,4.3,0,0,0-4.509-4.5H16.1Zm2.127,1.793h2.452c1.846,0,2.9.984,2.9,2.716S22.53,8.28,20.675,8.28H18.231Zm11.41,12.016a3.519,3.519,0,0,0,3.138-1.749h.044V14.75h1.969V7.929c0-1.978-1.582-3.252-4.017-3.252-2.259,0-3.929,1.292-3.991,3.068H28.7a1.867,1.867,0,0,1,2.013-1.4c1.3,0,2.031.607,2.031,1.723v.756l-2.655.158c-2.47.149-3.806,1.16-3.806,2.918C26.283,13.677,27.663,14.855,29.641,14.855Zm.571-1.626c-1.134,0-1.855-.545-1.855-1.38,0-.861.694-1.362,2.022-1.442l2.365-.149v.774A2.312,2.312,0,0,1,30.212,13.229Zm7.208,5.248c2.074,0,3.05-.791,3.9-3.191L45.059,4.808H42.9l-2.505,8.1h-.044l-2.505-8.1H35.618l3.6,9.977-.193.607a1.691,1.691,0,0,1-1.793,1.424c-.167,0-.492-.018-.624-.035v1.644A5.859,5.859,0,0,0,37.42,18.477Z" transform="translate(-0.059)" fill="#5e5b88"/>
</svg>
