<svg xmlns="http://www.w3.org/2000/svg" width="119.11" height="58.72" viewBox="0 0 119.11 58.72">
  <g id="Imam-Abdulrahman-Bin-Faisal-University-01" transform="translate(-99.3 -302.561)" style="isolation: isolate">
    <g id="Group_2277" data-name="Group 2277" transform="translate(99.3 347.971)">
      <path id="Path_2480" data-name="Path 2480" d="M99.5,671.4h.744v3.777H99.5Z" transform="translate(-99.47 -661.956)" fill="#2e3e5f"/>
      <path id="Path_2481" data-name="Path 2481" d="M109.83,671.4h1.2l.892,2.855h0l.892-2.855h1.2v3.777h-.744v-3.108h0l-1,3.108h-.744l-1-3.123h0v3.123H109.8l.03-3.777Z" transform="translate(-108.238 -661.956)" fill="#2e3e5f"/>
      <path id="Path_2482" data-name="Path 2482" d="M142.972,671.4h.848l1.472,3.777h-.833l-.327-.863h-1.517l-.327.863H141.5Zm.416.744h0l-.55,1.562h1.1Z" transform="translate(-135.224 -661.956)" fill="#2e3e5f"/>
      <path id="Path_2483" data-name="Path 2483" d="M170.045,671.4h1.2l.892,2.855h0l.892-2.855h1.2v3.777h-.744v-3.108h0l-1,3.108h-.744l-1.011-3.108h0v3.108H170V671.4Z" transform="translate(-159.486 -661.956)" fill="#2e3e5f"/>
      <path id="Path_2484" data-name="Path 2484" d="M213.372,671.4h.848l1.472,3.763h-.833l-.327-.863H213l-.327.877H211.9Zm.416.744h0l-.55,1.562h1.1Z" transform="translate(-195.154 -661.956)" fill="#2e3e5f"/>
      <path id="Path_2485" data-name="Path 2485" d="M240.7,671.4h1.324a2.579,2.579,0,0,1,.476.045,1.148,1.148,0,0,1,.372.149.858.858,0,0,1,.268.3.83.83,0,0,1,.089.461.732.732,0,0,1-.059.312.87.87,0,0,1-.149.253.906.906,0,0,1-.238.178,1.755,1.755,0,0,1-.3.1h0a2.8,2.8,0,0,1,.342.074.844.844,0,0,1,.268.179.654.654,0,0,1,.178.268.668.668,0,0,1,.059.342,1.187,1.187,0,0,1-.1.506,1.057,1.057,0,0,1-.283.342,1.512,1.512,0,0,1-.416.193,1.958,1.958,0,0,1-.506.06H240.73l-.03-3.763Zm.744,1.517h.565a.654.654,0,0,0,.223-.074.464.464,0,0,0,.164-.134.338.338,0,0,0,.059-.238.544.544,0,0,0-.059-.268.464.464,0,0,0-.164-.134.617.617,0,0,0-.238-.045h-.535v.922Zm0,1.651h.372c.089,0,.178-.015.268-.015a1.259,1.259,0,0,0,.253-.074.378.378,0,0,0,.178-.164.556.556,0,0,0,.074-.268.777.777,0,0,0-.045-.268.407.407,0,0,0-.193-.193l-.119-.059a.432.432,0,0,0-.134-.03h-.639v1.086Z" transform="translate(-219.671 -661.956)" fill="#2e3e5f"/>
      <path id="Path_2486" data-name="Path 2486" d="M262.8,671.4h1.086a3.116,3.116,0,0,1,.372.015,3.213,3.213,0,0,1,.372.059,3.615,3.615,0,0,1,.372.119,1.9,1.9,0,0,1,.342.178,1.185,1.185,0,0,1,.312.3,1.269,1.269,0,0,1,.193.372,1.894,1.894,0,0,1,.1.416,4.2,4.2,0,0,1,.03.431,1.963,1.963,0,0,1-.164.877,1.559,1.559,0,0,1-.446.58,1.939,1.939,0,0,1-.684.327,2.891,2.891,0,0,1-.877.089H262.8V671.4Zm.744,3.168h.416a1.186,1.186,0,0,0,.506-.1,1.007,1.007,0,0,0,.387-.268,1.3,1.3,0,0,0,.253-.416,1.51,1.51,0,0,0,.089-.506,1.448,1.448,0,0,0-.089-.506,1.146,1.146,0,0,0-.253-.4,1.007,1.007,0,0,0-.387-.268,1.186,1.186,0,0,0-.506-.1h-.4v2.588Z" transform="translate(-238.484 -661.956)" fill="#2e3e5f"/>
      <path id="Path_2487" data-name="Path 2487" d="M288.545,671.315h.744v2.171a3.148,3.148,0,0,0,.03.387.939.939,0,0,0,.119.342.611.611,0,0,0,.238.238.806.806,0,0,0,.372.089.869.869,0,0,0,.387-.089.612.612,0,0,0,.238-.238.942.942,0,0,0,.119-.342,3.658,3.658,0,0,0,.03-.4V671.3h.744v2.409a1.945,1.945,0,0,1-.1.654,1.123,1.123,0,0,1-.3.446,1.192,1.192,0,0,1-.491.253,2.722,2.722,0,0,1-1.294,0,1.136,1.136,0,0,1-.476-.253,1.029,1.029,0,0,1-.3-.446,1.947,1.947,0,0,1-.1-.654V671.3Z" transform="translate(-260.362 -661.871)" fill="#2e3e5f"/>
      <path id="Path_2488" data-name="Path 2488" d="M315.1,671.4h.744v3.168h1.472v.61H315.1V671.4Z" transform="translate(-283.006 -661.956)" fill="#2e3e5f"/>
      <path id="Path_2489" data-name="Path 2489" d="M332.8,671.4h1.4a1.589,1.589,0,0,1,.372.045,1.346,1.346,0,0,1,.327.089.846.846,0,0,1,.268.178.917.917,0,0,1,.178.283,1.344,1.344,0,0,1,.059.416.8.8,0,0,1-.059.327.622.622,0,0,1-.164.268.777.777,0,0,1-.253.178.826.826,0,0,1-.312.089h0a.355.355,0,0,1,.134.045.649.649,0,0,1,.1.089.822.822,0,0,1,.089.119.529.529,0,0,1,.06.134l.595,1.472h-.833l-.461-1.175c-.03-.059-.045-.119-.074-.178a.4.4,0,0,0-.1-.119.267.267,0,0,0-.134-.06.914.914,0,0,0-.208-.015h-.238v1.591H332.8V671.4Zm.744,1.606h.446a1,1,0,0,0,.208-.03,1.029,1.029,0,0,0,.193-.074.292.292,0,0,0,.134-.134.24.24,0,0,0,.045-.134v-.149a.475.475,0,0,0-.074-.283.482.482,0,0,0-.193-.149,1.553,1.553,0,0,0-.253-.06h-.535v1.011Z" transform="translate(-298.074 -661.956)" fill="#2e3e5f"/>
      <path id="Path_2490" data-name="Path 2490" d="M354.087,671.4h.848l1.472,3.763h-.833l-.312-.863H353.73l-.342.877H352.6Zm.416.744h0l-.535,1.547h1.1Z" transform="translate(-314.929 -661.956)" fill="#2e3e5f"/>
      <path id="Path_2491" data-name="Path 2491" d="M381.5,671.4h.744v1.517h1.5V671.4h.744v3.777h-.744v-1.651h-1.5v1.651H381.5V671.4Z" transform="translate(-339.531 -661.956)" fill="#2e3e5f"/>
      <path id="Path_2492" data-name="Path 2492" d="M407.46,671.4h1.2l.892,2.855h0l.892-2.855h1.2v3.777h-.744v-3.108h0l-1.011,3.108h-.744l-1.011-3.108h0v3.108H407.4V671.4Z" transform="translate(-361.579 -661.956)" fill="#2e3e5f"/>
      <path id="Path_2493" data-name="Path 2493" d="M440.587,671.4h.848l1.472,3.763h-.833l-.327-.863h-1.532l-.327.877H439.1Zm.416.744h0l-.535,1.547h1.1Z" transform="translate(-388.565 -661.956)" fill="#2e3e5f"/>
      <path id="Path_2494" data-name="Path 2494" d="M467.53,671.4h.922l1.428,2.811h0V671.4h.744v3.777h-.937l-1.443-2.811h0v2.811H467.5V671.4Z" transform="translate(-412.741 -661.956)" fill="#2e3e5f"/>
      <path id="Path_2495" data-name="Path 2495" d="M504.2,671.4h1.324a2.579,2.579,0,0,1,.476.045,1.149,1.149,0,0,1,.372.149.734.734,0,0,1,.268.3.829.829,0,0,1,.089.461.732.732,0,0,1-.059.312.869.869,0,0,1-.149.253.9.9,0,0,1-.238.178,1.753,1.753,0,0,1-.3.1h0a2.8,2.8,0,0,1,.342.074.844.844,0,0,1,.268.179.654.654,0,0,1,.178.268.669.669,0,0,1,.059.342,1.186,1.186,0,0,1-.1.506,1.057,1.057,0,0,1-.283.342,1.512,1.512,0,0,1-.416.193,1.958,1.958,0,0,1-.506.06H504.2V671.4Zm.744,1.517h.565a.654.654,0,0,0,.223-.074.465.465,0,0,0,.164-.134.339.339,0,0,0,.059-.238.545.545,0,0,0-.059-.268.465.465,0,0,0-.164-.134.617.617,0,0,0-.238-.045h-.535v.922Zm0,1.651h.372c.089,0,.178-.015.268-.015a1.259,1.259,0,0,0,.253-.074.378.378,0,0,0,.178-.164.557.557,0,0,0,.074-.268.778.778,0,0,0-.045-.268.407.407,0,0,0-.193-.193l-.119-.059a.432.432,0,0,0-.134-.03h-.64v1.086Z" transform="translate(-443.983 -661.956)" fill="#2e3e5f"/>
      <path id="Path_2496" data-name="Path 2496" d="M525.9,671.4h.744v3.777H525.9Z" transform="translate(-462.456 -661.956)" fill="#2e3e5f"/>
      <path id="Path_2497" data-name="Path 2497" d="M536.015,671.4h.922l1.428,2.811h0V671.4h.744v3.777h-.922l-1.443-2.811h0v2.811H536l.015-3.777Z" transform="translate(-471.054 -661.956)" fill="#2e3e5f"/>
      <path id="Path_2498" data-name="Path 2498" d="M572.6,671.4h2.082v.595h-1.338v.922h1.264v.595h-1.264v1.666H572.6V671.4Z" transform="translate(-502.211 -661.956)" fill="#2e3e5f"/>
      <path id="Path_2499" data-name="Path 2499" d="M588.457,671.4h.848l1.472,3.763h-.833l-.327-.863h-1.532l-.327.877H587Zm.417.744h0l-.55,1.562h1.1Z" transform="translate(-514.469 -661.956)" fill="#2e3e5f"/>
      <path id="Path_2500" data-name="Path 2500" d="M615.3,671.4h.744v3.777H615.3Z" transform="translate(-538.561 -661.956)" fill="#2e3e5f"/>
      <path id="Path_2501" data-name="Path 2501" d="M627.142,671.844a1.553,1.553,0,0,0-.372-.119,1.712,1.712,0,0,0-.387-.045,1.3,1.3,0,0,0-.238.03.461.461,0,0,0-.193.089.421.421,0,0,0-.119.164.617.617,0,0,0-.045.238.286.286,0,0,0,.059.178.421.421,0,0,0,.149.134,1.361,1.361,0,0,0,.208.1l.253.1.268.119a1.412,1.412,0,0,1,.253.149.952.952,0,0,1,.223.193.919.919,0,0,1,.164.253.475.475,0,0,1,.045.208v.208a1.126,1.126,0,0,1-.119.535,1.073,1.073,0,0,1-.312.372,1.2,1.2,0,0,1-.446.193,2.187,2.187,0,0,1-.535.06c-.164-.015-.312-.03-.476-.06a4.45,4.45,0,0,1-.476-.1l.074-.684a1.427,1.427,0,0,0,.416.164,1.535,1.535,0,0,0,.446.059,1.142,1.142,0,0,0,.223-.03.518.518,0,0,0,.208-.089.782.782,0,0,0,.164-.149.388.388,0,0,0,.059-.223v-.119a.721.721,0,0,0-.045-.1l-.089-.089a.267.267,0,0,0-.1-.074c-.089-.045-.178-.089-.283-.134l-.283-.119-.149-.059-.149-.074a1.346,1.346,0,0,1-.238-.164,1.026,1.026,0,0,1-.164-.193,1.152,1.152,0,0,1-.1-.238.918.918,0,0,1-.03-.283,1.321,1.321,0,0,1,.03-.253,1.119,1.119,0,0,1,.074-.238.889.889,0,0,1,.134-.223,1.1,1.1,0,0,1,.193-.178,1.6,1.6,0,0,1,.431-.193,1.673,1.673,0,0,1,.476-.06c.149,0,.312.015.461.03a2.432,2.432,0,0,1,.446.1Z" transform="translate(-546.818 -661.701)" fill="#2e3e5f"/>
      <path id="Path_2502" data-name="Path 2502" d="M644.687,671.4h.848l1.472,3.763h-.833l-.327-.863H644.33l-.342.877H643.2Zm.416.744h0l-.535,1.547h1.1Z" transform="translate(-562.311 -661.956)" fill="#2e3e5f"/>
      <path id="Path_2503" data-name="Path 2503" d="M672.1,671.4h.744v3.168h1.472v.61H672.1V671.4Z" transform="translate(-586.913 -661.956)" fill="#2e3e5f"/>
      <path id="Path_2504" data-name="Path 2504" d="M699.844,671.315h.744v2.171a3.149,3.149,0,0,0,.03.387.941.941,0,0,0,.119.342.611.611,0,0,0,.238.238.806.806,0,0,0,.372.089.869.869,0,0,0,.387-.089.61.61,0,0,0,.238-.238.94.94,0,0,0,.119-.342,3.672,3.672,0,0,0,.03-.4V671.3h.744v2.409a1.945,1.945,0,0,1-.1.654,1.123,1.123,0,0,1-.3.446,1.192,1.192,0,0,1-.491.253,2.721,2.721,0,0,1-1.294,0,1.136,1.136,0,0,1-.476-.253,1.028,1.028,0,0,1-.3-.446,1.948,1.948,0,0,1-.1-.654V671.3Z" transform="translate(-610.494 -661.871)" fill="#2e3e5f"/>
      <path id="Path_2505" data-name="Path 2505" d="M726.115,671.4h.922l1.428,2.811h0V671.4h.744v3.777h-.922l-1.443-2.811h0v2.811H726.1l.015-3.777Z" transform="translate(-632.882 -661.956)" fill="#2e3e5f"/>
      <path id="Path_2506" data-name="Path 2506" d="M752.1,671.4h.744v3.777H752.1Z" transform="translate(-655.016 -661.956)" fill="#2e3e5f"/>
      <path id="Path_2507" data-name="Path 2507" d="M760.1,671.4h.8l.967,2.96h0l.952-2.96h.743l-1.234,3.777h-.922Z" transform="translate(-661.826 -661.956)" fill="#2e3e5f"/>
      <path id="Path_2508" data-name="Path 2508" d="M786.8,671.4h2.216v.595h-1.472v.922h1.338v.595h-1.338v1.056h1.472v.61H786.8V671.4Z" transform="translate(-684.555 -661.956)" fill="#2e3e5f"/>
      <path id="Path_2509" data-name="Path 2509" d="M806.415,671.4h1.4a1.582,1.582,0,0,1,.372.045,1.345,1.345,0,0,1,.327.089.778.778,0,0,1,.253.178.915.915,0,0,1,.178.283,1.341,1.341,0,0,1,.059.416.8.8,0,0,1-.059.327.623.623,0,0,1-.164.268.778.778,0,0,1-.253.178.826.826,0,0,1-.312.089h0a.355.355,0,0,1,.134.045.648.648,0,0,1,.1.089.814.814,0,0,1,.089.119.523.523,0,0,1,.059.134l.595,1.472h-.833l-.461-1.175c-.03-.06-.045-.119-.074-.178a.4.4,0,0,0-.1-.119.268.268,0,0,0-.134-.06.917.917,0,0,0-.208-.015h-.238v1.591H806.4V671.4Zm.744,1.606h.446a1,1,0,0,0,.208-.03.746.746,0,0,0,.193-.074.292.292,0,0,0,.134-.134.24.24,0,0,0,.045-.134v-.149a.476.476,0,0,0-.074-.283.483.483,0,0,0-.193-.149,1.565,1.565,0,0,0-.253-.06h-.506v1.011Z" transform="translate(-701.24 -661.956)" fill="#2e3e5f"/>
      <path id="Path_2510" data-name="Path 2510" d="M830.257,671.929a1.554,1.554,0,0,0-.372-.119,1.716,1.716,0,0,0-.387-.045,1.3,1.3,0,0,0-.238.03.459.459,0,0,0-.193.089.312.312,0,0,0-.119.164.616.616,0,0,0-.045.238.286.286,0,0,0,.06.178.42.42,0,0,0,.149.134,1.355,1.355,0,0,0,.208.1l.253.1.268.119a1.424,1.424,0,0,1,.253.149,2.591,2.591,0,0,1,.223.193.921.921,0,0,1,.164.253.474.474,0,0,1,.045.208v.208a1.128,1.128,0,0,1-.119.535,1.073,1.073,0,0,1-.312.372,1.2,1.2,0,0,1-.446.193,2.19,2.19,0,0,1-.535.06,2.745,2.745,0,0,1-.491-.045c-.164-.03-.312-.06-.476-.1l.074-.684a1.427,1.427,0,0,0,.416.164,1.538,1.538,0,0,0,.446.059,1.152,1.152,0,0,0,.223-.03.523.523,0,0,0,.208-.089.785.785,0,0,0,.164-.149.387.387,0,0,0,.06-.223v-.119a.74.74,0,0,0-.045-.1l-.089-.089a.455.455,0,0,0-.1-.074c-.089-.045-.179-.089-.283-.134l-.283-.119-.149-.06-.149-.074a1.339,1.339,0,0,1-.238-.164,1.019,1.019,0,0,1-.164-.193,1.159,1.159,0,0,1-.1-.238.916.916,0,0,1-.03-.282,1.365,1.365,0,0,1,.015-.253,1.122,1.122,0,0,1,.074-.238.887.887,0,0,1,.134-.223,1.1,1.1,0,0,1,.193-.179,1.6,1.6,0,0,1,.431-.193,1.636,1.636,0,0,1,.461-.059c.149,0,.312.015.461.03a2.419,2.419,0,0,1,.446.1Z" transform="translate(-719.713 -661.786)" fill="#2e3e5f"/>
      <path id="Path_2511" data-name="Path 2511" d="M848.8,671.4h.744v3.777H848.8Z" transform="translate(-737.334 -661.956)" fill="#2e3e5f"/>
      <path id="Path_2512" data-name="Path 2512" d="M857.771,671.995H856.7V671.4h2.915v.595h-1.086v3.183h-.743V672.01Z" transform="translate(-744.06 -661.956)" fill="#2e3e5f"/>
      <path id="Path_2513" data-name="Path 2513" d="M878.183,673.675,876.8,671.4h.878l.892,1.576.907-1.576h.8l-1.353,2.275v1.472h-.743v-1.472Z" transform="translate(-761.17 -661.956)" fill="#2e3e5f"/>
      <rect id="Rectangle_713" data-name="Rectangle 713" width="0.996" height="0.996" transform="translate(116.998 5.592)" fill="#2e3e5f"/>
      <rect id="Rectangle_714" data-name="Rectangle 714" width="1.368" height="5.101" transform="translate(90.094 0.015)" fill="#2e3e5f"/>
      <path id="Path_2514" data-name="Path 2514" d="M677.868,621.232V618.6H676.5v2.677h.788A3.533,3.533,0,0,0,677.868,621.232Z" transform="translate(-590.659 -617.009)" fill="#2e3e5f"/>
      <path id="Path_2515" data-name="Path 2515" d="M622.287,611.2a2.561,2.561,0,0,0-.1-.743,1.618,1.618,0,0,0-.327-.61,1.4,1.4,0,0,0-.565-.4,2.247,2.247,0,0,0-.892-.134h-1.829v2.96h-.877c-.654,0-1.324-.045-1.324-1.2V608H615v2.766c0,1.933.744,2.335,2.632,2.335h2.8a3.2,3.2,0,0,0,.744-.1,1.5,1.5,0,0,0,.982-.863A2.47,2.47,0,0,0,622.287,611.2Zm-1.234.684c-.164.372-.669.372-1.011.372h-.431v-2.082h.431a1.567,1.567,0,0,1,.892.223,1.254,1.254,0,0,1,.208.833,1.661,1.661,0,0,1-.089.654Z" transform="translate(-538.305 -607.985)" fill="#2e3e5f"/>
      <path id="Path_2516" data-name="Path 2516" d="M355,620.072V618.6h0v1.472Z" transform="translate(-316.972 -617.009)" fill="#2e3e5f"/>
      <path id="Path_2517" data-name="Path 2517" d="M359.21,619.729a.643.643,0,0,0,.059-.1,2.287,2.287,0,0,0,.149-.952,2.566,2.566,0,0,0-.1-.744,1.619,1.619,0,0,0-.327-.61,1.463,1.463,0,0,0-.55-.4,2.246,2.246,0,0,0-.892-.134H355.7v2.959h-1.026a4.227,4.227,0,0,1-.074.863h1.145l.059-.863h3.421Zm-2.454-2.082h.431a1.568,1.568,0,0,1,.892.223,1.254,1.254,0,0,1,.208.833,1.626,1.626,0,0,1-.089.654c-.164.372-.669.372-1.011.372h-.431v-2.082Z" transform="translate(-316.632 -615.46)" fill="#2e3e5f"/>
      <path id="Path_2518" data-name="Path 2518" d="M201.913,620.072V618.6h-1.368v1.2c0,.654-.045,1.13-.045,1.472h1.413Z" transform="translate(-185.45 -617.009)" fill="#2e3e5f"/>
      <rect id="Rectangle_715" data-name="Rectangle 715" width="0.996" height="0.996" transform="translate(94.987 0)" fill="#2e3e5f"/>
      <rect id="Rectangle_716" data-name="Rectangle 716" width="0.996" height="0.996" transform="translate(34.964 0)" fill="#2e3e5f"/>
      <rect id="Rectangle_717" data-name="Rectangle 717" width="0.996" height="0.996" transform="translate(18.426 0)" fill="#2e3e5f"/>
      <path id="Path_2519" data-name="Path 2519" d="M576.57,613.946l-1.725-2.246h-1.487l1.77,2.261-.922,1.338a1.941,1.941,0,0,1,.074-2.023l-.773-1.011a4.894,4.894,0,0,0-.431,1.443A3.667,3.667,0,0,0,570.8,616.3h1.145a1.472,1.472,0,0,1,1.145-1.413,2.832,2.832,0,0,0,.4,1.428h1.4Z" transform="translate(-500.679 -611.135)" fill="#2e3e5f"/>
      <rect id="Rectangle_718" data-name="Rectangle 718" width="0.996" height="0.996" transform="translate(96.311 0)" fill="#2e3e5f"/>
      <path id="Path_2520" data-name="Path 2520" d="M670.993,613.116h.506c1.5-.074,2.112-.58,2.112-2.32V608h-1.383v3.049c0,.8-.327,1.071-.744,1.16a3.8,3.8,0,0,1-.58.045H669v.863Z" transform="translate(-584.274 -607.985)" fill="#2e3e5f"/>
      <path id="Path_2521" data-name="Path 2521" d="M149.2,620.511l-1.1-1.011v2.543h1.1Z" transform="translate(-140.842 -617.775)" fill="#2e3e5f"/>
      <path id="Path_2522" data-name="Path 2522" d="M152.1,618.2h-.4l.4.357Z" transform="translate(-143.907 -616.668)" fill="#2e3e5f"/>
      <rect id="Rectangle_719" data-name="Rectangle 719" width="1.368" height="5.101" transform="translate(55.101 0.015)" fill="#2e3e5f"/>
      <path id="Path_2523" data-name="Path 2523" d="M449.982,611.049c0,.922-.431,1.13-.937,1.19v.193a5.289,5.289,0,0,1-.045.684c1.666-.045,2.335-.506,2.335-2.335V608h-1.368l.015,3.049Z" transform="translate(-396.993 -607.985)" fill="#2e3e5f"/>
      <path id="Path_2524" data-name="Path 2524" d="M339.251,621.247V618.6h-1.443v2.96c0,1.13-.61,1.249-1.264,1.264H336.5v.907h.045c1.606,0,2.409-.312,2.632-1.576a5.476,5.476,0,0,0,.074-.863Z" transform="translate(-301.224 -617.009)" fill="#2e3e5f"/>
      <path id="Path_2525" data-name="Path 2525" d="M116.859,613.685v.907c1.472-.03,2.246-.372,2.469-1.562H117.99l.059-.863H119.4V607.9H117.96v4.521c0,1.071-.55,1.234-1.16,1.264Z" transform="translate(-114.197 -607.9)" fill="#2e3e5f"/>
      <path id="Path_2526" data-name="Path 2526" d="M321.262,628.327h.045c-.639,0-1.264-.119-1.264-1.264V625.1H318.6v1.666c0,1.978.744,2.439,2.6,2.454h.045v-.892Z" transform="translate(-285.986 -622.542)" fill="#2e3e5f"/>
      <path id="Path_2527" data-name="Path 2527" d="M101.709,629.234h.253v-.907H101.9c-.61-.015-1.16-.178-1.16-1.264V625.1H99.3v1.666C99.315,628.684,100,629.175,101.709,629.234Z" transform="translate(-99.3 -622.542)" fill="#2e3e5f"/>
      <path id="Path_2528" data-name="Path 2528" d="M431.253,631.307V630.4H429.87v1.368c0,1.16-.669,1.2-1.324,1.2H428.1v.863h.52c1.636,0,2.424-.312,2.588-1.651a5.287,5.287,0,0,0,.045-.684v-.193Z" transform="translate(-379.201 -627.054)" fill="#2e3e5f"/>
      <path id="Path_2529" data-name="Path 2529" d="M741.624,616.669a1.4,1.4,0,0,0-.565-.4,2.245,2.245,0,0,0-.892-.134h-1.844v2.96h-3.614l1.413-1.086v-1.368l-2.216,1.725a6.255,6.255,0,0,0-1.4-1.1,2.087,2.087,0,0,1,2.141.074l1.591-1.264-.208-.074-.625.476a4.038,4.038,0,0,0-3.748.149h0v1.353a5.52,5.52,0,0,1,1.4,1.086h-2.811V616.1h-2.023a2.67,2.67,0,0,0-.967.134,1.559,1.559,0,0,0-.61.4,1.69,1.69,0,0,0-.357.61,2.5,2.5,0,0,0-.1.744,2.339,2.339,0,0,0,.164.952,1.454,1.454,0,0,0,.461.58,2.318,2.318,0,0,0,1.428.4h11.927a1.959,1.959,0,0,0,1.309-.4,1.774,1.774,0,0,0,.55-1.5,2.567,2.567,0,0,0-.1-.744A1.3,1.3,0,0,0,741.624,616.669ZM729.1,619.064h-.476c-.372,0-.907,0-1.1-.372a1.637,1.637,0,0,1-.1-.654,1.186,1.186,0,0,1,.223-.833,1.818,1.818,0,0,1,.967-.223h.476l.015,2.082Zm11.7-.372c-.164.372-.669.372-1.011.372h-.446v-2.082h.431a1.568,1.568,0,0,1,.892.223,1.254,1.254,0,0,1,.208.833A1.416,1.416,0,0,1,740.806,618.692Z" transform="translate(-632.955 -614.795)" fill="#2e3e5f"/>
      <path id="Path_2530" data-name="Path 2530" d="M844.432,613.116h6.023v-1.249a2.349,2.349,0,0,0-2.632-2.335H845v1.026h2.781a1.3,1.3,0,0,1,1.324,1.2v.506h-4.61c-.654,0-1.324-.045-1.324-1.2V608H841.8v2.766C841.8,612.7,842.544,613.116,844.432,613.116Z" transform="translate(-731.375 -607.985)" fill="#2e3e5f"/>
      <path id="Path_2531" data-name="Path 2531" d="M368.963,621.884h3.2v-1.249a2.349,2.349,0,0,0-2.632-2.335H366.7v1.026h2.781a1.3,1.3,0,0,1,1.324,1.2v.506h-8.447l-.059.863h6.663Z" transform="translate(-323.187 -616.753)" fill="#2e3e5f"/>
      <path id="Path_2532" data-name="Path 2532" d="M124.8,621.884h5.22v-.862h4.64v-.387a2.349,2.349,0,0,0-2.632-2.335H129.2v.372l.535.476-.164.193h2.394a1.274,1.274,0,0,1,1.324,1.2v.506h-8.447Z" transform="translate(-121.008 -616.753)" fill="#2e3e5f"/>
      <rect id="Rectangle_720" data-name="Rectangle 720" width="1.368" height="1.904" transform="translate(62.269 2.305)" fill="#2e3e5f"/>
      <path id="Path_2533" data-name="Path 2533" d="M159.9,637.463h7.466V636.6H159.9Z" transform="translate(-150.888 -632.332)" fill="#2e3e5f"/>
      <path id="Path_2534" data-name="Path 2534" d="M543.946,619.232h-.416c-.327,0-.833,0-1.011-.372a1.625,1.625,0,0,1-.089-.654,1.276,1.276,0,0,1,.208-.833,1.568,1.568,0,0,1,.892-.223h.416v-.863h-.773a2.6,2.6,0,0,0-.892.134,1.406,1.406,0,0,0-.565.4,1.862,1.862,0,0,0-.327.61,2.5,2.5,0,0,0-.1.744,2.325,2.325,0,0,0,.149.952c.015.045.045.074.059.119h2.439l.015-.015Z" transform="translate(-475.55 -615.038)" fill="#2e3e5f"/>
      <path id="Path_2535" data-name="Path 2535" d="M491.777,618.962a2.5,2.5,0,0,0,.1-.744,2.325,2.325,0,0,0-.149-.952,1.553,1.553,0,0,0-.416-.565,1.225,1.225,0,0,0-.565-.3,3.092,3.092,0,0,0-.744-.1H489.1v.878h.535c.327,0,.833,0,1.011.372a1.625,1.625,0,0,1,.089.654,1.275,1.275,0,0,1-.208.833,1.568,1.568,0,0,1-.892.223h2.008A1.075,1.075,0,0,0,491.777,618.962Z" transform="translate(-431.129 -615.051)" fill="#2e3e5f"/>
      <path id="Path_2536" data-name="Path 2536" d="M499.41,637.122V636.2H489v.922h10.41Z" transform="translate(-431.044 -631.991)" fill="#2e3e5f"/>
      <rect id="Rectangle_721" data-name="Rectangle 721" width="0.996" height="0.996" transform="translate(61.377 5.592)" fill="#2e3e5f"/>
      <rect id="Rectangle_722" data-name="Rectangle 722" width="0.996" height="0.996" transform="translate(15.036 5.592)" fill="#2e3e5f"/>
      <rect id="Rectangle_723" data-name="Rectangle 723" width="0.996" height="0.996" transform="translate(13.638 5.592)" fill="#2e3e5f"/>
      <path id="Path_2537" data-name="Path 2537" d="M146.84,615.225h.015l.164-.193-.535-.476-.4-.357-.8-.7-.149.164-.03.03Z" transform="translate(-138.289 -612.667)" fill="#2e3e5f"/>
      <path id="Path_2538" data-name="Path 2538" d="M216.783,617.929a1.654,1.654,0,0,0-.342-.61,1.406,1.406,0,0,0-.565-.4,2.245,2.245,0,0,0-.892-.134h-1.844v2.96H212.5v.863H215a3.2,3.2,0,0,0,.744-.1,1.5,1.5,0,0,0,.982-.863,2.287,2.287,0,0,0,.149-.952A3.3,3.3,0,0,0,216.783,617.929Zm-1.13,1.428c-.164.372-.669.372-1.011.372h-.416v-2.082h.431a1.568,1.568,0,0,1,.892.223,1.254,1.254,0,0,1,.208.833,1.634,1.634,0,0,1-.1.654Z" transform="translate(-195.665 -615.46)" fill="#2e3e5f"/>
      <rect id="Rectangle_724" data-name="Rectangle 724" width="0.535" height="0.863" transform="translate(16.3 4.268)" fill="#2e3e5f"/>
      <path id="Path_2539" data-name="Path 2539" d="M295.682,620.072c0,.922-.431,1.13-.937,1.19v.193a5.279,5.279,0,0,1-.045.684c1.666-.045,2.335-.506,2.335-2.335v-1.2h-1.368v1.472Z" transform="translate(-265.64 -617.009)" fill="#2e3e5f"/>
      <path id="Path_2540" data-name="Path 2540" d="M286.9,620.072V618.6h0v1.472Z" transform="translate(-259 -617.009)" fill="#2e3e5f"/>
      <rect id="Rectangle_725" data-name="Rectangle 725" width="0.996" height="0.996" transform="translate(24.836 0)" fill="#2e3e5f"/>
      <rect id="Rectangle_726" data-name="Rectangle 726" width="0.996" height="0.982" transform="translate(28.896 5.651)" fill="#2e3e5f"/>
      <path id="Path_2541" data-name="Path 2541" d="M271.151,621.247V618.6h-1.443v2.96c0,1.13-.61,1.249-1.264,1.264H268.4v.907h.059c1.606,0,2.409-.312,2.632-1.576a5.468,5.468,0,0,0,.074-.863A.073.073,0,0,1,271.151,621.247Z" transform="translate(-243.251 -617.009)" fill="#2e3e5f"/>
      <path id="Path_2542" data-name="Path 2542" d="M253.247,628.327h.059c-.639,0-1.264-.119-1.264-1.264V625.1H250.6v1.666c0,1.978.744,2.439,2.6,2.454h.045v-.892Z" transform="translate(-228.099 -622.542)" fill="#2e3e5f"/>
      <rect id="Rectangle_727" data-name="Rectangle 727" width="1.472" height="0.877" transform="translate(27.647 4.253)" fill="#2e3e5f"/>
      <path id="Path_2543" data-name="Path 2543" d="M679.629,646.273h-.119a.287.287,0,0,1-.268-.089.748.748,0,0,1-.03-.179.3.3,0,0,1,.059-.223.437.437,0,0,1,.238-.059h.1V645.5h-.208a1.3,1.3,0,0,0-.238.03.532.532,0,0,0-.149.1.354.354,0,0,0-.089.164.869.869,0,0,0-.03.193.756.756,0,0,0,.045.253v.03h.684Z" transform="translate(-592.702 -639.908)" fill="#2e3e5f"/>
      <path id="Path_2544" data-name="Path 2544" d="M678.726,650.953V650.7H677.7v.253h1.026Z" transform="translate(-591.68 -644.335)" fill="#2e3e5f"/>
    </g>
    <g id="Group_2278" data-name="Group 2278" transform="translate(137.35 302.561)">
      <path id="Path_2545" data-name="Path 2545" d="M520.8,419.387l3.2,3.2,1.948-7.287-3.2-3.2Z" transform="translate(-496.164 -395.809)" fill="#8398b5"/>
      <path id="Path_2546" data-name="Path 2546" d="M584.8,400.757l1.591,1.606,2.751-2.766-3.183-3.2Z" transform="translate(-550.646 -382.444)"/>
      <path id="Path_2547" data-name="Path 2547" d="M565.3,310.612l2.8,2.8,2.082-1.457a.229.229,0,0,1,.238-.015.179.179,0,0,1,.089.238l-.773,2.885,3.2,3.2,2.707-10.128,1.428-5.294a.225.225,0,0,0-.149-.268.256.256,0,0,0-.178.03Z" transform="translate(-534.046 -302.561)" fill="#8398b5"/>
      <path id="Path_2548" data-name="Path 2548" d="M537.749,363.153l-1.249,4.67,3.2,3.2,1.457-5.473,1.339-.937-2.8-2.811Z" transform="translate(-509.53 -352.99)" fill="#8398b5"/>
      <path id="Path_2549" data-name="Path 2549" d="M388.143,389.987l-11.3-11.258a.221.221,0,0,0-.208-.06l-17.326,4.655h0l-4,1.071a.213.213,0,0,0-.149.268.239.239,0,0,0,.059.1l2.93,2.93L374.3,403.848l2.766-2.766-14.307-14.292a.216.216,0,0,1,0-.312.24.24,0,0,1,.1-.06l12.626-3.376a.221.221,0,0,1,.208.059l9.682,9.682Z" transform="translate(-355.149 -367.346)" fill="#2e3e5f"/>
      <path id="Path_2550" data-name="Path 2550" d="M377.806,327.609h0l-4,1.071a.213.213,0,0,0-.149.268.24.24,0,0,0,.06.1l2.93,2.93L395.563,350.9l2.766-2.766-17.058-17.058a.216.216,0,0,1,0-.312.239.239,0,0,1,.1-.059l12.6-3.376a.221.221,0,0,1,.208.059l12.448,12.463,2.766-2.766L395.34,323.029a.221.221,0,0,0-.208-.059Z" transform="translate(-370.898 -319.93)" fill="#2e3e5f"/>
    </g>
  </g>
</svg>
