<svg xmlns="http://www.w3.org/2000/svg" width="97.879" height="67" viewBox="0 0 97.879 67">
  <g id="General-Authority-of-Zakat-and-Tax-01" transform="translate(-100.343 -226.161)" style="isolation: isolate">
    <path id="Path_2440" data-name="Path 2440" d="M526.93,426.1l.134-1.661a3.278,3.278,0,0,0-1.221-2.712L522.3,418.9l9.442-7.793a4.451,4.451,0,0,0,1.551-3.334v-1.466a.129.129,0,0,0-.147-.122.045.045,0,0,0-.037.012l-14.962,12.52a.27.27,0,0,0-.024.379c.012.012.012.024.024.024l8.477,7.084a.189.189,0,0,0,.257-.024A.2.2,0,0,0,526.93,426.1Z" transform="translate(-366.694 -158.038)" fill="#d79a2b"/>
    <path id="Path_2441" data-name="Path 2441" d="M365.664,426.186l-.134-1.661a3.278,3.278,0,0,1,1.221-2.712l3.542-2.821-9.442-7.78a4.451,4.451,0,0,1-1.551-3.334v-1.466a.129.129,0,0,1,.147-.122.045.045,0,0,1,.037.012l14.95,12.52a.27.27,0,0,1,.024.379c-.012.012-.012.024-.024.024l-8.452,7.1a.178.178,0,0,1-.256.012A.2.2,0,0,1,365.664,426.186Z" transform="translate(-227.328 -158.125)" fill="#d79a2b"/>
    <path id="Path_2442" data-name="Path 2442" d="M399.266,236.047a15.379,15.379,0,0,0-11.933.049,12.762,12.762,0,0,1,7.487-5.472l1.112-.293a.068.068,0,0,0,.061-.073c0-.012-.012-.024-.024-.037l-.721-.831a2.48,2.48,0,0,0-2.736-.672,15.168,15.168,0,0,0-6.706,5.118V227.68a1.336,1.336,0,0,0-.366-.916l-.342-.366a.771.771,0,0,0-1.087-.024l-.024.024-.354.366a1.336,1.336,0,0,0-.366.916v6.058a15.131,15.131,0,0,0-6.608-5.008,2.478,2.478,0,0,0-2.76.66l-.721.831a.074.074,0,0,0,0,.1c.012.012.024.024.037.024l1.111.293a12.589,12.589,0,0,1,7.487,5.472,15.379,15.379,0,0,0-11.933-.049,2.466,2.466,0,0,0-1.49,2.357l.049,1.1a.079.079,0,0,0,.073.073.045.045,0,0,0,.037-.012l1-.586a12.849,12.849,0,0,1,11.811-.354,15.075,15.075,0,0,0-6.229,3.151,2.455,2.455,0,0,0-.745,2.724l.367,1.038c.012.037.061.037.085.024s.012-.012.024-.024l.806-.831a12.628,12.628,0,0,1,7.609-3.823v13.582l-6.559-5.5a.285.285,0,0,0-.391.024.269.269,0,0,0-.073.183V250.8a3.133,3.133,0,0,0,1.136,2.418l7.011,5.863a.276.276,0,0,0,.354,0l7.011-5.863A3.151,3.151,0,0,0,392.9,250.8v-1.612a.274.274,0,0,0-.269-.281.249.249,0,0,0-.183.073l-6.669,5.557a.815.815,0,0,0,0-.244V240.9a12.573,12.573,0,0,1,7.671,3.835l.794.831a.077.077,0,0,0,.1.024c.012,0,.012-.012.024-.024l.366-1.038a2.458,2.458,0,0,0-.7-2.748,15.3,15.3,0,0,0-6.254-3.1,12.778,12.778,0,0,1,11.811.354l1,.586a.066.066,0,0,0,.1-.024c0-.012.012-.024.012-.037l.049-1.1A2.456,2.456,0,0,0,399.266,236.047Z" transform="translate(-235.305 0)" fill="#006450"/>
    <rect id="Rectangle_700" data-name="Rectangle 700" width="0.965" height="0.806" transform="translate(107.568 275.841)" fill="#6d6e70"/>
    <path id="Path_2443" data-name="Path 2443" d="M102.85,636.48a1.909,1.909,0,0,1-1.5-.525,1.883,1.883,0,0,1-.464-1.319v-1.527h.94v1.344c0,.843.476,1.282,1.38,1.282h1.124V628.7h.928v5.411s3.615.037,3.762,0a4.589,4.589,0,0,0,1.05-.269l.134-.049-.44-1.063a1.588,1.588,0,0,0-.586-.708,1.675,1.675,0,0,0-.9-.244,2.247,2.247,0,0,0-.9.171l-.33-.733a3.347,3.347,0,0,1,1.417-.33,2.385,2.385,0,0,1,1.344.379,2.06,2.06,0,0,1,.806,1.014l.464,1.185a1.084,1.084,0,0,0,.928.721l-.354.782a1.482,1.482,0,0,1-.513-.159,1.656,1.656,0,0,1-.586-.415l-.061-.073-.086.049a4.3,4.3,0,0,1-1.221.44,6.711,6.711,0,0,1-1.307.159h-2.577v1.515Z" transform="translate(-0.473 -353.372)" fill="#6d6e70"/>
    <path id="Path_2444" data-name="Path 2444" d="M201.739,634.878a3.715,3.715,0,0,1-1.1-.134,1.09,1.09,0,0,1-.586-.4l-.073-.11-.11.073a2.593,2.593,0,0,1-1.588.586h-.941l-.342-.745h1.124a3.077,3.077,0,0,0,1.576-.354l.1-.061-1.1-2.87h1l1.038,2.675a.821.821,0,0,0,.366.464,1.246,1.246,0,0,0,.66.147h.721V628.6h.916v6.254Z" transform="translate(-84.851 -353.284)" fill="#6d6e70"/>
    <rect id="Rectangle_701" data-name="Rectangle 701" width="0.928" height="6.254" transform="translate(119.648 275.34)" fill="#6d6e70"/>
    <path id="Path_2445" data-name="Path 2445" d="M276.5,652.1a3.41,3.41,0,0,0,.7-.171,1.211,1.211,0,0,0,.537-.415,1.286,1.286,0,0,0,.183-.733v-3.041h-.11a3.186,3.186,0,0,0-.586-.061c-.538,0-1.185.22-1.185,1.295a1.243,1.243,0,0,0,.305.892,1.169,1.169,0,0,0,.867.342h.806l-.562.757H277a2.155,2.155,0,0,1-.989-.244,1.786,1.786,0,0,1-.66-.721,2.137,2.137,0,0,1-.257-1.063,2.1,2.1,0,0,1,.269-1.05,1.954,1.954,0,0,1,.757-.721,2.48,2.48,0,0,1,1.185-.269,11.123,11.123,0,0,1,1.563.159v3.689a2.47,2.47,0,0,1-.257,1.185,1.663,1.663,0,0,1-.708.684,3.414,3.414,0,0,1-1.038.318Z" transform="translate(-153.405 -369.342)" fill="#6d6e70"/>
    <rect id="Rectangle_702" data-name="Rectangle 702" width="0.965" height="0.806" transform="translate(130.616 275.841)" fill="#6d6e70"/>
    <rect id="Rectangle_703" data-name="Rectangle 703" width="0.965" height="0.806" transform="translate(128.906 275.841)" fill="#6d6e70"/>
    <path id="Path_2446" data-name="Path 2446" d="M328.954,650.848a2.168,2.168,0,0,1-1-.244,1.846,1.846,0,0,1-.7-.708,2.226,2.226,0,0,1-.257-1.051,2.1,2.1,0,0,1,.269-1.05,1.983,1.983,0,0,1,.757-.733,2.48,2.48,0,0,1,1.185-.269,9.567,9.567,0,0,1,1.563.159v3.9Zm.2-3.286c-.537,0-1.185.22-1.185,1.295a1.244,1.244,0,0,0,.305.892,1.168,1.168,0,0,0,.867.342h.672v-2.443h-.1A2.846,2.846,0,0,0,329.15,647.562Z" transform="translate(-198.973 -369.254)" fill="#6d6e70"/>
    <path id="Path_2447" data-name="Path 2447" d="M371.335,634.878a1.243,1.243,0,0,1-1-.4,1.662,1.662,0,0,1-.354-1.111V628.6h.928v4.568a1.046,1.046,0,0,0,.2.708.764.764,0,0,0,.586.232h5.167v-.085a2.8,2.8,0,0,0,.171-.843,1.068,1.068,0,0,0-.379-.9,1.761,1.761,0,0,0-1.05-.269h-1.991l-.391-.867,2.3-2.528h1.075l-2.626,2.638h1.881a2.333,2.333,0,0,1,1.612.476,1.713,1.713,0,0,1,.537,1.38,3.179,3.179,0,0,1-.159.953c-.086.281-.183.55-.293.818Z" transform="translate(-236.7 -353.284)" fill="#6d6e70"/>
    <rect id="Rectangle_704" data-name="Rectangle 704" width="0.965" height="0.806" transform="translate(142.794 275.841)" fill="#6d6e70"/>
    <path id="Path_2448" data-name="Path 2448" d="M439.3,636.126a4.059,4.059,0,0,0,.513-.147.837.837,0,0,0,.427-.391,1.56,1.56,0,0,0,.134-.708v-3.872h.928v2.785a1.13,1.13,0,0,0,.892.415.874.874,0,0,0,.623-.305,1.161,1.161,0,0,0,.269-.794V628.7h.928v4.568a1.9,1.9,0,0,1-.049.452v.061l.037.049a1.141,1.141,0,0,0,.928.366h.977v-5.5h.916v6.254h-1.893a1.6,1.6,0,0,1-1.136-.5l-.1-.11-.085.11a1.426,1.426,0,0,1-1.124.5h-.5v-.024h-.061a2.912,2.912,0,0,1-.452-.183l-.2-.122v.232a2.163,2.163,0,0,1-.476,1.551,2.066,2.066,0,0,1-1.185.586Z" transform="translate(-297.556 -353.372)" fill="#6d6e70"/>
    <rect id="Rectangle_705" data-name="Rectangle 705" width="0.965" height="0.806" transform="translate(154.593 275.841)" fill="#6d6e70"/>
    <rect id="Rectangle_706" data-name="Rectangle 706" width="0.965" height="0.806" transform="translate(152.895 275.841)" fill="#6d6e70"/>
    <path id="Path_2449" data-name="Path 2449" d="M527.646,650.76a1.184,1.184,0,0,1-1.185-.672l-.061-.122-.037-.134a2.407,2.407,0,0,1-.073-.586V647.56h-.1a3.186,3.186,0,0,0-.586-.061c-.537,0-1.185.22-1.185,1.295a1.244,1.244,0,0,0,.305.892,1.169,1.169,0,0,0,.867.342h.9l-.281.757h-.745a2.167,2.167,0,0,1-1-.244,1.78,1.78,0,0,1-.721-.721,2.136,2.136,0,0,1-.256-1.062,1.963,1.963,0,0,1,1.026-1.783,2.482,2.482,0,0,1,1.185-.269,10.937,10.937,0,0,1,1.539.147v2.2a1.046,1.046,0,0,0,.2.708.748.748,0,0,0,.586.232h.806v-3.139a13.272,13.272,0,0,1,1.563-.159,2.48,2.48,0,0,1,1.185.269,1.9,1.9,0,0,1,.757.733,1.983,1.983,0,0,1,.269,1.05,6.317,6.317,0,0,1-.476,2Zm2.785-3.286a3.186,3.186,0,0,0-.586.061h-.1v2.443h1.625v-.1a4.418,4.418,0,0,0,.183-1.136C531.591,647.694,530.956,647.474,530.43,647.474Z" transform="translate(-371.465 -369.166)" fill="#6d6e70"/>
    <path id="Path_2450" data-name="Path 2450" d="M616.31,634.878h-.086a8.12,8.12,0,0,1-2.357-.305h-.073a11.162,11.162,0,0,1-2.773.305h-.586a1.243,1.243,0,0,1-1-.4,1.661,1.661,0,0,1-.354-1.111V628.6h.977v4.568a1.046,1.046,0,0,0,.2.708.748.748,0,0,0,.586.232h.208a11.415,11.415,0,0,0,1.441-.085l.232-.037-.159-.171a13.949,13.949,0,0,1-1.136-1.637l.232-.989a8.719,8.719,0,0,1,1.075-.391,3.235,3.235,0,0,1,.965-.134,2.556,2.556,0,0,1,1.087.232,2.248,2.248,0,0,1,.806.586,1.285,1.285,0,0,1,.293.782,1.707,1.707,0,0,1-.22.782,2.634,2.634,0,0,1-.586.733l-.22.183.281.049a8.348,8.348,0,0,0,1.111.073h.867v-5.472h.916v6.254Zm-2.687-3.322a3.242,3.242,0,0,0-1.307.342l-.122.061.061.122a6.994,6.994,0,0,0,.586.965,6.31,6.31,0,0,0,.757.855l.073.061.073-.037a3.235,3.235,0,0,0,.818-.586,1.186,1.186,0,0,0,.366-.818.831.831,0,0,0-.4-.708A1.687,1.687,0,0,0,613.623,631.556Z" transform="translate(-446.596 -353.284)" fill="#6d6e70"/>
    <rect id="Rectangle_707" data-name="Rectangle 707" width="0.928" height="6.254" transform="translate(172.523 275.34)" fill="#6d6e70"/>
    <rect id="Rectangle_708" data-name="Rectangle 708" width="0.965" height="0.806" transform="translate(176.591 275.841)" fill="#6d6e70"/>
    <rect id="Rectangle_709" data-name="Rectangle 709" width="0.965" height="0.806" transform="translate(178.301 275.841)" fill="#6d6e70"/>
    <path id="Path_2451" data-name="Path 2451" d="M763.5,628.313l.1-.464h.525l-.085-.183a.567.567,0,0,1-.073-.281.738.738,0,0,1,.22-.586.808.808,0,0,1,.586-.208,1.658,1.658,0,0,1,.354.037l-.134.391h-.159a.424.424,0,0,0-.305.122.461.461,0,0,0-.122.33.477.477,0,0,0,.1.33l.037.049h.916v.464Z" transform="translate(-582.158 -351.519)" fill="#6d6e70"/>
    <rect id="Rectangle_710" data-name="Rectangle 710" width="0.965" height="0.806" transform="translate(185.947 282.595)" fill="#6d6e70"/>
    <rect id="Rectangle_711" data-name="Rectangle 711" width="0.965" height="0.806" transform="translate(184.249 282.595)" fill="#6d6e70"/>
    <path id="Path_2452" data-name="Path 2452" d="M736.136,635.142a1.624,1.624,0,0,1-.635-.159,1.518,1.518,0,0,1-.586-.452l-.1-.122-.1.122a1.523,1.523,0,0,1-1.27.586h-3.921a2.281,2.281,0,0,1-.806-.134,1.55,1.55,0,0,1-.586-.464l-.11-.134-.1.147a1.49,1.49,0,0,1-.513.44,1.651,1.651,0,0,1-.684.159h-.672a2.235,2.235,0,0,1-.806-.134,1.551,1.551,0,0,1-.586-.464l-.11-.134-.1.147a1.492,1.492,0,0,1-.513.44,1.651,1.651,0,0,1-.684.159h-1.441a1.273,1.273,0,0,1-1-.391,1.6,1.6,0,0,1-.354-1.111v-1.661h-.1a3.181,3.181,0,0,0-.586-.061c-.537,0-1.185.22-1.185,1.295a1.244,1.244,0,0,0,.305.892,1.133,1.133,0,0,0,.867.342h.806l-.293.757h-.635a2.167,2.167,0,0,1-1-.244,1.736,1.736,0,0,1-.7-.7,2.136,2.136,0,0,1-.256-1.063,1.964,1.964,0,0,1,1.026-1.783,2.48,2.48,0,0,1,1.185-.269,9.678,9.678,0,0,1,1.563.159v2.2a1.046,1.046,0,0,0,.2.708.748.748,0,0,0,.586.232h.721a.887.887,0,0,0,.684-.318,1.236,1.236,0,0,0,.281-.794v-2.2h.928v2.357a2.293,2.293,0,0,1-.037.415v.061l.049.049a1.034,1.034,0,0,0,.489.317,11.017,11.017,0,0,0,1.112.086.887.887,0,0,0,.684-.318,1.236,1.236,0,0,0,.281-.794v-2.174h.928v2.357a2.387,2.387,0,0,1-.036.415v.061l.036.049a1.1,1.1,0,0,0,.489.317c.171.049,1.6.086,1.6.086l-.257-.232a1.133,1.133,0,0,1-.366-.916,1.332,1.332,0,0,1,.22-.745,1.588,1.588,0,0,1,.586-.586,2,2,0,0,1,1.857,0,1.5,1.5,0,0,1,.586.586,1.625,1.625,0,0,1,.2.757,1.191,1.191,0,0,1-.379.879l-.244.232h.537a1.1,1.1,0,0,0,.55-.159,1.272,1.272,0,0,0,.476-.476,1.537,1.537,0,0,0,.183-.806,2.084,2.084,0,0,0-.256-1.014,1.96,1.96,0,0,0-.769-.745,2.627,2.627,0,0,0-1.221-.269h-.5l-.33-.757h.843a3.7,3.7,0,0,1,1.7.366,2.553,2.553,0,0,1,1.087.977,2.586,2.586,0,0,1,.366,1.368,3.242,3.242,0,0,1-.134.9v.049l.037.049a1,1,0,0,0,.4.379,1.4,1.4,0,0,0,.586.122h1.1V628.9h.916v6.254Zm-4.666-2.736a.8.8,0,0,0-.586.22.931.931,0,0,0-.232.659,1.064,1.064,0,0,0,.831,1.063h.073a.755.755,0,0,0,.647-.305,1.111,1.111,0,0,0,.22-.733.906.906,0,0,0-.122-.428,1.054,1.054,0,0,0-.342-.354A1.072,1.072,0,0,0,731.47,632.406Z" transform="translate(-541.945 -353.548)" fill="#6d6e70"/>
    <rect id="Rectangle_712" data-name="Rectangle 712" width="0.928" height="6.254" transform="translate(197.294 275.34)" fill="#6d6e70"/>
    <path id="Path_2453" data-name="Path 2453" d="M100.936,730.636a3.042,3.042,0,0,1,.037-3.64,2.159,2.159,0,0,1,1.637-.623,2.807,2.807,0,0,1,1.368.342v.672h-.318a1.514,1.514,0,0,0-1.038-.354,1.289,1.289,0,0,0-1.038.415,1.994,1.994,0,0,0-.391,1.356c0,1.246.44,1.857,1.331,1.857a1.972,1.972,0,0,0,.831-.159v-1.185h-.794v-.586h1.6v2.137a3.281,3.281,0,0,1-1.624.379A2.054,2.054,0,0,1,100.936,730.636Z" transform="translate(0 -439.112)" fill="#6d6e70"/>
    <path id="Path_2454" data-name="Path 2454" d="M137.832,738.123a1.216,1.216,0,0,0,.293.831.945.945,0,0,0,.733.244,1.378,1.378,0,0,0,.953-.33h.281v.537a2.149,2.149,0,0,1-1.331.379,1.606,1.606,0,0,1-1.258-.5,1.837,1.837,0,0,1-.44-1.331,1.908,1.908,0,0,1,.476-1.356,1.552,1.552,0,0,1,1.185-.5c1,0,1.515.586,1.515,1.734v.269Zm0-.525h1.6a1.173,1.173,0,0,0-.208-.733.668.668,0,0,0-.55-.208c-.464,0-.733.318-.818.953Z" transform="translate(-32.231 -447.65)" fill="#6d6e70"/>
    <path id="Path_2455" data-name="Path 2455" d="M168.889,736.249a.259.259,0,0,1,.208.073.633.633,0,0,1,.085.33,2.121,2.121,0,0,1,1.307-.452c.586,0,.928.33.928,1v2.638h-.769V737.36a.639.639,0,0,0-.122-.415.5.5,0,0,0-.366-.11,2.03,2.03,0,0,0-.989.33v2.675H168.4v-3.591Z" transform="translate(-59.745 -447.742)" fill="#6d6e70"/>
    <path id="Path_2456" data-name="Path 2456" d="M199.132,738.123a1.278,1.278,0,0,0,.293.831.945.945,0,0,0,.733.244,1.378,1.378,0,0,0,.953-.33h.281v.537a2.23,2.23,0,0,1-1.331.379,1.606,1.606,0,0,1-1.258-.5,1.836,1.836,0,0,1-.44-1.331,1.954,1.954,0,0,1,.464-1.356,1.552,1.552,0,0,1,1.185-.5c1,0,1.5.574,1.5,1.734v.269Zm0-.525h1.6a1.11,1.11,0,0,0-.22-.733.644.644,0,0,0-.537-.208c-.476-.012-.757.305-.843.94Z" transform="translate(-86.043 -447.65)" fill="#6d6e70"/>
    <path id="Path_2457" data-name="Path 2457" d="M231.271,737.059a1.514,1.514,0,0,0-1,.366v2.589h-.77v-3.591h.464a.232.232,0,0,1,.208.086.647.647,0,0,1,.085.342,1.293,1.293,0,0,1,.965-.452.692.692,0,0,1,.22.037v.623Z" transform="translate(-113.382 -447.917)" fill="#6d6e70"/>
    <path id="Path_2458" data-name="Path 2458" d="M251.279,739.459a.457.457,0,0,1-.305-.073.471.471,0,0,1-.134-.269,1.458,1.458,0,0,1-1.026.391,1.194,1.194,0,0,1-.818-.281,1.026,1.026,0,0,1-.318-.818.991.991,0,0,1,.391-.831,1.613,1.613,0,0,1,1-.269,2.936,2.936,0,0,1,.733.085v-.415c0-.366-.22-.586-.672-.586a1.561,1.561,0,0,0-.953.281h-.269v-.586a2.817,2.817,0,0,1,1.295-.318,1.6,1.6,0,0,1,1,.257,1.038,1.038,0,0,1,.354.855v2.528Zm-.464-.879v-.7a2.154,2.154,0,0,0-.623-.061c-.513,0-.77.183-.77.586a.531.531,0,0,0,.171.44.629.629,0,0,0,.44.134A1.013,1.013,0,0,0,250.815,738.58Z" transform="translate(-130.215 -447.362)" fill="#6d6e70"/>
    <path id="Path_2459" data-name="Path 2459" d="M279.6,731.763V727h.415c.147,0,.244.024.281.086a.759.759,0,0,1,.061.4v4.275Z" transform="translate(-157.363 -439.666)" fill="#6d6e70"/>
    <path id="Path_2460" data-name="Path 2460" d="M306.7,731.344l1.588-4.544h.831l1.576,4.544v.257h-.782l-.44-1.319H307.8l-.428,1.319H306.7Zm1.93-3.628-.635,1.942h1.27Z" transform="translate(-181.152 -439.49)" fill="#6d6e70"/>
    <path id="Path_2461" data-name="Path 2461" d="M346.669,739.312v-2.7h.757v3.579h-.464a.225.225,0,0,1-.2-.061.636.636,0,0,1-.085-.305,2.271,2.271,0,0,1-1.246.415.89.89,0,0,1-1-.745.74.74,0,0,1,0-.232V736.6h.77v2.5a.433.433,0,0,0,.33.513.349.349,0,0,0,.159,0A1.923,1.923,0,0,0,346.669,739.312Z" transform="translate(-214.27 -448.093)" fill="#6d6e70"/>
    <path id="Path_2462" data-name="Path 2462" d="M374,729.753h.427V728.8h.757v.953h.757v.586h-.757v2.04a.459.459,0,0,0,.11.354.53.53,0,0,0,.354.086H376v.513a2.412,2.412,0,0,1-.586.073.855.855,0,0,1-.977-.721.74.74,0,0,1,0-.232v-2.125h-.428Z" transform="translate(-240.232 -441.246)" fill="#6d6e70"/>
    <path id="Path_2463" data-name="Path 2463" d="M396.057,728.3a2.122,2.122,0,0,1,1.307-.452c.623,0,.928.33.928,1v2.638h-.757v-2.479a.64.64,0,0,0-.122-.415.52.52,0,0,0-.366-.11,2.032,2.032,0,0,0-.989.33v2.663H395.3V726.7h.415c.147,0,.232,0,.281.086a.657.657,0,0,1,.061.4Z" transform="translate(-258.931 -439.402)" fill="#6d6e70"/>
    <path id="Path_2464" data-name="Path 2464" d="M425.685,739.4a1.829,1.829,0,0,1-.5-1.344,1.857,1.857,0,0,1,.5-1.356,1.74,1.74,0,0,1,2.443,0,1.91,1.91,0,0,1,.5,1.356,1.83,1.83,0,0,1-.5,1.344A1.78,1.78,0,0,1,425.685,739.4Zm1.905-.415a1.549,1.549,0,0,0,.256-.928,1.526,1.526,0,0,0-.256-.94.856.856,0,0,0-.7-.318.817.817,0,0,0-.684.318,1.526,1.526,0,0,0-.256.94,1.434,1.434,0,0,0,.256.916.912.912,0,0,0,1.295.073.218.218,0,0,0,.085-.061Z" transform="translate(-285.163 -447.738)" fill="#6d6e70"/>
    <path id="Path_2465" data-name="Path 2465" d="M460.559,737.059a1.58,1.58,0,0,0-1,.366v2.589H458.8v-3.591h.464a.2.2,0,0,1,.2.086.656.656,0,0,1,.1.342,1.274,1.274,0,0,1,.965-.452.768.768,0,0,1,.232.037v.623Z" transform="translate(-314.675 -447.917)" fill="#6d6e70"/>
    <path id="Path_2466" data-name="Path 2466" d="M479.434,727.557a.4.4,0,0,1-.134-.305.459.459,0,0,1,.452-.452.432.432,0,0,1,.305.745A.432.432,0,0,1,479.434,727.557Zm-.073,4.031V728h.415c.147,0,.244.036.281.1a1.187,1.187,0,0,1,.061.464v3.029Z" transform="translate(-332.671 -439.49)" fill="#6d6e70"/>
    <path id="Path_2467" data-name="Path 2467" d="M490.7,729.753h.427V728.8h.757v.953h.782v.586h-.782v2.04a.474.474,0,0,0,.11.354.53.53,0,0,0,.354.086h.354v.513a2.411,2.411,0,0,1-.586.073.855.855,0,0,1-.977-.721.744.744,0,0,1,0-.232v-2.125h-.427Z" transform="translate(-342.678 -441.246)" fill="#6d6e70"/>
    <path id="Path_2468" data-name="Path 2468" d="M510.455,740.958l.464-1.1-1.319-3.127V736.5h.721l.977,2.406.9-2.406h.659v.22l-1.771,4.446h-.647v-.208Z" transform="translate(-359.27 -448.005)" fill="#6d6e70"/>
    <path id="Path_2469" data-name="Path 2469" d="M555.972,739.51a1.818,1.818,0,0,1-.489-1.344,1.9,1.9,0,0,1,.489-1.356,1.779,1.779,0,0,1,2.443,0,1.909,1.909,0,0,1,.5,1.356,1.828,1.828,0,0,1-.5,1.344A1.779,1.779,0,0,1,555.972,739.51Zm1.905-.415a1.55,1.55,0,0,0,.257-.928,1.525,1.525,0,0,0-.257-.94.856.856,0,0,0-.7-.318.818.818,0,0,0-.684.318,1.526,1.526,0,0,0-.256.94,1.431,1.431,0,0,0,.256.94.912.912,0,0,0,1.295.073l.073-.073Z" transform="translate(-399.547 -447.852)" fill="#6d6e70"/>
    <path id="Path_2470" data-name="Path 2470" d="M586.312,727.668h.427v-.257a.868.868,0,0,1,.745-.977.806.806,0,0,1,.244,0,1.668,1.668,0,0,1,.55.085v.5h-.342a.516.516,0,0,0-.33.085.441.441,0,0,0-.122.342v.232h.72v.586h-.72V731.3h-.757v-3.029H586.3v-.6Z" transform="translate(-426.602 -439.161)" fill="#6d6e70"/>
    <path id="Path_2471" data-name="Path 2471" d="M620.3,731.128l2.467-3.542H620.5V727h3.151v.647l-2.455,3.542h2.418v.586h-3.3Z" transform="translate(-456.449 -439.666)" fill="#6d6e70"/>
    <path id="Path_2472" data-name="Path 2472" d="M653.5,739.459a.441.441,0,0,1-.305-.073.471.471,0,0,1-.134-.269,1.458,1.458,0,0,1-1.026.391,1.144,1.144,0,0,1-.806-.281,1.078,1.078,0,0,1-.33-.818.991.991,0,0,1,.391-.831,1.613,1.613,0,0,1,1-.269,3,3,0,0,1,.733.085v-.415c0-.366-.22-.586-.672-.586a1.561,1.561,0,0,0-.953.281h-.244v-.586a2.817,2.817,0,0,1,1.295-.318,1.624,1.624,0,0,1,1,.257,1.023,1.023,0,0,1,.354.855v2.528Zm-.464-.879v-.7a2.392,2.392,0,0,0-.586-.061c-.513,0-.77.183-.77.586a.506.506,0,0,0,.183.44.629.629,0,0,0,.44.134A1.014,1.014,0,0,0,653.031,738.58Z" transform="translate(-483.305 -447.362)" fill="#6d6e70"/>
    <path id="Path_2473" data-name="Path 2473" d="M682.469,729.485l1.38-1.588h.623v.256l-1.075,1.185.586.94c.269.415.464.733.586.94v.244h-.684l-1.026-1.6-.415.464v1.148H681.7V726.7h.415c.147,0,.244.025.281.086a.657.657,0,0,1,.061.4v2.3Z" transform="translate(-510.349 -439.402)" fill="#6d6e70"/>
    <path id="Path_2474" data-name="Path 2474" d="M711.379,739.459a.441.441,0,0,1-.305-.073.472.472,0,0,1-.134-.269,1.458,1.458,0,0,1-1.026.391,1.194,1.194,0,0,1-.818-.281,1.026,1.026,0,0,1-.318-.818.992.992,0,0,1,.391-.831,1.613,1.613,0,0,1,1-.269,3,3,0,0,1,.733.085v-.415c0-.366-.22-.586-.672-.586a1.561,1.561,0,0,0-.953.281h-.269v-.586a2.818,2.818,0,0,1,1.295-.318,1.624,1.624,0,0,1,1,.257.989.989,0,0,1,.354.855v2.528Zm-.464-.879v-.7a2.392,2.392,0,0,0-.586-.061c-.513,0-.77.183-.77.586a.506.506,0,0,0,.183.44.629.629,0,0,0,.44.134A1.061,1.061,0,0,0,710.915,738.58Z" transform="translate(-534.117 -447.362)" fill="#6d6e70"/>
    <path id="Path_2475" data-name="Path 2475" d="M737.1,729.753h.415V728.8h.757v.953h.782v.586h-.782v2.04a.468.468,0,0,0,.122.354.5.5,0,0,0,.354.086h.354v.513a2.411,2.411,0,0,1-.586.073.855.855,0,0,1-.977-.721.744.744,0,0,1,0-.232v-2.125h-.415Z" transform="translate(-558.982 -441.246)" fill="#6d6e70"/>
    <path id="Path_2476" data-name="Path 2476" d="M816.556,731.763v-4.177H815.2V727h3.542v.586h-1.356v4.177Z" transform="translate(-627.543 -439.666)" fill="#6d6e70"/>
    <path id="Path_2477" data-name="Path 2477" d="M849.879,739.459a.457.457,0,0,1-.305-.073.471.471,0,0,1-.134-.269,1.458,1.458,0,0,1-1.026.391,1.193,1.193,0,0,1-.818-.281,1.026,1.026,0,0,1-.318-.818.991.991,0,0,1,.391-.831,1.613,1.613,0,0,1,1-.269,2.938,2.938,0,0,1,.733.085v-.415c0-.366-.22-.586-.672-.586a1.561,1.561,0,0,0-.953.281h-.269v-.586a2.817,2.817,0,0,1,1.295-.318,1.6,1.6,0,0,1,1,.257,1.038,1.038,0,0,1,.354.855v2.528Zm-.452-.879v-.7a2.155,2.155,0,0,0-.623-.061c-.513,0-.77.183-.77.586a.531.531,0,0,0,.171.44.629.629,0,0,0,.44.134A1.053,1.053,0,0,0,849.428,738.58Z" transform="translate(-655.7 -447.362)" fill="#6d6e70"/>
    <path id="Path_2478" data-name="Path 2478" d="M876.112,739.947l1.05-1.588-1-1.5V736.6h.7l.831,1.27.782-1.27h.586v.244l-.928,1.478c.073.122.44.659,1.075,1.612v.244h-.7l-.892-1.429-.879,1.417H876.1v-.22Z" transform="translate(-681.005 -448.093)" fill="#6d6e70"/>
    <path id="Path_2479" data-name="Path 2479" d="M774.969,732.272a4.193,4.193,0,0,0,.513-1.466v-.147H774.9a3.711,3.711,0,0,1-.317,1.185l-.916-1.063a.262.262,0,0,0,.183-.049,1.387,1.387,0,0,0,.757-.525.827.827,0,0,0,.086-.806.907.907,0,0,0-.513-.586,1.355,1.355,0,0,0-1.368.22,1.032,1.032,0,0,0-.354.806,1.371,1.371,0,0,1-.672,2.138,1.177,1.177,0,0,0,.379.941,1.641,1.641,0,0,0,1.124.366,1.706,1.706,0,0,0,1.246-.5l.4.464h.66v-.22Zm-1.356-1.918-.244.061a1.052,1.052,0,0,1-.22-.586.619.619,0,0,1,.183-.44.579.579,0,0,1,.146-.086.585.585,0,0,1,.354,0,.489.489,0,0,1,.269.33C774.212,729.976,774.053,730.208,773.613,730.355Zm-.183,2.418a.917.917,0,0,1-.708-.257.8.8,0,0,1-.22-.586,1,1,0,0,1,.537-.879l1.185,1.38A1.061,1.061,0,0,1,773.43,732.773Z" transform="translate(-589.425 -441.176)" fill="#6d6e70"/>
  </g>
</svg>
