<svg xmlns="http://www.w3.org/2000/svg" width="75.987" height="66.988" viewBox="0 0 75.987 66.988">
  <g id="Daman-01" transform="translate(0)" style="isolation: isolate">
    <path id="Path_2428" data-name="Path 2428" d="M104.816,686.544h-1.974v-12.1h1.452c3.445,0,4.537.275,5.837,1.5a6.038,6.038,0,0,1,1.813,4.489A5.786,5.786,0,0,1,109,685.794a8.156,8.156,0,0,1-4.186.75m4.689-14.189c-1.576-.513-2.876-.655-6.093-.655H99.9v17.635h3.54c4.167,0,5.049-.123,6.786-.949a8.365,8.365,0,0,0,2.885-2.354,9.085,9.085,0,0,0,1.851-5.467,8.713,8.713,0,0,0-5.457-8.21" transform="translate(-99.89 -622.603)" fill="#002e6d"/>
    <path id="Path_2429" data-name="Path 2429" d="M282.889,725.733v3.113a6.744,6.744,0,0,1-3.009.911c-1.006,0-1.661-.56-1.661-1.433,0-1.253,1.3-1.87,2.382-2.164a15.347,15.347,0,0,1,2.287-.427m1.054-6.2a5.381,5.381,0,0,0-3.218-.835,10.066,10.066,0,0,0-2.819.4,10.648,10.648,0,0,0-1.082.418l-.076.038-.854,3.36.674-.389a7.018,7.018,0,0,1,3.853-1.272c1.756,0,2.449.645,2.468,2.3l-.408.019c-2.544.161-4.157.636-5.41,1.585a4.216,4.216,0,0,0-1.67,3.274,3.752,3.752,0,0,0,4.034,3.7,6.744,6.744,0,0,0,3.18-.826c.076-.047.171-.1.275-.18v.75H285.7v-7.147c0-2.781-.1-3.274-.949-4.413a4.13,4.13,0,0,0-.807-.778" transform="translate(-258.733 -665.143)" fill="#002e6d"/>
    <path id="Path_2430" data-name="Path 2430" d="M433.439,719.657a5.288,5.288,0,0,0-3.853-1.528,6.027,6.027,0,0,0-4.129,1.594,4.449,4.449,0,0,0-2.041-1.329,4.852,4.852,0,0,0-1.746-.294,5.772,5.772,0,0,0-2.828.769l-.18.133-.18.133v-.7H415.7v12.889h2.781v-9.463a4.493,4.493,0,0,1,2.705-.921,2.32,2.32,0,0,1,2.5,1.7,9.914,9.914,0,0,1,.123,2.221v6.473h2.809v-6.445l.028-1.12a5.263,5.263,0,0,0-.2-1.746,3.19,3.19,0,0,1,.351-.275,3.972,3.972,0,0,1,2.344-.778,2.466,2.466,0,0,1,2.648,1.832,9.808,9.808,0,0,1,.123,1.984v6.549h2.866v-6.549a9.434,9.434,0,0,0-.351-3.559,4.691,4.691,0,0,0-.987-1.566" transform="translate(-385.717 -664.6)" fill="#002e6d"/>
    <path id="Path_2431" data-name="Path 2431" d="M647.469,725.733v3.113a6.777,6.777,0,0,1-3.018.911c-1.006,0-1.661-.56-1.661-1.433,0-1.253,1.291-1.87,2.382-2.164a15.77,15.77,0,0,1,2.3-.427m1.054-6.2a5.37,5.37,0,0,0-3.208-.835,10.016,10.016,0,0,0-2.819.4,9.843,9.843,0,0,0-1.082.418l-.076.038-.845,3.36.674-.389a7.018,7.018,0,0,1,3.853-1.272c1.756,0,2.449.645,2.468,2.3l-.408.019c-2.534.161-4.157.636-5.4,1.585a4.2,4.2,0,0,0-1.68,3.274,3.752,3.752,0,0,0,4.034,3.7,6.678,6.678,0,0,0,3.17-.826c.076-.047.171-.1.275-.18v.75h2.809v-7.147c0-2.781-.1-3.274-.94-4.413a5.18,5.18,0,0,0-.826-.778" transform="translate(-588.727 -665.143)" fill="#002e6d"/>
    <path id="Path_2432" data-name="Path 2432" d="M787.775,718.7a5.621,5.621,0,0,0-3.085.845v-.56H781.9v12.889h2.79V722.24a4.171,4.171,0,0,1,2.6-.864,2.869,2.869,0,0,1,2.686,1.471,6.373,6.373,0,0,1,.3,1.965v7.061h2.866v-6.986c-.019-4-1.917-6.188-5.372-6.188" transform="translate(-717.159 -665.143)" fill="#002e6d"/>
    <path id="Path_2433" data-name="Path 2433" d="M115.347,475.5v5.885a6.34,6.34,0,1,1-11.551-3.607H100.54a9.2,9.2,0,1,0,17.663,3.607V475.5Z" transform="translate(-99.8 -445.025)" fill="#002e6d"/>
    <path id="Path_2434" data-name="Path 2434" d="M182.865,442.032a1.632,1.632,0,1,0-1.633,1.633,1.632,1.632,0,0,0,1.633-1.633" transform="translate(-172.026 -413.257)" fill="#002e6d"/>
    <path id="Path_2435" data-name="Path 2435" d="M785.365,427.132a1.633,1.633,0,1,0-1.633,1.632,1.632,1.632,0,0,0,1.633-1.632" transform="translate(-717.34 -399.771)" fill="#002e6d"/>
    <path id="Path_2436" data-name="Path 2436" d="M366.2,440.268h-7.678c2.809-6.948,7.849-7.166,8.457-7.166,2.866,0,4.319,1.205,4.319,3.588s-1.708,3.578-5.1,3.578m-29.423,2.193c-1.841,0-3.35-1.813-3.36-4.034l.009-.171h0c.066-2.164,1.547-3.9,3.35-3.9s3.284,1.737,3.35,3.9h0l.009.171c-.019,2.23-1.509,4.034-3.36,4.034m30.211-12.215c-.845,0-8.153.294-11.513,10.023H355.4a1.917,1.917,0,0,1-2.1-2.012v-4.641l-2.942,2.041v2.6a1.917,1.917,0,0,1-2.1,2.012h-3.18a1.921,1.921,0,0,1-2.088-1.851h0c0-3.815-2.79-6.919-6.217-6.919s-6.217,3.1-6.217,6.919h0a1.921,1.921,0,0,1-2.088,1.851h-4.508a1.917,1.917,0,0,1-2.1-2.012V425.5H319v12.756a4.768,4.768,0,0,0,4.955,4.879h4.508a5.294,5.294,0,0,0,3.085-.978,5.887,5.887,0,0,0,10.45-.01,5.232,5.232,0,0,0,2.914.978h3.35a5.135,5.135,0,0,0,3.569-1.4,5.075,5.075,0,0,0,3.36,1.386l11.019.009c4.983,0,7.963-2.411,7.963-6.445-.01-3.967-2.762-6.435-7.185-6.435" transform="translate(-298.195 -399.771)" fill="#002e6d"/>
    <path id="Path_2437" data-name="Path 2437" d="M128.113,165.42c-8.011-7.356-15.983-14.844-28.113-8.77,12.291-5.514,19.021,4.224,26.946,11.494,7.944,7.289,16.8,11.646,28.825,5.619-13.449,5.438-19.789-1.129-27.658-8.343" transform="translate(-99.981 -154.422)" fill="#002e6d"/>
    <path id="Path_2438" data-name="Path 2438" d="M485.291,215.5A11.909,11.909,0,0,1,463.1,222c2.553,5.476,8.476,8.485,14.057,6.853s8.931-7.384,8.134-13.354" transform="translate(-428.618 -209.703)" fill="#002e6d"/>
    <path id="Path_2439" data-name="Path 2439" d="M512.494,183.925a7.042,7.042,0,0,0-3.369.683,5.852,5.852,0,0,1,1.424-.123,5.624,5.624,0,1,1-5.249,8.2,7.085,7.085,0,1,0,7.194-8.76" transform="translate(-466.812 -181.118)" fill="#8a1e41"/>
  </g>
</svg>
