<svg xmlns="http://www.w3.org/2000/svg" xmlns:xlink="http://www.w3.org/1999/xlink" width="60.765" height="64.803" viewBox="0 0 60.765 64.803">
  <defs>
    <linearGradient id="linear-gradient" x1="0.631" y1="0.685" x2="0.04" y2="0.086" gradientUnits="objectBoundingBox">
      <stop offset="0.009" stop-color="#66b9cc"/>
      <stop offset="0.085" stop-color="#16accc"/>
      <stop offset="0.23" stop-color="#259c8c"/>
      <stop offset="1" stop-color="#43b462"/>
    </linearGradient>
    <clipPath id="clip-path">
      <path id="Path_2388" data-name="Path 2388" d="M307.985,217.228h0m5.175-13.5-19.034-14.891a.772.772,0,0,0-.162.122,1.942,1.942,0,0,0-.536.049,2.71,2.71,0,0,1-.626.049,2.63,2.63,0,0,0-1.373.5,1.765,1.765,0,0,0-.658,1.365,1.989,1.989,0,0,0,.171.853c-.244.219-.52.471-.65.593l-.382-.13-.244-.081-.13-.041-.057-.016c-2.031.894-1.8.8-1.584.7.13-.057.252-.106,0,0v.008l-.008.024-.024.049a6.739,6.739,0,0,0-.374,1.324,2.341,2.341,0,0,0,.057,1.137,2.676,2.676,0,0,0,.447.82.682.682,0,0,1,.065.1c-.065.008-.081.008.008.008.041.057.065.106.073.089l.008.024.033.154c.032.106.049.154.073.227s.049.122.073.187h0a.138.138,0,0,0,.016.041c.016.049.033.1.041.1v.008l.008.041.016.073.089.3a1.875,1.875,0,0,0,.244.4h0l.024.024v.033c.016.2.179.366.268.536.106.2.057.292.057.5v.008l.024.057.049.106c0,.008.089.179.106.211h0a1.717,1.717,0,0,1,.122.3,4.651,4.651,0,0,0,.195.5c.057.122.227.52.081.6a1.583,1.583,0,0,1,.049.439,1.4,1.4,0,0,0,.2.569,1.113,1.113,0,0,0,.91.536.03.03,0,0,0,.008.024,3.883,3.883,0,0,0,.39.455c.065.2.13.471.195.756.024.081.024.138.057.252.008.008.008.032.016.057a2.128,2.128,0,0,0-.106.227,1.1,1.1,0,0,0-.024.7,2.5,2.5,0,0,0,.106.341l-.008.292a1.728,1.728,0,0,0,.1.674l.057.219.008.024v.008c-.041-.057-.065-.1-.065-.1a1.149,1.149,0,0,0,.065.106v-.008c.032.057.073.122.114.195l.171.284v.008l.041.033.024.016c.008.024.032.065.13.244l.268.357.065.089c.195.219.195.211.195.2s0-.016.032.024l.179.13c.138.065.617.512.528.341l.447.772c.26.292.284,1.015.528,1.609a2.891,2.891,0,0,0,.69.885,1.822,1.822,0,0,0,.317.244.675.675,0,0,0,.1.414c.845.7.528,1.812.6,2.681a.116.116,0,0,1,.049-.016,1.616,1.616,0,0,1,.284-1.007,3.725,3.725,0,0,0-.008-1.04c-.073-.284-.187-.357-.2-.463a2.4,2.4,0,0,0-.187-.455.614.614,0,0,0-.081-.528c-.114-.146-.284-.292-.309-.341a3.33,3.33,0,0,1-.4-.6,8.284,8.284,0,0,0-.382-1.917l-.341-.829a4.964,4.964,0,0,0-.788-.845l-.122-.106-.032-.057-.195-.341c.057.1-.041-.114-.033-.122l-.033-.106-.008-.024v-.008c.024.033-.073-.1-.154-.211l-.008-.057c0-.041-.089-.528-.016-.211l.057-.447.008-.057v-.033l.008-.016c-.008-.033-.041-.2-.065-.349a2.228,2.228,0,0,0,.163-.292,1.864,1.864,0,0,0,.1-.366,1.327,1.327,0,0,0-.179-.739c.057.081.081.138.1.154a.289.289,0,0,1-.008-.049c-.008-.032-.016-.13-.032-.195-.041-.292-.073-.6-.163-.991-.041-.13-.057-.2-.122-.374a2.565,2.565,0,0,0-.292-.447,1.579,1.579,0,0,1-.171-.244c-.049-.065-.065-.154-.211-.382a2.336,2.336,0,0,0-.252-.341c.057,0-.057-.1-.236-.2a.236.236,0,0,1-.016-.073c-.016-.073.033-.219.024-.3a6.125,6.125,0,0,0-.236-.861c-.033-.106-.065-.211-.106-.333a.668.668,0,0,0-.008-.284,1.522,1.522,0,0,0-.219-.626c-.244-.341-.146-.236-.122-.2h0a.642.642,0,0,0-.024-.106l-.008-.057v-.008c-.008-.032-.024-.114-.065-.292l-.016-.065a2.548,2.548,0,0,0-.252-.487,2.649,2.649,0,0,0-.089-.349l-.024-.081a1.533,1.533,0,1,0-.057-.146c0,.008.008.016,0-.008a.119.119,0,0,1-.016-.032,3.643,3.643,0,0,0-.179-.577,2.22,2.22,0,0,0-.106-.236c.439-.008,1.015-.032.512-.016a.923.923,0,0,0,.122-.057l.195-.1a3.3,3.3,0,0,0,.707-.512c.041-.033.081-.081.122-.122h.016l.284-.032h.033c-.236.154-.341.219,0,0h0c.114-.073.26-.171.406-.26.349-.227.7-.455.609-.39v-.008l.008-.016.033-.057c.057-.041.146-.114.3-.227.487-.341.447-1.121.366-1.511a2.8,2.8,0,0,0,.788-.195.028.028,0,0,0,.016.008,2.547,2.547,0,0,1,.292.2.1.1,0,0,1,.024.016,2.653,2.653,0,0,0,.406.366c.7.52,1.324.894,2.031,1.332l.089.057.024.073a1.17,1.17,0,0,0,.422.626l-.016.073a5.2,5.2,0,0,0,.747,1.405l.024.008.033.016.292.154.593.309.154.081.081.041h0c-.138-.008-.292-.016,1.024.089l.016-.008.049-.016.284-.089a5.092,5.092,0,0,0,1.21.585l.268.073c.041.065.024.065.309.366a1.691,1.691,0,0,0,.91.455,3.542,3.542,0,0,0,.479.885,8.77,8.77,0,0,0,.617.731,2.3,2.3,0,0,0,.252.252v.008c-.008-.008-.024-.016-.032-.033-.049-.057-.008,0,.041.065a1.922,1.922,0,0,1,.008.195l.008.008a.475.475,0,0,1,.016-.122c0-.008,0-.008.008-.016.008.008.008.016.016.024a1.491,1.491,0,0,0-.016.82,3.2,3.2,0,0,0,.317.731c.081.122.236.455.349.682.024.049.171.349.236.455l.106.179c.032.049.024.041.016.033s-.032-.033.219.3l.081.089c.227.227.447.447.707.666a3.341,3.341,0,0,0,1.186.707,3.131,3.131,0,0,0,1.405.024c.2-.041.2-.024.154-.032.032-.008.252.016.366.024l.422.032.106.008h.016c-.024,0-.057.008.325-.008l.049-.008.211-.033h.033c.642-.236.609-.227.544-.2l.041-.024.089-.057.179-.114.357-.236.089-.057.049-.032.024-.016.252-.252.171-.171.1-.154c.106.171.219.333.366.528a2.83,2.83,0,0,0,.577.609c.1.073.211.162.357.268a3.609,3.609,0,0,0,1.17.593c.284.081.341.13.707.227.033.049.049.081.065.089a4.941,4.941,0,0,0,.3.431l.041.057a1.671,1.671,0,0,0,.171.171c-.008.016-.016.024-.024.041a2.9,2.9,0,0,1-.9,1,3.408,3.408,0,0,0-1.43,2.413,1.043,1.043,0,0,0-.211.13c-.552.447-.609.341-1.064,1.129a2.437,2.437,0,0,0-.414.008,1.708,1.708,0,0,0-.479.138,1.978,1.978,0,0,0-.5.357c-.073.081-.163.179-.219.252l-.179.236-.041.057-.024.032c-.041.171-.024.089-.008.008.016-.1.041-.2-.049.219h-.033l-.219-.016-.024-.008c-.13.032-.073.016-.008,0a5.918,5.918,0,1,1-.837.211l-.024.016-.057.033c-.081.057-.162.081-.227.122a3.141,3.141,0,0,1-.52.1l-.041.008c-.1.032-.049.016-.008,0,.081-.033.154-.065-.577.211l-.024.016-.089.057-.179.114c-.154.106-.171.106-.439.292a2.842,2.842,0,0,0-.739.959,1.975,1.975,0,0,0-.227.114c-.065.041-.13.1-.195.146-.049.008-.1.024-.138.032-.626.154-.853.179-1.608.317-.106.024-.268.024-.073.041a1.889,1.889,0,0,0-1.186.4c-.073.073-.309.162-.723.439-.073.057-.13.1-.163.122-.162,0-.317-.008-.658.008l-.2.008-.1.008h-.024c.089-.049-.252.122-.585.3-.431.219-.853.439-.382.195l-.033.041-.081.1-.106.024-.024.008c-.024.016-.081.049-.162.1h-.008c-.317-.033-.325-.089-.634-.106l-.122,2.778c.106.016.2.032.227.041a.788.788,0,0,0,.1.016l.057.016a1.83,1.83,0,0,0,.561.065,1.516,1.516,0,0,0,.8-.252l.106-.024.1-.016.049-.008.024-.008c-.382.236-.024.024.325-.187.268-.162.536-.325.471-.284l.049-.057c.154,0,.366.008.528,0a2.367,2.367,0,0,0,1.032-.317,4.147,4.147,0,0,0,.39-.284c.033-.041.3-.146.65-.382.154-.016.236-.041.333-.057.317-.057,1.186-.2,1.657-.333a1.4,1.4,0,0,0,.146-.032h.008c.032-.008.195-.049.414-.122a1.846,1.846,0,0,0,.52-.284l.016-.008.049-.024.195-.081.2-.081.276-.552a3.861,3.861,0,0,0,.268-.837l.049.024c.057.065.057.057.049.041.016.032.057.1.138.236.024-.016.2-.138.284-.187l.057-.032a3.649,3.649,0,0,0,.934-.236c.114-.049.227-.106.333-.162a2.706,2.706,0,0,0,.609-.024l.154-.024c.016-.008.065-.016.13-.041.106-.008-.089-.024-.349-.041.593-.1,1.284-.2,1.121-.187l.024-.016c.114-.106.016-.008.284-.236a2.155,2.155,0,0,0,.5-.747,4.023,4.023,0,0,0,.447-.024l.033-.008.2-.089c.008,0,.211-.1.26-.122a1.647,1.647,0,0,0,.577-.487,2.681,2.681,0,0,0,.154-.252,3.617,3.617,0,0,0,.195-.422.248.248,0,0,0,.081-.1.584.584,0,0,0,.106-.008c-.016.024.91-.138,1.129-.642a1.515,1.515,0,0,0,.309-.934,1.657,1.657,0,0,0,0-.414,3.117,3.117,0,0,1-.016-.325v-.016a2.02,2.02,0,0,1,.439-.439,5.906,5.906,0,0,0,1.495-1.682,5.257,5.257,0,0,0,.544-1.113,1.849,1.849,0,0,0-.073-1.568,1.789,1.789,0,0,0-.487-.569c-.016-.008-.049-.033-.049-.041l-.187-.138-.138-.106a1.763,1.763,0,0,1-.122-.179c.122-.065.049-.057-.024-.033s-.179.041-.024-.032l-.057-.106-.138-.2a1.553,1.553,0,0,0-.211-.244,2.245,2.245,0,0,0-.374-.3,1.071,1.071,0,0,0-.309-.171l-.276-.089s-.114-.024-.106-.033H317.6l-.033-.008c.008-.162-.041-.065-.049-.016l-.179-.049-.414-.138c-.073-.024-.146-.049-.244-.073-.008-.049-.13-.049-.162-.122-.081-.065-.187-.146-.309-.236-.016-.024-.032-.041-.065-.089-.089-.114-.179-.252-.284-.4a1.912,1.912,0,0,0,.033-.252,1.881,1.881,0,0,0-.406-1.478,1.52,1.52,0,0,0-.829-.487,2.289,2.289,0,0,0-.528-.008,1.443,1.443,0,0,0-.569.179,3.572,3.572,0,0,0-1.1.829c-.114.114-.211.219-.309.325l-.106.106a1.617,1.617,0,0,0-.349.406l-.211.325-.284.179-.057.041-.349-.032c-.162-.008-.227-.024-.471-.032a4.392,4.392,0,0,0-.674.065c-.114.065-.171.057-.219.033-.024-.057-.179.008-.252-.162-.154-.138-.325-.292-.479-.455l-.065-.114c-.081-.138-.041-.1-.146-.292-.138-.26-.2-.431-.39-.747v-.162c-.008-.219-.024-.374-.041-.536l-.033-.244c.016.041-.041-.138-.1-.317-.081-.236-.154-.463-.081-.219l-.008-.024-.033-.049-.057-.1a4.841,4.841,0,0,0-.341-.512c-.317-.325-.3-.317-.284-.3a.308.308,0,0,1-.041-.049,6.123,6.123,0,0,1-.414-.479c-.041-.008.016-.1-.114-.041.114-.1.024-.057.041-.081-.008-.008-.081-.2-.122-.292a2.327,2.327,0,0,0-1.17-1.308,2.406,2.406,0,0,0-.455-.154l-.073-.106-.057-.073-.024-.032-.016-.016c-.122-.081-.065-.049-.008-.008.106.065.2.13-.731-.5l-.707-.187c.122.073-.69-.374-.983-.536l-.154-.081c.089,0-.252-.024-.609-.057-.479-.041-.975-.089-.447-.033l-.016.008-.041.016-.081.024-.1.032a2.378,2.378,0,0,0-.2-.658,2.282,2.282,0,0,0-.154-.252,1.612,1.612,0,0,0-.341-.357l-.666-.885-.032-.024-.512-.309c-.658-.4-1.332-.82-1.787-1.162l-.049-.041c0-.016.008-.016,0,0a3.1,3.1,0,0,0-.317-.292c-.2-.162-.374-.276-.552-.4-.179-.106-.341-.2-.544-.309a3.332,3.332,0,0,0-.447-.187c-.065.032-.033.008-.041-.024,0-.016-.032-.041-.122-.041a2.362,2.362,0,0,0-.91.154" transform="translate(-287.444 -188.671)"/>
    </clipPath>
    <linearGradient id="linear-gradient-2" x1="0.462" y1="0.437" x2="0.79" y2="0.658" gradientUnits="objectBoundingBox">
      <stop offset="0" stop-color="#00a2cf"/>
      <stop offset="0.64" stop-color="#97c4cb"/>
      <stop offset="1" stop-color="#c29c70"/>
    </linearGradient>
    <clipPath id="clip-path-2">
      <path id="Path_2390" data-name="Path 2390" d="M211.535,101.2a14.321,14.321,0,0,0-10.057,4.135,15.375,15.375,0,0,0-4.5,11.755,18.839,18.839,0,0,0,2.713,8.311c1.024,1.763,1.714,2.656,1.706,2.665a50.781,50.781,0,0,0,7.6,8.457c.642.569,1.3,1.178,2.007,1.763l1.08.91.033.033.016.016c-.317-.138-.033-.008.26.122.219.1.447.2.39.171l.081.016.154.024c.1.016.227.041.341.065.236.041.512.089.78.122a4.643,4.643,0,0,0,2.007-.13,2.827,2.827,0,0,0,1.089-.674h.122l.13-2.778a5.656,5.656,0,0,0-.642.008l-.195.016-.089.008h-.049c-.138.073-.073.032-.008,0,.114-.065.236-.122-.853.439l-.016.016-.26.284c-.008.008-.016.008-.016.016s-.016.008-.041.016a2.471,2.471,0,0,1-.885.008c-.2-.024-.4-.057-.626-.1-.1-.016-.171-.024-.268-.049l-.853-.715c-.691-.561-1.316-1.154-1.942-1.7a48.471,48.471,0,0,1-7.206-8.01c0-.016-.642-.853-1.568-2.445a16.009,16.009,0,0,1-2.34-7.059,12.482,12.482,0,0,1,3.672-9.578,11.6,11.6,0,0,1,11.284-2.933,10.792,10.792,0,0,1,2.892,1.251c.422.3.8.577,1.308,1.007a4.283,4.283,0,0,0,1.056.691,2.37,2.37,0,0,0,1.868.016,8.664,8.664,0,0,0,1.73-1.227,9.1,9.1,0,0,1,1.332-.812,11.229,11.229,0,0,1,2.99-1.08,11.908,11.908,0,0,1,10.975,3.729,13.947,13.947,0,0,1,3.128,5.037l2.51-.991a16.876,16.876,0,0,0-3.729-6,14.559,14.559,0,0,0-13.4-4.492,14.155,14.155,0,0,0-3.648,1.308,12.276,12.276,0,0,0-1.714,1.048c-.479.374-.894.731-1.08.853-.276-.244-1.178-.894-1.909-1.438a12.941,12.941,0,0,0-3.615-1.576,13.27,13.27,0,0,0-3.737-.528Z" transform="translate(-196.948 -101.2)"/>
    </clipPath>
    <linearGradient id="linear-gradient-3" x1="0.548" y1="0.091" x2="0.47" y2="0.988" gradientUnits="objectBoundingBox">
      <stop offset="0" stop-color="#c29c70"/>
      <stop offset="0.991" stop-color="#f1b14d"/>
    </linearGradient>
    <clipPath id="clip-path-3">
      <path id="Path_2392" data-name="Path 2392" d="M724.275,235.383a12.437,12.437,0,0,1,.739,3.834c0,.154.008.3,0,.447a15.616,15.616,0,0,1-1.47,6.044c-.114.268-.227.512-.325.747-.4.82-.8,1.6-1.219,2.348l2.494,1.007c.39-.682.764-1.4,1.129-2.153.146-.349.325-.739.512-1.178a17.864,17.864,0,0,0,1.56-6.775v-.1a15.333,15.333,0,0,0-.91-5.207Z" transform="translate(-722 -234.4)"/>
    </clipPath>
    <linearGradient id="linear-gradient-4" x1="0.217" y1="0.92" x2="0.879" y2="0.045" gradientUnits="objectBoundingBox">
      <stop offset="0.009" stop-color="#f6ec41"/>
      <stop offset="1" stop-color="#f6ad4d"/>
    </linearGradient>
    <clipPath id="clip-path-4">
      <path id="Path_2394" data-name="Path 2394" d="M501.953,421.771a63.581,63.581,0,0,1-10.853,9.472,49.071,49.071,0,0,0,12.186-7.994,41.9,41.9,0,0,0,9.082-10.943l-2.494-1.007a53.744,53.744,0,0,1-7.921,10.471" transform="translate(-491.1 -411.3)"/>
    </clipPath>
  </defs>
  <g id="Live-Saudi-01" transform="translate(0)" style="isolation: isolate">
    <g id="Group_2273" data-name="Group 2273" transform="translate(0 0)">
      <g id="Group_2266" data-name="Group 2266" transform="translate(13.123 7.106)">
        <path id="Path_2387" data-name="Path 2387" d="M307.985,217.228h0m5.175-13.5-19.034-14.891a.772.772,0,0,0-.162.122,1.942,1.942,0,0,0-.536.049,2.71,2.71,0,0,1-.626.049,2.63,2.63,0,0,0-1.373.5,1.765,1.765,0,0,0-.658,1.365,1.989,1.989,0,0,0,.171.853c-.244.219-.52.471-.65.593l-.382-.13-.244-.081-.13-.041-.057-.016c-2.031.894-1.8.8-1.584.7.13-.057.252-.106,0,0v.008l-.008.024-.024.049a6.739,6.739,0,0,0-.374,1.324,2.341,2.341,0,0,0,.057,1.137,2.676,2.676,0,0,0,.447.82.682.682,0,0,1,.065.1c-.065.008-.081.008.008.008.041.057.065.106.073.089l.008.024.033.154c.032.106.049.154.073.227s.049.122.073.187h0a.138.138,0,0,0,.016.041c.016.049.033.1.041.1v.008l.008.041.016.073.089.3a1.875,1.875,0,0,0,.244.4h0l.024.024v.033c.016.2.179.366.268.536.106.2.057.292.057.5v.008l.024.057.049.106c0,.008.089.179.106.211h0a1.717,1.717,0,0,1,.122.3,4.651,4.651,0,0,0,.195.5c.057.122.227.52.081.6a1.583,1.583,0,0,1,.049.439,1.4,1.4,0,0,0,.2.569,1.113,1.113,0,0,0,.91.536.03.03,0,0,0,.008.024,3.883,3.883,0,0,0,.39.455c.065.2.13.471.195.756.024.081.024.138.057.252.008.008.008.032.016.057a2.128,2.128,0,0,0-.106.227,1.1,1.1,0,0,0-.024.7,2.5,2.5,0,0,0,.106.341l-.008.292a1.728,1.728,0,0,0,.1.674l.057.219.008.024v.008c-.041-.057-.065-.1-.065-.1a1.149,1.149,0,0,0,.065.106v-.008c.032.057.073.122.114.195l.171.284v.008l.041.033.024.016c.008.024.032.065.13.244l.268.357.065.089c.195.219.195.211.195.2s0-.016.032.024l.179.13c.138.065.617.512.528.341l.447.772c.26.292.284,1.015.528,1.609a2.891,2.891,0,0,0,.69.885,1.822,1.822,0,0,0,.317.244.675.675,0,0,0,.1.414c.845.7.528,1.812.6,2.681a.116.116,0,0,1,.049-.016,1.616,1.616,0,0,1,.284-1.007,3.725,3.725,0,0,0-.008-1.04c-.073-.284-.187-.357-.2-.463a2.4,2.4,0,0,0-.187-.455.614.614,0,0,0-.081-.528c-.114-.146-.284-.292-.309-.341a3.33,3.33,0,0,1-.4-.6,8.284,8.284,0,0,0-.382-1.917l-.341-.829a4.964,4.964,0,0,0-.788-.845l-.122-.106-.032-.057-.195-.341c.057.1-.041-.114-.033-.122l-.033-.106-.008-.024v-.008c.024.033-.073-.1-.154-.211l-.008-.057c0-.041-.089-.528-.016-.211l.057-.447.008-.057v-.033l.008-.016c-.008-.033-.041-.2-.065-.349a2.228,2.228,0,0,0,.163-.292,1.864,1.864,0,0,0,.1-.366,1.327,1.327,0,0,0-.179-.739c.057.081.081.138.1.154a.289.289,0,0,1-.008-.049c-.008-.032-.016-.13-.032-.195-.041-.292-.073-.6-.163-.991-.041-.13-.057-.2-.122-.374a2.565,2.565,0,0,0-.292-.447,1.579,1.579,0,0,1-.171-.244c-.049-.065-.065-.154-.211-.382a2.336,2.336,0,0,0-.252-.341c.057,0-.057-.1-.236-.2a.236.236,0,0,1-.016-.073c-.016-.073.033-.219.024-.3a6.125,6.125,0,0,0-.236-.861c-.033-.106-.065-.211-.106-.333a.668.668,0,0,0-.008-.284,1.522,1.522,0,0,0-.219-.626c-.244-.341-.146-.236-.122-.2h0a.642.642,0,0,0-.024-.106l-.008-.057v-.008c-.008-.032-.024-.114-.065-.292l-.016-.065a2.548,2.548,0,0,0-.252-.487,2.649,2.649,0,0,0-.089-.349l-.024-.081a1.533,1.533,0,1,0-.057-.146c0,.008.008.016,0-.008a.119.119,0,0,1-.016-.032,3.643,3.643,0,0,0-.179-.577,2.22,2.22,0,0,0-.106-.236c.439-.008,1.015-.032.512-.016a.923.923,0,0,0,.122-.057l.195-.1a3.3,3.3,0,0,0,.707-.512c.041-.033.081-.081.122-.122h.016l.284-.032h.033c-.236.154-.341.219,0,0h0c.114-.073.26-.171.406-.26.349-.227.7-.455.609-.39v-.008l.008-.016.033-.057c.057-.041.146-.114.3-.227.487-.341.447-1.121.366-1.511a2.8,2.8,0,0,0,.788-.195.028.028,0,0,0,.016.008,2.547,2.547,0,0,1,.292.2.1.1,0,0,1,.024.016,2.653,2.653,0,0,0,.406.366c.7.52,1.324.894,2.031,1.332l.089.057.024.073a1.17,1.17,0,0,0,.422.626l-.016.073a5.2,5.2,0,0,0,.747,1.405l.024.008.033.016.292.154.593.309.154.081.081.041h0c-.138-.008-.292-.016,1.024.089l.016-.008.049-.016.284-.089a5.092,5.092,0,0,0,1.21.585l.268.073c.041.065.024.065.309.366a1.691,1.691,0,0,0,.91.455,3.542,3.542,0,0,0,.479.885,8.77,8.77,0,0,0,.617.731,2.3,2.3,0,0,0,.252.252v.008c-.008-.008-.024-.016-.032-.033-.049-.057-.008,0,.041.065a1.922,1.922,0,0,1,.008.195l.008.008a.475.475,0,0,1,.016-.122c0-.008,0-.008.008-.016.008.008.008.016.016.024a1.491,1.491,0,0,0-.016.82,3.2,3.2,0,0,0,.317.731c.081.122.236.455.349.682.024.049.171.349.236.455l.106.179c.032.049.024.041.016.033s-.032-.033.219.3l.081.089c.227.227.447.447.707.666a3.341,3.341,0,0,0,1.186.707,3.131,3.131,0,0,0,1.405.024c.2-.041.2-.024.154-.032.032-.008.252.016.366.024l.422.032.106.008h.016c-.024,0-.057.008.325-.008l.049-.008.211-.033h.033c.642-.236.609-.227.544-.2l.041-.024.089-.057.179-.114.357-.236.089-.057.049-.032.024-.016.252-.252.171-.171.1-.154c.106.171.219.333.366.528a2.83,2.83,0,0,0,.577.609c.1.073.211.162.357.268a3.609,3.609,0,0,0,1.17.593c.284.081.341.13.707.227.033.049.049.081.065.089a4.941,4.941,0,0,0,.3.431l.041.057a1.671,1.671,0,0,0,.171.171c-.008.016-.016.024-.024.041a2.9,2.9,0,0,1-.9,1,3.408,3.408,0,0,0-1.43,2.413,1.043,1.043,0,0,0-.211.13c-.552.447-.609.341-1.064,1.129a2.437,2.437,0,0,0-.414.008,1.708,1.708,0,0,0-.479.138,1.978,1.978,0,0,0-.5.357c-.073.081-.163.179-.219.252l-.179.236-.041.057-.024.032c-.041.171-.024.089-.008.008.016-.1.041-.2-.049.219h-.033l-.219-.016-.024-.008c-.13.032-.073.016-.008,0a5.918,5.918,0,1,1-.837.211l-.024.016-.057.033c-.081.057-.162.081-.227.122a3.141,3.141,0,0,1-.52.1l-.041.008c-.1.032-.049.016-.008,0,.081-.033.154-.065-.577.211l-.024.016-.089.057-.179.114c-.154.106-.171.106-.439.292a2.842,2.842,0,0,0-.739.959,1.975,1.975,0,0,0-.227.114c-.065.041-.13.1-.195.146-.049.008-.1.024-.138.032-.626.154-.853.179-1.608.317-.106.024-.268.024-.073.041a1.889,1.889,0,0,0-1.186.4c-.073.073-.309.162-.723.439-.073.057-.13.1-.163.122-.162,0-.317-.008-.658.008l-.2.008-.1.008h-.024c.089-.049-.252.122-.585.3-.431.219-.853.439-.382.195l-.033.041-.081.1-.106.024-.024.008c-.024.016-.081.049-.162.1h-.008c-.317-.033-.325-.089-.634-.106l-.122,2.778c.106.016.2.032.227.041a.788.788,0,0,0,.1.016l.057.016a1.83,1.83,0,0,0,.561.065,1.516,1.516,0,0,0,.8-.252l.106-.024.1-.016.049-.008.024-.008c-.382.236-.024.024.325-.187.268-.162.536-.325.471-.284l.049-.057c.154,0,.366.008.528,0a2.367,2.367,0,0,0,1.032-.317,4.147,4.147,0,0,0,.39-.284c.033-.041.3-.146.65-.382.154-.016.236-.041.333-.057.317-.057,1.186-.2,1.657-.333a1.4,1.4,0,0,0,.146-.032h.008c.032-.008.195-.049.414-.122a1.846,1.846,0,0,0,.52-.284l.016-.008.049-.024.195-.081.2-.081.276-.552a3.861,3.861,0,0,0,.268-.837l.049.024c.057.065.057.057.049.041.016.032.057.1.138.236.024-.016.2-.138.284-.187l.057-.032a3.649,3.649,0,0,0,.934-.236c.114-.049.227-.106.333-.162a2.706,2.706,0,0,0,.609-.024l.154-.024c.016-.008.065-.016.13-.041.106-.008-.089-.024-.349-.041.593-.1,1.284-.2,1.121-.187l.024-.016c.114-.106.016-.008.284-.236a2.155,2.155,0,0,0,.5-.747,4.023,4.023,0,0,0,.447-.024l.033-.008.2-.089c.008,0,.211-.1.26-.122a1.647,1.647,0,0,0,.577-.487,2.681,2.681,0,0,0,.154-.252,3.617,3.617,0,0,0,.195-.422.248.248,0,0,0,.081-.1.584.584,0,0,0,.106-.008c-.016.024.91-.138,1.129-.642a1.515,1.515,0,0,0,.309-.934,1.657,1.657,0,0,0,0-.414,3.117,3.117,0,0,1-.016-.325v-.016a2.02,2.02,0,0,1,.439-.439,5.906,5.906,0,0,0,1.495-1.682,5.257,5.257,0,0,0,.544-1.113,1.849,1.849,0,0,0-.073-1.568,1.789,1.789,0,0,0-.487-.569c-.016-.008-.049-.033-.049-.041l-.187-.138-.138-.106a1.763,1.763,0,0,1-.122-.179c.122-.065.049-.057-.024-.033s-.179.041-.024-.032l-.057-.106-.138-.2a1.553,1.553,0,0,0-.211-.244,2.245,2.245,0,0,0-.374-.3,1.071,1.071,0,0,0-.309-.171l-.276-.089s-.114-.024-.106-.033H317.6l-.033-.008c.008-.162-.041-.065-.049-.016l-.179-.049-.414-.138c-.073-.024-.146-.049-.244-.073-.008-.049-.13-.049-.162-.122-.081-.065-.187-.146-.309-.236-.016-.024-.032-.041-.065-.089-.089-.114-.179-.252-.284-.4a1.912,1.912,0,0,0,.033-.252,1.881,1.881,0,0,0-.406-1.478,1.52,1.52,0,0,0-.829-.487,2.289,2.289,0,0,0-.528-.008,1.443,1.443,0,0,0-.569.179,3.572,3.572,0,0,0-1.1.829c-.114.114-.211.219-.309.325l-.106.106a1.617,1.617,0,0,0-.349.406l-.211.325-.284.179-.057.041-.349-.032c-.162-.008-.227-.024-.471-.032a4.392,4.392,0,0,0-.674.065c-.114.065-.171.057-.219.033-.024-.057-.179.008-.252-.162-.154-.138-.325-.292-.479-.455l-.065-.114c-.081-.138-.041-.1-.146-.292-.138-.26-.2-.431-.39-.747v-.162c-.008-.219-.024-.374-.041-.536l-.033-.244c.016.041-.041-.138-.1-.317-.081-.236-.154-.463-.081-.219l-.008-.024-.033-.049-.057-.1a4.841,4.841,0,0,0-.341-.512c-.317-.325-.3-.317-.284-.3a.308.308,0,0,1-.041-.049,6.123,6.123,0,0,1-.414-.479c-.041-.008.016-.1-.114-.041.114-.1.024-.057.041-.081-.008-.008-.081-.2-.122-.292a2.327,2.327,0,0,0-1.17-1.308,2.406,2.406,0,0,0-.455-.154l-.073-.106-.057-.073-.024-.032-.016-.016c-.122-.081-.065-.049-.008-.008.106.065.2.13-.731-.5l-.707-.187c.122.073-.69-.374-.983-.536l-.154-.081c.089,0-.252-.024-.609-.057-.479-.041-.975-.089-.447-.033l-.016.008-.041.016-.081.024-.1.032a2.378,2.378,0,0,0-.2-.658,2.282,2.282,0,0,0-.154-.252,1.612,1.612,0,0,0-.341-.357l-.666-.885-.032-.024-.512-.309c-.658-.4-1.332-.82-1.787-1.162l-.049-.041c0-.016.008-.016,0,0a3.1,3.1,0,0,0-.317-.292c-.2-.162-.374-.276-.552-.4-.179-.106-.341-.2-.544-.309a3.332,3.332,0,0,0-.447-.187c-.065.032-.033.008-.041-.024,0-.016-.032-.041-.122-.041a2.362,2.362,0,0,0-.91.154" transform="translate(-287.444 -188.671)" fill="url(#linear-gradient)"/>
      </g>
      <g id="Group_2268" data-name="Group 2268" transform="translate(5.772)">
        <path id="Path_2389" data-name="Path 2389" d="M211.535,101.2a14.321,14.321,0,0,0-10.057,4.135,15.375,15.375,0,0,0-4.5,11.755,18.839,18.839,0,0,0,2.713,8.311c1.024,1.763,1.714,2.656,1.706,2.665a50.781,50.781,0,0,0,7.6,8.457c.642.569,1.3,1.178,2.007,1.763l1.08.91.033.033.016.016c-.317-.138-.033-.008.26.122.219.1.447.2.39.171l.081.016.154.024c.1.016.227.041.341.065.236.041.512.089.78.122a4.643,4.643,0,0,0,2.007-.13,2.827,2.827,0,0,0,1.089-.674h.122l.13-2.778a5.656,5.656,0,0,0-.642.008l-.195.016-.089.008h-.049c-.138.073-.073.032-.008,0,.114-.065.236-.122-.853.439l-.016.016-.26.284c-.008.008-.016.008-.016.016s-.016.008-.041.016a2.471,2.471,0,0,1-.885.008c-.2-.024-.4-.057-.626-.1-.1-.016-.171-.024-.268-.049l-.853-.715c-.691-.561-1.316-1.154-1.942-1.7a48.471,48.471,0,0,1-7.206-8.01c0-.016-.642-.853-1.568-2.445a16.009,16.009,0,0,1-2.34-7.059,12.482,12.482,0,0,1,3.672-9.578,11.6,11.6,0,0,1,11.284-2.933,10.792,10.792,0,0,1,2.892,1.251c.422.3.8.577,1.308,1.007a4.283,4.283,0,0,0,1.056.691,2.37,2.37,0,0,0,1.868.016,8.664,8.664,0,0,0,1.73-1.227,9.1,9.1,0,0,1,1.332-.812,11.229,11.229,0,0,1,2.99-1.08,11.908,11.908,0,0,1,10.975,3.729,13.947,13.947,0,0,1,3.128,5.037l2.51-.991a16.876,16.876,0,0,0-3.729-6,14.559,14.559,0,0,0-13.4-4.492,14.155,14.155,0,0,0-3.648,1.308,12.276,12.276,0,0,0-1.714,1.048c-.479.374-.894.731-1.08.853-.276-.244-1.178-.894-1.909-1.438a12.941,12.941,0,0,0-3.615-1.576,13.27,13.27,0,0,0-3.737-.528Z" transform="translate(-196.948 -101.2)" fill="url(#linear-gradient-2)"/>
      </g>
      <g id="Group_2270" data-name="Group 2270" transform="translate(48.425 10.821)">
        <path id="Path_2391" data-name="Path 2391" d="M724.275,235.383a12.437,12.437,0,0,1,.739,3.834c0,.154.008.3,0,.447a15.616,15.616,0,0,1-1.47,6.044c-.114.268-.227.512-.325.747-.4.82-.8,1.6-1.219,2.348l2.494,1.007c.39-.682.764-1.4,1.129-2.153.146-.349.325-.739.512-1.178a17.864,17.864,0,0,0,1.56-6.775v-.1a15.333,15.333,0,0,0-.91-5.207Z" transform="translate(-722 -234.4)" fill="url(#linear-gradient-3)"/>
      </g>
      <g id="Group_2272" data-name="Group 2272" transform="translate(29.668 25.192)">
        <path id="Path_2393" data-name="Path 2393" d="M501.953,421.771a63.581,63.581,0,0,1-10.853,9.472,49.071,49.071,0,0,0,12.186-7.994,41.9,41.9,0,0,0,9.082-10.943l-2.494-1.007a53.744,53.744,0,0,1-7.921,10.471" transform="translate(-491.1 -411.3)" fill="url(#linear-gradient-4)"/>
      </g>
      <path id="Path_2395" data-name="Path 2395" d="M127.3,691.859a2.173,2.173,0,0,1-.7-.252,1.4,1.4,0,0,1-.5-.5,1.492,1.492,0,0,1-.195-.8,2.384,2.384,0,0,1,.171-.885,2.2,2.2,0,0,1,.52-.772,2.806,2.806,0,0,1,.877-.561,3.749,3.749,0,0,1,1.251-.26l-.081-1.259c.179-.089.349-.171.512-.252s.3-.146.422-.211q.219-.11.414-.2l-.268,4.761h.065v1.243h-1.714a3.125,3.125,0,0,1-.772-.057m1.34-1.17.1-1.641h-.187a2.09,2.09,0,0,0-.487.057,1.6,1.6,0,0,0-.487.187,1.233,1.233,0,0,0-.382.325.787.787,0,0,0-.154.479.633.633,0,0,0,.049.252.542.542,0,0,0,.154.2.835.835,0,0,0,.268.138,1.343,1.343,0,0,0,.39.049Zm-.78-6.3a.545.545,0,0,1,.049-.227.741.741,0,0,1,.122-.187.528.528,0,0,1,.617-.13.562.562,0,0,1,.179.13.74.74,0,0,1,.122.187.545.545,0,0,1,.049.227.59.59,0,0,1-.162.414.528.528,0,0,1-.4.171.516.516,0,0,1-.4-.171.542.542,0,0,1-.179-.414m1.381,0a.544.544,0,0,1,.049-.227.741.741,0,0,1,.122-.187.562.562,0,0,1,.179-.13.485.485,0,0,1,.219-.049.51.51,0,0,1,.219.049.563.563,0,0,1,.179.13.741.741,0,0,1,.122.187.555.555,0,0,1,0,.455.741.741,0,0,1-.122.187.694.694,0,0,1-.179.122.483.483,0,0,1-.219.049.508.508,0,0,1-.219-.049.694.694,0,0,1-.179-.122.619.619,0,0,1-.122-.187.545.545,0,0,1-.049-.227" transform="translate(-125.9 -636.471)" fill="#158d58"/>
      <path id="Path_2396" data-name="Path 2396" d="M172.3,723.813V722.57h1.942l-.162-3.477.983-.593.211,5.313Zm.284,1.6a.545.545,0,0,1,.049-.227.742.742,0,0,1,.122-.187.393.393,0,0,1,.179-.122.519.519,0,0,1,.439,0,.7.7,0,0,1,.179.122.741.741,0,0,1,.122.187.519.519,0,0,1,.049.227.59.59,0,0,1-.162.414.529.529,0,0,1-.4.171.516.516,0,0,1-.4-.171.542.542,0,0,1-.179-.414m1.373,0a.545.545,0,0,1,.049-.227.742.742,0,0,1,.122-.187.441.441,0,0,1,.179-.122.485.485,0,0,1,.219-.049.51.51,0,0,1,.219.049.7.7,0,0,1,.179.122.742.742,0,0,1,.122.187.518.518,0,0,1,.049.227.545.545,0,0,1-.049.227.739.739,0,0,1-.122.187.694.694,0,0,1-.179.122.518.518,0,0,1-.439,0,.694.694,0,0,1-.179-.122.62.62,0,0,1-.122-.187.545.545,0,0,1-.049-.227" transform="translate(-168.531 -668.353)" fill="#158d58"/>
      <path id="Path_2397" data-name="Path 2397" d="M218.147,747.285H225.1a.823.823,0,0,0-.033-.252.5.5,0,0,0-.114-.2.579.579,0,0,0-.2-.13.832.832,0,0,0-.3-.049h-6.093l.447-1.251h6.068a1.164,1.164,0,0,1,.5.114,1.352,1.352,0,0,1,.414.3,1.441,1.441,0,0,1,.292.43,1.219,1.219,0,0,1,.106.5v1.779H217.7Z" transform="translate(-210.242 -693.067)" fill="#158d58"/>
      <path id="Path_2398" data-name="Path 2398" d="M335.2,737.436a1.555,1.555,0,0,1,.171-.723,1.881,1.881,0,0,1,.431-.577,2.171,2.171,0,0,1,.609-.39,1.777,1.777,0,0,1,.707-.146l.154.008a1.791,1.791,0,0,1,.894.292,1.92,1.92,0,0,1,.544.625,2.756,2.756,0,0,1,.268.829,5.783,5.783,0,0,1,.073.926h.057v1.243h-.122a4.566,4.566,0,0,1-.122.65,4.038,4.038,0,0,1-.211.626,3.055,3.055,0,0,1-.317.552,1.909,1.909,0,0,1-.439.447,2.053,2.053,0,0,1-.577.3,2.289,2.289,0,0,1-.739.106,1.862,1.862,0,0,0,.39-.3,2.449,2.449,0,0,0,.414-.536,3.535,3.535,0,0,0,.325-.788,3.8,3.8,0,0,0,.13-1.056h-.861a1.981,1.981,0,0,1-.7-.2,1.82,1.82,0,0,1-.561-.422,1.976,1.976,0,0,1-.374-.6,1.942,1.942,0,0,1-.138-.723Zm1.089.122a.733.733,0,0,0,.057.3.917.917,0,0,0,.154.26.791.791,0,0,0,.227.179.584.584,0,0,0,.284.065h.853v-.8a.8.8,0,0,0-.057-.309.919.919,0,0,0-.154-.26,1,1,0,0,0-.227-.187.594.594,0,0,0-.292-.065h-.049a.761.761,0,0,0-.3.057.746.746,0,0,0-.252.163.789.789,0,0,0-.179.244.7.7,0,0,0-.065.292Z" transform="translate(-318.197 -684.063)" fill="#158d58"/>
      <path id="Path_2399" data-name="Path 2399" d="M381.7,728.682V727.44h2.949a7.349,7.349,0,0,1-.593-1.137,8,8,0,0,1-.309-.9,4.943,4.943,0,0,1-.146-.812l1.251-.7v.13c0,.1.008.252.016.463a5.208,5.208,0,0,0,.106.755,8.509,8.509,0,0,0,.268,1,7.992,7.992,0,0,0,.512,1.194h.008c.195-.4.357-.755.479-1.08a8.29,8.29,0,0,0,.284-.877,5.975,5.975,0,0,0,.138-.682,4.156,4.156,0,0,0,.041-.5,1.838,1.838,0,0,0-.008-.219c-.008-.057-.008-.114-.016-.154a1.256,1.256,0,0,0-.032-.122l1.21.634c.008.024.016.049.024.081a.413.413,0,0,1,.016.106.886.886,0,0,1,.008.154,2.021,2.021,0,0,1-.049.39,3.569,3.569,0,0,1-.162.552,7.822,7.822,0,0,1-.309.747c-.13.284-.3.6-.5.951h1.332v1.243H381.7Z" transform="translate(-360.92 -673.222)" fill="#158d58"/>
      <path id="Path_2400" data-name="Path 2400" d="M460.5,735.8h1.828l-.138-2.323.983-.577.211,4.143H460.5Z" transform="translate(-433.318 -681.583)" fill="#158d58"/>
      <path id="Path_2401" data-name="Path 2401" d="M489.5,723.629v-1.243h1.357l-.366-2.916,1.08-.585.374,3.5h.731l-.154-3.493,1.032-.593.211,4.086h.057v1.243Z" transform="translate(-459.962 -668.169)" fill="#158d58"/>
      <path id="Path_2402" data-name="Path 2402" d="M541.4,675.578v-1.243h1.82l-.211-7.742L544.1,666l.211,9.578Z" transform="translate(-507.646 -620.117)" fill="#158d58"/>
      <path id="Path_2403" data-name="Path 2403" d="M590.56,666.6l1.089-.6-.268,8.367c0,.057-.008.106-.008.154v.138a1.383,1.383,0,0,0,.057.479.294.294,0,0,0,.236.195,2.7,2.7,0,0,1-.479.219,1.108,1.108,0,0,1-.374.081.4.4,0,0,1-.252-.073.505.505,0,0,1-.154-.244,1.692,1.692,0,0,1-.081-.422c-.016-.171-.024-.382-.024-.617Z" transform="translate(-552.574 -620.117)" fill="#158d58"/>
      <path id="Path_2404" data-name="Path 2404" d="M632.614,734.257c-.008.106-.016.211-.024.309s-.008.2-.008.292a4.083,4.083,0,0,0,.089.869,3.2,3.2,0,0,0,.252.7,2.338,2.338,0,0,0,.374.536,2.43,2.43,0,0,0,.447.382,2.089,2.089,0,0,0,.471.227,1.614,1.614,0,0,0,.463.073,1.161,1.161,0,0,0,.276-.049,1.854,1.854,0,0,0,.39-.154,2.452,2.452,0,0,0,.414-.276,1.618,1.618,0,0,0,.349-.422,1.658,1.658,0,0,0,.2-.585,2.1,2.1,0,0,0-.049-.764l-.406-1.925,1.089-.569.479,2.624a3.742,3.742,0,0,1-.642,2.364,2.281,2.281,0,0,1-1.9.82,3.04,3.04,0,0,1-1.21-.219,2.253,2.253,0,0,1-.829-.6,2.424,2.424,0,0,1-.479-.861,3.224,3.224,0,0,1-.154-1.007,3.8,3.8,0,0,1,.106-.9,4.54,4.54,0,0,1,.309-.861" transform="translate(-591.07 -681.583)" fill="#158d58"/>
      <path id="Path_2405" data-name="Path 2405" d="M689.9,690.186v-1.243h1.365l.211-2.908,1.089-.593-.211,3.5h.739l.268-3.493,1.089-.593-.268,4.086h.057v1.243Zm.861-6.515a.544.544,0,0,1,.049-.228.736.736,0,0,1,.122-.187.527.527,0,0,1,.617-.13.562.562,0,0,1,.179.13.738.738,0,0,1,.122.187.545.545,0,0,1,.049.228.59.59,0,0,1-.162.414.529.529,0,0,1-.4.171.517.517,0,0,1-.4-.171.542.542,0,0,1-.179-.414m.747-1.259a.524.524,0,0,1,.041-.2.56.56,0,0,1,.106-.162.486.486,0,0,1,.162-.114.524.524,0,0,1,.195-.041.492.492,0,0,1,.195.041.425.425,0,0,1,.154.114.7.7,0,0,1,.106.162.561.561,0,0,1,.041.2.567.567,0,0,1-.041.2.47.47,0,0,1-.106.162.4.4,0,0,1-.154.106.49.49,0,0,1-.195.041.488.488,0,0,1-.463-.309.566.566,0,0,1-.041-.2m.634,1.259a.546.546,0,0,1,.049-.228.741.741,0,0,1,.122-.187.562.562,0,0,1,.179-.13.482.482,0,0,1,.219-.049.507.507,0,0,1,.219.049.561.561,0,0,1,.179.13.741.741,0,0,1,.122.187.555.555,0,0,1,0,.455.744.744,0,0,1-.122.187.7.7,0,0,1-.179.122.484.484,0,0,1-.219.049.509.509,0,0,1-.219-.049.7.7,0,0,1-.179-.122.623.623,0,0,1-.122-.187.545.545,0,0,1-.049-.227" transform="translate(-644.082 -634.726)" fill="#158d58"/>
      <path id="Path_2406" data-name="Path 2406" d="M741.8,733.093v-1.243h2.08l-.5-2.656,1.024-.593.528,3.249h.057v1.243Zm.406,1.576a.545.545,0,0,1,.049-.227.742.742,0,0,1,.122-.187.528.528,0,0,1,.617-.13.563.563,0,0,1,.179.13.622.622,0,0,1,.122.187.519.519,0,0,1,.049.227.59.59,0,0,1-.162.414.529.529,0,0,1-.4.171.6.6,0,0,1-.577-.585m1.373,0a.545.545,0,0,1,.049-.227.744.744,0,0,1,.122-.187.563.563,0,0,1,.179-.13.484.484,0,0,1,.219-.049.509.509,0,0,1,.219.049.563.563,0,0,1,.179.13.619.619,0,0,1,.122.187.519.519,0,0,1,.049.227.546.546,0,0,1-.049.228.74.74,0,0,1-.122.187.692.692,0,0,1-.179.122.483.483,0,0,1-.219.049.509.509,0,0,1-.219-.049.692.692,0,0,1-.179-.122.622.622,0,0,1-.122-.187.546.546,0,0,1-.049-.228" transform="translate(-691.766 -677.632)" fill="#158d58"/>
      <path id="Path_2407" data-name="Path 2407" d="M779.608,727.991H783.8a5.09,5.09,0,0,1-.674-.317,3.134,3.134,0,0,1-.569-.422,1.946,1.946,0,0,1-.39-.512,1.248,1.248,0,0,1-.146-.585,1.152,1.152,0,0,1,.171-.585,1.958,1.958,0,0,1,.471-.544,2.9,2.9,0,0,1,.715-.414,3.186,3.186,0,0,1,.9-.211l2.2.682a5.349,5.349,0,0,0-1.072.114,4.425,4.425,0,0,0-.959.309,2.475,2.475,0,0,0-.691.447.712.712,0,0,0-.268.52.872.872,0,0,0,.2.536,1.959,1.959,0,0,0,.52.471,3.165,3.165,0,0,0,.747.341,4.469,4.469,0,0,0,.869.179h.561l.877,1.243H779.6v-1.251Z" transform="translate(-726.495 -673.773)" fill="#158d58"/>
      <rect id="Rectangle_699" data-name="Rectangle 699" width="1.024" height="4.947" transform="translate(13.185 59.774)" fill="#158d58"/>
      <path id="Path_2408" data-name="Path 2408" d="M311.78,838.328a.519.519,0,0,1-.552.528.507.507,0,0,1-.528-.528.54.54,0,0,1,1.08,0m-1.056.943h1.024v3.4h-1.024Z" transform="translate(-295.687 -777.961)" fill="#158d58"/>
      <path id="Path_2409" data-name="Path 2409" d="M330.321,855.9l.447,1.584c.081.292.138.561.187.829h.016c.057-.276.106-.536.179-.829l.422-1.584h1.072l-1.227,3.4h-1.024l-1.194-3.4Z" transform="translate(-312.685 -794.591)" fill="#158d58"/>
      <path id="Path_2410" data-name="Path 2410" d="M374.975,857.212c.024.439.447.65.926.65a2.639,2.639,0,0,0,.91-.146l.138.715a3.012,3.012,0,0,1-1.194.219A1.6,1.6,0,0,1,374,856.92a1.688,1.688,0,0,1,1.665-1.82c1.064,0,1.47.853,1.47,1.7a2.274,2.274,0,0,1-.033.414Zm1.2-.731c0-.26-.106-.691-.577-.691a.692.692,0,0,0-.634.691Z" transform="translate(-353.845 -793.855)" fill="#158d58"/>
      <path id="Path_2411" data-name="Path 2411" d="M417.695,857.467a1.891,1.891,0,0,0,.877.252c.309,0,.439-.106.439-.276s-.1-.268-.479-.4c-.691-.236-.95-.617-.942-1.024a1.189,1.189,0,0,1,1.34-1.121,2.049,2.049,0,0,1,.918.2l-.171.731a1.63,1.63,0,0,0-.715-.195c-.252,0-.39.106-.39.268s.13.252.528.4c.626.219.877.561.885,1.048,0,.642-.479,1.1-1.422,1.1a2.288,2.288,0,0,1-1.064-.244Z" transform="translate(-393.811 -793.672)" fill="#158d58"/>
      <path id="Path_2412" data-name="Path 2412" d="M456.257,857.473a4.5,4.5,0,0,0,.057.82h-.926l-.057-.341h-.024a1.182,1.182,0,0,1-.942.414,1.029,1.029,0,0,1-1.064-1.048c0-.885.764-1.3,1.933-1.3v-.041c0-.187-.1-.447-.6-.447a1.845,1.845,0,0,0-.91.26l-.187-.682a2.652,2.652,0,0,1,1.275-.309,1.3,1.3,0,0,1,1.438,1.478v1.194Zm-.991-.78c-.536,0-.959.13-.959.536a.379.379,0,0,0,.406.406.553.553,0,0,0,.528-.39.677.677,0,0,0,.024-.179Z" transform="translate(-426.703 -793.58)" fill="#158d58"/>
      <path id="Path_2413" data-name="Path 2413" d="M502.52,858.307c0,.447.016.8.024,1.1h-.885l-.049-.479h-.024a1.169,1.169,0,0,1-1.032.561c-.674,0-1.154-.431-1.154-1.487v-2h1.024v1.828c0,.5.154.8.52.8a.552.552,0,0,0,.512-.366.632.632,0,0,0,.041-.227v-2.023h1.024v2.3Z" transform="translate(-469.058 -794.682)" fill="#158d58"/>
      <path id="Path_2414" data-name="Path 2414" d="M548.979,837v3.924c0,.382.016.788.024,1.015h-.91l-.041-.5h-.016a1.149,1.149,0,0,1-1.032.569c-.78,0-1.405-.69-1.405-1.747-.008-1.146.682-1.82,1.47-1.82a1.008,1.008,0,0,1,.869.382h.016V837Zm-1.024,2.981a.824.824,0,0,0-.016-.195.619.619,0,0,0-.6-.512c-.471,0-.707.431-.707.967,0,.577.276.942.7.942a.623.623,0,0,0,.6-.512,1.19,1.19,0,0,0,.016-.244v-.447Z" transform="translate(-511.504 -777.226)" fill="#158d58"/>
      <path id="Path_2415" data-name="Path 2415" d="M598.08,838.328a.519.519,0,0,1-.552.528.507.507,0,0,1-.528-.528.54.54,0,0,1,1.08,0m-1.056.943h1.024v3.4h-1.024Z" transform="translate(-558.729 -777.961)" fill="#158d58"/>
      <path id="Path_2416" data-name="Path 2416" d="M619,883.55a.6.6,0,1,1,.593.642.6.6,0,0,1-.593-.642" transform="translate(-578.942 -819.397)" fill="#158d58"/>
      <path id="Path_2417" data-name="Path 2417" d="M639.2,857.467a1.891,1.891,0,0,0,.877.252c.309,0,.439-.106.439-.276s-.1-.268-.479-.4c-.69-.236-.95-.617-.942-1.024a1.189,1.189,0,0,1,1.34-1.121,2.049,2.049,0,0,1,.918.2l-.171.731a1.63,1.63,0,0,0-.715-.195c-.252,0-.39.106-.39.268s.13.252.528.4c.625.219.877.561.885,1.048,0,.642-.479,1.1-1.422,1.1a2.288,2.288,0,0,1-1.064-.244Z" transform="translate(-597.317 -793.672)" fill="#158d58"/>
      <path id="Path_2418" data-name="Path 2418" d="M677.749,857.473a4.5,4.5,0,0,0,.057.82h-.918l-.057-.341h-.024a1.171,1.171,0,0,1-.942.414,1.029,1.029,0,0,1-1.064-1.048c0-.885.764-1.3,1.933-1.3v-.041c0-.187-.1-.447-.6-.447a1.845,1.845,0,0,0-.91.26l-.187-.682a2.652,2.652,0,0,1,1.275-.309,1.3,1.3,0,0,1,1.438,1.478Zm-.991-.78c-.536,0-.959.13-.959.536a.379.379,0,0,0,.406.406.553.553,0,0,0,.528-.39.676.676,0,0,0,.024-.179Z" transform="translate(-630.209 -793.58)" fill="#158d58"/>
    </g>
  </g>
</svg>
