<svg xmlns="http://www.w3.org/2000/svg" width="91.507" height="70" viewBox="0 0 91.507 70">
  <g id="monshaat-01" style="isolation: isolate">
    <path id="Path_2249" data-name="Path 2249" d="M240.79,439.8c0,1.2-.011,2.354,0,3.52a3.251,3.251,0,0,0,2.56,3.109.418.418,0,0,0,.423-.137q2.794-2.811,5.611-5.611c.069-.069.137-.137.274-.263v.571c0,.743.023,1.5,0,2.24a3.238,3.238,0,0,0,2.434,3.143.483.483,0,0,0,.56-.149c.549-.571,1.12-1.131,1.691-1.691a.383.383,0,0,0,.1-.446,4.228,4.228,0,0,0-1.794-2.183c-.777-.514-1.589-.971-2.377-1.463a3.392,3.392,0,0,1-1.646-2.309,5.492,5.492,0,0,1-.091-.743c-.011-1.314-.011-2.617,0-3.931a.666.666,0,0,1,.171-.4c.24-.3.5-.571.754-.857a.638.638,0,0,1,.091.069c.023.331.057.651.08.983a5.492,5.492,0,0,0,2.4,4.16c.754.526,1.543,1.017,2.331,1.486a4.16,4.16,0,0,1,2.046,2.88,4.368,4.368,0,0,1,.057.777.5.5,0,0,1-.137.32c-1.989,1.989-3.988,3.977-5.977,5.966-.206.206-.423.08-.594.046a3.323,3.323,0,0,1-2.64-2.7,7.684,7.684,0,0,1-.011-1.257v-1.646c-.1.091-.183.16-.251.229-1.714,1.714-3.44,3.417-5.131,5.143a.766.766,0,0,1-.834.24,3.483,3.483,0,0,1-2.5-2.171c-.434.446-.857.891-1.291,1.326-.263.251-.526.5-.8.743a.541.541,0,0,1-.309.16,8,8,0,0,1-2.331-.16,2.575,2.575,0,0,1-1.931-1.829c-.011-.057-.046-.114.034-.069-.446.389-.891.766-1.337,1.154a8.7,8.7,0,0,1-.834.754.817.817,0,0,1-.56.126,3.357,3.357,0,0,1-2.651-2.137c-.011-.023-.034-.046-.011-.023-.686.663-1.371,1.337-2.057,2-.3.286-.629.171-.937.091A3.394,3.394,0,0,1,221,446.737c-.389.4-.777.811-1.177,1.2-.3.3-.606.583-.914.857a.423.423,0,0,1-.263.137,6.84,6.84,0,0,1-2.594-.206,2.551,2.551,0,0,1-1.806-2.194c-.023-.126-.046-.24-.091-.434-.446.457-.857.891-1.28,1.314a6.411,6.411,0,0,1-3.143,1.829,6.331,6.331,0,0,1-1.451.194q-15.086.017-30.182.011a8.071,8.071,0,0,1-2.16-.16,2.677,2.677,0,0,1-2.034-2.8.305.305,0,0,1,.069-.229c.789-.811,1.589-1.611,2.411-2.434.057.366.1.674.149.994a1.565,1.565,0,0,0,.96,1.211,8.4,8.4,0,0,0,2.274.674,23.738,23.738,0,0,0,4.32.286q14.28-.017,28.56,0a.69.69,0,0,0,.56-.24q3.926-3.96,7.851-7.9a2.11,2.11,0,0,0,.206-.3.511.511,0,0,1-.137.617c-1.349,1.337-2.674,2.7-4.046,4.011a.972.972,0,0,0-.309,1.029,2.6,2.6,0,0,0,2.423,2.137c.56.08,1.131.091,1.669.126,0-1.554.034-3.063-.011-4.571a1.935,1.935,0,0,1,.72-1.714c.56-.469,1.051-1.029,1.577-1.554.069-.069.137-.126.251-.229v4.926a3.247,3.247,0,0,0,2.663,3.074.739.739,0,0,0,.16,0v-3.988a.605.605,0,0,1,.194-.469c.766-.754,1.531-1.509,2.331-2.286a2.789,2.789,0,0,1,.011.3c0,1.029.011,2.057,0,3.086a3.234,3.234,0,0,0,2.48,3.257c.126.034.251.057.423.091-.011-.251-.034-.491-.034-.731v-4.606a.5.5,0,0,1,.114-.32c.754-.766,1.52-1.52,2.286-2.274a.853.853,0,0,1,.137-.08v.343c.011,1.646.011,3.291.023,4.937a2.56,2.56,0,0,0,2.229,2.617c.64.1,1.291.114,1.886.16v-4.057a.293.293,0,0,1,.091-.217c.766-.777,1.531-1.554,2.309-2.331A.824.824,0,0,1,240.79,439.8Z" transform="translate(-165.396 -404.954)" fill="#4b728c"/>
    <path id="Path_2250" data-name="Path 2250" d="M110.163,204.524V193.8h.331c1.851,0,3.7-.034,5.554.011a7.3,7.3,0,0,1,4.72,1.829,7.584,7.584,0,0,1,2.583,4.423,7.389,7.389,0,0,1,.126.994.3.3,0,0,1-.08.217c-.766.754-1.531,1.509-2.309,2.263-.011.011-.034.011-.08.011V202.3a6.385,6.385,0,0,0-.366-2.663,4.962,4.962,0,0,0-4.229-3.28,36.992,36.992,0,0,0-3.737-.023v8.137h7.428a1.294,1.294,0,0,1-.16.206c-.743.731-1.5,1.474-2.251,2.194a.624.624,0,0,1-.377.126c-2.183.011-4.354,0-6.537,0H110.4v14.983a.624.624,0,0,1-.206.491c-.731.743-1.44,1.486-2.16,2.24l-.1-.069V207.05c-1.794-.149-3.474-.023-4.766,1.394a4.235,4.235,0,0,0-1.177,2.914c-.023,4.514-.011,9.028-.011,13.554,0,.069.011.126.011.229h5.486c-.286.286-.514.5-.731.72-.549.537-1.086,1.086-1.634,1.623a.451.451,0,0,1-.286.137c-1.726.011-3.44.011-5.166,0-.046,0-.091-.011-.149-.011,0-.1-.011-.194-.011-.286V211.587a6.908,6.908,0,0,1,5.28-6.811,7.826,7.826,0,0,1,1.543-.206c1.154-.034,2.3-.011,3.451-.011A1.45,1.45,0,0,1,110.163,204.524Z" transform="translate(-99.5 -193.792)" fill="#4a9ea9"/>
    <path id="Path_2251" data-name="Path 2251" d="M174.469,624.6v-3.463a3.608,3.608,0,0,1,.046-1.223c.149-.354.537-.606.823-.9.411-.423.869-.811,1.234-1.257a1.069,1.069,0,0,1,1.166-.366,9.907,9.907,0,0,1,1.12.377.477.477,0,0,0,.309.011,7.732,7.732,0,0,1,2.549-.411,2.558,2.558,0,0,1,2.629,2.194,4.389,4.389,0,0,1,.1.857c.034,1.291.046,2.583.069,3.863,0,.16-.023.274-.217.274h-1.131v-.331c0-1.189.011-2.377,0-3.566a4.717,4.717,0,0,0-.091-.891,1.179,1.179,0,0,0-1.406-1.086,10.434,10.434,0,0,0-1.3.24c-.183.034-.229.137-.229.309.011,1.657-.011,3.314.011,4.96,0,.3-.114.389-.354.4-.32.011-.64,0-1.006,0v-4.16a3.267,3.267,0,0,0-.069-.663,1.222,1.222,0,0,0-1.417-1.086,9.713,9.713,0,0,0-1.257.229c-.194.034-.24.149-.24.343.011,1.657,0,3.314.011,4.96,0,.251-.069.366-.32.377C175.177,624.6,174.846,624.6,174.469,624.6Z" transform="translate(-165.874 -568.947)" fill="#4a9ea9"/>
    <path id="Path_2252" data-name="Path 2252" d="M528.926,406.446v12.423a.581.581,0,0,1-.194.457c-.766.709-1.52,1.44-2.32,2.206-.011-.137-.011-.229-.011-.32,0-4.034,0-8.057.011-12.091a.632.632,0,0,1,.172-.411c.754-.777,1.52-1.543,2.286-2.309A.114.114,0,0,0,528.926,406.446Z" transform="translate(-477.612 -382.102)" fill="#4b728c"/>
    <path id="Path_2253" data-name="Path 2253" d="M563.628,591v3.291c.331-.08.64-.16.948-.217a3.236,3.236,0,0,1,3.863,2.8c.1.96.046,1.943.057,2.914,0,.377,0,.743.011,1.12.011.217-.08.309-.286.309-.274,0-.537-.011-.811,0-.217.011-.263-.08-.263-.286.011-1.2.011-2.411,0-3.611a1.863,1.863,0,0,0-1.314-1.9,2.145,2.145,0,0,0-1.943.274.517.517,0,0,0-.251.48c.011,1.566,0,3.12.011,4.686,0,.24-.057.377-.32.354s-.56-.011-.834-.011c-.149,0-.217-.069-.206-.229v-8.469a.605.605,0,0,1,.194-.469c.286-.274.56-.571.846-.857A1.742,1.742,0,0,0,563.628,591Z" transform="translate(-509.4 -545.605)" fill="#4a9ea9"/>
    <path id="Path_2254" data-name="Path 2254" d="M657.017,624.668a3.844,3.844,0,0,1-2.72,0,3.185,3.185,0,0,1-2.011-3.04c-.011-.354.034-.709.023-1.063a.736.736,0,0,1,.251-.56c.64-.64,1.291-1.28,1.9-1.943a1.183,1.183,0,0,1,.9-.4,7.493,7.493,0,0,1,2.926.469c.137.057.206.114.206.274-.011,2.069-.011,4.126,0,6.194,0,.217-.091.286-.274.3a5.225,5.225,0,0,1-.846-.012C657.28,624.874,657.188,624.771,657.017,624.668Zm.16-3.52c0-.549-.011-1.109,0-1.657a.276.276,0,0,0-.229-.32c-.331-.069-.651-.171-.971-.229a1.905,1.905,0,0,0-2.217,1.268,4.674,4.674,0,0,0-.034,1.909c.343,1.611,2.423,1.771,3.326.937a.457.457,0,0,0,.114-.3C657.177,622.234,657.177,621.7,657.177,621.148Z" transform="translate(-589.109 -569.217)" fill="#4a9ea9"/>
    <path id="Path_2255" data-name="Path 2255" d="M771.663,624.587a3.841,3.841,0,0,1-2.674.023,3.147,3.147,0,0,1-2.046-2.949,4.284,4.284,0,0,1,.08-1.44c.16-.411.606-.709.926-1.051.377-.4.789-.766,1.143-1.189a1.129,1.129,0,0,1,.9-.4,7.7,7.7,0,0,1,2.96.48.254.254,0,0,1,.194.286c-.011,2.069-.034,4.148-.034,6.217,0,.171-.08.24-.217.251a6.259,6.259,0,0,1-.926-.012C771.868,624.793,771.788,624.69,771.663,624.587Zm.148-3.52c0-.549-.011-1.109,0-1.657a.26.26,0,0,0-.217-.3c-.331-.08-.663-.171-1.006-.24a1.905,1.905,0,0,0-2.229,1.291,4.578,4.578,0,0,0-.046,1.806,1.927,1.927,0,0,0,2.491,1.451,2.7,2.7,0,0,0,.834-.411.425.425,0,0,0,.149-.32C771.823,622.153,771.811,621.615,771.811,621.067Z" transform="translate(-690.647 -569.147)" fill="#4a9ea9"/>
    <path id="Path_2256" data-name="Path 2256" d="M325.774,489.969a4.8,4.8,0,0,1-2,2.126c-.891-.731-1.771-1.451-2.674-2.171.057-.069.1-.137.16-.194.663-.651,1.337-1.3,2-1.966a.271.271,0,0,1,.377-.046,5.586,5.586,0,0,1,1.84,1.371,5.9,5.9,0,0,1,.377.651c.686-.754,1.36-1.509,2.023-2.24a6.39,6.39,0,0,1,2.091,1.429,1.108,1.108,0,0,1,.137,1.474,5.13,5.13,0,0,1-1.669,1.543.291.291,0,0,1-.251-.046c-.72-.571-1.429-1.166-2.149-1.749C325.957,490.083,325.866,490.037,325.774,489.969Z" transform="translate(-295.775 -453.934)" fill="#4b728c"/>
    <path id="Path_2257" data-name="Path 2257" d="M304.728,621.138a3.582,3.582,0,0,1-.491,2.114,3.412,3.412,0,0,1-6.069-.731,5.927,5.927,0,0,1-.126-2.1.691.691,0,0,1,.206-.377c.743-.766,1.486-1.52,2.251-2.274a.96.96,0,0,1,.48-.24,3.237,3.237,0,0,1,3.634,2.389A8.847,8.847,0,0,1,304.728,621.138Zm-1.337.011a4.946,4.946,0,0,0-.08-.914,1.893,1.893,0,0,0-2.091-1.417,1.765,1.765,0,0,0-1.76,1.326,5.127,5.127,0,0,0-.046,1.771,1.87,1.87,0,0,0,2.114,1.52,1.848,1.848,0,0,0,1.783-1.417A5.333,5.333,0,0,0,303.391,621.149Z" transform="translate(-275.322 -569.08)" fill="#4a9ea9"/>
    <path id="Path_2258" data-name="Path 2258" d="M485.774,618.051c-.32.331-.64.651-.971.971a.373.373,0,0,1-.229.011,3.259,3.259,0,0,0-1.783,0,.92.92,0,0,0-.491.411c-.24.469.091.9.663.926a8.962,8.962,0,0,1,1.36.114,2.064,2.064,0,0,1,1.726,2.183,2.173,2.173,0,0,1-1.783,2.08,6.549,6.549,0,0,1-2.823-.148c-.229-.046-.457-.114-.743-.183.343-.366.64-.72.96-1.029.069-.069.24-.046.366-.023a5.179,5.179,0,0,0,1.829.091.877.877,0,0,0,.789-1.143.6.6,0,0,0-.491-.48q-.72-.12-1.44-.171a1.977,1.977,0,0,1-1.509-3.074,2.294,2.294,0,0,1,1.577-.96,5.273,5.273,0,0,1,2.9.354A.914.914,0,0,1,485.774,618.051Z" transform="translate(-437.135 -569.125)" fill="#4a9ea9"/>
    <path id="Path_2259" data-name="Path 2259" d="M850.414,596.431h2.149c-.217.389-.423.743-.629,1.086a.327.327,0,0,1-.24.091c-.411.011-.823,0-1.257,0,0,.1-.011.194-.011.286v3.669c0,.583.171.743.754.754h.583c-.08.1-.114.16-.16.206-.206.206-.4.423-.617.606-.183.16-.286.48-.606.411a1.411,1.411,0,0,1-1.029-.651,2.358,2.358,0,0,1-.229-1.246c-.011-1.223,0-2.446,0-3.669v-.366H847.5c.194-.4.366-.754.549-1.109.034-.057.16-.08.24-.08.263-.011.537,0,.834,0,0-.434-.011-.834.011-1.223a.661.661,0,0,1,.16-.389c.366-.377.766-.731,1.154-1.109C850.414,594.591,850.414,595.494,850.414,596.431Z" transform="translate(-762.015 -547.997)" fill="#4a9ea9"/>
    <path id="Path_2260" data-name="Path 2260" d="M507.508,360.632a1.54,1.54,0,0,1-.206.411c-.846.857-1.714,1.691-2.56,2.56a.411.411,0,0,1-.491.114c-1.429-.48-2.857-.949-4.286-1.429a.319.319,0,0,0-.4.091c-.354.4-.72.766-1.109,1.177a.484.484,0,0,1,.16-.56c.823-.811,1.646-1.634,2.457-2.457a.334.334,0,0,1,.411-.091c1.429.491,2.868.971,4.3,1.474a.289.289,0,0,0,.377-.091c.331-.366.686-.709,1.04-1.063a1.478,1.478,0,0,1,.194-.183A.2.2,0,0,1,507.508,360.632Z" transform="translate(-452.834 -341.374)" fill="#4b728c"/>
    <path id="Path_2261" data-name="Path 2261" d="M619.6,414.539c.137-.16.274-.32.423-.469.571-.56,1.143-1.109,1.714-1.657.114-.114.206-.16.354-.057a16.384,16.384,0,0,1,1.566,1.063,1.22,1.22,0,0,1,.126,2.034,11.373,11.373,0,0,1-1.383,1.177.315.315,0,0,1-.286,0c-.823-.663-1.634-1.326-2.457-1.989A.234.234,0,0,0,619.6,414.539Z" transform="translate(-560.161 -387.327)" fill="#4b728c"/>
    <path id="Path_2262" data-name="Path 2262" d="M650.7,452.789l2.251-2.183a.2.2,0,0,1,.206-.034,6.009,6.009,0,0,1,1.76,1.2,1.2,1.2,0,0,1,.011,1.909c-.411.446-.926.8-1.383,1.211-.114.1-.206.069-.32-.011C652.414,454.195,651.58,453.509,650.7,452.789Z" transform="translate(-587.706 -421.211)" fill="#4b728c"/>
    <path id="Path_2263" data-name="Path 2263" d="M728.8,452.789c.766-.743,1.508-1.463,2.263-2.183a.2.2,0,0,1,.206-.034,15.508,15.508,0,0,1,1.737,1.189,1.149,1.149,0,0,1,.069,1.874c-.457.5-1.006.926-1.52,1.394C730.617,454.263,729.726,453.555,728.8,452.789Z" transform="translate(-656.881 -421.211)" fill="#4b728c"/>
    <path id="Path_2264" data-name="Path 2264" d="M599.4,452.366c.754-.811,1.486-1.6,2.206-2.366a7.05,7.05,0,0,1,1.931,1.257,1.217,1.217,0,0,1,.137,1.829,6.4,6.4,0,0,1-1.657,1.406C601.137,453.771,600.257,453.051,599.4,452.366Z" transform="translate(-542.269 -420.719)" fill="#4b728c"/>
    <path id="Path_2265" data-name="Path 2265" d="M405.2,619.223c.491-.514.994-1.04,1.5-1.554a.381.381,0,0,1,.251-.069,3.2,3.2,0,0,1,3.029,2.606,6.47,6.47,0,0,1,.057.663c.023,1.2.034,2.411.057,3.611,0,.194-.046.308-.251.308h-1.1v-3.931a1.9,1.9,0,0,0-1.737-1.943,4.247,4.247,0,0,0-1.691.274c-.057.023-.091.023-.114.034Z" transform="translate(-370.263 -569.165)" fill="#4a9ea9"/>
    <path id="Path_2266" data-name="Path 2266" d="M539.311,730.1h.354v2.514H542.6V731.4h.354v.674c0,.457.172.594.651.537V731.4h.343v.686c0,.469.126.571.617.526,0-.4.011-.811,0-1.223-.011-.24.069-.343.354-.251v1.029c.011.366.069.434.434.457.114.011.24,0,.4,0v-1.5h.377v.983c0,.446.046.491.48.514h.3c0-.251-.011-.491,0-.731a.857.857,0,0,1,.583-.777.908.908,0,0,1,.971.274,1.021,1.021,0,0,1,.1,1.006c-.034.069-.08.137-.137.229H550.1v-2.514c.126,0,.217-.011.354-.011v2.114c.011.366.149.48.5.446.137-.011.274,0,.434,0v-2.537h.331v2.869c-.423-.023-.846-.046-1.269-.057s-.869.023-1.291.034c-.446.011-.9,0-1.349,0a10.623,10.623,0,0,1-1.349-.011c-.423-.057-.846.126-1.246.011s-.857.206-1.2-.08a1.16,1.16,0,0,1-.251.091c-.24-.023-.469-.069-.709-.08-.08,0-.16.08-.24.08-1.166.011-2.331,0-3.52,0C539.311,732,539.311,731.06,539.311,730.1Zm7.943,2.011c-.023.011-.034.023-.057.023.08.16.126.377.251.469.16.126.606-.023.72-.16a.794.794,0,0,0,.069-.834.479.479,0,0,0-.56-.217.692.692,0,0,0-.423.686Z" transform="translate(-489.038 -668.808)" fill="#979a9c"/>
    <path id="Path_2267" data-name="Path 2267" d="M795.074,732.748h.537a10.873,10.873,0,0,0-.011-1.223.767.767,0,0,0-.823-.617c-.229,0-.457.046-.7.034a.227.227,0,0,1-.183-.137.215.215,0,0,1,.114-.171,1.924,1.924,0,0,1,1.314.069,1.11,1.11,0,0,1,.64,1.006c.011.343,0,.686,0,1.017h2.148V730.2h.366v2.823a.879.879,0,0,1-.172.023c-1.577.011-3.154.034-4.731.034-.206,0-.411-.069-.629-.092-.057-.011-.126.057-.194.057a4.218,4.218,0,0,1-1.006-.023c-.183-.046-.32.046-.48.034-.663-.023-1.326-.011-1.989,0-.491,0-.983.034-1.486.034a2.189,2.189,0,0,1-.549-.069.789.789,0,0,1-.594-.937.9.9,0,0,1,.789-.823c.263-.023.537,0,.834,0v1.486h2.857v-1.52h.343v.926c0,.5.057.56.549.583h.389v-1.509h.388v.983c0,.457.011.469.469.549.149.023.3.023.491.034a.784.784,0,0,1-.057-1.017c.343-.434.857-.32,1.36-.331C795.074,731.857,795.074,732.291,795.074,732.748Zm-7.12-1.211c-.343-.046-.686-.023-.834.309a.862.862,0,0,0,.011.674c.171.309.514.171.823.194Zm6.766.171c-.56-.023-.834.16-.834.526.011.389.274.537.811.469,0-.046.011-.1.011-.16C794.731,732.268,794.72,732.006,794.72,731.708Z" transform="translate(-708.115 -668.897)" fill="#979a9c"/>
    <path id="Path_2268" data-name="Path 2268" d="M385.443,732.449V730.94h.343v.971c0,.457.057.537.526.537.846.011,1.691,0,2.549-.011a.577.577,0,0,0,.149-.023c-.171-.286-.331-.571-.491-.846a.358.358,0,0,1,.16-.537,1.568,1.568,0,0,1,1.44-.126c.206.08.229.206.194.4a1.824,1.824,0,0,1-.686,1.109h1.269c0-.354.011-.72,0-1.086-.011-.263.091-.331.343-.251l.034.48c-.023-.034-.046-.057-.069-.091.183-.126.354-.263.537-.388a.852.852,0,0,1,1.406.628c.08.731.08.731.811.731h.731V729.9h.331v2.834a1.69,1.69,0,0,1-.24.011c-.514-.023-1.029-.046-1.543-.057-.08,0-.149.1-.229.1a10.612,10.612,0,0,1-1.349-.011,6.651,6.651,0,0,0-.674-.034,3.307,3.307,0,0,1-1.6-.137.1.1,0,0,0-.08,0,3.179,3.179,0,0,1-1.463.149q-.754.017-1.509,0c-.64-.011-1.28.023-1.92,0a2.619,2.619,0,0,1-.48-.08c0,.366-.011.777-.457.949a.763.763,0,0,1-.777-.137,1.59,1.59,0,0,0,.137-.206c.034,0,.057,0,.069.011.446.171.663.023.674-.469v-1.9c.114-.011.194-.011.331-.023v1.04c0,.4.069.469.469.491C384.723,732.46,385.054,732.449,385.443,732.449Zm7.394,0c0-.229.011-.423,0-.617a.572.572,0,0,0-.32-.549.664.664,0,0,0-.754.137,3.037,3.037,0,0,0-.423.583c-.137.24-.034.434.24.446C391.98,732.46,392.391,732.449,392.837,732.449Zm-2.914-1.211a1.015,1.015,0,0,0-1.006.08c-.057.034-.1.171-.069.217.137.24.3.469.446.709A1.233,1.233,0,0,0,389.923,731.237Z" transform="translate(-350.335 -668.631)" fill="#979a9c"/>
    <path id="Path_2269" data-name="Path 2269" d="M170.749,731.163v1.486h2.8v-2.537c.126-.011.217-.011.331-.011v1.771a3.132,3.132,0,0,1,.194-.274,1.056,1.056,0,0,1,.891-.491.774.774,0,0,1,.834.812c-.023.823.16.754.811.72a.465.465,0,0,0,.137-.034v-1.188c.286-.091.377,0,.354.263-.011.149,0,.3,0,.446,0,.434.137.549.617.48v-1.2c.114-.011.206-.011.343-.023v.743c.011.423.206.571.663.48v-1.474h.32v1.851c-.263-.023-.537-.046-.8-.057-.149,0-.3.046-.446.034-.206-.012-.411-.091-.617-.091-.3.011-.583.069-.88.1-.023,0-.034.023-.057.023-.3-.126-.583.034-.869.023-.32-.011-.64.012-.949-.011a2.537,2.537,0,0,1-.469-.126.8.8,0,0,1-.251.08c-.64.011-1.269,0-1.909.011-.5,0-1.006.034-1.509.034a2.189,2.189,0,0,1-.549-.069.8.8,0,0,1-.594-.971.9.9,0,0,1,.777-.789A6.423,6.423,0,0,1,170.749,731.163Zm4.72,1.463v-.56a.569.569,0,0,0-.3-.583.64.64,0,0,0-.731.091,2.934,2.934,0,0,0-.48.64.258.258,0,0,0,.217.411C174.6,732.637,175.024,732.626,175.469,732.626Zm-5.051-1.177a.683.683,0,0,0-.8,1.029c.229.251.526.148.811.148C170.418,732.214,170.418,731.837,170.418,731.449Z" transform="translate(-161.184 -668.808)" fill="#979a9c"/>
    <path id="Path_2270" data-name="Path 2270" d="M261.779,732.957c-.171.891-.914,1.211-1.589.686.046-.069.1-.149.149-.217.766.229,1.109.08,1.063-.469h-.354a.733.733,0,0,1-.811-.5,1.008,1.008,0,0,1,.263-1.1,1.614,1.614,0,0,1,1.143-.24c.046,0,.1.137.1.206.011.423,0,.857,0,1.291h1.394v-1.509c.126,0,.217-.011.354-.011v1.017c0,.411.08.491.48.5.331.011.663,0,.971,0,0-.251-.011-.491,0-.731a.835.835,0,0,1,.926-.8.769.769,0,0,1,.8.846,4.971,4.971,0,0,1-.126.674h.926v-2.5h.366v2.846h-1.52c-.514,0-1.029-.011-1.543,0-.48.012-.971-.023-1.451-.011C262.83,732.969,262.316,732.957,261.779,732.957Zm3.886-.32c.491.011.651-.183.686-.674a.512.512,0,0,0-.514-.583c-.331,0-.549.309-.549.766C265.31,732.546,265.379,732.637,265.664,732.637Zm-4.251-.023v-1.177c-.571-.034-.846.194-.834.686C260.59,732.557,260.773,732.671,261.413,732.614Z" transform="translate(-241.813 -668.808)" fill="#979a9c"/>
    <path id="Path_2271" data-name="Path 2271" d="M394.759,631.8a2.22,2.22,0,0,1,.023.274c0,1.657,0,3.3.012,4.96,0,.251-.091.366-.32.366a7.189,7.189,0,0,1-.857-.046.279.279,0,0,1-.183-.206c-.011-1.3-.011-2.594,0-3.9a.319.319,0,0,1,.069-.206c.411-.411.834-.823,1.257-1.246Z" transform="translate(-359.834 -581.742)" fill="#4a9ea9"/>
    <path id="Path_2272" data-name="Path 2272" d="M724.689,733.046c-.709,0-1.406.046-2.091-.023a4.038,4.038,0,0,0-.983,0c-.7.069-1.394.023-2.114.023V730.2h.32v2.5h1.989a4.653,4.653,0,0,1-.4-.537c-.32-.606-.366-.743.423-1.029a1.393,1.393,0,0,1,1.029.057.278.278,0,0,1,.194.366,1.935,1.935,0,0,1-.674,1.143h1.966v-2.5h.331C724.689,731.126,724.689,732.063,724.689,733.046Zm-2-1.531a1,1,0,0,0-.846-.023c-.32.137-.354.217-.16.514a3.865,3.865,0,0,0,.389.491A1.319,1.319,0,0,0,722.689,731.514Z" transform="translate(-648.644 -668.897)" fill="#979a9c"/>
    <path id="Path_2273" data-name="Path 2273" d="M663.094,738.853v1.486h2.743a5.452,5.452,0,0,1,.011-.869.776.776,0,0,1,.766-.686.8.8,0,0,1,.891.514.951.951,0,0,1-.3,1.131,1.24,1.24,0,0,1-.617.206c-.834.023-1.657.011-2.491.011-.491,0-.983.034-1.474.034a2.189,2.189,0,0,1-.549-.069.811.811,0,0,1-.606-.96.887.887,0,0,1,.766-.8C662.512,738.83,662.786,738.853,663.094,738.853Zm3.029.937c0,.389.091.537.331.537a.652.652,0,0,0,.743-.651.54.54,0,0,0-.5-.594C666.363,739.082,666.123,739.379,666.123,739.79Zm-3.371-.651c-.343-.023-.686-.011-.811.309a.918.918,0,0,0,.023.7c.16.3.5.16.8.171C662.752,739.916,662.752,739.539,662.752,739.139Z" transform="translate(-597.244 -676.499)" fill="#979a9c"/>
    <path id="Path_2274" data-name="Path 2274" d="M732,614.6c.023.537.057,1.04.069,1.531a.339.339,0,0,1-.08.172c-.64.7-1.291,1.394-1.989,2.16a9.21,9.21,0,0,0-.011-1.131,1.339,1.339,0,0,1,.526-1.28c.446-.377.834-.823,1.257-1.234C731.842,614.749,731.9,614.691,732,614.6Z" transform="translate(-657.923 -566.508)" fill="#4a9ea9"/>
    <path id="Path_2275" data-name="Path 2275" d="M308.315,780.259h-.354V778.91c-.023-.011-.034-.011-.057-.023-.171.388-.354.777-.5,1.177-.057.16-.149.24-.309.194a.435.435,0,0,1-.251-.194c-.194-.411-.354-.834-.571-1.234v1.417h-.343c0-.114-.011-.217-.011-.331v-1.852c0-.114-.069-.274.137-.309s.263.091.32.24c.206.5.423,1.006.629,1.52a2.026,2.026,0,0,0,.114.24c.263-.606.514-1.166.731-1.726.091-.229.217-.343.48-.217C308.315,778.613,308.315,779.424,308.315,780.259Z" transform="translate(-282.315 -711.013)" fill="#979a9c"/>
    <path id="Path_2276" data-name="Path 2276" d="M398.689,784.876a1.264,1.264,0,0,1-.183.011,1.468,1.468,0,0,1-.206-.011v-1.7c0-.034.069-.091.1-.1a4.008,4.008,0,0,1,.9-.069,1.94,1.94,0,0,0,.446,0c.777-.1,1.3.08,1.291.994,0,.24-.011.491,0,.731,0,.16-.057.217-.217.217s-.183-.08-.183-.206v-.891c0-.423-.24-.594-.651-.457a.285.285,0,0,0-.137.229c-.011.411-.011.823-.011,1.257-.126.011-.24.011-.389.023,0-.377.011-.731,0-1.086-.011-.423-.229-.583-.617-.446a.308.308,0,0,0-.16.229C398.677,784.019,398.689,784.442,398.689,784.876Z" transform="translate(-364.152 -715.642)" fill="#979a9c"/>
    <path id="Path_2277" data-name="Path 2277" d="M193.866,785.261c0-.377.011-.743,0-1.109-.011-.343-.149-.457-.491-.446-.217.011-.32.069-.309.32.023.308,0,.617,0,.926,0,.331-.023.343-.389.263,0-.343.011-.7,0-1.051-.011-.411-.217-.549-.606-.457-.16.034-.183.114-.183.251.011.423,0,.834,0,1.269H191.5c0-.56,0-1.12.011-1.669a.186.186,0,0,1,.137-.137c.331-.023.651-.023.983-.034a2.392,2.392,0,0,1,.286-.011,3.965,3.965,0,0,1,.9.069c.354.1.411.457.434.777.023.263,0,.526,0,.789C194.254,785.307,194.243,785.318,193.866,785.261Z" transform="translate(-180.986 -715.992)" fill="#979a9c"/>
    <path id="Path_2278" data-name="Path 2278" d="M271.829,776.755h-.3l.034-.069a1.3,1.3,0,0,0-.411-.217c-.069-.011-.24.16-.24.24,0,.126.1.354.183.366.274.034.274.171.229.366-.423.16-.549.309-.514.571a.482.482,0,0,0,.491.411c.3.034.48-.126.571-.469-.1-.011-.194-.023-.309-.034,0-.091-.011-.183-.011-.32.3,0,.583-.011.869.011.057,0,.137.114.137.183a.307.307,0,0,1-.126.194c-.034.023-.1,0-.183,0a.912.912,0,0,1-.926.834.814.814,0,0,1-.834-.491.831.831,0,0,1,.217-.994.752.752,0,0,1-.057-.994.667.667,0,0,1,.754-.229A.594.594,0,0,1,271.829,776.755Z" transform="translate(-250.881 -709.532)" fill="#979a9c"/>
    <path id="Path_2279" data-name="Path 2279" d="M624.374,779.589h-.686v-.343c.32,0,.629-.011.937.011.057,0,.137.137.137.194a1.049,1.049,0,0,1-1.554.88c-.537-.24-.709-.629-.663-1.406a1.072,1.072,0,0,1,.789-.937,1.038,1.038,0,0,1,1.063.217c.057.057.046.171.069.251-.1.012-.229.069-.3.023a.843.843,0,0,0-1.109.069,1.086,1.086,0,0,0-.034,1.223.8.8,0,0,0,.777.274A.633.633,0,0,0,624.374,779.589Z" transform="translate(-562.763 -711.177)" fill="#979a9c"/>
    <path id="Path_2280" data-name="Path 2280" d="M519.489,784.4v.766H519.1v-2.389a.2.2,0,0,1,.069-.137,1.091,1.091,0,0,1,1.6.583A.958.958,0,0,1,519.489,784.4Zm0-.914v.229c0,.3.126.411.423.377.343-.034.537-.3.491-.708-.034-.331-.217-.48-.594-.469-.32.011-.32.023-.32.457Z" transform="translate(-471.146 -715.202)" fill="#979a9c"/>
    <path id="Path_2281" data-name="Path 2281" d="M342.231,738.7c0,.754.023,1.451-.011,2.137a.658.658,0,0,1-.674.617,1.037,1.037,0,0,1-.846-.206,2.582,2.582,0,0,0,.149-.229c.754.24,1.074.1,1.074-.469h-.331a.775.775,0,0,1-.869-.777.934.934,0,0,1,.72-1.017C341.706,738.734,341.98,738.723,342.231,738.7Zm-.3.366a.716.716,0,0,0-.766.286.635.635,0,0,0,.011.731c.194.251.48.16.743.148C341.934,739.832,341.934,739.454,341.934,739.066Z" transform="translate(-313.135 -676.426)" fill="#979a9c"/>
    <path id="Path_2282" data-name="Path 2282" d="M352.15,778.531c-.3,0-.583.011-.869,0a.818.818,0,0,1-.754-.732,1.924,1.924,0,0,1,.034-.628.877.877,0,0,1,.949-.583c.08.011.16.023.286.046V775.8h.354Zm-.32-.994a1.853,1.853,0,0,1,0-.251c.034-.24-.08-.308-.3-.32-.514-.023-.754.309-.606.857a.513.513,0,0,0,.549.366.355.355,0,0,0,.354-.457A1.106,1.106,0,0,1,351.83,777.537Z" transform="translate(-321.831 -709.286)" fill="#979a9c"/>
    <path id="Path_2283" data-name="Path 2283" d="M757.6,780.28q.428-1.183.857-2.331a.3.3,0,0,1,.229-.148c.091,0,.24.057.263.126.286.766.56,1.543.834,2.32-.24.1-.388.08-.48-.171-.194-.56-.206-.549-.8-.549h-.251a2.969,2.969,0,0,0-.183.5C758.011,780.28,757.874,780.36,757.6,780.28Zm1.108-1.966c-.114.32-.217.583-.32.857h.64C758.926,778.886,758.823,778.623,758.708,778.314Z" transform="translate(-682.39 -711.057)" fill="#979a9c"/>
    <path id="Path_2284" data-name="Path 2284" d="M439.34,778.641c.114.3.08.343-.183.343H438.3v.766h1.211c.057.24.046.366-.229.354-.377-.011-.766,0-1.154,0-.137,0-.229-.034-.229-.206.011-.754,0-1.508,0-2.32.514,0,1.017-.012,1.509.011.057,0,.091.172.171.3h-1.291v.743C438.666,778.641,439.009,778.641,439.34,778.641Z" transform="translate(-399.226 -710.858)" fill="#979a9c"/>
    <path id="Path_2285" data-name="Path 2285" d="M812.5,776.41a4.429,4.429,0,0,1,.834.171.885.885,0,0,1,.446.846c.012.229,0,.446,0,.674,0,.331-.011.343-.388.274,0-.332.011-.663,0-.994a.526.526,0,0,0-.674-.537c-.149.046-.24.1-.229.286q.017.531,0,1.063c0,.069-.114.16-.206.183-.034.011-.171-.091-.171-.137-.011-.857-.011-1.714-.011-2.56.377-.057.389-.057.389.274C812.5,776.135,812.5,776.307,812.5,776.41Z" transform="translate(-730.661 -709.152)" fill="#979a9c"/>
    <path id="Path_2286" data-name="Path 2286" d="M172.117,779.969c-.206-.034-.4-.057-.606-.091-.126-.023-.24-.1-.171-.24.034-.069.16-.1.251-.1.286,0,.571.046.846.023.217-.011.309-.194.286-.411s-.183-.286-.366-.32c-.16-.023-.32-.011-.469-.034a.6.6,0,0,1-.549-.514.7.7,0,0,1,.343-.686,1.442,1.442,0,0,1,1.246,0c.034.011.091.148.069.171a.353.353,0,0,1-.217.137c-.206,0-.4-.046-.606-.046a.4.4,0,0,0-.263.069c-.08.08-.183.217-.16.309s.149.194.263.229c.16.046.331.012.5.046a.685.685,0,0,1,.629.7.771.771,0,0,1-.743.731,1.848,1.848,0,0,1-.251,0C172.129,779.946,172.129,779.958,172.117,779.969Z" transform="translate(-163.112 -710.746)" fill="#979a9c"/>
    <path id="Path_2287" data-name="Path 2287" d="M576.2,783.909h-1.3a.507.507,0,0,0,.834.331c.183-.16.3-.137.434.023a.874.874,0,0,1-1.109.423.99.99,0,0,1-.537-1.234.843.843,0,0,1,1.029-.629C576.036,782.926,576.264,783.3,576.2,783.909Zm-.377-.309a.463.463,0,0,0-.491-.434.434.434,0,0,0-.434.434Z" transform="translate(-520.185 -715.486)" fill="#979a9c"/>
    <path id="Path_2288" data-name="Path 2288" d="M684.79,783.866c.217.446.594.56.891.3.172-.149.286-.126.411.023-.126.514-.971.651-1.371.274a1.052,1.052,0,0,1-.263-1.074.826.826,0,0,1,.743-.651.85.85,0,0,1,.948.96.258.258,0,0,1-.206.148c-.286.023-.583.011-.869.011A2.805,2.805,0,0,0,684.79,783.866Zm.983-.32c-.091-.32-.286-.48-.514-.446s-.434.126-.434.423c.057,0,.114.011.171.011C685.247,783.546,685.5,783.546,685.773,783.546Z" transform="translate(-617.568 -715.42)" fill="#979a9c"/>
    <path id="Path_2289" data-name="Path 2289" d="M487.534,783.844c.194.48.583.606.926.309.137-.126.251-.1.32.011.034.057-.023.206-.08.263a.882.882,0,0,1-.9.217.818.818,0,0,1-.617-.686c-.16-.766.377-1.36,1.074-1.189.446.114.663.48.606,1.074Zm.983-.3a.47.47,0,0,0-.514-.434.432.432,0,0,0-.423.434Z" transform="translate(-442.849 -715.433)" fill="#979a9c"/>
    <path id="Path_2290" data-name="Path 2290" d="M331.8,783.97c.206.446.583.56.891.3.183-.16.286-.114.423.034a.85.85,0,0,1-.937.48.9.9,0,0,1-.731-.709c-.1-.674.194-1.143.777-1.223a.876.876,0,0,1,.949.926.3.3,0,0,1-.206.183c-.286.023-.583.012-.869.012A1.276,1.276,0,0,0,331.8,783.97Zm.971-.32c-.08-.3-.263-.457-.514-.434a.418.418,0,0,0-.423.434Z" transform="translate(-304.919 -715.524)" fill="#979a9c"/>
    <path id="Path_2291" data-name="Path 2291" d="M646.542,783.859a.532.532,0,0,0,.88.32c.206-.171.3-.1.423.057a.887.887,0,0,1-1.029.423.86.86,0,0,1-.64-.869.914.914,0,0,1,.457-.948.852.852,0,0,1,.926.057.746.746,0,0,1,.32.8.3.3,0,0,1-.229.149C647.274,783.859,646.908,783.859,646.542,783.859Zm.034-.32h.926a.475.475,0,0,0-.491-.434A.449.449,0,0,0,646.577,783.539Z" transform="translate(-583.697 -715.425)" fill="#979a9c"/>
    <path id="Path_2292" data-name="Path 2292" d="M717.292,784.8a9.485,9.485,0,0,1-.994-.011.826.826,0,0,1-.7-.731,1,1,0,0,1,.229-.937,1.442,1.442,0,0,1,1.36-.126.187.187,0,0,1,.08.126C717.292,783.678,717.292,784.227,717.292,784.8Zm-.389-.994c0-.126.011-.24,0-.366,0-.057-.046-.149-.069-.149a1.592,1.592,0,0,0-.617.011c-.229.08-.274.331-.263.56a.513.513,0,0,0,.331.5c.377.137.617-.011.617-.388Z" transform="translate(-645.168 -715.552)" fill="#979a9c"/>
    <path id="Path_2293" data-name="Path 2293" d="M220.694,784.979c-.331,0-.64.023-.937,0a.917.917,0,0,1-.766-1.029.844.844,0,0,1,.857-.869c.834-.011.834-.011.834.8C220.694,784.237,220.694,784.6,220.694,784.979Zm-.343-.994a1.958,1.958,0,0,0-.011-.366.252.252,0,0,0-.126-.16.563.563,0,0,0-.72.172.825.825,0,0,0,.069.811.578.578,0,0,0,.617.126c.24-.069.171-.251.183-.411A.987.987,0,0,1,220.351,783.985Z" transform="translate(-205.334 -715.734)" fill="#979a9c"/>
    <path id="Path_2294" data-name="Path 2294" d="M885.234,784.432c.16-.4.32-.731.434-1.074.091-.286.229-.377.537-.274-.206.526-.423,1.04-.629,1.566-.1.263-.217.537-.32.8-.126.3-.172.32-.5.126.4-.411.137-.846.011-1.269s-.24-.811-.366-1.211c.274-.091.446-.057.514.263S885.12,784.021,885.234,784.432Z" transform="translate(-794.698 -715.701)" fill="#979a9c"/>
    <path id="Path_2295" data-name="Path 2295" d="M832.86,783.583a.884.884,0,1,1-1.76,0,.9.9,0,0,1,.88-.983A.858.858,0,0,1,832.86,783.583Zm-1.394.011c0,.389.194.617.526.617s.526-.229.537-.617-.183-.606-.526-.606C831.637,782.989,831.466,783.194,831.466,783.594Z" transform="translate(-747.49 -715.308)" fill="#979a9c"/>
    <path id="Path_2296" data-name="Path 2296" d="M458.291,784.576H457.9c0-.343-.023-.686,0-1.017.023-.434-.32-.64-.766-.5a.329.329,0,0,0-.137.217q-.017.531,0,1.063c0,.149-.023.252-.206.252s-.194-.091-.194-.24c0-.457.011-.914,0-1.371,0-.149.034-.217.194-.251a1.249,1.249,0,0,1,1.12.091.89.89,0,0,1,.377.743Z" transform="translate(-415.789 -715.341)" fill="#979a9c"/>
    <path id="Path_2297" data-name="Path 2297" d="M667.513,784.332h-.388V783.28a.484.484,0,0,0-.366-.5c-.377-.114-.549.023-.549.423v.926c0,.16-.08.24-.217.206a.253.253,0,0,1-.16-.194c-.011-.48-.011-.949,0-1.429a.269.269,0,0,1,.068-.194,1.053,1.053,0,0,1,1.6.754C667.536,783.6,667.513,783.955,667.513,784.332Z" transform="translate(-601.103 -715.086)" fill="#979a9c"/>
    <path id="Path_2298" data-name="Path 2298" d="M780.768,782.837h.377c0,.606,0,1.189-.011,1.771,0,.046-.114.137-.183.137a5.164,5.164,0,0,1-.594.011.8.8,0,0,1-.834-.766c-.023-.3-.023-.594-.023-.891s.023-.309.354-.229v1.017a.491.491,0,0,0,.48.514q.411.034.411-.377C780.768,783.649,780.768,783.26,780.768,782.837Z" transform="translate(-701.787 -715.512)" fill="#979a9c"/>
    <path id="Path_2299" data-name="Path 2299" d="M368.313,740.809a.84.84,0,0,1-.914-.868.921.921,0,1,1,1.829-.011A.821.821,0,0,1,368.313,740.809Zm-.526-.914c0,.4.149.571.514.571a.5.5,0,0,0,.549-.583c0-.411-.229-.7-.526-.708C368,739.174,367.787,739.471,367.787,739.894Z" transform="translate(-336.781 -676.603)" fill="#979a9c"/>
    <path id="Path_2300" data-name="Path 2300" d="M379.852,782.769c.229-.08.354-.069.354.217-.011.526,0,1.051-.011,1.566a.965.965,0,0,1-.023.114,6.078,6.078,0,0,1-.914-.011.884.884,0,0,1-.7-.834,1.522,1.522,0,0,1,0-.229v-.834h.389v1.04a.493.493,0,0,0,.663.491.284.284,0,0,0,.24-.32Z" transform="translate(-346.664 -715.42)" fill="#979a9c"/>
    <path id="Path_2301" data-name="Path 2301" d="M558.519,785.087l-.468-.069c-.137-.023-.206-.069-.16-.217a.2.2,0,0,1,.274-.16,1.777,1.777,0,0,0,.549.034c.08-.011.16-.114.24-.171-.069-.08-.126-.194-.206-.24s-.183-.012-.274-.023a.537.537,0,0,1-.491-.48.5.5,0,0,1,.423-.571,2.875,2.875,0,0,1,.766.034.29.29,0,0,1,.114.206.293.293,0,0,1-.206.137c-.149.011-.3-.057-.434-.046-.091.011-.183.114-.274.171a1.349,1.349,0,0,0,.251.194,2.629,2.629,0,0,0,.3.034.61.61,0,0,1,.434.617.624.624,0,0,1-.583.537,1.527,1.527,0,0,1-.229,0C558.519,785.076,558.519,785.076,558.519,785.087Z" transform="translate(-505.491 -715.818)" fill="#979a9c"/>
    <path id="Path_2302" data-name="Path 2302" d="M594.352,785.1a2.724,2.724,0,0,1-.457-.08c-.068-.023-.149-.16-.126-.194a.326.326,0,0,1,.217-.171c.183-.011.366.057.549.034.1-.011.194-.126.286-.194a1.552,1.552,0,0,0-.263-.229c-.068-.034-.16,0-.251-.011a.528.528,0,0,1-.491-.491.5.5,0,0,1,.423-.56,3.055,3.055,0,0,1,.789.046c.046,0,.114.149.091.183a.336.336,0,0,1-.206.149c-.183,0-.366-.046-.548-.034-.069,0-.137.126-.194.194a1.194,1.194,0,0,0,.194.16.536.536,0,0,0,.194.023.549.549,0,0,1,.594.583.607.607,0,0,1-.606.594Z" transform="translate(-537.278 -715.834)" fill="#979a9c"/>
    <path id="Path_2303" data-name="Path 2303" d="M513.162,739.571c-.011.16-.023.309-.023.469-.011.366.126.514.491.514h1.211V739h.32v1.829c-.617,0-1.234.023-1.851-.011-.411-.023-.617-.526-.514-1.04C512.842,739.56,512.945,739.5,513.162,739.571Z" transform="translate(-465.54 -676.691)" fill="#979a9c"/>
    <path id="Path_2304" data-name="Path 2304" d="M475.73,780.273c-.583.091-.754-.046-.754-.629v-.914c-.091-.023-.183-.046-.263-.057-.091-.251-.011-.366.217-.343.149-.171-.126-.514.229-.537.423-.023.1.377.263.526.354.046.354.046.331.331-.114.011-.229.023-.366.034v1.188C475.6,779.907,475.89,779.884,475.73,780.273Z" transform="translate(-431.799 -711.05)" fill="#979a9c"/>
    <path id="Path_2305" data-name="Path 2305" d="M798.562,778.337c.16-.183-.126-.537.251-.537.4,0,.08.366.286.549.1.023.423-.091.286.309a2.853,2.853,0,0,1-.343.023v1.211c.274-.011.469.046.343.4-.1,0-.229.011-.343,0a.41.41,0,0,1-.4-.469v-1.1c-.1-.023-.183-.034-.263-.046C798.265,778.451,798.334,778.326,798.562,778.337Z" transform="translate(-718.46 -711.057)" fill="#979a9c"/>
    <path id="Path_2306" data-name="Path 2306" d="M871.023,778.371c.091-.011.171-.034.217-.034.149-.171-.137-.537.251-.537s.069.377.24.537c.08,0,.183.011.32.023.011.091.011.183.023.3-.126.011-.251.023-.4.034,0,.354-.023.72.011,1.074.011.08.206.137.354.24v.263c-.628.149-.789-.16-.777-.606.011-.286,0-.583,0-.869,0-.023-.011-.034-.011-.069-.08-.011-.148-.034-.251-.057A1.122,1.122,0,0,0,871.023,778.371Z" transform="translate(-782.83 -711.057)" fill="#979a9c"/>
    <path id="Path_2307" data-name="Path 2307" d="M496.2,730.1h.354v2.834H496.2Z" transform="translate(-450.863 -668.808)" fill="#979a9c"/>
    <path id="Path_2308" data-name="Path 2308" d="M770.954,732.946H770.6V730.1h.354Z" transform="translate(-693.904 -668.808)" fill="#979a9c"/>
    <path id="Path_2309" data-name="Path 2309" d="M895.8,730.1h.343v2.834c-.1,0-.217.011-.343.011Z" transform="translate(-804.795 -668.808)" fill="#979a9c"/>
    <path id="Path_2310" data-name="Path 2310" d="M735.595,775.711c.091,0,.183-.011.309-.011a2.817,2.817,0,0,1,.023.308v1.68c0,.171-.046.377.217.446.046.011.091.149.069.217-.011.046-.114.1-.183.1-.309.023-.457-.091-.469-.377-.011-.754,0-1.509,0-2.263C735.561,775.78,735.584,775.757,735.595,775.711Z" transform="translate(-662.864 -709.197)" fill="#979a9c"/>
    <path id="Path_2311" data-name="Path 2311" d="M239.2,775.8h.343v1.909c0,.194-.057.423.24.491a.25.25,0,0,1,.057.217c-.011.046-.114.1-.183.1-.32.023-.446-.1-.446-.411C239.2,777.354,239.2,776.589,239.2,775.8Z" transform="translate(-223.234 -709.286)" fill="#979a9c"/>
    <path id="Path_2312" data-name="Path 2312" d="M248.411,775.8h.331v1.989c0,.183-.023.354.217.423.046.011.08.16.069.24,0,.034-.1.08-.171.091-.229.023-.446-.034-.457-.286C248.4,777.434,248.411,776.623,248.411,775.8Z" transform="translate(-231.383 -709.286)" fill="#979a9c"/>
    <path id="Path_2313" data-name="Path 2313" d="M507.894,782.772c.034.229-.011.343-.24.331-.251-.011-.4.091-.377.4.034.377.011.766.011,1.154H506.9v-1.68a.181.181,0,0,1,.091-.114A1.358,1.358,0,0,1,507.894,782.772Z" transform="translate(-460.341 -715.423)" fill="#979a9c"/>
    <path id="Path_2314" data-name="Path 2314" d="M704.562,784.643h-.389v-.72c0-.251.023-.5,0-.754s.069-.366.309-.4.457-.046.686-.069c.069.263.034.389-.229.389-.24,0-.389.091-.366.389C704.585,783.843,704.562,784.232,704.562,784.643Z" transform="translate(-635.066 -715.397)" fill="#979a9c"/>
    <path id="Path_2315" data-name="Path 2315" d="M333.1,730.1h.309v2.834H333.1Z" transform="translate(-306.403 -668.808)" fill="#979a9c"/>
    <path id="Path_2316" data-name="Path 2316" d="M852.071,782.6c.034.263.023.4-.228.4s-.4.1-.366.411c.034.366.011.743.011,1.109-.366.091-.389.069-.389-.263,0-.423.011-.834,0-1.257,0-.16.046-.251.206-.286C851.546,782.669,851.808,782.634,852.071,782.6Z" transform="translate(-765.204 -715.308)" fill="#979a9c"/>
    <path id="Path_2317" data-name="Path 2317" d="M538.2,784.621v-1.646a.391.391,0,0,1,.011-.114,1.246,1.246,0,0,1,.926-.126.225.225,0,0,1,.057.171.271.271,0,0,1-.126.148.54.54,0,0,1-.194.011c-.194.023-.309.1-.286.343.023.377,0,.766,0,1.143a.177.177,0,0,1-.034.069Z" transform="translate(-488.064 -715.387)" fill="#979a9c"/>
    <path id="Path_2318" data-name="Path 2318" d="M863.842,782.832v1.874h-.354v-1.646C863.477,782.764,863.522,782.741,863.842,782.832Z" transform="translate(-776.175 -715.472)" fill="#979a9c"/>
    <path id="Path_2319" data-name="Path 2319" d="M551.043,784.721H550.7v-1.886c.32-.091.343-.069.343.24Z" transform="translate(-499.135 -715.475)" fill="#979a9c"/>
    <path id="Path_2320" data-name="Path 2320" d="M370.4,782.9h.309v1.909c-.091,0-.194.011-.309.011Z" transform="translate(-339.44 -715.574)" fill="#979a9c"/>
    <path id="Path_2321" data-name="Path 2321" d="M535.4,725.324c.1-.377.251-.48.526-.366.194.08.354.16.526-.023.011-.023.069,0,.1,0-.023.343-.183.446-.48.343-.183-.069-.366-.217-.526.046A.6.6,0,0,1,535.4,725.324Z" transform="translate(-485.583 -664.215)" fill="#979a9c"/>
    <path id="Path_2322" data-name="Path 2322" d="M824.831,730.6c-.206.229-.491.057-.731.229a2.035,2.035,0,0,1,.08-.64c.057-.1.263-.148.411-.194.046-.011.114.091.206.171-.206.091-.469-.046-.446.24C824.386,730.725,824.671,730.45,824.831,730.6Z" transform="translate(-741.29 -668.713)" fill="#979a9c"/>
    <path id="Path_2323" data-name="Path 2323" d="M550.292,775.811c.057.114.183.229.16.32s-.171.171-.263.263c-.069-.1-.183-.206-.194-.309s.114-.183.183-.286A.429.429,0,0,0,550.292,775.811Z" transform="translate(-498.509 -709.286)" fill="#979a9c"/>
    <path id="Path_2324" data-name="Path 2324" d="M368.8,776.558c.171-.126.286-.274.366-.263a.387.387,0,0,1,.24.274c.011.08-.137.24-.229.251S368.971,776.7,368.8,776.558Z" transform="translate(-338.023 -709.724)" fill="#979a9c"/>
    <path id="Path_2325" data-name="Path 2325" d="M863.589,776.609c-.171.137-.274.3-.354.286a.371.371,0,0,1-.24-.263c-.011-.08.126-.24.217-.251S863.418,776.495,863.589,776.609Z" transform="translate(-775.739 -709.798)" fill="#979a9c"/>
    <path id="Path_2326" data-name="Path 2326" d="M409.137,756.517c-.149.091-.251.206-.32.183-.091-.023-.149-.149-.217-.229.08-.069.16-.171.24-.171S409,756.414,409.137,756.517Z" transform="translate(-373.275 -692.014)" fill="#979a9c"/>
    <path id="Path_2327" data-name="Path 2327" d="M839.714,756.476c-.137.1-.229.229-.286.217-.091-.023-.16-.137-.229-.206.069-.069.137-.183.217-.194S839.566,756.385,839.714,756.476Z" transform="translate(-754.664 -692.007)" fill="#979a9c"/>
    <path id="Path_2328" data-name="Path 2328" d="M403.918,756.657c-.046-.08-.137-.183-.126-.251s.126-.137.194-.206c.057.08.16.149.171.229s-.091.16-.137.24C403.987,756.669,403.952,756.657,403.918,756.657Z" transform="translate(-369.016 -691.926)" fill="#979a9c"/>
    <path id="Path_2329" data-name="Path 2329" d="M834.891,756.417c-.16.1-.24.206-.309.194a.3.3,0,0,1-.183-.206.279.279,0,0,1,.183-.206C834.651,756.2,834.731,756.314,834.891,756.417Z" transform="translate(-750.412 -691.926)" fill="#979a9c"/>
    <path id="Path_2330" data-name="Path 2330" d="M796.049,732.764c-.16.1-.24.206-.32.194s-.149-.114-.229-.172c.069-.069.126-.183.206-.194S795.877,732.672,796.049,732.764Z" transform="translate(-715.958 -671.015)" fill="#979a9c"/>
    <path id="Path_2331" data-name="Path 2331" d="M283.469,732.821c-.08.046-.16.149-.24.137s-.149-.114-.229-.171c.069-.069.137-.183.217-.194s.16.08.251.114Z" transform="translate(-262.029 -671.015)" fill="#979a9c"/>
    <path id="Path_2332" data-name="Path 2332" d="M670.837,732.764c-.16.1-.24.194-.32.194s-.149-.114-.217-.172c.069-.069.126-.183.206-.194S670.666,732.672,670.837,732.764Z" transform="translate(-605.066 -671.015)" fill="#979a9c"/>
    <path id="Path_2333" data-name="Path 2333" d="M524.84,731.5c.091.16.194.251.171.32s-.137.183-.217.171a.278.278,0,0,1-.194-.194C524.611,731.729,524.726,731.648,524.84,731.5Z" transform="translate(-476.018 -670.048)" fill="#979a9c"/>
    <path id="Path_2334" data-name="Path 2334" d="M173.069,732.809c-.08.057-.16.149-.24.149s-.16-.1-.229-.171c.069-.068.126-.183.206-.194s.171.069.251.114A.316.316,0,0,0,173.069,732.809Z" transform="translate(-164.246 -671.014)" fill="#979a9c"/>
    <path id="Path_2335" data-name="Path 2335" d="M519.946,732.821c-.08.046-.16.149-.229.137s-.137-.114-.217-.171c.069-.069.126-.183.206-.194s.16.08.24.126Z" transform="translate(-471.501 -671.015)" fill="#979a9c"/>
    <path id="Path_2336" data-name="Path 2336" d="M376.634,732.756c-.08.046-.171.126-.24.114s-.126-.126-.194-.194c.069-.069.137-.172.217-.183s.149.091.229.137A.47.47,0,0,0,376.634,732.756Z" transform="translate(-344.578 -670.927)" fill="#979a9c"/>
    <path id="Path_2337" data-name="Path 2337" d="M371.444,732.1c.046.08.149.16.137.229s-.114.194-.183.194a.3.3,0,0,1-.206-.183c-.011-.069.08-.16.137-.24A.383.383,0,0,0,371.444,732.1Z" transform="translate(-340.141 -670.58)" fill="#979a9c"/>
    <path id="Path_2338" data-name="Path 2338" d="M288.518,732.834c-.046-.08-.137-.16-.126-.229s.126-.137.183-.206c.069.069.171.126.183.206s-.08.149-.126.229Z" transform="translate(-266.804 -670.846)" fill="#979a9c"/>
    <path id="Path_2339" data-name="Path 2339" d="M439.645,731.011c.046.08.149.171.137.229-.023.08-.126.148-.206.217-.069-.069-.171-.137-.183-.217s.091-.16.137-.24A.429.429,0,0,0,439.645,731.011Z" transform="translate(-400.548 -669.606)" fill="#979a9c"/>
    <path id="Path_2340" data-name="Path 2340" d="M178.018,732.834c-.046-.08-.137-.16-.126-.229s.126-.137.183-.206c.069.069.171.126.183.206s-.08.149-.126.229Z" transform="translate(-168.932 -670.846)" fill="#979a9c"/>
    <path id="Path_2341" data-name="Path 2341" d="M790.786,732.923c-.046-.08-.137-.16-.114-.229s.126-.137.194-.194c.069.069.171.126.183.206s-.08.148-.137.229A.47.47,0,0,0,790.786,732.923Z" transform="translate(-711.679 -670.934)" fill="#979a9c"/>
    <path id="Path_2342" data-name="Path 2342" d="M665.586,732.923c-.046-.08-.137-.171-.114-.24a.262.262,0,0,1,.194-.183.251.251,0,0,1,.171.194c.011.069-.091.149-.137.229Z" transform="translate(-600.787 -670.934)" fill="#979a9c"/>
    <path id="Path_2343" data-name="Path 2343" d="M595.906,732.834c-.046-.08-.126-.171-.114-.24s.126-.126.194-.194c.069.069.171.137.171.206s-.091.149-.137.229Z" transform="translate(-539.072 -670.846)" fill="#979a9c"/>
    <path id="Path_2344" data-name="Path 2344" d="M577.051,729.84c-.126.1-.194.206-.263.206a.267.267,0,0,1-.194-.171c-.011-.057.1-.172.171-.183S576.925,729.76,577.051,729.84Z" transform="translate(-522.069 -668.446)" fill="#979a9c"/>
    <path id="Path_2345" data-name="Path 2345" d="M579.77,733.033c-.069.034-.149.114-.217.1s-.171-.126-.16-.16a.275.275,0,0,1,.171-.183c.057-.011.137.091.206.137Z" transform="translate(-524.548 -671.193)" fill="#979a9c"/>
    <path id="Path_2346" data-name="Path 2346" d="M574.283,731.9c.08.137.171.217.149.274a.336.336,0,0,1-.183.171c-.034.011-.149-.114-.149-.16C574.111,732.106,574.191,732.037,574.283,731.9Z" transform="translate(-519.861 -670.403)" fill="#979a9c"/>
  </g>
</svg>
