<svg xmlns="http://www.w3.org/2000/svg" width="118.163" height="39.707" viewBox="0 0 118.163 39.707">
  <g id="The-Year-of-Saudi-Coffee-2022" transform="translate(-117.9 -371.9)" style="isolation: isolate">
    <g id="Group_2260" data-name="Group 2260" transform="translate(117.9 373.923)">
      <path id="Path_2347" data-name="Path 2347" d="M120.294,415.406a2.231,2.231,0,0,0,2.378-2.44,3.562,3.562,0,0,0-1.328-2.672l-.309-.293H119.63l-.34.371a4.123,4.123,0,0,0-1.39,2.8,2.184,2.184,0,0,0,2.394,2.239m-.587-3.815.432-.479h.093l.51.479c.695.618.927,1.019.927,1.421,0,.587-.494.988-1.236.988h-.247a1.114,1.114,0,0,1-1.236-1.05c-.015-.448.232-.788.757-1.359" transform="translate(-117.9 -406.139)" fill="#062a30"/>
      <path id="Path_2348" data-name="Path 2348" d="M124.018,393.921h.185c.371,0,.633-.216.633-.71s-.263-.71-.633-.71h-.185c-.371,0-.618.216-.618.71s.247.71.618.71" transform="translate(-122.551 -391.342)" fill="#062a30"/>
      <path id="Path_2349" data-name="Path 2349" d="M135.218,393.921h.185c.371,0,.633-.216.633-.71s-.263-.71-.633-.71h-.185c-.371,0-.618.216-.618.71s.247.71.618.71" transform="translate(-132.021 -391.342)" fill="#062a30"/>
      <path id="Path_2350" data-name="Path 2350" d="M158.71,394.143h13.606c.958,0,1.39-.154,1.7-.463l.062.031a2.508,2.508,0,0,0-.479,1.39c0,.587.247,1.019,1.127,2.363h1.359l1.313-3.336h1.683a4.138,4.138,0,0,0,2.378-.664,4.187,4.187,0,0,0,2.394.664h.88c1.514,0,2.131-.757,2.131-2.363V385h-1.158v6.765c0,.664-.263.973-.973.973H182.7l-.031-.062a2.88,2.88,0,0,0,1.112-2.239,2.325,2.325,0,1,0-4.633,0,2.833,2.833,0,0,0,1.112,2.239l-.031.062h-2.579c-.571,0-.834.232-1.112.958l-1.019,2.5a3.855,3.855,0,0,1-.865-2.023,4,4,0,0,1,.587-1.869l.463-.958-.911-.463-.51,1.019a1.255,1.255,0,0,1-1.328.834H158.819c-.031-2.209-.9-3.521-2.332-3.521a2.582,2.582,0,0,0-2.378,2.826,1.907,1.907,0,0,0,2.1,2.085h1.483c-.309.973-1.266,1.575-2.981,1.575H154v1.39h.772c2.209,0,3.537-1.066,3.938-2.95m21.437-3.521a1.229,1.229,0,0,1,1.266-1.313h.139a1.229,1.229,0,0,1,1.266,1.313,2.1,2.1,0,0,1-1.328,1.822,2.07,2.07,0,0,1-1.344-1.822m-23.861,2.116c-.726,0-1.127-.263-1.127-.865a1.171,1.171,0,0,1,1.236-1.251c.834,0,1.421.741,1.421,1.884v.232Z" transform="translate(-148.425 -385)" fill="#062a30"/>
      <path id="Path_2351" data-name="Path 2351" d="M333.418,388.021h.185c.371,0,.633-.216.633-.71s-.263-.71-.633-.71h-.185c-.371,0-.618.216-.618.71,0,.479.247.71.618.71" transform="translate(-299.61 -386.353)" fill="#062a30"/>
      <path id="Path_2352" data-name="Path 2352" d="M322.118,388.021h.185c.371,0,.633-.216.633-.71s-.263-.71-.633-.71h-.185c-.371,0-.618.216-.618.71,0,.479.247.71.618.71" transform="translate(-290.056 -386.353)" fill="#062a30"/>
      <rect id="Rectangle_697" data-name="Rectangle 697" width="1.143" height="9.143" transform="translate(40.155 0)" fill="#062a30"/>
      <path id="Path_2353" data-name="Path 2353" d="M415.027,415.692c0-.911.324-1.236,1.236-1.236h3.66v-1.3c0-2.178-.958-3.459-2.548-3.459a2.483,2.483,0,0,0-2.394,1.822l.973.571a1.528,1.528,0,0,1,1.436-.988c.9,0,1.483.726,1.514,1.946h-2.641c-1.606,0-2.363.834-2.363,2.61v3.1h1.143v-3.073Z" transform="translate(-368.185 -405.885)" fill="#062a30"/>
      <path id="Path_2354" data-name="Path 2354" d="M464.053,394.143h0l.031-.015v.015h10.564a14.3,14.3,0,0,0,4.726-.556l1.7-.479-.34-1.266-1.081.278a4.839,4.839,0,0,1-1.22.17c-1.189,0-1.992-.6-1.992-1.5,0-.772.525-1.266,1.452-1.266a1.726,1.726,0,0,1,1.514.8l.911-.911a2.632,2.632,0,1,0-4.062,3.274v.062H463.976c-.726,0-1.035-.216-1.035-.9V385H461.8v6.965c-.015,1.56.633,2.178,2.255,2.178" transform="translate(-408.686 -385)" fill="#062a30"/>
      <path id="Path_2355" data-name="Path 2355" d="M121.748,486.5a2.512,2.512,0,0,0-2.548,1.884l1.081.463a1.393,1.393,0,0,1,1.39-1.174,1.091,1.091,0,0,1,1.189,1.143v.139c0,.587-.309,1.143-1.127,1.884l-2.409,2.147v1.189h5.05v-1.127h-3.629l1.653-1.39a3.848,3.848,0,0,0,1.776-2.873,2.236,2.236,0,0,0-2.425-2.286" transform="translate(-118.999 -470.824)" fill="#062a30"/>
      <path id="Path_2356" data-name="Path 2356" d="M166.205,490.407c0-2.456-.849-3.907-2.7-3.907s-2.7,1.452-2.7,3.907.849,3.907,2.7,3.907c1.869-.015,2.7-1.452,2.7-3.907m-1.3.68c0,1.2-.355,2.054-1.39,2.054-1.05,0-1.39-.849-1.39-2.054V489.7c0-1.2.355-2.054,1.39-2.054,1.05,0,1.39.849,1.39,2.054Z" transform="translate(-154.174 -470.824)" fill="#062a30"/>
      <path id="Path_2357" data-name="Path 2357" d="M207.148,486.5a2.512,2.512,0,0,0-2.548,1.884l1.081.463a1.393,1.393,0,0,1,1.39-1.174,1.091,1.091,0,0,1,1.189,1.143v.139c0,.587-.309,1.143-1.127,1.884l-2.409,2.147v1.189h5.035v-1.127h-3.629l1.653-1.39a3.848,3.848,0,0,0,1.776-2.873,2.215,2.215,0,0,0-2.409-2.286" transform="translate(-191.21 -470.824)" fill="#062a30"/>
      <path id="Path_2358" data-name="Path 2358" d="M249.848,486.5a2.512,2.512,0,0,0-2.548,1.884l1.081.463a1.393,1.393,0,0,1,1.39-1.174,1.091,1.091,0,0,1,1.189,1.143v.139c0,.587-.309,1.143-1.127,1.884l-2.425,2.131v1.189h5.05v-1.127h-3.629l1.653-1.39a3.848,3.848,0,0,0,1.776-2.873,2.211,2.211,0,0,0-2.409-2.27" transform="translate(-227.315 -470.824)" fill="#062a30"/>
      <path id="Path_2359" data-name="Path 2359" d="M327.9,478.9h-.185c-.371,0-.618.216-.618.71,0,.479.247.71.618.71h.185c.371,0,.633-.216.633-.71s-.263-.71-.633-.71" transform="translate(-294.791 -464.398)" fill="#062a30"/>
      <path id="Path_2360" data-name="Path 2360" d="M316.6,478.9h-.185c-.371,0-.618.216-.618.71,0,.479.247.71.618.71h.185c.371,0,.633-.216.633-.71s-.263-.71-.633-.71" transform="translate(-285.236 -464.398)" fill="#062a30"/>
      <path id="Path_2361" data-name="Path 2361" d="M345.818,543.6c-.371,0-.618.216-.618.71,0,.479.247.71.618.71H346c.371,0,.633-.216.633-.71s-.263-.71-.633-.71Z" transform="translate(-310.095 -519.106)" fill="#062a30"/>
      <path id="Path_2362" data-name="Path 2362" d="M357.2,543.6h-.185c-.371,0-.618.216-.618.71,0,.479.247.71.618.71h.185c.371,0,.633-.216.633-.71,0-.51-.263-.71-.633-.71" transform="translate(-319.566 -519.106)" fill="#062a30"/>
      <path id="Path_2363" data-name="Path 2363" d="M314.664,498.724a10.205,10.205,0,0,0-.154-1.56l-.154-1.081-1.081.17.2,1.081a10.078,10.078,0,0,1,.154,1.39c0,.68-.4.9-1.529.9h-.664c-.649,0-.927-.185-.927-.772V494.6h-1.127v.649l-1.313.7c-1.421.757-2.069,1.452-2.069,2.579a1.6,1.6,0,0,0,1.761,1.745,1.524,1.524,0,0,0,1.622-1.3h.062v.154c0,1.3.6,1.9,2.1,1.9h.556c1.73-.015,2.564-.757,2.564-2.3m-5.282-.71c0,.633-.355.834-1.344.834-.757,0-1.019-.2-1.019-.68,0-.51.386-.8,1.266-1.266l1.112-.571v1.683Z" transform="translate(-276.95 -477.673)" fill="#062a30"/>
      <path id="Path_2364" data-name="Path 2364" d="M371.307,495.836l-1.143-1.235-1,1.019,1.266,1.3c.927.9,1.266,1.39,1.266,1.884,0,.463-.247.834-1.019.834H368.7v-.88h-1.1v.9a1.229,1.229,0,0,0,1.344,1.375h1.606a2.019,2.019,0,0,0,2.224-2.178,4.11,4.11,0,0,0-1.467-3.012" transform="translate(-329.036 -477.673)" fill="#062a30"/>
      <path id="Path_2365" data-name="Path 2365" d="M423.31,484.83h.077c.154.958.649,1.452,1.5,1.452.772,0,1.22-.417,1.328-1.452h.062c.216.9.834,1.3,1.992,1.3l.015-.015v.015h.726c1.514,0,2.131-.757,2.131-2.363V477h-1.158v6.764c0,.664-.263.973-.973.973h-.9c-.649,0-.958-.309-.958-.973v-1.39h-1.081v1.39c0,.8-.232,1.112-.757,1.112H425.1c-.556,0-.757-.309-.757-1.112v-.9h-1.081v.9c0,.834-.34,1.143-1.081,1.143a2.751,2.751,0,0,1-1.405-.4l-.093-.046.556-1.1-.927-.463-.51,1.019a1.228,1.228,0,0,1-1.328.834h-2.07l-.015-.031c.973-.772,1.344-1.143,1.344-2.023,0-1.236-.865-1.884-2.548-1.884a5.835,5.835,0,0,0-2.5.587v1.436l1.514,1.869-.015.046H411.6c-.031-2.209-.9-3.521-2.332-3.521a2.571,2.571,0,0,0-2.363,2.826,1.907,1.907,0,0,0,2.1,2.085h1.483c-.309.973-1.266,1.575-2.981,1.575h-.71v1.39h.772a3.6,3.6,0,0,0,3.923-2.965h1.683a3.776,3.776,0,0,0,2.1-.6,4,4,0,0,0,2.178.6h.525a2.509,2.509,0,0,0,2.039-.633l.34.2A3.2,3.2,0,0,0,422,486.3c.695-.031,1.189-.525,1.313-1.467m-12.741-.108h-1.529c-.726,0-1.127-.263-1.127-.865a1.171,1.171,0,0,1,1.236-1.251c.834,0,1.421.741,1.421,1.884Zm4.788-.247-1.7-2.008v-.062a5.686,5.686,0,0,1,1.513-.216c1.05,0,1.544.232,1.544.741,0,.432-.34.649-.973,1.2Z" transform="translate(-362.182 -462.791)" fill="#062a30"/>
      <rect id="Rectangle_698" data-name="Rectangle 698" width="1.143" height="9.143" transform="translate(70.657 14.193)" fill="#062a30"/>
      <g id="Group_2259" data-name="Group 2259" transform="translate(0.046 30.811)">
        <path id="Path_2366" data-name="Path 2366" d="M119.544,587.049H118.2V586.4h3.4v.649h-1.344v3.846h-.726v-3.846Z" transform="translate(-118.2 -586.107)" fill="#062a30"/>
        <path id="Path_2367" data-name="Path 2367" d="M144.5,584.7h.695v1.977h.031a.947.947,0,0,1,.942-.633c.68,0,1.081.479,1.081,1.3v2.131h-.695v-2.039c0-.51-.2-.772-.633-.772-.371,0-.726.185-.726.571v2.239H144.5Z" transform="translate(-140.438 -584.669)" fill="#062a30"/>
        <path id="Path_2368" data-name="Path 2368" d="M167.2,595.145a1.536,1.536,0,0,1,1.544-1.745,1.48,1.48,0,0,1,1.483,1.668v.263h-2.3v.108a.819.819,0,0,0,.88.88.943.943,0,0,0,.88-.51l.417.4a1.557,1.557,0,0,1-1.359.68C167.787,596.906,167.2,596.211,167.2,595.145Zm.726-.324v.046h1.56v-.062a.746.746,0,0,0-.741-.849A.8.8,0,0,0,167.926,594.821Z" transform="translate(-159.632 -592.026)" fill="#062a30"/>
        <path id="Path_2369" data-name="Path 2369" d="M200.444,590.994v-1.776L198.9,586.5h.834l1.1,2.008h.015l1.081-2.008h.8l-1.56,2.7v1.776h-.726Z" transform="translate(-186.437 -586.191)" fill="#062a30"/>
        <path id="Path_2370" data-name="Path 2370" d="M223.7,595.145a1.536,1.536,0,0,1,1.544-1.745,1.48,1.48,0,0,1,1.483,1.668v.263h-2.3v.108a.819.819,0,0,0,.88.88.943.943,0,0,0,.88-.51l.417.4a1.557,1.557,0,0,1-1.359.68C224.287,596.906,223.7,596.211,223.7,595.145Zm.741-.324v.046H226v-.062a.746.746,0,0,0-.741-.849A.791.791,0,0,0,224.441,594.821Z" transform="translate(-207.406 -592.026)" fill="#062a30"/>
        <path id="Path_2371" data-name="Path 2371" d="M249.587,596.829a.575.575,0,0,1-.6-.556h-.031a.927.927,0,0,1-.973.633.956.956,0,0,1-1.081-1c0-.664.494-1,1.436-1h.6v-.278c0-.4-.216-.649-.7-.649a.916.916,0,0,0-.8.463l-.417-.386a1.365,1.365,0,0,1,1.266-.649c.865,0,1.344.432,1.344,1.174v1.683h.355v.571Zm-.664-1v-.479h-.587c-.494,0-.726.154-.726.448v.124c0,.293.216.448.571.448C248.6,596.365,248.923,596.165,248.923,595.825Z" transform="translate(-227.023 -592.025)" fill="#062a30"/>
        <path id="Path_2372" data-name="Path 2372" d="M271.3,597.251V593.9h.7v.649h.031a.889.889,0,0,1,.927-.649h.185v.68h-.278c-.556,0-.865.185-.865.541v2.131Z" transform="translate(-247.655 -592.448)" fill="#062a30"/>
        <path id="Path_2373" data-name="Path 2373" d="M295.6,595.145a1.556,1.556,0,1,1,1.544,1.745A1.544,1.544,0,0,1,295.6,595.145Zm2.348.293v-.571a.783.783,0,0,0-.8-.9c-.479,0-.8.294-.8.9v.571a.808.808,0,1,0,1.606,0Z" transform="translate(-268.202 -592.026)" fill="#062a30"/>
        <path id="Path_2374" data-name="Path 2374" d="M318.71,586.692h-.51v-.571h.51v-.556a.777.777,0,0,1,.849-.865h.556v.571h-.71v.849h.695v.571H319.4v2.78h-.695Z" transform="translate(-287.312 -584.669)" fill="#062a30"/>
        <path id="Path_2375" data-name="Path 2375" d="M342.8,589.877l.51-.463a1.442,1.442,0,0,0,1.174.587c.571,0,.865-.278.865-.71,0-.355-.185-.541-.695-.649l-.4-.077c-.865-.154-1.313-.571-1.313-1.282,0-.8.618-1.282,1.575-1.282a1.783,1.783,0,0,1,1.514.695l-.51.448a1.216,1.216,0,0,0-1.05-.494c-.51,0-.819.216-.819.6,0,.371.232.541.711.633l.4.077c.9.17,1.3.571,1.3,1.282,0,.834-.6,1.39-1.622,1.39A1.943,1.943,0,0,1,342.8,589.877Z" transform="translate(-308.112 -585.768)" fill="#062a30"/>
        <path id="Path_2376" data-name="Path 2376" d="M370.487,596.829a.575.575,0,0,1-.6-.556h-.031a.927.927,0,0,1-.973.633.956.956,0,0,1-1.081-1c0-.664.494-1,1.436-1h.6v-.278c0-.4-.216-.649-.7-.649a.916.916,0,0,0-.8.463l-.417-.386a1.365,1.365,0,0,1,1.266-.649c.865,0,1.344.432,1.344,1.174v1.683h.355v.571Zm-.664-1v-.479h-.587c-.494,0-.726.154-.726.448v.124c0,.293.216.448.571.448C369.5,596.365,369.823,596.165,369.823,595.825Z" transform="translate(-329.251 -592.025)" fill="#062a30"/>
        <path id="Path_2377" data-name="Path 2377" d="M393.969,596.611h-.031a.928.928,0,0,1-.942.633c-.7,0-1.1-.463-1.1-1.3v-2.131h.7v2.039c0,.51.216.772.649.772.355,0,.71-.185.71-.587V593.8h.695v3.351h-.695v-.541Z" transform="translate(-349.629 -592.364)" fill="#062a30"/>
        <path id="Path_2378" data-name="Path 2378" d="M417.4,589h-.031a.964.964,0,0,1-.942.633c-.849,0-1.328-.649-1.328-1.745s.494-1.745,1.328-1.745a.944.944,0,0,1,.942.633h.031V584.8h.695v4.757H417.4Zm0-.556V587.3c0-.34-.34-.571-.757-.571a.783.783,0,0,0-.8.85v.587a.783.783,0,0,0,.8.849C417.077,589.016,417.4,588.785,417.4,588.445Z" transform="translate(-369.246 -584.754)" fill="#062a30"/>
        <path id="Path_2379" data-name="Path 2379" d="M440.7,584.979v-.108c0-.216.124-.371.417-.371s.417.154.417.371v.108c0,.216-.124.371-.417.371S440.7,585.2,440.7,584.979Zm.062.973h.7V589.3h-.7Z" transform="translate(-390.893 -584.5)" fill="#062a30"/>
        <path id="Path_2380" data-name="Path 2380" d="M461,588.317c0-1.513.71-2.317,1.884-2.317a1.643,1.643,0,0,1,1.606,1.019l-.618.34a.981.981,0,0,0-.988-.7c-.695,0-1.112.51-1.112,1.328v.68c0,.834.432,1.328,1.112,1.328a1.044,1.044,0,0,0,1.035-.741l.587.355a1.711,1.711,0,0,1-1.622,1.05C461.726,590.649,461,589.83,461,588.317Z" transform="translate(-408.057 -585.768)" fill="#062a30"/>
        <path id="Path_2381" data-name="Path 2381" d="M487,595.145a1.556,1.556,0,1,1,1.544,1.745A1.544,1.544,0,0,1,487,595.145Zm2.332.293v-.571a.783.783,0,0,0-.8-.9c-.479,0-.8.294-.8.9v.571a.808.808,0,1,0,1.606,0Z" transform="translate(-430.042 -592.026)" fill="#062a30"/>
        <path id="Path_2382" data-name="Path 2382" d="M510.01,586.692h-.51v-.571h.51v-.556a.777.777,0,0,1,.849-.865h.556v.571h-.695v.849h.695v.571h-.695v2.78h-.7v-2.78Z" transform="translate(-449.067 -584.669)" fill="#062a30"/>
        <path id="Path_2383" data-name="Path 2383" d="M524.31,586.692h-.51v-.571h.51v-.556a.777.777,0,0,1,.849-.865h.556v.571h-.695v.849h.695v.571h-.695v2.78h-.695v-2.78Z" transform="translate(-461.158 -584.669)" fill="#062a30"/>
        <path id="Path_2384" data-name="Path 2384" d="M538.5,595.145a1.536,1.536,0,0,1,1.544-1.745,1.48,1.48,0,0,1,1.483,1.668v.263h-2.3v.108a.819.819,0,0,0,.88.88.943.943,0,0,0,.88-.51l.417.4a1.557,1.557,0,0,1-1.359.68C539.087,596.906,538.5,596.211,538.5,595.145Zm.726-.324v.046h1.56v-.062a.746.746,0,0,0-.741-.849A.791.791,0,0,0,539.226,594.821Z" transform="translate(-473.588 -592.026)" fill="#062a30"/>
        <path id="Path_2385" data-name="Path 2385" d="M561.7,595.145a1.536,1.536,0,0,1,1.544-1.745,1.48,1.48,0,0,1,1.483,1.668v.263h-2.3v.108a.819.819,0,0,0,.88.88.943.943,0,0,0,.88-.51l.417.4a1.557,1.557,0,0,1-1.359.68C562.287,596.906,561.7,596.211,561.7,595.145Zm.726-.324v.046h1.56v-.062a.746.746,0,0,0-.741-.849A.791.791,0,0,0,562.426,594.821Z" transform="translate(-493.205 -592.026)" fill="#062a30"/>
      </g>
    </g>
    <path id="Path_2386" data-name="Path 2386" d="M665.607,371.9H625.9v39.707h39.707V371.9Zm-27.769,28.942c-.108.093-.216.216-.34.309-.541-.88-1.05-1.792-1.5-2.718l-.139-.278c-.278-.587-.541-1.174-.772-1.776a6.118,6.118,0,0,1,.927.556c.17.124.355.263.541.4l.046.046a2.669,2.669,0,0,1,.216.185,1.4,1.4,0,0,0,.154.139,1.527,1.527,0,0,0,.17.154l.278.278c.123.124.247.247.371.386.355.4.711.849,1.066,1.3h0c-.293.278-.556.556-.788.788,0-.015-.016-.031-.031-.046a2.07,2.07,0,0,0-.17-.216c-.232-.216-.525-.077-.541.077v.031c0,.031.015.062.031.062.031.015.062,0,.093.015a.358.358,0,0,1,.278.139c.031.046.077.077.093.124a.057.057,0,0,1,.015.046ZM653.1,390.325l-.88,13.236a.148.148,0,0,1-.108.139c-1,.417-9.761,3.768-14.27-2.07.093-.077.17-.154.263-.232,0,.015.015.015.015.031a1.17,1.17,0,0,0,.17.216c.232.216.525.077.541-.077v-.031c0-.046-.015-.062-.031-.062-.031-.015-.062,0-.093,0a.358.358,0,0,1-.278-.139.371.371,0,0,1-.093-.124V401.2l.124-.124c.077-.077.17-.154.263-.247a1.061,1.061,0,0,1,.2-.17c.108-.093.232-.2.34-.309.124.154.232.309.34.463.062.093.139.185.2.263.093.124.17.247.263.355.031.062.077.108.108.17h0a.409.409,0,0,1-.093.077.294.294,0,0,1-.278,0,.614.614,0,0,0-.093-.031q-.023,0-.046.046v.031c.015.17.324.448.541.324a.378.378,0,0,0,.17-.139.015.015,0,0,1,.015-.015,3.593,3.593,0,0,0,1.035,1.066,1.712,1.712,0,0,0,.293.139,1.247,1.247,0,0,0,.417.077c.463,0,.618-.633.448-.911l-.046-.046c-.046-.046-.077-.062-.108-.046s-.062.077-.108.124a.462.462,0,0,1-.432.185.621.621,0,0,1-.232-.046c-.4-.139-.71-.618-.973-.973l-.016-.015.016-.015a.41.41,0,0,1,.093-.077.3.3,0,0,1,.278-.015.606.606,0,0,0,.093.031c.015,0,.031-.015.031-.046v-.031c-.016-.17-.324-.448-.541-.34a.482.482,0,0,0-.17.139.033.033,0,0,1-.031.031c-.247-.34-.494-.726-.788-1.143h0c.355-.293.71-.571,1.066-.819l.371-.232a2.489,2.489,0,0,1,.278-.154.822.822,0,0,1,.17-.077,1.439,1.439,0,0,1,.154-.077c.077-.031.154-.062.216-.093.015,0,.031-.015.046-.015a3.552,3.552,0,0,1,.541-.154,4.27,4.27,0,0,1,.942-.124h.448a2.535,2.535,0,0,1,.355.031h0c.031,0,.062.015.093.015a.116.116,0,0,1,.077.015.553.553,0,0,1,.17.031h.015c.062.015.108.015.154.031a1.947,1.947,0,0,1,.232.062,5.55,5.55,0,0,0-.525-.263.117.117,0,0,1-.062-.031,3.964,3.964,0,0,0-.494-.185c-.031,0-.046-.015-.077-.015-.062-.015-.108-.031-.154-.046a.34.34,0,0,0-.124-.015,2.861,2.861,0,0,0-.355-.062c-.062,0-.123-.015-.185-.015a2.969,2.969,0,0,0-.371-.015h-.232a1.891,1.891,0,0,0-.293.031c-.077.015-.139.031-.216.046a.45.45,0,0,0-.139.031c-.016,0-.016,0-.031.015a.867.867,0,0,0-.185.062.667.667,0,0,1-.077.015c-.015,0-.046.015-.062.015a.321.321,0,0,1-.093.031c-.046.015-.077.031-.124.046a.117.117,0,0,1-.062.031,1.688,1.688,0,0,0-.232.124c-.031.015-.046.031-.077.046a.385.385,0,0,0-.108.062,1.991,1.991,0,0,0-.232.154c-.247.17-.479.34-.68.494-.093.062-.17.139-.263.2,0-.093-.016-.2-.016-.293-.031-.479-.031-.942-.046-1.421-.031-.541-.077-1.066-.093-1.606a2.249,2.249,0,0,1,.046-.463c.046-.154.185-.154.294,0a1.071,1.071,0,0,1,.154.293,2.978,2.978,0,0,1,.278,1.3v.386c0,.077.031.17.031.263h.046a3.355,3.355,0,0,0,.124-2.718h0a4.25,4.25,0,0,1,.927,2.517.451.451,0,0,0,.108-.185,3.744,3.744,0,0,0-.17-1.915,2.684,2.684,0,0,0-.757-1.266h.046a1.626,1.626,0,0,1,.726.571,2.79,2.79,0,0,1,.541,1.066c.015.108.046.232.062.34.015.046.031.077.062.154.031-.062.062-.077.077-.124a1.15,1.15,0,0,0-.031-1,3.167,3.167,0,0,0-1.2-1.483c-.077-.062-.17-.093-.263-.154V393.4c.2.015.386.031.587.062a1.486,1.486,0,0,1,.88.51c.077.108.17.2.247.309l.232.232a.725.725,0,0,0-.077-.417,2.2,2.2,0,0,0-2.178-1.282.3.3,0,0,0-.108.015c.232-.355.587-.448,1.2-.324a.5.5,0,0,0-.17-.232,1.152,1.152,0,0,0-1.143-.232c-.17.077-.309.185-.479.278-.031-.077-.046-.185-.077-.293-.062-.2-.124-.4-.2-.6-.062-.154-.17-.17-.247-.046-.031.062-.046.139-.077.216a3.61,3.61,0,0,1-.108.386q-.07.185-.232.046c-.154-.124-.293-.247-.448-.371a.919.919,0,0,0-.541-.278.683.683,0,0,0-.587.185c.108.031.185.046.263.062a.952.952,0,0,1,.541.324c.139.17.278.324.432.51-.309-.077-.587-.139-.865-.2a1.079,1.079,0,0,0-.942.232.131.131,0,0,0-.046.077v.309a.513.513,0,0,1,.448-.293.936.936,0,0,1,.293,0,1.376,1.376,0,0,1,.664.232c-.278.077-.54.17-.819.247a.792.792,0,0,0-.587.741v.71a1.12,1.12,0,0,1,1.436-.958.811.811,0,0,0-.17.154,2.491,2.491,0,0,0-.556,1.761.736.736,0,0,0,.139.386c.031.046.077.077.124.139.015-.185.015-.34.031-.494a1.022,1.022,0,0,1,.232-.695c.155-.154.309-.293.463-.432a.159.159,0,0,1,.2-.015,1.842,1.842,0,0,0-.2.324,3.13,3.13,0,0,0-.216,1.529,5.689,5.689,0,0,0,.124.71c.016.062.046.108.062.17a10.072,10.072,0,0,1,.278-1.421,2.563,2.563,0,0,1,.185-.479c.077-.124.185-.093.263.062a1.164,1.164,0,0,1,.093.2c.031.2.077.386.093.587.015.309.015.633,0,.942l-.046,2.039c-.077-.108-.17-.216-.263-.324-.2-.247-.417-.525-.679-.8-.077-.077-.155-.17-.232-.247l-.108-.108c-.031-.031-.046-.062-.077-.077l-.232-.232-.062-.062a.883.883,0,0,0-.124-.108c-.031-.031-.062-.046-.093-.077a.212.212,0,0,0-.062-.046c-.016-.015-.046-.031-.077-.062l-.185-.139c-.015,0-.015-.015-.031-.031l-.139-.093c-.077-.046-.139-.093-.216-.139a1.815,1.815,0,0,0-.293-.17.015.015,0,0,1-.015-.015c-.015-.015-.046-.015-.062-.031h0a.118.118,0,0,0-.077-.031c-.031-.015-.062-.015-.077-.031a3.773,3.773,0,0,0-.371-.154c-.062-.015-.124-.046-.185-.062-.108-.031-.232-.062-.355-.093h-.031a27.535,27.535,0,0,1-1.127-3.691,24.708,24.708,0,0,1-.556-3.166,1.8,1.8,0,0,0-.062-.278.949.949,0,0,0-.108-.216c-.293-.494-.571-1-.849-1.514a.256.256,0,0,1,.185.077,9.55,9.55,0,0,0,3.521,2.116,23.746,23.746,0,0,0,5.344,1.328,32.8,32.8,0,0,0,6.023.278,29.352,29.352,0,0,0,5.56-.741C653.113,390.062,653.128,390.062,653.1,390.325Zm6.378-5.436a2.483,2.483,0,0,1-.818,1.622,6.187,6.187,0,0,1-.988.819,10.852,10.852,0,0,1-1.776.942c-.2.077-.4.154-.618.247h0a1.842,1.842,0,0,0-.139-.726.057.057,0,0,0-.015-.046,3.07,3.07,0,0,0-.448-.741,5.188,5.188,0,0,0-1.56-1.174,12.194,12.194,0,0,0-1.807-.71,14.288,14.288,0,0,0-2.44-.525h-.031c-.587-.077-1.189-.124-1.776-.17-.155-.015-.309-.015-.448-.015-.479-.015-.973-.031-1.452-.015-.432.015-.865.031-1.3.077-.479.046-.958.108-1.421.17-.046,0-.108.015-.154.015-.062,0-.093,0-.108-.015-.031-.015-.031-.062-.031-.124v-4.633a.163.163,0,0,1,.185-.185c.71-.062,1.405-.108,2.116-.139,1.019-.031,2.039-.031,3.073.015l.865.046c.865.062,1.73.17,2.579.309.741.124,1.467.278,2.193.463a16.941,16.941,0,0,1,2.934,1.019.549.549,0,0,1,.139.062h0c.232.108.479.232.711.355a7.1,7.1,0,0,1,.927.571,5.176,5.176,0,0,1,.927.819,2.919,2.919,0,0,1,.587.958c.015.031.015.062.031.093v.031c.015.062.031.124.046.17v.062a.474.474,0,0,1,.016.154v.2Z" transform="translate(-429.544)" fill="#062a30"/>
  </g>
</svg>
