<svg xmlns="http://www.w3.org/2000/svg" width="130.139" height="38.617" viewBox="0 0 130.139 38.617">
  <g id="Qassim-University-01" style="isolation: isolate">
    <g id="Group_2276" data-name="Group 2276" transform="translate(0 0)">
      <path id="Path_2424" data-name="Path 2424" d="M400.773,399.227c.016.049.065.049.114.049l-.163-.179a.217.217,0,0,1,.049.13Zm-19.992-8.336c-.033-.049-.065-.049-.13-.049l.163.179a.307.307,0,0,1-.033-.13Zm27.058-.244c-.8-.033-.9.488-1.872,1.026.57-.293-.212.733-.993.944-1.009.244-1.661,1.3-2.442,2.1-.57-.651-1.14-1.254-1.726-1.856.456-.44.944-.977,1.254-1.3.44-.847-.391-1.026-.456-1.009-.814-.033-.9.488-1.872,1.026.26-.13.244,0,.065.212-.147-.163-.309-.326-.456-.5-.635-.716-1.237-1.433-1.807-2.133-1.042-1.3-2.23-2.263-3.175-3.631.13-.212.277-.423.407-.635h-.016a1.444,1.444,0,0,1-.554.407c.1-.049.114,0,.049.081-.016-.033-.049-.065-.065-.1a.575.575,0,0,1,.374-.293s.033-.081.049-.13c.065-.033.1.016.13.033l.081-.114a1.567,1.567,0,0,0-.407.147c-.1.1-.2.2-.277.293-.016-.033-.033-.049-.049-.081a14.967,14.967,0,0,0-1.856-1.937.625.625,0,0,0-1.009.456c-.049.814.472.9,1.009,1.9-.26-.5.488.033.814.7l-.147.13-.049.065c-.016.049.016.049.049.049a.345.345,0,0,0-.114.049.286.286,0,0,1-.065.081.225.225,0,0,0,.049-.065l.016-.016.065-.081.016-.016.016-.033-.391.358c-.033.033-.049.065-.065.081-.081.1-.147.212-.26.212l-.065.065h.016l-.033.016-.293.26c-.2.179-.391.358-.586.521-.179.163-.342.309-.5.472a28.82,28.82,0,0,1-2.621-2.979c.13-.212.277-.44.407-.635h-.016a1.444,1.444,0,0,1-.554.407c.1-.033.114,0,.049.081-.016-.033-.049-.065-.065-.1a.617.617,0,0,1,.374-.293s.033-.081.049-.13c.065-.033.1.016.13.033l.081-.114a2.065,2.065,0,0,0-.407.147c-.1.1-.179.2-.277.293-.016-.033-.033-.049-.049-.081a14.965,14.965,0,0,0-1.856-1.937.621.621,0,0,0-1.009.456c-.033.814.488.9,1.026,1.889-.26-.5.488.033.814.7l-.147.13-.049.065h0c-.016.049.016.049.049.049-.049.016-.081.033-.13.049a.286.286,0,0,1-.065.081.225.225,0,0,0,.049-.065l.016-.016.065-.081.016-.033.016-.033-.391.358c-.016.033-.049.065-.065.1-.065.1-.146.212-.26.2l-.065.065h.033l-.033.016-.293.26c-.2.163-.391.342-.586.521-1.14,1.009-2.133,2.035-3.272,3.093-.244-.163-.488-.309-.733-.488a.731.731,0,0,1-.179-.212c.065.1.13.2.212.309.081.163.391.146.6.326.049.016-.065.114,0,.163a2.5,2.5,0,0,1-.309.277l-.065.065-.049-.049.049.049c-.684.619-1.351,1.2-2.035,1.742-.2.163-.374.309-.553.472a5.592,5.592,0,0,0-.537-.391c.179.163.342.293.5.423-.049.049-.1.081-.147.13-.016-.081-.033-.2-.1-.212a2.632,2.632,0,0,0-.472-.309c-.081-.033.033-.147,0-.163-.228-.163-.521-.163-.6-.326-.081-.114-.147-.212-.212-.309a1.466,1.466,0,0,0-.147-.163l-.13-.081c-.326-.179-.684-.423-.993-.635v.016a1.3,1.3,0,0,1,.407.554c-.033-.1,0-.114.081-.049v.114a.773.773,0,0,1-.407-.44s-.081-.033-.13-.049c-.033-.065.016-.1.033-.13l-.114-.081a2.066,2.066,0,0,0,.147.407c.407.407.781.781,1.14,1.172.049.016.1,0,.13.049a.185.185,0,0,0,.049.13l.147.163.065.049h0c.049.016.049-.016.049-.049a.345.345,0,0,0,.049.114c.033.016.049.049.081.065a.226.226,0,0,0-.065-.049l-.016-.016-.081-.065-.033-.016-.033-.016.358.391a.354.354,0,0,1,.081.065c.1.081.212.147.212.26l.033.049a17.345,17.345,0,0,1-2.784,2.393,14.943,14.943,0,0,0-1.921,1.872c-.44.847.391,1.026.456,1.009.814.049.9-.488,1.872-1.026-.57.293.212-.733.993-.944,1.009-.244,1.661-1.3,2.458-2.116.57.635,1.14,1.254,1.726,1.856-.456.44-.944.977-1.237,1.3-.44.847.391,1.009.456,1.009.814.033.9-.488,1.872-1.026-.26.13-.244,0-.065-.212.147.163.309.326.456.5.635.716,1.237,1.416,1.807,2.133,1.042,1.3,2.23,2.263,3.175,3.63-.13.212-.277.423-.407.635h.016a1.445,1.445,0,0,1,.554-.407c-.1.049-.114,0-.049-.081a.34.34,0,0,0,.065.1.642.642,0,0,1-.374.309s-.033.081-.049.13c-.065.033-.1,0-.13-.033l-.081.1a1.359,1.359,0,0,0,.407-.147c.1-.1.2-.2.277-.293.016.033.033.049.049.081a13.95,13.95,0,0,0,1.856,1.937.629.629,0,0,0,1.009-.456c.033-.814-.488-.9-1.009-1.9.26.5-.488-.033-.814-.7l.147-.13.049-.065h0c.016-.049-.016-.049-.049-.049.033-.016.081-.033.114-.049.016-.016.033-.049.065-.081-.016.016-.033.049-.049.065l-.016.016-.065.081h0l-.016.016-.016.033.391-.358c.033-.033.049-.065.065-.081.065-.1.147-.212.26-.212l.065-.065h-.016l.033-.016.293-.277c.2-.163.391-.342.586-.521.179-.147.342-.309.5-.456a28.82,28.82,0,0,1,2.621,2.979c-.13.212-.277.423-.407.635l.016.016a1.216,1.216,0,0,1,.537-.407c-.1.049-.114,0-.049-.081a.34.34,0,0,0,.065.1.642.642,0,0,1-.374.309s-.033.081-.049.13c-.065.033-.1-.016-.13-.033l-.081.1a2.064,2.064,0,0,0,.407-.147c.1-.1.2-.2.277-.293.016.033.033.049.049.081a14.963,14.963,0,0,0,1.856,1.937.621.621,0,0,0,1.009-.456c.033-.814-.488-.9-1.009-1.889.26.5-.488-.033-.83-.716l.147-.147.049-.065c.016-.049-.016-.049-.049-.049a.243.243,0,0,0,.114-.049.286.286,0,0,1,.065-.081.085.085,0,0,0-.033.065l-.016.016-.065.1-.016.033.374-.358c.033-.033.049-.065.065-.081.065-.1.147-.212.26-.212l.065-.065h-.033l.033-.016.293-.26c.2-.179.391-.342.586-.521,1.14-1.009,2.133-2.035,3.256-3.093.244.163.488.309.733.488a.731.731,0,0,1,.179.212c-.065-.1-.13-.212-.212-.326-.081-.163-.391-.147-.6-.326-.033-.016.065-.114,0-.163.1-.1.2-.179.309-.277.033-.016.049-.049.081-.065l.049.049-.049-.049c.684-.619,1.351-1.2,2.035-1.758.179-.163.374-.309.554-.472a5.587,5.587,0,0,0,.537.391c-.179-.163-.342-.293-.5-.423.049-.049.1-.081.147-.13.016.081.016.2.081.212a2.794,2.794,0,0,0,.488.309c.081.033-.033.147,0,.163.212.163.521.163.6.326.081.114.147.212.212.309a1.469,1.469,0,0,0,.147.163l.13.081c.326.2.684.423.993.635v-.016a1.3,1.3,0,0,1-.407-.554c.049.1,0,.114-.081.049v-.13c.179.114.342.212.391.44,0,0,.1.033.13.049.033.065-.016.1-.033.147l.1.081a1.469,1.469,0,0,0-.13-.407c-.407-.407-.781-.781-1.14-1.172a.135.135,0,0,1-.13-.049c0-.049-.033-.1-.033-.13l-.163-.163-.065-.049c-.049-.016-.049.016-.049.049-.016-.033-.033-.081-.049-.114-.016-.016-.049-.033-.081-.065.016.016.049.033.065.049l.016.016.081.065h0l.016.016.033.016-.342-.391c-.033-.033-.065-.049-.081-.065-.114-.081-.212-.147-.2-.26l-.033-.049a17.344,17.344,0,0,1,2.784-2.393,14.938,14.938,0,0,0,1.921-1.872c.423-.749-.407-.928-.472-.928Zm-8.791,7.18.147.1c-.016.016-.033.016-.033.033a.1.1,0,0,1-.016-.065.177.177,0,0,1,.016.081.016.016,0,0,1-.016.016.251.251,0,0,1-.1-.049v-.114Zm-2.751,4.591a.517.517,0,0,1,.358-.228.408.408,0,0,1-.358.228Zm-4.265-1.791c.651-.619,1.286-1.254,2-1.9s1.416-1.254,2.116-1.823c.2-.147.374-.309.553-.472a5.6,5.6,0,0,0,.537.391c-.179-.163-.342-.293-.5-.423.049-.049.1-.081.147-.13.016.081.016.179.081.212a3.382,3.382,0,0,0,.472.309c.081.033-.033.147,0,.163.212.163.521.163.6.326.065.114.147.212.212.309a1.469,1.469,0,0,0,.147.163l.13.081c.163.081.309.2.472.293-.065.065-.114.13-.179.2a.016.016,0,0,0-.016.016c-.554.6-1.123,1.221-1.742,1.84a9.7,9.7,0,0,0-.912,1.254c-.228.26-.537.472-.733.667a6.335,6.335,0,0,0-.749.944c.26-.309.44-.554.749-.9.2-.228,0,.309-.114.472-.033.081-.26.049-.293.147a2.8,2.8,0,0,0-.309.488c-.033.081-.147-.049-.163,0a.34.34,0,0,0-.065.1c-.456-.993-1.661-1.661-2.377-2.589,0-.049-.033-.081-.065-.13Zm-1.986,1.693a.593.593,0,0,1,.358-.244.488.488,0,0,1-.358.244Zm-7.1-4.738c.944-.293,1.579-1.3,2.328-2.068,1.042,1.172,2.1,2.214,3.207,3.435.586.668,1.156,1.319,1.677,1.986-.081.13-.163.26-.26.391-.228.26-.537.472-.733.667a4.773,4.773,0,0,0-.733.944c.26-.309.44-.554.749-.9.2-.228,0,.309-.114.472-.033.081-.26.049-.293.147a2.794,2.794,0,0,0-.309.488c-.033.081-.147-.033-.163,0a.149.149,0,0,0-.049.081c-.456-.993-1.661-1.644-2.377-2.572a10.441,10.441,0,0,0-.733-.765,21.233,21.233,0,0,0-2.2-2.312Zm-.635-5.324c.309.309.6.619.879.912.049,0,.1,0,.114.049s.033.081.049.13l.163.163.065.049h0c.049.016.049,0,.049-.049.016.049.016.081.049.114.016.016.049.033.065.065-.016-.016-.049-.033-.049-.049a.016.016,0,0,1-.016-.016l-.081-.065-.016-.016-.033-.016.358.391c.033.033.065.049.081.065.114.081.212.147.212.26l.033.033a20.885,20.885,0,0,1-2.442,2.165c-.293-.277-.57-.57-.863-.863a7.7,7.7,0,0,0-1.172-.863c.163-.163.326-.342.5-.5a17.874,17.874,0,0,0,2.051-1.954Zm.2.049c-.049-.033-.114-.065-.163-.1l.033-.033c.016.016.016.033.033.065a.177.177,0,0,1-.016-.081l.016-.016a.276.276,0,0,1,.081.033l.016.13Zm2.751-4.607a.539.539,0,0,1-.342.244c.049-.163.2-.212.342-.244Zm4.265,1.791c-.651.619-1.286,1.254-1.986,1.9-.716.651-1.416,1.254-2.116,1.823-.2.163-.374.309-.553.472a5.6,5.6,0,0,0-.537-.391c.179.163.342.293.5.423a1.054,1.054,0,0,1-.147.13c-.016-.081-.016-.2-.081-.212a2.8,2.8,0,0,0-.488-.309c-.081-.033.033-.146,0-.163-.228-.163-.521-.163-.619-.309-.065-.114-.147-.212-.2-.309a1.464,1.464,0,0,0-.147-.163l-.13-.081c-.163-.081-.309-.2-.472-.293.065-.065.114-.13.179-.2a.016.016,0,0,0,.016-.016c.554-.6,1.123-1.221,1.758-1.84a8.2,8.2,0,0,0,.9-1.254c.228-.26.537-.472.733-.667a5.293,5.293,0,0,0,.733-.944c-.26.309-.44.554-.749.9-.212.228,0-.309.1-.472.033-.081.26-.049.293-.13a2.794,2.794,0,0,0,.309-.488c.033-.081.147.033.163,0s.049-.065.065-.1c.456.993,1.661,1.661,2.377,2.589.033.016.065.065.1.1Zm4.868,4.933a7.7,7.7,0,0,0,1.172.863c-.163.163-.326.342-.5.5a49.045,49.045,0,0,0-3.875,3.924c-1.221-1.449-2.637-2.54-4-3.989a7.6,7.6,0,0,0-1.156-.863c.163-.163.326-.342.5-.5a51.958,51.958,0,0,0,3.875-3.924c1.188,1.433,2.621,2.523,3.989,3.989Zm-2.882-6.61a.539.539,0,0,1-.342.244.346.346,0,0,1,.342-.244Zm7.1,4.738c-.928.293-1.563,1.3-2.328,2.068-1.042-1.172-2.1-2.214-3.207-3.435-.6-.668-1.156-1.319-1.677-1.986l.244-.391c.228-.26.537-.472.733-.667a5.293,5.293,0,0,0,.733-.944c-.26.309-.44.554-.749.9-.212.228,0-.309.1-.472.033-.081.26-.049.293-.13a2.8,2.8,0,0,0,.309-.488c.033-.081.147.033.163,0l.049-.1c.456.993,1.661,1.644,2.377,2.589a7.867,7.867,0,0,0,.733.765,27.111,27.111,0,0,0,2.23,2.3Zm3.191,2.833c-.163.163-.326.342-.521.5a21.523,21.523,0,0,0-2.051,1.986c-.309-.309-.6-.619-.879-.912a.135.135,0,0,1-.13-.049.31.31,0,0,0-.049-.13l-.147-.163-.065-.049c-.049-.016-.049.016-.049.049a.486.486,0,0,0-.065-.13c-.016-.016-.049-.033-.065-.065l.049.049.016.016.114.081.033.016-.358-.391c-.033-.033-.065-.049-.081-.065-.1-.081-.212-.147-.2-.26l-.033-.049a20.883,20.883,0,0,1,2.442-2.165c.293.277.586.57.863.863a7.7,7.7,0,0,0,1.172.863Zm-1.254,3.517-.033-.016.065.049-.033-.033Zm-.033-.016-.114-.081a.185.185,0,0,1,.049.13c0-.033.016-.065.065-.049Zm-19.5-7.668.033.016-.065-.049.033.033Zm.033.016.1.081c-.033-.033-.033-.081-.049-.114,0,.033-.016.065-.049.033Zm16-8.922.081-.114h0l-.081.114Zm-.553.407a1.445,1.445,0,0,0,.554-.407c-.049-.016-.081-.065-.147-.033-.016.049-.049.13-.049.13a.724.724,0,0,0-.44.407h.114c.081-.1.065-.147-.033-.1Zm-.521,1.074a.731.731,0,0,1,.212-.179c-.1.065-.2.13-.326.212-.147.1-.147.391-.309.619-.016.049-.13-.081-.163,0a2.794,2.794,0,0,1-.309.488c-.033.081-.26.049-.293.13-.114.179-.309.7-.1.472.309-.342.488-.586.749-.9.179-.277.342-.554.537-.847Zm-.456-.179c.049-.016.049-.065.049-.13l-.179.163a.731.731,0,0,0,.13-.033Zm-.309.326c-.033,0-.065,0-.049-.049l-.081.114a.957.957,0,0,1,.13-.065Zm-.049-.049Zm.016-.049-.016.033.049-.065-.033.033Zm-4.379-1.628.081-.114h0l-.081.114Zm-.554.407a1.444,1.444,0,0,0,.554-.407c-.033-.016-.081-.065-.147-.033-.016.049-.049.13-.049.13-.212.049-.326.228-.44.407h.114c.081-.1.065-.147-.033-.1Zm-.521,1.075a.731.731,0,0,1,.212-.179c-.1.065-.2.13-.309.212-.163.081-.147.391-.309.619-.016.049-.13-.081-.163,0a2.794,2.794,0,0,1-.309.488c-.033.081-.26.049-.293.147-.1.179-.309.7-.1.472.309-.342.472-.586.749-.9a7.575,7.575,0,0,1,.521-.863Zm-.472-.179c.049-.033.049-.065.049-.13l-.179.163a.384.384,0,0,1,.13-.033Zm-.293.326c-.033,0-.065-.016-.049-.049l-.065.1a.176.176,0,0,1,.114-.049Zm-.049-.065Zm0,0,.049-.065-.033.033-.016.033Zm-8.922,6.2v-.114c-.081-.081-.13-.049-.081.049a1.3,1.3,0,0,0-.407-.554c-.016.033-.065.081-.033.13.033.016.13.049.13.049.033.212.212.326.391.44Zm-.6-.716.1.081v-.016l-.1-.065Zm-4.542,1.823c0,.033-.016.065-.049.049l.114.081a.487.487,0,0,1-.065-.13Zm-.049.049-.065-.049.033.033.033.016Zm-.26-.342c-.016-.049-.065-.049-.13-.049l.163.179a.384.384,0,0,1-.033-.13Zm1.433.716c.179.114.7.309.472.114-.342-.309-.586-.488-.9-.749-.277-.2-.554-.358-.847-.553a1.12,1.12,0,0,1-.179-.212,3.48,3.48,0,0,0,.212.309c.1.163.391.163.619.326.049.016-.081.13,0,.163a3.585,3.585,0,0,1,.488.309c.081.033.033.26.13.293Zm-2.23-1.644v-.114c-.081-.081-.13-.049-.081.049a1.444,1.444,0,0,0-.407-.554c-.016.049-.065.081-.033.147.049.016.13.049.13.049.033.212.212.309.391.423Zm-.6-.716.1.081.016-.016-.114-.065Zm11.364,18.657-.081.114h0l.081-.114Zm.57-.407a1.444,1.444,0,0,0-.554.407c.049.033.081.065.147.033.016-.049.049-.13.049-.13.212-.049.326-.228.44-.407l-.114.016c-.1.081-.065.13.033.081Zm.5-1.074a1.953,1.953,0,0,1-.2.179c.1-.065.2-.13.309-.212.163-.1.147-.391.326-.619.016-.049.13.081.163,0a2.8,2.8,0,0,1,.309-.488c.033-.081.26-.049.293-.147.114-.179.309-.7.114-.472-.309.342-.472.586-.733.9-.212.309-.374.586-.586.863Zm.472.179c-.049.016-.049.065-.049.114l.179-.179a.148.148,0,0,1-.13.065Zm.342-.26h0l.081-.1a.216.216,0,0,1-.114.049c.033,0,.049,0,.033.049Zm0,0-.049.065.033-.033.016-.033Zm4.363,1.677-.081.114h0l.081-.114Zm.57-.407a1.58,1.58,0,0,0-.554.407c.049.016.081.065.13.033.016-.049.049-.13.049-.13.212-.049.326-.228.44-.407h-.114c-.081.1-.049.146.049.1Zm.521-1.074a1.121,1.121,0,0,1-.212.179c.1-.065.2-.13.309-.212.163-.1.163-.391.326-.619.016-.049.13.081.163,0a3.578,3.578,0,0,1,.309-.488c.033-.081.26-.049.293-.147.114-.179.309-.7.1-.472-.309.342-.488.586-.749.9-.179.293-.342.57-.537.863Zm.456.179a.135.135,0,0,0-.049.13l.179-.163a.5.5,0,0,0-.13.033Zm.309-.326c.033,0,.065.016.049.049l.065-.114a.407.407,0,0,1-.114.065Zm.033.049-.049.065.033-.033.016-.033Zm8.938-6.187v.13c.081.081.13.049.081-.049a1.4,1.4,0,0,0,.407.554c.016-.033.065-.081.033-.13-.049-.016-.13-.049-.13-.049a.689.689,0,0,0-.391-.456Zm.6.716-.1-.081v.016l.1.065ZM406.764,399h0l-.114-.081a.216.216,0,0,1,.049.13c0-.049.016-.081.065-.049Zm0,0,.065.049-.033-.033-.033-.016Zm.26.342c.016.049.065.049.13.049l-.163-.179a.306.306,0,0,1,.033.13Zm-1.433-.733c-.179-.1-.7-.309-.472-.1.342.309.57.488.9.749.277.179.554.358.83.554a1.949,1.949,0,0,1,.179.2c-.065-.1-.13-.2-.212-.309-.1-.163-.391-.146-.6-.326-.033-.016.081-.13,0-.163a2.635,2.635,0,0,1-.472-.309c-.1-.033-.065-.26-.146-.293Zm2.23,1.644v.114c.081.081.13.049.081-.049a1.444,1.444,0,0,0,.407.554c.016-.049.065-.081.033-.13-.049-.016-.13-.049-.13-.049a.741.741,0,0,0-.391-.44Zm.6.716-.1-.081v.016l.1.065Z" transform="translate(-328.798 -382.1)" fill="#00a8ab"/>
      <path id="Path_2425" data-name="Path 2425" d="M590.647,511.925c-.081.1-.7.554-.7.554-1.026.667-1.433.13-.781-.456.651-.6.391-.716.391-.716-.667-.309-1.123.423-1.123.423s.212-.049.44-.1a.449.449,0,0,1,.342.033c-1.156,1.074-.651,1.319-.651,1.319.928.44,1.677-.456,2.116-.9.407-.44-.033-.163-.033-.163Zm-.016-3.891.163-1.091c-1.954-.342-5.193-1.368-6.984-1.368s-1.579,2.735-1.416,3.337a3.794,3.794,0,0,1,.1.407s-.8-.358-.993-2.133c0-.049-.944-9.98-1.758-13.887l-.326,1.14a34.577,34.577,0,0,1,.684,4.982c.293,2.572.944,7.749.944,7.912.212,1.889.8,2.719,1.563,3.142.033.016.065.049.1.065.065.407.114.993.114.993.016.147.114.212.163,0a5.351,5.351,0,0,0,.016-.863,2.014,2.014,0,0,0,1.026.146,1.289,1.289,0,0,0,.277-.033,7.017,7.017,0,0,0,2.377-1.009,18.273,18.273,0,0,1,3.956-1.742Zm-1.807-.423s-1.921.879-2.507,1.237c-.6.358-2.2,1.2-3.435.651,0,0-.146-.961-.228-1.286s-.081-1.661,1.058-1.563a27.182,27.182,0,0,1,5.112.961Zm-1.9-7.538c-.423.554.456,1.221.456,1.221.114-.114.163-.016.163-.016a4.205,4.205,0,0,1,.7,1.547c.033.2.081.391.212.228.13-.147.472-1.856.667-2.409s.9.1.9.1l.293-.635c-.016-.033-.391-1.042-.928-.488a6.4,6.4,0,0,0-.847,2.377l-.081.081a9.54,9.54,0,0,0-.781-1.921c-.44-.684-.749-.081-.749-.081Zm-3.224.326a5.637,5.637,0,0,1,.8,3.761c-.049.309-.081.309,0,.309.26,0,1.026-2.475-.684-5.356L583.7,500.4Zm6.74-4.982.342-.537-8.238,3.175-.374.586,8.27-3.223Zm-6.789.293-.065-.1s-.537.9-.765-.033a2.322,2.322,0,0,1,.684-1.84s.228-.456-.1-.1c-.309.342-1.53,2.247-.5,2.93.016.016.733.179.749-.863Zm-3.94,10.94c-.814-.326-1.547,1.058-1.547,1.058-.212,0-.342.179-.6.635a2.012,2.012,0,0,1-1.775,1.188,5.288,5.288,0,0,1-2.214-.684c.114-.114,1.416-.716,1.416-.716l.358-1.107a5.641,5.641,0,0,0-5.324.244l-.342,1.091a1.778,1.778,0,0,1,2.1.472,3.657,3.657,0,0,1-2.8.879c-1.97-.326-1.791-1.2-2.589-2-.8-.814-1.758.228-2.1.8a15.479,15.479,0,0,0-1.172,2.572c-.374,1.107-.814,1.449-1.644.749-.8-.635-.667-3.077-.667-3.451s0-.9-.147-.374c-.13.521-.293,3.565.749,4.624,1.058,1.058,1.726,0,1.97-.423a20.79,20.79,0,0,1,1.221-2.735c.586-.879,1.27-.879,1.563-.358A3.3,3.3,0,0,0,568.946,511c1.628,0,3.647-1.628,3.647-1.628a5.582,5.582,0,0,0,3.337,1.416c1.058,0,1.889-1.84,1.889-1.84a8.788,8.788,0,0,0,1.644,1.026c.7.277,1.026-.407,1.123-.814.049-.407-.065-2.182-.879-2.507Zm-6.87,1.644-.7-.521a2.96,2.96,0,0,1,1.644-.033l-.944.554Zm6.87.407a2.126,2.126,0,0,1-1.156-.684c1.042-.6,1.156.684,1.156.684Zm-3.565-6.17c0-.521,1.042-.472,1.042-.472l.228-.554c-.716-1.188-.993-.83-1.286-.391s0,.277,0,.277c.733-.391.6.081.6.081a1.466,1.466,0,0,0-.814,1.628,33.747,33.747,0,0,1,.472,3.435c0,.358.081.423.081.423a29.842,29.842,0,0,0-.326-4.428Zm1.6-4.4.244-.586c-.016-.033-.326-.977-.765-.456a6.56,6.56,0,0,0-.684,2.23l-.065.081a9.609,9.609,0,0,0-.635-1.807c-.358-.684-.6-.114-.6-.114-.342.537.358,1.14.358,1.14.1-.114.13-.016.13-.016a4.555,4.555,0,0,1,.57,1.465c.033.179.065.374.163.228s.391-1.758.554-2.263.733.1.733.1Zm-7.115,4.249c-.26-.944.765-1.9.765-1.9s.26-.472-.1-.114-1.709,2.328-.57,3.028c0,0,.814.163.814-.9l-.065-.114c0,.016-.6.944-.847,0Zm-5.454.163s-.2.456-.309.765c-.13.309.456.537.6.619s.554.293.554.293.488-.863.407-1.107c-.1-.228-.9-.57-1.075-.619-.163-.065-.179.049-.179.049Zm11.966-6.789.554-.847-12.992,5-.6.912,13.041-5.063Zm-13.692,6.87s-.244.7-.358.944a.356.356,0,0,0,.146.407s.619.407.8.521c.2.1.277.244.554-.277.342-.619-.065-.879-.391-1.026a4.738,4.738,0,0,1-.749-.57Zm.765-7.277c-1.335-.651-1.156.765-1.156.765.13.2-.114.342-.114.342-.9,1.009.635,1.091.635,1.091-.049.44-1.042,1.27-2.116,2.051-.342-2.035-.635-3.7-.635-3.7l.456.407s.26.277.081-.2a19.792,19.792,0,0,0-1.188-2.507l-.212,1.237a1.792,1.792,0,0,1,.293.83c.065.423.456,2.784.7,4.3-1.123.781-2.182,1.416-2.182,1.416.26-.065,1.221-.488,1.221-.488a7.958,7.958,0,0,0,1.026-.586c.1.554.147.944.147.944s.912,5.405.912,7.277c0,1.3.374.586.342-1.482a27.3,27.3,0,0,0-.309-3.517c-.2-1.14-.407-2.393-.6-3.565a15.08,15.08,0,0,0,2.475-2.393l.83.081c1.335.114.749-1.661-.6-2.312Zm-.179,1.4a.707.707,0,0,1-.944-.228s.5-1.009.912-.374c0,.016.13.456.033.6Zm1.27.358s-.179.13-1.14-.2a2.165,2.165,0,0,1,.293-.716,1.584,1.584,0,0,1,.847.912Zm-6.968-1.156c-.244-.619-1.172-2.426-1.172-2.426l-.293,1.27s.2.13.293.9,1.058,5.682,1.286,6.984c.423,2.426.44,2.344.521,3.142a1.981,1.981,0,0,1-1.384.944,2.1,2.1,0,0,1-1.986-.667,1.846,1.846,0,0,0,.83-1.97c-.342-1.254-.912-2.133-1.742-1.742-.944.423-.163,3.126-.033,3.386a8.7,8.7,0,0,1-3.158,1.172,4.246,4.246,0,0,0,1.433-1.465,1.689,1.689,0,0,0-.847-2.377c-.765-.358-2.377-1.026-4.233,1.823a14.938,14.938,0,0,0-1.042,1.84,1.646,1.646,0,0,1-.83-.9c.293-.488.342-.83.016-.586a4.772,4.772,0,0,1-2.344,1.254,1.81,1.81,0,0,1-2.116-1.384c-.391-1.042-1.319-1.335-2.2.407a3.52,3.52,0,0,0-.423,2.8,5.386,5.386,0,0,0-2.865,1.27c-1.644,1.254-3.6,3.126-4.738,2.328s.733-3.582,2.442-5.307c.13-.13.212-.228.293-.309.309-.081.684-.358.7-1.188l-.1-.146s-.814,1.27-1.156-.033c-.342-1.286,1.042-2.6,1.042-2.6s.342-.635-.13-.147c-.488.488-2.328,3.175-.781,4.135a.669.669,0,0,0,.146.016,10.674,10.674,0,0,0-2.182,2.654c-1.123,2.068-1.286,3.435.049,4.021,1.286.57,3.647-1.644,4.265-2.1s2.361-1.579,3.289-1.335a8.488,8.488,0,0,1,2.491,1.807l.277-1.368a19.421,19.421,0,0,0-1.612-1.351c-.765-.554-1.579-1.416-.961-2.361s1.612-1.156,1.888.146c.26,1.319,1.709,1.579,2.784,1.172a3.512,3.512,0,0,0,1.514-1.188,2.6,2.6,0,0,0,.847,1.335,1.593,1.593,0,0,0-.1.847,3.463,3.463,0,0,1,.342-.651,2.279,2.279,0,0,0,1.2.26c1.335.1,4.721.13,7.163-1.709,0,0,.781,1.742,2.344,1.465,1.563-.26,2.247-1.84,1.9-3.989s-1.5-8.3-1.5-8.3l.423.423c-.033,0,.391.423.13-.2ZM547.26,506.959s1.156-2.214,2.247-2.67a2.341,2.341,0,0,1,3.044.8,6.85,6.85,0,0,1-5.291,1.872Zm7.863-1.53c-.309-.488-.668-1.6-.179-1.872.7-.44,1.14.977,1.14.977a2.954,2.954,0,0,1-.961.9Zm.83-5.5s.488-.879.391-1.107-.9-.57-1.074-.619-.179.049-.179.049-.2.456-.309.765c-.13.309.456.537.6.619s.57.293.57.293Zm-2.589-1.579s-.244.684-.342.944c-.114.244.146.407.146.407s.619.407.8.521c.2.1.277.244.57-.26.342-.619-.065-.879-.391-1.042a3.591,3.591,0,0,1-.781-.57Zm-7.766,3.468c-.26-.944.765-1.9.765-1.9s.26-.456-.1-.1-1.693,2.328-.57,3.028c0,0,.814.179.83-.9l-.065-.1c0-.016-.6.9-.863-.033Zm9.915-7.245.554-.847-12.992,5-.586.928,13.024-5.079Zm-12.585,1.612-.065-.1s-.537.9-.765-.033a2.323,2.323,0,0,1,.684-1.84s.228-.456-.081-.1c-.326.342-1.53,2.263-.5,2.93,0,0,.733.179.733-.863Zm-1.384,2.589a15.82,15.82,0,0,0-2.068-.147,10.016,10.016,0,0,0-.57,1.172c-.114.293,0,.26.081.13.081-.146.146-.1.146-.1a5.4,5.4,0,0,1,1.482.081,10.133,10.133,0,0,1-1.5,1.042c-.391.228-.081.228-.081.228a2.659,2.659,0,0,0,2.507-2.409Zm-5.487,1.547c0-.6,1.188-.537,1.188-.537l.277-.635c-.814-1.368-1.14-.944-1.465-.44s0,.309,0,.309c.83-.44.684.1.684.1a1.665,1.665,0,0,0-.928,1.872c.163.635.554,3.533.554,3.94,0,.423.081.472.081.472.2-1.042-.391-4.493-.391-5.079Zm1.807-5.047.277-.684c-.033-.049-.358-1.107-.863-.521a7.534,7.534,0,0,0-.8,2.556l-.065.1a10.608,10.608,0,0,0-.733-2.068c-.407-.765-.7-.13-.7-.13-.374.6.423,1.3.423,1.3.114-.13.163-.033.163-.033a5.114,5.114,0,0,1,.651,1.677c.033.212.065.423.2.244.114-.163.44-2,.619-2.589.179-.554.83.147.83.147Zm5.031,16.606a.356.356,0,0,0,.147.407s.619.407.8.521c.2.114.277.244.553-.277.342-.619-.065-.863-.407-1.042a4.387,4.387,0,0,1-.765-.57s-.228.7-.326.961Zm2.084-1.026s-.2.456-.309.765c-.146.374.912.765,1.172.9,0,0,.488-.879.391-1.107s-.9-.57-1.074-.619-.179.065-.179.065Zm2.182,1.872-.26.407,5.6-2.182.244-.374-5.584,2.149Zm6.805-2.621c-.342.537.358,1.14.358,1.14.1-.114.13-.033.13-.033a4.554,4.554,0,0,1,.57,1.465c.033.179.065.358.163.212s.391-1.742.554-2.263c.146-.521.733.1.733.1l.244-.586c-.016-.033-.326-.977-.765-.456a6.62,6.62,0,0,0-.684,2.247l-.065.081a10.033,10.033,0,0,0-.635-1.807c-.358-.667-.6-.1-.6-.1Zm5.373.033c-.309.342-1.53,2.263-.5,2.947,0,0,.733.163.749-.863l-.065-.1s-.537.9-.765-.033c-.228-.912.7-1.84.7-1.84s.212-.472-.114-.114Zm15.938,2.54-.26.407,5.731-2.23.244-.374-5.714,2.2Zm10.371-1.335s-.2.456-.309.765c-.13.309.456.537.6.6.147.081.554.293.554.293s.488-.863.407-1.107c-.1-.228-.9-.57-1.074-.619s-.179.065-.179.065Z" transform="translate(-460.714 -475.196)" fill="#00529a"/>
      <path id="Path_2426" data-name="Path 2426" d="M158.907,484.665a5.588,5.588,0,0,1-.163-1.758v-3.761h-2.507v.277h.944v3.126c-.407.765-.879,1.14-1.416,1.14-.212,0-.358-.065-.407-.179a3.385,3.385,0,0,1-.081-.961v-3.4H152.8v.277h.961v2.54a3.07,3.07,0,0,0,.228,1.449,1.543,1.543,0,0,0,1.4.619,2.249,2.249,0,0,0,1.775-.879v1.335a3.47,3.47,0,0,1-.147,1.3.842.842,0,0,1-.814.456,1.821,1.821,0,0,1-.944-.293,1.542,1.542,0,0,1-.635-.619l-.13-.081-.44.619a2.791,2.791,0,0,0,1.9.651,3.312,3.312,0,0,0,2.947-1.856Zm-7.9-1.433a3.328,3.328,0,0,1-.016-.7l.016-3.11a1.179,1.179,0,0,1,1.2.684h.277v-.961h-1.482V474.2h-1.5v4.949H148.5v.277h1.009v3a2.132,2.132,0,0,0,.228,1.2,1.471,1.471,0,0,0,1.2.44,2.087,2.087,0,0,0,1.563-.733l-.147-.147a1.586,1.586,0,0,1-.993.554c-.212,0-.326-.179-.358-.5Zm-6.317.7h3.468v-.277h-.993v-4.249h.423v-.26h-2.9v.277h.961v4.249h-.961v.26Zm2.377-9.2H145.85a11.007,11.007,0,0,1,.456,3.647h.293a10.659,10.659,0,0,1,.472-3.647Zm-2.654-.521h2.507v-.277h-.993v-2.947a1.773,1.773,0,0,0-.407-1.237,1.31,1.31,0,0,0-1.075-.472c-.733,0-1.335.456-1.856,1.384-.163-.928-.651-1.384-1.482-1.384a2.243,2.243,0,0,0-1.823,1.3v-1.156h-2.475v.277h.961v4.233h-.961v.277h3.468v-.277h-.993V471.38a2.887,2.887,0,0,1,.651-1.188c.374-.407.684-.6.928-.6.147,0,.212.2.212.586V474.2h2.475v-.26h-.961V471.3a4.735,4.735,0,0,1,.765-1.221,1.215,1.215,0,0,1,.781-.488c.179,0,.26.2.26.586v4.038Zm-11.494,0h3.468v-.277H135.4V469.7h.423v-.277h-2.9v.277h.961v4.233h-.961v.277Zm2.393-9.182H134.1a11.007,11.007,0,0,1,.456,3.647h.277a10.619,10.619,0,0,1,.488-3.647Zm-3.484,8.922a1.247,1.247,0,0,0,.537-1.058c0-.586-.472-1.14-1.416-1.644a5.914,5.914,0,0,1-1.026-.635.7.7,0,0,1-.244-.537c0-.374.212-.57.619-.57a1.779,1.779,0,0,1,1.335.912v.488h.293l-.049-1.872h-.244v.5a3.255,3.255,0,0,0-1.368-.26,2.2,2.2,0,0,0-1.368.391,1.211,1.211,0,0,0-.537,1.026c0,.57.374,1.058,1.14,1.465a9.159,9.159,0,0,1,1.27.8.733.733,0,0,1,.293.57c0,.358-.228.537-.667.537a2.547,2.547,0,0,1-1.628-.781v-.554h-.293v1.709h.293V474a4.175,4.175,0,0,0,1.628.342,2.373,2.373,0,0,0,1.433-.391Zm-4.852,0a1.247,1.247,0,0,0,.537-1.058c0-.586-.472-1.14-1.416-1.644a5.916,5.916,0,0,1-1.026-.635.7.7,0,0,1-.244-.537c0-.374.212-.57.619-.57a1.779,1.779,0,0,1,1.335.912v.488h.277l-.049-1.872h-.228v.5a3.282,3.282,0,0,0-1.384-.26,2.233,2.233,0,0,0-1.368.391,1.211,1.211,0,0,0-.537,1.026c0,.57.374,1.058,1.14,1.465a9.158,9.158,0,0,1,1.27.8.733.733,0,0,1,.293.57c0,.358-.228.537-.667.537a2.547,2.547,0,0,1-1.628-.781v-.554h-.293v1.709h.293V474a4.175,4.175,0,0,0,1.628.342,2.426,2.426,0,0,0,1.449-.391Zm-3.891-.44-.212-.147c-.342.407-.635.619-.863.619-.179,0-.277-.277-.277-.847v-1.856a2.911,2.911,0,0,0-.147-1.074c-.277-.619-.944-.928-2.019-.928a5.9,5.9,0,0,0-2.035.358l-.065.912h.212a2.238,2.238,0,0,1,2.1-.993,1.582,1.582,0,0,1,.44.081v1.254a2.719,2.719,0,0,0-2.621.472,1.788,1.788,0,0,0-.293,2.589,1.665,1.665,0,0,0,1.156.407,2.44,2.44,0,0,0,1.775-.847,1.184,1.184,0,0,0,1.254.847,2.025,2.025,0,0,0,1.6-.847Zm-2.849-.44a2.032,2.032,0,0,1-1.368.944c-.2,0-.309-.212-.358-.619a5.906,5.906,0,0,1,.147-2.133c.212-.456,1.221-.212,1.563-.1v1.9Zm-3.126,6.48a1.473,1.473,0,0,0-1.188-.57c-.651,0-1.237.423-1.775,1.286v-1.14h-2.475v.277h.961v4.249h-.961v.277h3.468v-.277h-.993v-2.719c.488-1.074.993-1.628,1.514-1.628.228,0,.326.244.326.749v3.875h2.491v-.277h-.928v-2.621a2.2,2.2,0,0,0-.44-1.482Zm-3.419-6.626a7.645,7.645,0,0,0,1.856-5.373,7.978,7.978,0,0,0-1.465-4.884,4.4,4.4,0,0,0-3.631-1.97,4.477,4.477,0,0,0-3.354,1.335,7.022,7.022,0,0,0-1.53,2.491,8.9,8.9,0,0,0-.57,3.11,7.544,7.544,0,0,0,1.9,5.226,5.26,5.26,0,0,0,1.709,1.237,6.394,6.394,0,0,0-1.97,1.123l.2.228a3.324,3.324,0,0,1,2.589-.733c.049.912.081,1.889.081,3,0,2.426-.147,3.924-.456,4.51a2.813,2.813,0,0,1-1.2,1.221,3.63,3.63,0,0,1-1.775.44,1.891,1.891,0,0,1-1.872-.9,9.92,9.92,0,0,1-.293-3.207v-8.889h1.254v-.277H100.9v.277h1.254v8.873a7.885,7.885,0,0,0,.228,2.149,2.889,2.889,0,0,0,.814,1.27,4.12,4.12,0,0,0,2.882.977,3.815,3.815,0,0,0,2.344-.7,3.055,3.055,0,0,0,1.2-1.921,35.538,35.538,0,0,0,.244-4.038c.033-.993.065-1.856.114-2.654a4.039,4.039,0,0,1,1.954,1.27l-.26.26.163.212a16.262,16.262,0,0,1,3.6-2.344l-.1-.293a15.775,15.775,0,0,0-2.1,1.189,6.688,6.688,0,0,0-1.563-.928,5.326,5.326,0,0,0,2.019-1.286Zm-.277-6.04a20.433,20.433,0,0,1-.488,5.747,2.059,2.059,0,0,1-1.644,1.384,3.579,3.579,0,0,0-1.237-.2,21.561,21.561,0,0,1,.374-2.93h1.335v-.277h-4v.277h1.237a22.3,22.3,0,0,1,.407,3c-.13.016-.228.033-.374.049a2.2,2.2,0,0,1-1.123-.716c-.521-.651-.8-2.328-.8-5.063,0-.781.033-1.726.114-2.833a18.387,18.387,0,0,1,.212-2.133,2.723,2.723,0,0,1,1.026-1.628,3.165,3.165,0,0,1,1.954-.586,2.509,2.509,0,0,1,2.475,1.384,12.03,12.03,0,0,1,.537,4.526Zm7.294,11.494a11.017,11.017,0,0,1,.472-3.647h-1.221a11.007,11.007,0,0,1,.456,3.647Zm.977.765h-2.882v.277h.961v4.249h-.961v.277h3.468v-.277h-.993v-4.249h.407v-.277Zm3.907,0h-3.224v.277h.781l2.442,4.8.765-1.709a22.411,22.411,0,0,1,1.579-3.093h.8v-.277h-2.361v.277h.6a6.144,6.144,0,0,1-.733,2.719l-1.416-2.719h.781v-.277Zm4.282.586a2.439,2.439,0,0,0-.781,1.823,2.362,2.362,0,0,0,.765,1.791,2.726,2.726,0,0,0,1.937.7,3.872,3.872,0,0,0,2.475-.928v-.6h-.163a2.783,2.783,0,0,1-2.3,1.254.927.927,0,0,1-.863-.358,3.221,3.221,0,0,1-.212-1.449c0-.309,0-.554.016-.765h3.37a2.267,2.267,0,0,0-.651-1.644,2.312,2.312,0,0,0-1.677-.586,2.779,2.779,0,0,0-1.921.765Zm.9,1.2.016-.293a1.913,1.913,0,0,1,.309-1.074,1.09,1.09,0,0,1,.879-.309c.814,0,1.221.488,1.221,1.449,0,.081-.016.163-.016.228Zm6.366-1.791h-2.475v.277h.961v4.249h-.961v.277h3.793v-.277h-1.335v-1.677a4.95,4.95,0,0,1,.179-1.563c.212-.537.5-.814.879-.814.423,0,.733.309.912.912a2.717,2.717,0,0,1,.081.749h.293V478.69h-.293v.554a2.644,2.644,0,0,0-.6-.1,1.658,1.658,0,0,0-1.433.977v-.977Zm5.389,3.517a.733.733,0,0,1,.293.57c0,.358-.228.537-.667.537a2.548,2.548,0,0,1-1.628-.781v-.554h-.293v1.709h.293v-.44a4.176,4.176,0,0,0,1.628.342,2.34,2.34,0,0,0,1.433-.391,1.233,1.233,0,0,0,.521-1.058c0-.6-.472-1.14-1.4-1.644a5.915,5.915,0,0,1-1.026-.635.7.7,0,0,1-.244-.537c0-.391.212-.57.619-.57a1.779,1.779,0,0,1,1.335.912v.488h.277l-.049-1.889h-.212v.5a3.255,3.255,0,0,0-1.368-.26,2.284,2.284,0,0,0-1.384.391,1.211,1.211,0,0,0-.537,1.026c0,.553.374,1.042,1.14,1.465a13.14,13.14,0,0,1,1.27.814Z" transform="translate(-100.9 -447.904)" fill="#00529a"/>
      <path id="Path_2427" data-name="Path 2427" d="M472.6,452.6h2.947v2.947H472.6Z" transform="translate(-412.086 -441.122)" fill="#00529a" fill-rule="evenodd"/>
    </g>
  </g>
</svg>
