<svg xmlns="http://www.w3.org/2000/svg" width="97.956" height="63.222" viewBox="0 0 97.956 63.222">
  <g id="Saudia-01" style="isolation: isolate">
    <path id="Path_2230" data-name="Path 2230" d="M101.2,260.438s.037-6.117,7.319-11.107c6.056-4.144,17.8-7.331,32.365-7.331a124.963,124.963,0,0,1,19.922,1.5s-21.626-.993-35.8,2.464c-6.914,1.692-12.578,3.6-16.281,6.019-6.068,3.972-7.527,8.459-7.527,8.459" transform="translate(-101.2 -242)" fill="#0e95d3"/>
    <path id="Path_2231" data-name="Path 2231" d="M471.763,614.8s.38,5.382-6.9,10.371c-6.056,4.144-17.825,7.147-32.389,7.147a117.879,117.879,0,0,1-20.571-1.778s16.6,1.312,32.218-1.287c7.65-1.275,16.918-4.009,20.62-6.412,6.081-3.96,7.025-8.042,7.025-8.042" transform="translate(-373.81 -569.097)" fill="#184180"/>
    <path id="Path_2232" data-name="Path 2232" d="M105.9,445.2l.5,21.491s1.324,5.615,16.084,9.3a119.223,119.223,0,0,0,28.9,3.2c3.138,0,49.638-.944,49.638-17,0-11.23-21.944-11.965-21.944-11.965s-.907,8.569-28.148,8.569c-39.917,0-45.029-13.6-45.029-13.6" transform="translate(-105.324 -420.289)" fill="#184180"/>
    <path id="Path_2233" data-name="Path 2233" d="M233.819,579.547c-.221,1.251.834,1.986,1.925,2.219.8.172,1.912.208,2.109-.8.172-.87-1.005-1.238-2.918-2.1-1.532-.7-3.053-1.913-2.7-3.751.527-2.66,3-2.758,5.174-2.3,2.207.466,3.751,1.263,4.009,3.629l-2.844.086c.135-1.128-.625-1.606-1.618-1.814-.625-.135-1.778-.221-1.949.625-.208,1.03,1.508,1.361,3.016,2.072,1.545.723,3.457,1.582,3.077,3.518-.539,2.746-3.445,3.114-5.75,2.636-2.354-.49-4.708-1.986-4.524-4.291Z" transform="translate(-214.927 -532.079)" fill="#fff"/>
    <path id="Path_2234" data-name="Path 2234" d="M431.055,608.893l-2.7-.012V607.4H428.3a3.833,3.833,0,0,1-3.371,1.594c-3.016-.012-3.825-1.606-3.825-4.242l.245-5.382a3.011,3.011,0,0,1,1.25-.883,3.733,3.733,0,0,1,1.655-.27l-.221,6.019c-.012,1.753.515,2.611,1.839,2.623,1.532,0,2.354-.883,2.366-3.04l-.025-4.07a5.154,5.154,0,0,1,1.116-1.005,4.14,4.14,0,0,1,1.753-.49Z" transform="translate(-381.882 -554.535)" fill="#fff"/>
    <path id="Path_2235" data-name="Path 2235" d="M525.521,573.822h-.037a3.414,3.414,0,0,1-2.991,1.9c-3.1.258-4.83-2.354-5.063-5.3-.221-2.856,1.091-5.627,4.119-5.885a3.523,3.523,0,0,1,3.175,1.324h.037l-.319-4a3.4,3.4,0,0,1,1.263-1.018,5.829,5.829,0,0,1,1.459-.552l1.165,14.65-2.685.221Zm-3.053-7.147c-1.851.159-2.354,1.851-2.219,3.592.135,1.667,1.005,3.347,2.758,3.2,1.876-.159,2.293-1.888,2.158-3.629-.147-1.716-.87-3.31-2.7-3.163" transform="translate(-466.382 -521.278)" fill="#fff"/>
    <path id="Path_2236" data-name="Path 2236" d="M624.591,587.838a5.741,5.741,0,0,1,1.532-.638l1.349,10.47-2.807.392-1.165-9.035a3.332,3.332,0,0,1,1.091-1.189" transform="translate(-559.469 -544.88)" fill="#fff"/>
    <path id="Path_2237" data-name="Path 2237" d="M325.3,590.724c.981-2.354,2.538-2.771,4.855-2.562,2.047.184,4.475.87,4.266,3.42l-.27,5.382a5.3,5.3,0,0,0,.441,2.464l-3.077-.208a6.49,6.49,0,0,1-.135-1.3,5.147,5.147,0,0,1-3.751,1.1c-1.949-.172-3.42-1.312-3.237-3.494.2-2.4,2-2.82,3.764-2.905,1.753-.11,3.445-.086,3.506-.736.11-1.25-.748-1.41-1.741-1.52s-1.888,0-2.072,1.14Zm6.117,3.114a5.43,5.43,0,0,1-2.4.4c-.895.11-1.716.343-1.8,1.41-.086,1.091.7,1.422,1.618,1.508a2.137,2.137,0,0,0,2.489-2.243Z" transform="translate(-297.013 -545.683)" fill="#fff"/>
    <path id="Path_2238" data-name="Path 2238" d="M667.6,578.176c.282-2.55,1.667-3.408,3.935-3.886,2.011-.429,4.536-.478,5.026,2.023l1.226,5.235a5.169,5.169,0,0,0,1.116,2.231l-3.016.711a7.262,7.262,0,0,1-.49-1.2,5.169,5.169,0,0,1-3.3,2.158c-1.912.4-3.641-.257-4.07-2.391-.466-2.354,1.14-3.286,2.807-3.9s3.273-1.091,3.151-1.729c-.233-1.226-1.1-1.14-2.084-.944s-1.8.564-1.68,1.7Zm6.718,1.189c-.38.527-1.361.748-2.182,1.091-.821.368-1.545.834-1.336,1.888s1.067,1.165,1.961.968a2.174,2.174,0,0,0,1.765-2.881Z" transform="translate(-598.162 -533.355)" fill="#fff"/>
    <path id="Path_2239" data-name="Path 2239" d="M219.421,310l-.5-21.491s-1.324-5.615-16.084-9.3a119.225,119.225,0,0,0-28.9-3.2c-3.138,0-49.638.944-49.638,17,0,11.23,21.944,11.965,21.944,11.965s.907-8.569,28.148-8.569c39.917,0,45.029,13.6,45.029,13.6" transform="translate(-121.468 -271.832)" fill="#0e95d3"/>
    <path id="Path_2240" data-name="Path 2240" d="M621.142,556.62a1.472,1.472,0,1,1-1.471-1.52,1.5,1.5,0,0,1,1.471,1.52" transform="translate(-554.819 -516.716)" fill="#fff"/>
    <path id="Path_2241" data-name="Path 2241" d="M756.583,344.452a6.851,6.851,0,0,1,1.8.123L754.511,357.1l-2.611-1.177,3.212-10.874a3.044,3.044,0,0,1,1.471-.6" transform="translate(-672.128 -331.873)" fill="#fff"/>
    <path id="Path_2242" data-name="Path 2242" d="M470.253,320.738a3.174,3.174,0,0,0-1.459.65l-2.023,7.907a.673.673,0,0,1-.821.49l-.785-.221a1.563,1.563,0,0,1-1.067-1.839l.245-1.128-.025.025.7-3.347a5.779,5.779,0,0,0-1.643.074,3.218,3.218,0,0,0-1.422.736l-.356,1.7-.429,2.06a.468.468,0,0,1-.576.368l-.454-.135a1.169,1.169,0,0,1-.821-1.238l.172-1.643.282-2.8a5.948,5.948,0,0,0-1.631.208,3.153,3.153,0,0,0-1.349.858l-.282,3.016a.653.653,0,0,1-.87.564l-.49-.184a1.366,1.366,0,0,1-.846-1.434l.515-4.2a4.489,4.489,0,0,0-1.631.123,2.583,2.583,0,0,0-1.25.821l-.319,4c-.245-.025-.785-.123-1.067-.159-1.434-.184-3.175-.319-3.175-.319a17.135,17.135,0,0,0,1.532-1.434c.772-.821,1.581-1.912,1.581-1.912a8.131,8.131,0,0,0-6.044-2.844,8.654,8.654,0,0,0-5.026,1.581V323.1a7.393,7.393,0,0,1,2.3.674,7.258,7.258,0,0,1,1.594,1.459.918.918,0,0,1-.8.306h-4.9v-2.072c0-1.9-1.949-2.856-3.371-2.856a3.768,3.768,0,0,0-3.948,3.948,3.642,3.642,0,0,0,3.3,3.8c.429,0,1.152-.074,1.152-.074a4.793,4.793,0,0,1-1.41,1.532,5.768,5.768,0,0,1-2.17,1.018l1.888,2.023a7.082,7.082,0,0,0,3.163-2.035,4.668,4.668,0,0,0,1.324-2.8h4.511a4.393,4.393,0,0,0,2.734-.772,2.492,2.492,0,0,0,1.692,1.03c.7.074,1.52.11,3.8.319a32.86,32.86,0,0,1,3.506.49,3.278,3.278,0,0,0,.061-.368h0a1.779,1.779,0,0,0,.907.662l.87.257a2.387,2.387,0,0,1,4.242,1.042l.552.172a2.318,2.318,0,0,0,2.55-.858,1.772,1.772,0,0,0,1.25,1.863l2.047.588a2.508,2.508,0,0,0,3.089-1.79l2.709-9.844a6.627,6.627,0,0,0-1.814-.086m-35.234,4.953h-1.128c-.723,0-1.128-.883-1.128-1.508a1.368,1.368,0,0,1,1.3-1.508c.969,0,.956,1.128.956,1.594v1.422Zm10.494-1.618a6.45,6.45,0,0,0-.944-1.018c-.527-.454-1.226-.956-1.226-.956a12.88,12.88,0,0,1,2.17,0,2.3,2.3,0,0,1,1.336.576Z" transform="translate(-389.954 -309.999)" fill="#fff"/>
    <path id="Path_2243" data-name="Path 2243" d="M369.088,341.49l.478,2.317a2.294,2.294,0,0,1,1.949.613,4.33,4.33,0,0,1,1.018,1.594l-3.249.7-.785,2.8s5.529-1.226,6.056-1.312.956-.172.956-.172a7.61,7.61,0,0,0-1.238-4.364,4.648,4.648,0,0,0-5.186-2.17" transform="translate(-335.731 -329.17)" fill="#fff"/>
    <path id="Path_2244" data-name="Path 2244" d="M259.441,346.964l-1.2-5.664a6.026,6.026,0,0,0-1.471.76,3.224,3.224,0,0,0-1.005,1.263l.944,3.727a.943.943,0,0,1-.552,1.116l-1.655.65a.767.767,0,0,1-1.018-.527l-1.508-5.7-2.709,1.054.135.441a3.3,3.3,0,0,0-2.709.846,3.961,3.961,0,0,0,.221,5.676,2.8,2.8,0,0,0,2.905.49c.662-.282,1.447-.637,1.447-.637a2.041,2.041,0,0,0,2.525,1.177l3.874-1.3a2.925,2.925,0,0,0,1.778-3.371m-9.8,1.716c-.588.233-1.054-.2-1.25-.821a1.222,1.222,0,0,1,.625-1.618.728.728,0,0,0,.1-.049.858.858,0,0,1,1.116.576l.441,1.447a8.5,8.5,0,0,1-1.03.466" transform="translate(-227.897 -329.126)" fill="#fff"/>
    <path id="Path_2245" data-name="Path 2245" d="M244.778,338.226A1.19,1.19,0,1,1,243.589,337a1.214,1.214,0,0,1,1.189,1.226" transform="translate(-225.09 -325.354)" fill="#fff"/>
    <path id="Path_2246" data-name="Path 2246" d="M265.278,331.626a1.19,1.19,0,1,1-1.189-1.226,1.214,1.214,0,0,1,1.189,1.226" transform="translate(-243.076 -319.563)" fill="#fff"/>
    <path id="Path_2247" data-name="Path 2247" d="M321.578,428.926a1.19,1.19,0,1,1-1.189-1.226,1.214,1.214,0,0,1,1.189,1.226" transform="translate(-292.474 -404.934)" fill="#fff"/>
    <path id="Path_2248" data-name="Path 2248" d="M342.078,422.326a1.19,1.19,0,1,1-1.189-1.226,1.214,1.214,0,0,1,1.189,1.226" transform="translate(-310.461 -399.143)" fill="#fff"/>
  </g>
</svg>
