<svg xmlns="http://www.w3.org/2000/svg" xmlns:xlink="http://www.w3.org/1999/xlink" width="117" height="47.42" viewBox="0 0 117 47.42">
  <defs>
    <linearGradient id="linear-gradient" y1="0.5" x2="1" y2="0.5" gradientUnits="objectBoundingBox">
      <stop offset="0" stop-color="#f3e500"/>
      <stop offset="1" stop-color="#1dcad3"/>
    </linearGradient>
  </defs>
  <g id="Mrsool-01" style="isolation: isolate">
    <g id="Group_2232" data-name="Group 2232" transform="translate(0 0)">
      <path id="Path_2110" data-name="Path 2110" d="M149.439,360.677h-.219l-2.543-8.7a7.513,7.513,0,1,0-10.978-6.666,7.472,7.472,0,0,0,3.172,6.125l-11.007,24.514a5.152,5.152,0,0,0-.95,0l-11.007-24.514a7.514,7.514,0,1,0-11.87-6.125,7.578,7.578,0,0,0,4.005,6.651l-2.617,8.712h-.1a5.415,5.415,0,1,0,2.894.833l2.617-8.712a7.035,7.035,0,0,0,2.412-.161l11.007,24.514a4.634,4.634,0,1,0,6.256,0l11.007-24.514a7.533,7.533,0,0,0,2.368.161l2.573,8.771a5.424,5.424,0,1,0,8.405,4.532A5.412,5.412,0,0,0,149.439,360.677Zm-44.131,7.937a2.514,2.514,0,1,1,2.514-2.514A2.514,2.514,0,0,1,105.309,368.614Zm10.846-23.3a4.6,4.6,0,1,1-4.6-4.6A4.6,4.6,0,0,1,116.155,345.313Zm12.951,35.273a1.725,1.725,0,1,1-1.725-1.725A1.71,1.71,0,0,1,129.106,380.586Zm18.711-35.273a4.6,4.6,0,1,1-4.6-4.6A4.6,4.6,0,0,1,147.817,345.313Zm4.137,20.786a2.514,2.514,0,1,1-2.514-2.514A2.514,2.514,0,0,1,151.954,366.1Z" transform="translate(-99.9 -337.8)" fill="url(#linear-gradient)"/>
      <g id="Group_2231" data-name="Group 2231" transform="translate(61.994 6.125)">
        <g id="Group_2229" data-name="Group 2229" transform="translate(0.029)">
          <path id="Path_2111" data-name="Path 2111" d="M797.417,401.788h-1.3a1.634,1.634,0,0,0-1.637,1.637v5.043h-4.955v-5.949a.819.819,0,0,0-1.637,0v8.244a1.572,1.572,0,0,1-1.579,1.579h-.789a.819.819,0,1,0,0,1.637h.789a3.232,3.232,0,0,0,3.23-3.231v-.643h7.894a4.159,4.159,0,1,0-.015-8.318Zm0,6.68h-1.286v-5.029h1.286a2.514,2.514,0,0,1,0,5.029Z" transform="translate(-746.621 -398.484)" fill="#7b868c"/>
          <path id="Path_2112" data-name="Path 2112" d="M625.46,406.173v-3.654a.819.819,0,0,0-1.637,0v3.654a2.29,2.29,0,0,1-2.295,2.3h-.044a.671.671,0,0,1-.672-.672v-5.277a.819.819,0,0,0-1.637,0v3.654a2.29,2.29,0,0,1-2.295,2.3h-.716v-5.949a.819.819,0,0,0-1.637,0v5.949H603.5v-5.043a1.634,1.634,0,0,0-1.637-1.637h-1.3a4.166,4.166,0,0,0,0,8.332h1.286v.643a1.572,1.572,0,0,1-1.579,1.579h-.789a.819.819,0,0,0,0,1.637h.789a3.232,3.232,0,0,0,3.231-3.231v-.643h13.609c.058,0,.117-.015.175-.015a3.92,3.92,0,0,0,2.28-1.038,2.358,2.358,0,0,0,1.944,1.052h.029A3.921,3.921,0,0,0,625.46,406.173Zm-23.651,1.009v1.3h-1.286a2.514,2.514,0,0,1,0-5.029h1.286Z" transform="translate(-585.846 -398.484)" fill="#7b868c"/>
          <path id="Path_2113" data-name="Path 2113" d="M532.254,379.7a.817.817,0,0,0-.819.819V390.5a2.792,2.792,0,1,1-2.792-2.792.819.819,0,1,0,0-1.637,4.444,4.444,0,1,0,4.444,4.444v-9.984A.852.852,0,0,0,532.254,379.7Z" transform="translate(-524.2 -379.7)" fill="#7b868c"/>
        </g>
        <path id="Path_2114" data-name="Path 2114" d="M690.18,384.407a1.324,1.324,0,1,0-2.237,1.418,1.388,1.388,0,0,0,.556.5l-1.359.862a.308.308,0,0,0-.1.424.327.327,0,0,0,.263.146.294.294,0,0,0,.161-.044l2.237-1.4c.015,0,.015-.015.029-.015s.029-.015.044-.029a1.321,1.321,0,0,0,.585-.833A1.385,1.385,0,0,0,690.18,384.407Zm-1.813.541a.732.732,0,0,1,.322-.453.725.725,0,0,1,.38-.117.6.6,0,0,1,.161.015.732.732,0,0,1,.453.322.7.7,0,0,1,.088.541.731.731,0,0,1-.322.453.721.721,0,0,1-.979-.219A.649.649,0,0,1,688.367,384.948Z" transform="translate(-663.166 -383.194)" fill="#7b868c"/>
        <g id="Group_2230" data-name="Group 2230" transform="translate(0 17.176)">
          <path id="Path_2115" data-name="Path 2115" d="M524.833,509.088h0a.833.833,0,0,1-.833-.833v-8.244a1.11,1.11,0,0,1,1.111-1.111h0a1.094,1.094,0,0,1,1.023.687l2.514,5.949,2.544-5.935a1.137,1.137,0,0,1,1.038-.687h0a1.126,1.126,0,0,1,1.126,1.125v8.23a.833.833,0,0,1-.833.833h0a.833.833,0,0,1-.833-.833v-3.844l.175-2.763-2.28,5.438a.988.988,0,0,1-.906.6h0a.973.973,0,0,1-.906-.6l-2.28-5.467.161,2.821V508.3A.811.811,0,0,1,524.833,509.088Z" transform="translate(-524 -498.651)" fill="#7b868c"/>
          <path id="Path_2116" data-name="Path 2116" d="M667.53,502c1.783.336,3.771.979,3.625,3.377-.088,1.944-1.944,2.85-3.8,2.85a4.13,4.13,0,0,1-3.289-1.579.838.838,0,0,1,.322-1.272h0a.811.811,0,0,1,.994.234,2.512,2.512,0,0,0,1.988.979c1.038,0,2.032-.453,2.09-1.345.088-1.155-1.052-1.447-2.31-1.637-1.71-.263-3.435-1.052-3.45-3.084.117-1.856,1.871-2.821,3.654-2.821a3.885,3.885,0,0,1,3.128,1.316.821.821,0,0,1-.322,1.272h0a.814.814,0,0,1-.965-.234,2.253,2.253,0,0,0-1.856-.8c-.994,0-1.93.468-1.988,1.33S666.448,501.793,667.53,502Z" transform="translate(-643.279 -497.627)" fill="#7b868c"/>
          <path id="Path_2117" data-name="Path 2117" d="M727.122,497.2c2.061,0,4.137,1.1,4.137,3.3v4.049c0,2.207-2.076,3.318-4.137,3.318S723,506.76,723,504.553V500.5C723.015,498.3,725.046,497.2,727.122,497.2Zm-2.456,7.353c0,1.1,1.228,1.652,2.456,1.652,1.257,0,2.456-.555,2.47-1.652V500.5c0-1.169-1.242-1.652-2.47-1.652s-2.456.512-2.456,1.652Z" transform="translate(-693.911 -497.2)" fill="#7b868c"/>
          <path id="Path_2118" data-name="Path 2118" d="M794.322,497.2c2.061,0,4.137,1.1,4.137,3.3v4.049c0,2.207-2.076,3.318-4.137,3.318s-4.122-1.111-4.122-3.318V500.5C790.2,498.3,792.246,497.2,794.322,497.2Zm-2.456,7.353c0,1.1,1.228,1.652,2.456,1.652,1.257,0,2.456-.555,2.47-1.652V500.5c0-1.169-1.243-1.652-2.47-1.652s-2.456.512-2.456,1.652Z" transform="translate(-751.288 -497.2)" fill="#7b868c"/>
          <path id="Path_2119" data-name="Path 2119" d="M862.567,509.088H857.8a.7.7,0,0,1-.7-.7v-8.654a.833.833,0,0,1,.833-.833h0a.833.833,0,0,1,.833.833v7.7h3.815a.833.833,0,0,1,.833.833h0A.863.863,0,0,1,862.567,509.088Z" transform="translate(-808.408 -498.651)" fill="#7b868c"/>
          <path id="Path_2120" data-name="Path 2120" d="M604.352,503.292v-3h2.587c1.111-.029,1.886.365,1.886,1.491s-.731,1.623-1.886,1.623h-1.155a.5.5,0,0,0-.395.819l3.3,4.268a.8.8,0,1,0,1.242-1.009l-2.12-2.69a2.83,2.83,0,0,0,2.69-3.04c-.058-2.251-1.564-3.157-3.567-3.157H603.4a.7.7,0,0,0-.7.7v8.61a.857.857,0,0,0,.76.862.838.838,0,0,0,.921-.833v-4.648Z" transform="translate(-591.196 -498.395)" fill="#7b868c"/>
        </g>
      </g>
    </g>
    <g id="Group_2234" data-name="Group 2234" transform="translate(61.994 39.599)">
      <g id="Group_2233" data-name="Group 2233">
        <path id="Path_2121" data-name="Path 2121" d="M526.763,617.076h-.731A2,2,0,0,1,524,618.655v-.643c.892,0,1.345-.5,1.345-1.623V612.72h.672v3.7h.731v.658Zm-.731-5.058h-.687V611.2h.687Z" transform="translate(-524 -610.835)" fill="#1dcad3"/>
        <path id="Path_2122" data-name="Path 2122" d="M547.612,620.577H541.4v-.658h1.652a2,2,0,0,1-.439-1.33,1.733,1.733,0,0,1,1.74-1.871,1.686,1.686,0,0,1,1.7,1.871,2.007,2.007,0,0,1-.453,1.33h1.418a3.4,3.4,0,0,0,.088-.775,3.208,3.208,0,0,0-2.266-3.157V615.3a3.912,3.912,0,0,1,2.237,1.55,4.214,4.214,0,0,1,.687,2.441A5.785,5.785,0,0,1,547.612,620.577Zm-2.251-2.032c0-.833-.351-1.272-.979-1.272-.687,0-1.067.5-1.067,1.359,0,.746.38,1.286,1.023,1.286C545.025,619.9,545.361,619.451,545.361,618.545Z" transform="translate(-538.857 -614.335)" fill="#1dcad3"/>
        <path id="Path_2123" data-name="Path 2123" d="M596.246,615.027h-.76a1.227,1.227,0,0,1-.877-.366,1.541,1.541,0,0,1-.409-1.169V608.8h.687v4.3a1.893,1.893,0,0,0,.19.95.716.716,0,0,0,.555.292,4.019,4.019,0,0,0,.614.015Z" transform="translate(-583.938 -608.785)" fill="#1dcad3"/>
        <path id="Path_2124" data-name="Path 2124" d="M613.266,625.589v.965H606.6v-.672h5.847a2.941,2.941,0,0,0,.015-.351,2.247,2.247,0,0,0-2.368-2.558,1.993,1.993,0,0,0-1.813.95c-.1-.1-.292-.292-.585-.6a2.857,2.857,0,0,1,2.383-1.023A3.043,3.043,0,0,1,613.266,625.589Zm-2.646,2.427h-.687V627.2h.687Z" transform="translate(-594.526 -620.312)" fill="#1dcad3"/>
        <path id="Path_2125" data-name="Path 2125" d="M677.541,614.942h-5.964a2.472,2.472,0,0,1-2.777-2.807v-1.579h.672v1.579c0,1.432.687,2.12,2.046,2.12h2.792c.7,0,.95-.278.95-1.316V608.7h.672v4.531a2.326,2.326,0,0,1-.19,1.023h1.783v.687Zm-4.005-4.429-.482.044a.423.423,0,0,0-.438-.409c-.322,0-.482.2-.482.629a.729.729,0,0,0,.117.424h1.272v.468h-2.266V611.2h.468a1.267,1.267,0,0,1-.073-.409.927.927,0,0,1,.965-1.038A.857.857,0,0,1,673.536,610.513Z" transform="translate(-647.633 -608.7)" fill="#1dcad3"/>
        <path id="Path_2126" data-name="Path 2126" d="M729.551,608.8v4.531c0,1.126-.468,1.7-1.418,1.7H727.3v-.658h.614a.813.813,0,0,0,.819-.409,1.988,1.988,0,0,0,.146-.921V608.8Z" transform="translate(-697.582 -608.785)" fill="#1dcad3"/>
        <path id="Path_2127" data-name="Path 2127" d="M754.441,625.871h-1.33a1.87,1.87,0,0,1-1.959,1.579v-.643h.088a1.123,1.123,0,0,0,1.169-.936h-1.052a1.67,1.67,0,0,1-1.33-.614,2.327,2.327,0,0,1-.526-1.564,2.3,2.3,0,0,1,.555-1.564,1.775,1.775,0,0,1,1.389-.629c1.067,0,1.725.658,1.725,1.93v1.783h1.257v.658ZM752.5,625.2v-2.032a1.023,1.023,0,0,0-1.082-1.052,1.052,1.052,0,0,0-.892.512,1.7,1.7,0,0,0-.307.994,1.976,1.976,0,0,0,.263,1.023,1.02,1.02,0,0,0,.892.555Z" transform="translate(-716.537 -619.629)" fill="#1dcad3"/>
        <path id="Path_2128" data-name="Path 2128" d="M789.391,621.5v2.675c0,1.126-.468,1.7-1.418,1.7H781.6V625.2h.892c.614,0,.95-.409,1.023-1.228v-2.456h.672v2.675a2.689,2.689,0,0,1-.161.979v.044h1.257c.614,0,.819-.292.819-1.316v-2.383h.672v2.675a2.326,2.326,0,0,1-.19,1.023h1.155c.716,0,.965-.292.965-1.316v-2.383h.687Z" transform="translate(-743.945 -619.629)" fill="#1dcad3"/>
        <path id="Path_2129" data-name="Path 2129" d="M843.411,625.956h-1.652a1.86,1.86,0,0,1-1.959,1.579v-.643c.892,0,1.345-.5,1.345-1.623V621.6h.672v3.7h1.593Z" transform="translate(-793.637 -619.714)" fill="#1dcad3"/>
        <path id="Path_2130" data-name="Path 2130" d="M867.925,629.563a2.224,2.224,0,0,1-.526,1.535,1.817,1.817,0,0,1-1.476.643,1.858,1.858,0,0,1-1.666-.833H862.4v-.672h1.579a2.382,2.382,0,0,1-.088-.658,2.273,2.273,0,0,1,.555-1.564,1.9,1.9,0,0,1,1.491-.614,1.811,1.811,0,0,1,1.476.629A2.191,2.191,0,0,1,867.925,629.563Zm-.775-.073a1.945,1.945,0,0,0-.249-1.038,1.023,1.023,0,0,0-.921-.468,1.117,1.117,0,0,0-.994.512,1.925,1.925,0,0,0-.278,1.111,1.869,1.869,0,0,0,.278,1.052,1.073,1.073,0,0,0,.95.468C866.741,631.142,867.151,630.587,867.151,629.49Z" transform="translate(-812.934 -624.667)" fill="#1dcad3"/>
      </g>
    </g>
  </g>
</svg>
