<svg xmlns="http://www.w3.org/2000/svg" width="129.776" height="55.9" viewBox="0 0 129.776 55.9">
  <g id="Saudi-Commission-for-Health-Specialities-01" style="isolation: isolate">
    <path id="Path_2165" data-name="Path 2165" d="M444.092,489.117a4.043,4.043,0,0,1-3.438-1.913l-3.454-5.692a1.463,1.463,0,0,1,2.5-1.524l3.47,5.692a1.1,1.1,0,0,0,1.411.405l12.973-6.6a1.461,1.461,0,1,1,1.313,2.611l-12.973,6.6a3.913,3.913,0,0,1-1.8.422" transform="translate(-382.31 -454.687)" fill="#00c18b"/>
    <path id="Path_2166" data-name="Path 2166" d="M415.7,344.868a3.545,3.545,0,0,0-2.368-1.427l-3.47-.47a1,1,0,0,1-.649-.357l-6-7.151a4.022,4.022,0,0,0-2.481-1.378l-4.216-.6a.916.916,0,0,1-.47-.195l-5.432-3.973a4.061,4.061,0,0,0-1.395-.649L385.3,327.7a3.965,3.965,0,0,0-4.038,1.362l-4.168,5.238a3.959,3.959,0,0,0-.292,4.54l6.665,10.946a.016.016,0,0,0,.016.016c.016.016.032.049.049.065l.049.049.049.049a.225.225,0,0,1,.049.065l.049.049c.016.016.049.032.065.049s.032.016.049.032.049.032.065.049.032.016.049.032a.123.123,0,0,0,.065.032c.016.016.049.016.065.032s.032.016.065.032.049.016.081.032c.016,0,.032.016.049.016a.146.146,0,0,0,.081.016c.016,0,.032.016.065.016s.049.016.081.016a.1.1,0,0,1,.065.016h4.443a1.473,1.473,0,0,0,1.427-1.151l.957-4.378,2.4,8.043a1.5,1.5,0,0,0,1.362,1.054h.049a1.468,1.468,0,0,0,1.378-.973l1.622-4.492.227.73a1.475,1.475,0,0,0,1.395,1.038h4.865a1.459,1.459,0,1,0,0-2.919h-3.778l-1.184-3.924a1.459,1.459,0,0,0-2.773-.065l-1.605,4.459-2.741-9.227a1.465,1.465,0,0,0-2.838.1l-1.913,8.773h-2.254l-6.243-10.232a1.026,1.026,0,0,1,.081-1.184l4.2-5.205a1.039,1.039,0,0,1,1.054-.357l3.924.973a.9.9,0,0,1,.357.162l5.432,3.973a3.938,3.938,0,0,0,1.784.73l4.216.6a1,1,0,0,1,.649.357l6,7.151a3.984,3.984,0,0,0,2.5,1.378l3.47.47a.559.559,0,0,1,.389.243.6.6,0,0,1,.1.454l-.373,1.995a.252.252,0,0,1-.1.13l-1.881.957a1.454,1.454,0,0,0,.665,2.757,1.389,1.389,0,0,0,.665-.162l1.881-.957a3.151,3.151,0,0,0,1.654-2.205l.373-1.995a3.96,3.96,0,0,0-.7-2.676" transform="translate(-331.397 -327.578)" fill="#006098"/>
    <path id="Path_2167" data-name="Path 2167" d="M99.816,631.408h.47l.065.633a4.169,4.169,0,0,0,1.005.13c.795,0,1.249-.324,1.249-1.038,0-.681-.405-.876-1.184-1.135-.795-.259-1.589-.551-1.589-1.589,0-.989.714-1.508,1.849-1.508a5.244,5.244,0,0,1,1.395.211l-.016,1.038h-.47l-.065-.649a4.633,4.633,0,0,0-.859-.1c-.778,0-1.168.357-1.168.973,0,.665.454.843,1.168,1.086.827.276,1.605.551,1.605,1.638,0,.973-.632,1.573-1.9,1.573a5.621,5.621,0,0,1-1.573-.243l.016-1.022" transform="translate(-99.8 -578.362)" fill="#006098"/>
    <path id="Path_2168" data-name="Path 2168" d="M127.135,641.751a2.041,2.041,0,0,1-1.151.389,1.07,1.07,0,0,1-1.184-1.135c0-.892.649-1.151,1.508-1.151.259,0,.6.032.762.049v-.422c0-.535-.146-.811-.859-.811a5.677,5.677,0,0,0-1.022.13l-.081-.454a5.605,5.605,0,0,1,1.168-.146c.957,0,1.378.324,1.378,1.2v2.238l.405.081v.357h-.892l-.032-.324m-.049-1.427c-.162-.016-.5-.032-.7-.032-.681,0-.973.195-.973.7a.649.649,0,0,0,.73.7,1.851,1.851,0,0,0,.941-.308Z" transform="translate(-120.746 -587.83)" fill="#006098"/>
    <path id="Path_2169" data-name="Path 2169" d="M148.022,639.054l-.422-.081v-.357h1.022v2.53c0,.47.114.859.649.859a2.57,2.57,0,0,0,1.086-.357v-2.611l-.422-.081V638.6h1.022v3.357l.422.081v.357h-.924l-.065-.324a2.707,2.707,0,0,1-1.3.405c-.811,0-1.07-.519-1.07-1.265v-2.157" transform="translate(-139.849 -588.165)" fill="#006098"/>
    <path id="Path_2170" data-name="Path 2170" d="M177.365,632.735a2.248,2.248,0,0,1-1.168.357c-1.119,0-1.3-1.005-1.3-1.914,0-1.1.276-2.043,1.411-2.043a2.159,2.159,0,0,1,1.005.259v-1.557l-.422-.081V627.4h1.022v5.173l.422.081v.357h-.924l-.049-.276m-.049-2.919a2.336,2.336,0,0,0-.892-.211c-.681,0-.924.486-.924,1.541,0,.827.146,1.476.843,1.476a1.945,1.945,0,0,0,.957-.308v-2.5Z" transform="translate(-162.722 -578.781)" fill="#006098"/>
    <path id="Path_2171" data-name="Path 2171" d="M199.2,632.754l.422-.081v-2.919l-.422-.081v-.357h1.022v3.357l.422.081v.357H199.2v-.357m.422-5.254h.6v.892h-.6Z" transform="translate(-183.081 -578.865)" fill="#006098"/>
    <path id="Path_2172" data-name="Path 2172" d="M227.181,632.595a6.306,6.306,0,0,1-1.459.178c-1.9,0-2.222-1.151-2.222-2.838,0-1.751.341-2.935,2.238-2.935a5.52,5.52,0,0,1,1.427.195l-.032,1.07h-.47l-.065-.681a4.475,4.475,0,0,0-.827-.081c-1.443,0-1.622.843-1.622,2.416,0,1.411.146,2.319,1.654,2.319a8.168,8.168,0,0,0,1.265-.146l.114.5" transform="translate(-203.441 -578.446)" fill="#006098"/>
    <path id="Path_2173" data-name="Path 2173" d="M250.8,640.295c0-1.265.292-1.995,1.573-1.995,1.313,0,1.573.762,1.573,1.946,0,1.265-.292,1.995-1.573,1.995-1.314,0-1.573-.778-1.573-1.946m2.53-.049c0-.908-.081-1.492-.973-1.492-.876,0-.973.568-.973,1.524,0,.908.081,1.492.973,1.492C253.232,641.77,253.33,641.2,253.33,640.246Z" transform="translate(-226.314 -587.914)" fill="#006098"/>
    <path id="Path_2174" data-name="Path 2174" d="M274.416,641.719l.422-.081v-2.919l-.422-.081v-.357h.908l.049.259a2.4,2.4,0,0,1,1.151-.34.923.923,0,0,1,.843.389,2.588,2.588,0,0,1,1.265-.389c.811,0,1.022.535,1.022,1.184v2.254l.47.081v.357H279.07v-2.53c0-.487-.1-.859-.616-.859a2.311,2.311,0,0,0-.957.276,1.908,1.908,0,0,1,.049.438v2.254l.454.081v.357h-1.054v-2.53c0-.487-.1-.859-.616-.859a2.374,2.374,0,0,0-.908.243v2.724l.422.081v.357H274.4v-.389" transform="translate(-246.087 -587.83)" fill="#006098"/>
    <path id="Path_2175" data-name="Path 2175" d="M312.416,641.719l.422-.081v-2.919l-.422-.081v-.357h.908l.049.259a2.4,2.4,0,0,1,1.151-.34.923.923,0,0,1,.843.389,2.588,2.588,0,0,1,1.265-.389c.811,0,1.022.535,1.022,1.184v2.254l.47.081v.357H317.07v-2.53c0-.487-.1-.859-.616-.859a2.31,2.31,0,0,0-.957.276,1.908,1.908,0,0,1,.049.438v2.254l.454.081v.357h-1.054v-2.53c0-.487-.1-.859-.616-.859a2.374,2.374,0,0,0-.908.243v2.724l.422.081v.357H312.4v-.389" transform="translate(-277.925 -587.83)" fill="#006098"/>
    <path id="Path_2176" data-name="Path 2176" d="M350.5,632.754l.422-.081v-2.919l-.422-.081v-.357h1.022v3.357l.422.081v.357H350.5v-.357m.422-5.254h.6v.892h-.6Z" transform="translate(-309.847 -578.865)" fill="#006098"/>
    <path id="Path_2177" data-name="Path 2177" d="M363.332,641.17h.422l.065.535a3.162,3.162,0,0,0,.7.081c.584,0,.908-.178.908-.616s-.324-.535-.843-.681c-.649-.195-1.265-.373-1.265-1.119,0-.73.6-1.07,1.443-1.07a4.392,4.392,0,0,1,1.1.162l-.032.892h-.438l-.049-.551a3.356,3.356,0,0,0-.568-.049c-.6,0-.859.211-.859.584,0,.389.308.5.859.665.6.178,1.232.357,1.232,1.135,0,.714-.535,1.119-1.492,1.119a4.572,4.572,0,0,1-1.216-.178l.032-.908" transform="translate(-320.571 -587.914)" fill="#006098"/>
    <path id="Path_2178" data-name="Path 2178" d="M384.532,641.17h.422l.065.535a3.162,3.162,0,0,0,.7.081c.584,0,.908-.178.908-.616s-.324-.535-.843-.681c-.649-.195-1.265-.373-1.265-1.119,0-.73.6-1.07,1.443-1.07a4.392,4.392,0,0,1,1.1.162l-.032.892h-.438l-.049-.551a3.356,3.356,0,0,0-.568-.049c-.6,0-.859.211-.859.584,0,.389.308.5.859.665.6.178,1.232.357,1.232,1.135,0,.714-.535,1.119-1.492,1.119a4.573,4.573,0,0,1-1.216-.178l.032-.908" transform="translate(-338.333 -587.914)" fill="#006098"/>
    <path id="Path_2179" data-name="Path 2179" d="M405,632.754l.422-.081v-2.919l-.422-.081v-.357h1.022v3.357l.422.081v.357H405v-.357m.422-5.254h.6v.892h-.6Z" transform="translate(-355.509 -578.865)" fill="#006098"/>
    <path id="Path_2180" data-name="Path 2180" d="M417.9,640.295c0-1.265.292-1.995,1.573-1.995,1.314,0,1.573.762,1.573,1.946,0,1.265-.292,1.995-1.573,1.995-1.313,0-1.573-.778-1.573-1.946m2.546-.049c0-.908-.081-1.492-.973-1.492-.876,0-.973.568-.973,1.524,0,.908.081,1.492.973,1.492C420.349,641.77,420.446,641.2,420.446,640.246Z" transform="translate(-366.317 -587.914)" fill="#006098"/>
    <path id="Path_2181" data-name="Path 2181" d="M441.6,641.719l.422-.081v-2.919l-.422-.081v-.357h.908l.065.341a2.808,2.808,0,0,1,1.346-.422c.811,0,1.022.535,1.022,1.184v2.254l.47.081v.357h-1.054v-2.53c0-.487-.1-.859-.616-.859a2.73,2.73,0,0,0-1.1.341v2.611l.422.081v.357h-1.443v-.357" transform="translate(-386.174 -587.83)" fill="#006098"/>
    <path id="Path_2182" data-name="Path 2182" d="M478.546,632.335l.422-.081v-2.886H478.4v-.357l.568-.114v-.843c0-.746.389-1.054,1.151-1.054a3.693,3.693,0,0,1,.584.049l-.049.454a2.436,2.436,0,0,0-.47-.049c-.519,0-.616.227-.616.6v.843h.876v.47h-.876v2.886l.535.081v.357h-1.557v-.357" transform="translate(-417.007 -578.446)" fill="#006098"/>
    <path id="Path_2183" data-name="Path 2183" d="M494.2,640.295c0-1.265.292-1.995,1.573-1.995,1.313,0,1.573.762,1.573,1.946,0,1.265-.292,1.995-1.573,1.995-1.313,0-1.573-.778-1.573-1.946m2.546-.049c0-.908-.081-1.492-.973-1.492-.876,0-.973.568-.973,1.524,0,.908.081,1.492.973,1.492C496.649,641.77,496.746,641.2,496.746,640.246Z" transform="translate(-430.244 -587.914)" fill="#006098"/>
    <path id="Path_2184" data-name="Path 2184" d="M517.9,641.8l.422-.081V638.8l-.422-.081v-.357h.908l.081.519a1.5,1.5,0,0,1,1.1-.584,1.259,1.259,0,0,1,.259.032l-.032.535a.757.757,0,0,0-.259-.032,1.563,1.563,0,0,0-1.038.47v2.416l.535.081v.357H517.9V641.8" transform="translate(-450.101 -587.914)" fill="#006098"/>
    <path id="Path_2185" data-name="Path 2185" d="M546.3,632.754l.486-.081v-4.735l-.486-.081V627.5h1.605v.357l-.47.081v2.027h2.595v-2.027l-.47-.081V627.5h1.605v.357l-.486.081v4.735l.486.081v.357h-1.605v-.357l.47-.081v-2.205h-2.595v2.205l.47.081v.357H546.3v-.357" transform="translate(-473.896 -578.865)" fill="#006098"/>
    <path id="Path_2186" data-name="Path 2186" d="M583.705,642.046a4.588,4.588,0,0,1-1.265.195c-1.135,0-1.541-.7-1.541-1.9s.292-2.043,1.524-2.043c1.054,0,1.378.584,1.378,1.654v.5h-2.3c.016.876.26,1.313,1.054,1.313a4.344,4.344,0,0,0,1.07-.178l.081.454m-.5-2.027c0-.762-.081-1.265-.827-1.265-.632,0-.859.357-.908,1.265Z" transform="translate(-502.885 -587.914)" fill="#006098"/>
    <path id="Path_2187" data-name="Path 2187" d="M605.235,641.751a2.041,2.041,0,0,1-1.151.389,1.07,1.07,0,0,1-1.184-1.135c0-.892.649-1.151,1.508-1.151.26,0,.6.032.762.049v-.422c0-.535-.146-.811-.859-.811a5.678,5.678,0,0,0-1.022.13l-.081-.454a5.605,5.605,0,0,1,1.168-.146c.957,0,1.378.324,1.378,1.2v2.238l.405.081v.357h-.892l-.032-.324m-.065-1.427c-.162-.016-.5-.032-.7-.032-.681,0-.973.195-.973.7a.649.649,0,0,0,.73.7,1.851,1.851,0,0,0,.941-.308Z" transform="translate(-521.318 -587.83)" fill="#006098"/>
    <path id="Path_2188" data-name="Path 2188" d="M626,632.754l.422-.081v-4.735l-.422-.081V627.5h1.005v5.173l.422.081v.357H626v-.357" transform="translate(-540.672 -578.865)" fill="#006098"/>
    <path id="Path_2189" data-name="Path 2189" d="M637.868,633.976H637.3v-.357l.6-.113.13-1.005h.438v1.005h.973v.47h-.973v2.335c0,.373.13.616.535.616a3.186,3.186,0,0,0,.389-.049l.065.438a2.209,2.209,0,0,1-.584.081c-.681,0-1.022-.276-1.022-1.005v-2.416" transform="translate(-550.14 -583.054)" fill="#006098"/>
    <path id="Path_2190" data-name="Path 2190" d="M653,632.754l.422-.081v-4.735l-.422-.081V627.5h1.022v2.124a2.715,2.715,0,0,1,1.3-.389c.811,0,1.022.535,1.022,1.184v2.254l.47.081v.357h-1.054v-2.53c0-.487-.1-.859-.616-.859a2.73,2.73,0,0,0-1.1.341v2.611l.422.081v.357H653v-.357" transform="translate(-563.294 -578.865)" fill="#006098"/>
    <path id="Path_2191" data-name="Path 2191" d="M690.816,631.408h.47l.065.633a4.17,4.17,0,0,0,1.005.13c.795,0,1.249-.324,1.249-1.038,0-.681-.405-.876-1.184-1.135-.795-.259-1.589-.551-1.589-1.589,0-.989.714-1.508,1.849-1.508a5.244,5.244,0,0,1,1.395.211l-.016,1.038h-.47l-.065-.649a4.633,4.633,0,0,0-.859-.1c-.778,0-1.168.357-1.168.973,0,.665.454.843,1.168,1.086.827.276,1.605.551,1.605,1.638,0,.973-.632,1.573-1.9,1.573a5.62,5.62,0,0,1-1.573-.243l.016-1.022" transform="translate(-594.964 -578.362)" fill="#006098"/>
    <path id="Path_2192" data-name="Path 2192" d="M715.5,643.373l.422-.081v-4.573l-.422-.081v-.357h.908l.049.292a2.177,2.177,0,0,1,1.184-.373c1.086,0,1.281.973,1.281,1.913,0,1.086-.259,2.027-1.411,2.027a2.224,2.224,0,0,1-.989-.243v1.395l.438.081v.357H715.5v-.357m1.005-1.881a2.273,2.273,0,0,0,.892.211c.7,0,.908-.487.908-1.54,0-.811-.13-1.476-.843-1.476a2.15,2.15,0,0,0-.957.292Z" transform="translate(-615.659 -587.83)" fill="#006098"/>
    <path id="Path_2193" data-name="Path 2193" d="M744.705,642.046a4.587,4.587,0,0,1-1.265.195c-1.135,0-1.541-.7-1.541-1.9s.292-2.043,1.524-2.043c1.054,0,1.378.584,1.378,1.654v.5h-2.3c.016.876.259,1.313,1.054,1.313a4.343,4.343,0,0,0,1.07-.178l.081.454m-.486-2.027c0-.762-.081-1.265-.827-1.265-.632,0-.859.357-.908,1.265Z" transform="translate(-637.778 -587.914)" fill="#006098"/>
    <path id="Path_2194" data-name="Path 2194" d="M767.424,642.062a4.379,4.379,0,0,1-1.216.178c-1.216,0-1.508-.746-1.508-1.946,0-1.216.292-1.995,1.573-1.995a5.213,5.213,0,0,1,1.119.146l-.032.924h-.47l-.049-.551a3.2,3.2,0,0,0-.568-.065c-.859,0-1.005.535-1.005,1.492,0,.989.146,1.524,1.038,1.524a4.2,4.2,0,0,0,1.005-.162l.113.454" transform="translate(-656.88 -587.914)" fill="#006098"/>
    <path id="Path_2195" data-name="Path 2195" d="M785.3,632.754l.422-.081v-2.919l-.422-.081v-.357h1.022v3.357l.422.081v.357H785.3v-.357m.422-5.254h.6v.892h-.6Z" transform="translate(-674.14 -578.865)" fill="#006098"/>
    <path id="Path_2196" data-name="Path 2196" d="M799.835,641.751a2.041,2.041,0,0,1-1.151.389,1.07,1.07,0,0,1-1.184-1.135c0-.892.649-1.151,1.508-1.151.259,0,.6.032.762.049v-.422c0-.535-.146-.811-.859-.811a5.678,5.678,0,0,0-1.022.13l-.081-.454a5.6,5.6,0,0,1,1.167-.146c.957,0,1.378.324,1.378,1.2v2.238l.405.081v.357h-.892l-.032-.324m-.049-1.427c-.162-.016-.5-.032-.7-.032-.681,0-.973.195-.973.7a.649.649,0,0,0,.73.7,1.851,1.851,0,0,0,.94-.308Z" transform="translate(-684.362 -587.83)" fill="#006098"/>
    <path id="Path_2197" data-name="Path 2197" d="M820.6,632.754l.422-.081v-4.735l-.422-.081V627.5h1.022v5.173l.422.081v.357H820.6v-.357" transform="translate(-703.716 -578.865)" fill="#006098"/>
    <path id="Path_2198" data-name="Path 2198" d="M832.568,633.976H832v-.357l.6-.113.13-1.005h.438v1.005h.973v.47h-.973v2.335c0,.373.13.616.535.616a3.184,3.184,0,0,0,.389-.049l.065.438a2.21,2.21,0,0,1-.584.081c-.681,0-1.022-.276-1.022-1.005v-2.416" transform="translate(-713.267 -583.054)" fill="#006098"/>
    <path id="Path_2199" data-name="Path 2199" d="M847.8,632.754l.422-.081v-2.919l-.422-.081v-.357h1.022v3.357l.422.081v.357H847.8v-.357m.422-5.254h.6v.892h-.6Z" transform="translate(-726.505 -578.865)" fill="#006098"/>
    <path id="Path_2200" data-name="Path 2200" d="M863.605,642.046a4.587,4.587,0,0,1-1.265.195c-1.135,0-1.541-.7-1.541-1.9s.292-2.043,1.524-2.043c1.054,0,1.378.584,1.378,1.654v.5h-2.3c.016.876.26,1.313,1.054,1.313a4.345,4.345,0,0,0,1.07-.178l.081.454m-.486-2.027c0-.762-.081-1.265-.827-1.265-.632,0-.859.357-.908,1.265Z" transform="translate(-737.397 -587.914)" fill="#006098"/>
    <path id="Path_2201" data-name="Path 2201" d="M883.432,641.17h.422l.065.535a3.162,3.162,0,0,0,.7.081c.584,0,.908-.178.908-.616s-.324-.535-.843-.681c-.649-.195-1.265-.373-1.265-1.119,0-.73.6-1.07,1.443-1.07a4.393,4.393,0,0,1,1.1.162l-.032.892h-.438l-.049-.551a3.355,3.355,0,0,0-.568-.049c-.6,0-.859.211-.859.584,0,.389.308.5.859.665.6.178,1.232.357,1.232,1.135,0,.714-.535,1.119-1.492,1.119a4.473,4.473,0,0,1-1.216-.178l.032-.908" transform="translate(-756.332 -587.914)" fill="#006098"/>
    <path id="Path_2202" data-name="Path 2202" d="M173.492,577.532v2.238h.811v.584h-3.113c-.616-.016-.941-.292-.973-.843,0-.1-.016-.211-.016-.341v-.405c0-.13.016-.276.016-.405a2.027,2.027,0,0,1,.032-.341,1.094,1.094,0,0,1,.292-.649,1.137,1.137,0,0,1,.616-.373,2.166,2.166,0,0,1,.908-.049,1.973,1.973,0,0,1,.827.405v-.405h.859v.584h-.259m-.584.665a.357.357,0,0,0-.1-.195,1.134,1.134,0,0,0-.259-.211,2.444,2.444,0,0,0-.357-.178,1.715,1.715,0,0,0-.389-.1.984.984,0,0,0-.73.195,1.068,1.068,0,0,0-.259.762v.762a1.4,1.4,0,0,0,.016.276.259.259,0,0,0,.081.162.38.38,0,0,0,.162.081,1.234,1.234,0,0,0,.259.016h1.589V578.2Zm-1.816-2.5h.6v.6h-.6Zm.908,0h.6v.6H172Z" transform="translate(-158.784 -535.465)" fill="#006098"/>
    <path id="Path_2203" data-name="Path 2203" d="M197.711,588.632h-.665a1.012,1.012,0,0,1-.6-.178.944.944,0,0,1-.6.178H195.1v-.584h.551a.861.861,0,0,0,.227-.016.305.305,0,0,0,.146-.065.313.313,0,0,0,.081-.146c.016-.065.016-.13.032-.227V585.6h.6v1.995a.752.752,0,0,0,.032.227.218.218,0,0,0,.081.146.205.205,0,0,0,.146.065.927.927,0,0,0,.227.016h.486v.584m-1.946.584h.6v.6h-.6Zm.908,0h.6v.6h-.6Z" transform="translate(-179.646 -543.759)" fill="#006098"/>
    <path id="Path_2204" data-name="Path 2204" d="M211,586.2h3.162V584.93a.987.987,0,0,0-.1-.454.8.8,0,0,0-.259-.308.754.754,0,0,0-.389-.146,1.547,1.547,0,0,0-.47.016c-.114.032-.243.065-.373.1-.13.049-.276.1-.389.146a3.556,3.556,0,0,0-.341.146c-.1.049-.178.081-.227.114l-.243-.584a5.279,5.279,0,0,1,.746-.357,5.167,5.167,0,0,1,.827-.211,1.82,1.82,0,0,1,.73.032,1.6,1.6,0,0,1,.584.259,1.435,1.435,0,0,1,.389.486,1.483,1.483,0,0,1,.146.665v1.346h.811v.584H211V586.2" transform="translate(-192.968 -541.89)" fill="#006098"/>
    <path id="Path_2205" data-name="Path 2205" d="M238.932,586.356h.6v-1.605h-.276v-.584h.859v.438a1.514,1.514,0,0,1,.292-.259,2.665,2.665,0,0,1,.357-.227c.13-.065.243-.13.373-.195a2.2,2.2,0,0,1,.373-.146c.114-.049.227-.081.324-.113s.195-.049.259-.065a1.985,1.985,0,0,1,.535-.032,3.011,3.011,0,0,1,.535.065,1.337,1.337,0,0,1,.422.162,1.13,1.13,0,0,1,.324.292,1.208,1.208,0,0,1,.211.405,1.507,1.507,0,0,1,.081.47v1.086a1.994,1.994,0,0,1-.032.324h.859v.584H238.9v-.6m4.038-2.189a1.387,1.387,0,0,0-.632,0,4.281,4.281,0,0,0-.649.195c-.211.1-.405.195-.6.308a3.163,3.163,0,0,0-.486.341,3.773,3.773,0,0,0-.341.292l-.13.13v.892h3.178a.342.342,0,0,0,.259-.1.413.413,0,0,0,.081-.259v-.94a.948.948,0,0,0-.195-.568A.666.666,0,0,0,242.938,584.167Z" transform="translate(-216.344 -542.051)" fill="#006098"/>
    <path id="Path_2206" data-name="Path 2206" d="M276.6,576.335h.341a.864.864,0,0,0,.227-.016.3.3,0,0,0,.146-.065.313.313,0,0,0,.081-.146c.016-.065.016-.13.032-.227v-3.7h-.276V571.6h.859v4.427a.858.858,0,0,1-.243.665.983.983,0,0,1-.649.243H276.6v-.6" transform="translate(-247.93 -532.03)" fill="#006098"/>
    <path id="Path_2207" data-name="Path 2207" d="M291.143,576.819h-.568v-4.751H290.3V571.5h.843v5.319" transform="translate(-259.409 -531.946)" fill="#006098"/>
    <path id="Path_2208" data-name="Path 2208" d="M312.838,580.673a2.326,2.326,0,0,0-.47,1.184,1.277,1.277,0,0,0,.211.924,1.034,1.034,0,0,0,.859.34h3.827a.864.864,0,0,0,.227-.016.4.4,0,0,0,.146-.065.313.313,0,0,0,.081-.146c.016-.065.016-.13.032-.227v-1.751h-.276v-.584h.859v2.481a.858.858,0,0,1-.243.665.983.983,0,0,1-.649.243h-4.151a1.515,1.515,0,0,1-.551-.1,1.49,1.49,0,0,1-.438-.259,1.282,1.282,0,0,1-.308-.405,1.831,1.831,0,0,1-.162-.551,4.289,4.289,0,0,1-.032-.47,2.316,2.316,0,0,1,.049-.47,2.726,2.726,0,0,1,.195-.616,2.246,2.246,0,0,1,.324-.535l.47.357m1.605-.973h.6v.6h-.6Zm.908,0h.6v.6h-.6Z" transform="translate(-277.422 -538.816)" fill="#006098"/>
    <path id="Path_2209" data-name="Path 2209" d="M358.919,576.735h-.827a.844.844,0,0,1-.649-.243,1,1,0,0,1-.243-.665V571.4h.859v.584h-.276v3.7a.75.75,0,0,0,.032.227.218.218,0,0,0,.081.146.206.206,0,0,0,.146.065.93.93,0,0,0,.227.016h.649v.6" transform="translate(-315.46 -531.862)" fill="#006098"/>
    <path id="Path_2210" data-name="Path 2210" d="M367.332,586.356h.6v-1.605h-.276v-.584h.859v.438a1.514,1.514,0,0,1,.292-.259,2.663,2.663,0,0,1,.357-.227c.13-.065.243-.13.373-.195a2.2,2.2,0,0,1,.373-.146c.113-.049.227-.081.324-.113s.195-.049.259-.065a1.985,1.985,0,0,1,.535-.032,3.01,3.01,0,0,1,.535.065,1.337,1.337,0,0,1,.422.162,1.13,1.13,0,0,1,.324.292,1.208,1.208,0,0,1,.211.405,1.507,1.507,0,0,1,.081.47v1.086a1.994,1.994,0,0,1-.032.324h.859v.584H367.3v-.6m4.054-2.189a1.387,1.387,0,0,0-.632,0,4.282,4.282,0,0,0-.649.195c-.211.1-.405.195-.6.308a3.16,3.16,0,0,0-.486.341,3.763,3.763,0,0,0-.341.292l-.13.13v.892h3.178a.342.342,0,0,0,.259-.1.413.413,0,0,0,.081-.259v-.94a.947.947,0,0,0-.195-.568A.738.738,0,0,0,371.354,584.167Z" transform="translate(-323.922 -542.051)" fill="#006098"/>
    <path id="Path_2211" data-name="Path 2211" d="M405,586.356h.6v-1.605h-.276v-.584h.859v.438a1.515,1.515,0,0,1,.292-.259,2.662,2.662,0,0,1,.357-.227c.13-.065.243-.13.373-.195a2.2,2.2,0,0,1,.373-.146c.114-.049.227-.081.324-.113s.195-.049.259-.065a1.984,1.984,0,0,1,.535-.032,3.011,3.011,0,0,1,.535.065,1.337,1.337,0,0,1,.422.162,1.13,1.13,0,0,1,.324.292,1.209,1.209,0,0,1,.211.405,1.507,1.507,0,0,1,.081.47v1.086a1.994,1.994,0,0,1-.032.324h.859v.584H405v-.6m4.022-2.189a1.387,1.387,0,0,0-.632,0,4.282,4.282,0,0,0-.649.195c-.211.1-.405.195-.6.308a3.162,3.162,0,0,0-.486.341,3.762,3.762,0,0,0-.341.292l-.13.13v.892h3.195a.342.342,0,0,0,.259-.1.413.413,0,0,0,.081-.259v-.94a.947.947,0,0,0-.195-.568A.821.821,0,0,0,409.022,584.167Z" transform="translate(-355.509 -542.051)" fill="#006098"/>
    <path id="Path_2212" data-name="Path 2212" d="M442.6,579.77h3.146v-1.265a.987.987,0,0,0-.1-.454.8.8,0,0,0-.259-.308A.753.753,0,0,0,445,577.6a1.547,1.547,0,0,0-.47.016c-.114.032-.243.065-.373.1-.13.049-.276.1-.389.146a3.573,3.573,0,0,0-.341.146c-.1.049-.178.081-.227.114l-.243-.584a5.288,5.288,0,0,1,.746-.357,5.159,5.159,0,0,1,.827-.211,1.82,1.82,0,0,1,.73.032,1.6,1.6,0,0,1,.584.26,1.435,1.435,0,0,1,.389.486,1.483,1.483,0,0,1,.146.665v1.346h.811v.584H442.6v-.568m1.2-4.07h.6v.6h-.6Z" transform="translate(-387.012 -535.465)" fill="#006098"/>
    <path id="Path_2213" data-name="Path 2213" d="M473.295,580.338h-.665a1.012,1.012,0,0,1-.6-.178.945.945,0,0,1-.6.178h-.73v-.584h.551a.864.864,0,0,0,.227-.016.306.306,0,0,0,.146-.065.313.313,0,0,0,.081-.146c.016-.065.016-.13.032-.227v-1.995h.6V579.3a.753.753,0,0,0,.032.227.218.218,0,0,0,.081.146.206.206,0,0,0,.146.065c.065,0,.13.016.227.016h.487v.584M471.3,575.7h.6v.6h-.6Zm.908,0h.6v.6h-.6Z" transform="translate(-410.555 -535.465)" fill="#006098"/>
    <path id="Path_2214" data-name="Path 2214" d="M488.7,576.819h-.551a1.012,1.012,0,0,1-.6-.178.945.945,0,0,1-.6.178H486.4v-.584h.373a.863.863,0,0,0,.227-.016.305.305,0,0,0,.146-.065.314.314,0,0,0,.081-.146c.016-.065.016-.13.032-.227V571.5h.6v4.281a.751.751,0,0,0,.032.227.219.219,0,0,0,.081.146.206.206,0,0,0,.146.065.93.93,0,0,0,.227.016h.373v.584" transform="translate(-423.709 -531.946)" fill="#006098"/>
    <path id="Path_2215" data-name="Path 2215" d="M500.3,576.335h.341a.864.864,0,0,0,.227-.016.3.3,0,0,0,.146-.065.313.313,0,0,0,.081-.146c.016-.065.016-.13.032-.227v-3.7h-.276V571.6h.859v4.427a.858.858,0,0,1-.243.665.983.983,0,0,1-.649.243H500.3v-.6" transform="translate(-435.355 -532.03)" fill="#006098"/>
    <path id="Path_2216" data-name="Path 2216" d="M528.492,577.532v2.238h.811v.584h-3.113c-.616-.016-.94-.292-.973-.843,0-.1-.016-.211-.016-.341v-.405c0-.13.016-.276.016-.405a2.023,2.023,0,0,1,.032-.341,1.094,1.094,0,0,1,.292-.649,1.137,1.137,0,0,1,.616-.373,2.166,2.166,0,0,1,.908-.049,1.973,1.973,0,0,1,.827.405v-.405h.859v.584h-.259m-.584.665a.357.357,0,0,0-.1-.195,1.133,1.133,0,0,0-.259-.211,2.444,2.444,0,0,0-.357-.178,1.714,1.714,0,0,0-.389-.1.984.984,0,0,0-.73.195,1.067,1.067,0,0,0-.259.762v.762a1.4,1.4,0,0,0,.016.276.258.258,0,0,0,.081.162.38.38,0,0,0,.162.081,1.234,1.234,0,0,0,.259.016h1.589V578.2Zm-1.816-2.5h.6v.6h-.6Zm.908,0h.6v.6H527Z" transform="translate(-456.218 -535.465)" fill="#006098"/>
    <path id="Path_2217" data-name="Path 2217" d="M550.2,586.389h1.119a.861.861,0,0,0,.227-.016.306.306,0,0,0,.146-.065.314.314,0,0,0,.081-.146c.016-.065.016-.13.032-.227v-1.751h-.276V583.6h.859v2.481a.858.858,0,0,1-.243.665.983.983,0,0,1-.649.243h-1.3v-.6m.454,1.151h.6v.6h-.6Zm.908,0h.6v.6h-.6Z" transform="translate(-477.164 -542.084)" fill="#006098"/>
    <path id="Path_2218" data-name="Path 2218" d="M568.778,584.178V583.4h2.335a1.137,1.137,0,0,1,.795.243,1.066,1.066,0,0,1,.243.778v2.351H568.6v-.584h2.951v-1.67a1.284,1.284,0,0,0-.032-.276.287.287,0,0,0-.243-.243,1.229,1.229,0,0,0-.259-.016h-1.638v.178h-.6" transform="translate(-492.58 -541.916)" fill="#006098"/>
    <path id="Path_2219" data-name="Path 2219" d="M598.208,586.564h-1.719c-.616-.016-.941-.292-.973-.843,0-.1-.016-.211-.016-.341v-.405c0-.13.016-.276.016-.405a2.029,2.029,0,0,1,.032-.341,1.094,1.094,0,0,1,.292-.649,1.137,1.137,0,0,1,.616-.373,2.165,2.165,0,0,1,.908-.049,1.971,1.971,0,0,1,.827.405v-.405h.859v.584h-.276v2.238h.811v.584h-.811v.519a1.483,1.483,0,0,1-.146.665,1.2,1.2,0,0,1-.373.47,1.425,1.425,0,0,1-.568.276,2.629,2.629,0,0,1-.73.049l-.34-.049a1.231,1.231,0,0,1-.324-.1l.065-.6a.863.863,0,0,0,.178.049c.081.016.162.032.259.049.081.016.178.032.259.049a.876.876,0,0,0,.178.016,1.017,1.017,0,0,0,.714-.227,1.028,1.028,0,0,0,.276-.7v-.47m-.016-2.141a.357.357,0,0,0-.1-.195,1.134,1.134,0,0,0-.259-.211,2.445,2.445,0,0,0-.357-.178,1.714,1.714,0,0,0-.389-.1.984.984,0,0,0-.73.195,1.068,1.068,0,0,0-.259.762v.762a1.4,1.4,0,0,0,.016.276.259.259,0,0,0,.081.162.381.381,0,0,0,.162.081,1.234,1.234,0,0,0,.259.016h1.589v-1.573Z" transform="translate(-515.118 -541.691)" fill="#006098"/>
    <path id="Path_2220" data-name="Path 2220" d="M624.635,586.389v.584H620.5v-.584h1.2a5.375,5.375,0,0,1-.859-1.443,2.967,2.967,0,0,1-.032-.341,1.426,1.426,0,0,1,.032-.276.914.914,0,0,1,.243-.389,1.6,1.6,0,0,1,1.151-.341h.535a1.6,1.6,0,0,1,1.151.341.614.614,0,0,1,.146.195.569.569,0,0,1,.1.227,1.431,1.431,0,0,1,.032.276,1.214,1.214,0,0,1-.049.324,4,4,0,0,1-.243.519,10.442,10.442,0,0,1-.6.924h1.33m-1.07-1.622a.427.427,0,0,0-.1-.341.7.7,0,0,0-.357-.211A1.025,1.025,0,0,0,623,584.2a.359.359,0,0,0-.146-.016c-.065,0-.13-.016-.211-.016h-.324a1.209,1.209,0,0,0-.422.065,1.06,1.06,0,0,0-.373.211.224.224,0,0,0-.081.146.771.771,0,0,0,0,.195,2.377,2.377,0,0,0,.276.5c.162.259.422.632.762,1.1h.032A9.294,9.294,0,0,0,623.565,584.784Z" transform="translate(-536.064 -542.084)" fill="#006098"/>
    <path id="Path_2221" data-name="Path 2221" d="M651.881,586.705h-.5a.935.935,0,0,1-.616-.195.857.857,0,0,1-.324.146,2,2,0,0,1-.47.049H645.8v-.584h.616v-1.605h-.276v-.584H647v2.189h1.427v-2.481h.616v2.481h1.135a.188.188,0,0,0,.162-.065.314.314,0,0,0,.081-.146.6.6,0,0,0,.032-.195V583.3h.6v2.351a.75.75,0,0,0,.032.227.219.219,0,0,0,.081.146.206.206,0,0,0,.146.065.928.928,0,0,0,.227.016h.324v.6" transform="translate(-557.261 -541.832)" fill="#006098"/>
    <path id="Path_2222" data-name="Path 2222" d="M683,576.335h.341a.864.864,0,0,0,.227-.016.3.3,0,0,0,.146-.065.313.313,0,0,0,.081-.146c.016-.065.016-.13.032-.227v-3.7h-.276V571.6h.859v4.427a.858.858,0,0,1-.243.665.984.984,0,0,1-.649.243H683v-.6" transform="translate(-588.429 -532.03)" fill="#006098"/>
    <path id="Path_2223" data-name="Path 2223" d="M697.543,576.819h-.584v-4.751H696.7V571.5h.843v5.319" transform="translate(-599.907 -531.946)" fill="#006098"/>
    <path id="Path_2224" data-name="Path 2224" d="M721.392,577.532v2.238h.811v.584h-3.113c-.616-.016-.941-.292-.973-.843,0-.1-.016-.211-.016-.341v-.405c0-.13.016-.276.016-.405a2.024,2.024,0,0,1,.032-.341,1.094,1.094,0,0,1,.292-.649,1.137,1.137,0,0,1,.616-.373,2.166,2.166,0,0,1,.908-.049,1.973,1.973,0,0,1,.827.405v-.405h.859v.584h-.26m-.584.665a.357.357,0,0,0-.1-.195,1.132,1.132,0,0,0-.259-.211,2.444,2.444,0,0,0-.357-.178,1.714,1.714,0,0,0-.389-.1.984.984,0,0,0-.73.195,1.067,1.067,0,0,0-.259.762v.762a1.4,1.4,0,0,0,.016.276.259.259,0,0,0,.081.162.381.381,0,0,0,.162.081,1.234,1.234,0,0,0,.259.016h1.589V578.2Zm-1.816-2.5h.6v.6h-.6Zm.908,0h.6v.6h-.6Z" transform="translate(-617.837 -535.465)" fill="#006098"/>
    <path id="Path_2225" data-name="Path 2225" d="M745.3,576.316h-.551a1.012,1.012,0,0,1-.6-.178.945.945,0,0,1-.6.178H743v-.584h.373a.861.861,0,0,0,.227-.016.306.306,0,0,0,.146-.065.314.314,0,0,0,.081-.146c.016-.065.016-.13.032-.227v-1.995h.6v1.995a.751.751,0,0,0,.032.227.218.218,0,0,0,.081.146.205.205,0,0,0,.146.065,1,1,0,0,0,.227.016h.373v.584m-1.378-4.654a.353.353,0,0,0,.114.259.33.33,0,0,0,.243.1h.519v.243h-1.265v-.243h.243a.672.672,0,0,1-.1-.373v-.114a.672.672,0,0,1,.049-.259.441.441,0,0,1,.146-.195.921.921,0,0,1,.211-.13.758.758,0,0,1,.276-.049.923.923,0,0,1,.211.016c.065.016.146.032.211.049v.357h-.259v-.13a.206.206,0,0,0-.1-.016h-.081a.453.453,0,0,0-.292.1.415.415,0,0,0-.114.308v.081Z" transform="translate(-638.699 -531.443)" fill="#006098"/>
    <path id="Path_2226" data-name="Path 2226" d="M759.595,588.632h-.665a1.012,1.012,0,0,1-.6-.178.944.944,0,0,1-.6.178H757v-.584h.551a.86.86,0,0,0,.227-.016.3.3,0,0,0,.146-.065.313.313,0,0,0,.081-.146c.016-.065.016-.13.032-.227V585.6h.6v1.995a.751.751,0,0,0,.032.227.218.218,0,0,0,.081.146.206.206,0,0,0,.146.065.927.927,0,0,0,.227.016h.486v.584m-1.978.584h.6v.6h-.6Zm.924,0h.6v.6h-.6Z" transform="translate(-650.429 -543.759)" fill="#006098"/>
    <path id="Path_2227" data-name="Path 2227" d="M776.2,579.883a2.185,2.185,0,0,1,.73.016,1.6,1.6,0,0,1,.584.259,1.435,1.435,0,0,1,.389.487,1.482,1.482,0,0,1,.146.665v1.93h.778v.584H772.6v-.584h.486a.758.758,0,0,1-.049-.276c0-.195-.016-.373,0-.568a3.217,3.217,0,0,1,.049-.568,1.094,1.094,0,0,1,.292-.649,1.137,1.137,0,0,1,.616-.373,1.973,1.973,0,0,1,.746-.065l-.13-.308a4.541,4.541,0,0,1,.746-.357,4.2,4.2,0,0,1,.843-.195m-.438,2.141a.357.357,0,0,0-.1-.195,1.132,1.132,0,0,0-.259-.211,2.447,2.447,0,0,0-.357-.178,1.708,1.708,0,0,0-.389-.1.983.983,0,0,0-.73.195,1.067,1.067,0,0,0-.259.762v.422a1.4,1.4,0,0,0,.016.276.376.376,0,0,0,.065.162.313.313,0,0,0,.146.081c.065.016.146.016.243.032h1.622Zm.584,1.232h1.086v-1.849a.987.987,0,0,0-.1-.454.8.8,0,0,0-.259-.308.754.754,0,0,0-.389-.146,1.545,1.545,0,0,0-.47.016,1.36,1.36,0,0,0-.243.065c-.081.032-.178.049-.259.081s-.178.065-.26.1l-.243.1a2.731,2.731,0,0,1,.551.324c.065.049.146.113.211.162l.195.195a1.48,1.48,0,0,1,.13.211.651.651,0,0,1,.049.243Z" transform="translate(-663.499 -538.951)" fill="#006098"/>
    <path id="Path_2228" data-name="Path 2228" d="M810.9,576.335h.341a.863.863,0,0,0,.227-.016.3.3,0,0,0,.146-.065.313.313,0,0,0,.081-.146c.016-.065.016-.13.032-.227v-3.7h-.276V571.6h.859v4.427a.858.858,0,0,1-.243.665.983.983,0,0,1-.649.243H810.9v-.6" transform="translate(-695.589 -532.03)" fill="#006098"/>
    <path id="Path_2229" data-name="Path 2229" d="M825.359,576.819h-.584v-4.751H824.5V571.5h.859v5.319" transform="translate(-706.983 -531.946)" fill="#006098"/>
  </g>
</svg>
