<svg xmlns="http://www.w3.org/2000/svg" width="129.504" height="29.281" viewBox="0 0 129.504 29.281">
  <g id="Saudi-Airlines-01" style="isolation: isolate">
    <path id="Path_2162" data-name="Path 2162" d="M772.652,445.205h0a10.811,10.811,0,0,1,3.071,6.789,10.656,10.656,0,0,1-17.249,9.1l-.016.016a10.662,10.662,0,1,0,14.193-15.907m-18.881,12.14c-.339.194-.42.469-.242.921.162.4.4.566.679.469.21-.081.259-.275.162-.744l-.032-.194a2.207,2.207,0,0,1-.048-.889.586.586,0,0,1,.388-.453c.485-.194.938.113,1.212.792.291.727.129,1.277-.437,1.52l-.145-.356c.4-.162.5-.55.291-1.083-.162-.436-.453-.63-.744-.5-.242.1-.291.307-.21.808l.032.21.032.178a1.3,1.3,0,0,1,.032.647.572.572,0,0,1-.372.42c-.453.178-.889-.081-1.132-.7-.259-.663-.113-1.164.388-1.374Zm-.307-3.864,1.617-1.358v.5l-1.374,1.132.436.485.97-.016v.4l-2.748.065-.016-.388,1.083-.016h.291l-.1-.1-.1-.1-1.212-1.326-.016-.517Zm1.212-4.252,1.051.372-.129.372-1.067-.372-1.891.566.162-.453,1.18-.323.145-.032a1.688,1.688,0,0,1,.194-.048,2.028,2.028,0,0,1-.21-.275l-.727-.986.146-.436Zm1.859-5.06-.582.711,1.73,1.423-.42.5-1.73-1.423-.582.711-.388-.323,1.568-1.924Zm3.718-2.6-1.39.808.291.5,1.277-.744.243.4-1.277.744.339.582,1.406-.824.259.436-1.988,1.164-1.39-2.376,1.956-1.148Zm5.318,1.067-.711.048-.356-.6-1.115.178-.162.679-.679.178.727-3.007.679-.113ZM764,441.212a3.156,3.156,0,0,1-.291-.566c-.032.194-.048.339-.113.63l-.113.533.792-.129Zm5.981,2.312-.582-.226.226-.824c.016-.1.065-.226.113-.388.048-.178.081-.307.113-.4a2.773,2.773,0,0,1,.113-.339l.065-.194c-.162.275-.226.372-.372.6-.065.1-.113.178-.162.242l-.776,1.1-.5-.129-.162-1.309c-.016-.065-.016-.162-.032-.291-.016-.178-.016-.307-.016-.388v-.339l-.065.339c-.081.356-.113.517-.226.954l-.226.889-.614-.1.7-2.683.921.178.129,1.277a7.9,7.9,0,0,1,.032.905,3.02,3.02,0,0,1,.259-.453c.081-.129.146-.226.21-.323l.727-1.035.873.291Zm-5.254,5.286c-.34.291-.986.921-1.633,1.536l-.727.7a10.7,10.7,0,0,0-1.778-.162,4.658,4.658,0,0,0-3.12.938.946.946,0,0,0-.307.711c.016.647.76.97.986,1.067a3.241,3.241,0,0,0,3.233-.42,16.416,16.416,0,0,0,1.827-1.584c.42.1.905.226,1.423.372l.485.145c-.614.614-1.261,1.245-1.843,1.762l-.049.048a5.143,5.143,0,0,1-2.263,1.423,1.769,1.769,0,0,1-1.164-.081l-.032.032a2.207,2.207,0,0,0,1.762.566,4.6,4.6,0,0,0,2.554-1.39l1.212-1.2.857-.857,1.73.5.032.016-1.067,1.035-.921.921a16.369,16.369,0,0,1-2,1.778,4.835,4.835,0,0,1-2.376,1.035,2.418,2.418,0,0,1-1.293-.242l-.049.016a2.8,2.8,0,0,0,2.021.841c1.115-.032,2.085-.566,3.621-1.972.7-.647,1.39-1.358,2-1.988l1.132-1.148a8.927,8.927,0,0,0,2.15.226c1.083-.032,2-.533,2-1.132a.931.931,0,0,0-.566-.808,2.5,2.5,0,0,0-1.326-.388,3.981,3.981,0,0,0-2.506,1.067l-.566.5-.21-.065-1.584-.453c.469-.436.857-.808,1.229-1.132a4.264,4.264,0,0,1,2.376-1.115,2.671,2.671,0,0,1,1.406.21l.032-.032a2.876,2.876,0,0,0-2-.76,4.183,4.183,0,0,0-2.506,1,21.091,21.091,0,0,0-1.6,1.52l-.792-.242-.194-.065-.841-.259.485-.453c.566-.55,1.1-1.083,1.52-1.439a4.849,4.849,0,0,1,3.136-1.455,2.8,2.8,0,0,1,1.714.453l.032-.032a3.332,3.332,0,0,0-2.522-1.035,5.3,5.3,0,0,0-3.12,1.487m-5.965,4.559c-.485-.032-.727-.226-.727-.614,0-.048.032-1.261,2.8-1.39a6.277,6.277,0,0,1,1.2.032l-.307.275-.178.162c-.663.6-1.778,1.6-2.781,1.536m11.154-.97a3.815,3.815,0,0,1,1.859-.808c.242,0,.534.081.534.388s-.291.566-.873.776a5.077,5.077,0,0,1-2.118.129,5.25,5.25,0,0,1,.6-.485m1.2-11.073a.456.456,0,0,1,.841.356.439.439,0,0,1-.6.226.433.433,0,0,1-.242-.582m.744.356a.39.39,0,0,0-.146-.517.38.38,0,1,0-.372.663.363.363,0,0,0,.517-.145m-.259.129-.081-.032-.016-.275-.081-.048-.113.194-.065-.032.242-.436.194.1c.081.049.146.113.1.194a.154.154,0,0,1-.21.048Zm-.065-.372c.048.032.145.1.178.016.016-.048-.032-.081-.081-.113l-.113-.065-.065.113Z" transform="translate(-646.893 -435.037)" fill="#263778" fill-rule="evenodd"/>
    <path id="Path_2163" data-name="Path 2163" d="M126.732,432.183l-.032.065a13.823,13.823,0,0,1-23.99-13.741l.032-.048-.016-.048-.048.016-.032.048c-.21.291-.4.614-.582.921a13.94,13.94,0,0,0,24.184,13.87c.178-.323.356-.647.517-.97l.032-.065-.016-.048Zm-15.406-17.491c-1.972.42-5.27,2.441-5.965,5.787,2.118-2.506,4.316-3.815,6.014-4.122-1.73,1.293-3.346,4.3-2.845,6.418.921-2.247,2.506-4.445,3.977-5.238-.824,1.374-1.1,4.688-.307,6.143a12.4,12.4,0,0,1,1.73-5.577l.275,2.376h-.323l.339,2.425h-.275l.275,2.425h-.226l.356,2.425-1.148.582v.081h2.974v-.081l-1.148-.582-.339.259.339-.259.356-2.425h-.226l.291-2.425h-.275l.339-2.425h-.323l.291-2.376a12.6,12.6,0,0,1,1.73,5.577c.792-1.455.517-4.769-.307-6.143,1.471.792,3.071,2.991,3.977,5.238.5-2.118-1.115-5.124-2.845-6.418,1.681.307,3.9,1.617,6,4.122-.7-3.346-3.993-5.367-5.965-5.787a11.794,11.794,0,0,1,6.191,1.406,8.887,8.887,0,0,0-7.274-3.023,2.579,2.579,0,0,1,1.212-.727,2.683,2.683,0,0,0-2.764.4,2.411,2.411,0,0,0-.727-1.552,2.325,2.325,0,0,0-.727,1.552,2.689,2.689,0,0,0-2.764-.4,2.5,2.5,0,0,1,1.212.727,8.935,8.935,0,0,0-7.291,3.023,11.829,11.829,0,0,1,6.191-1.406m3.961,15.454c-.162.113-.372.242-.6.4-.226-.162-.42-.291-.6-.4-.873-.6-8.309-5.561-11.51-2.037,2.958-1.18,7.355,1.051,10.96,3.217-.905.614-1.94,1.326-2.813,1.924-1.39-1.342-1.908-1.132-2.021-1.083a.418.418,0,0,0-.242.339.364.364,0,0,0,.727.016l-.016-.081a9.139,9.139,0,0,1,1.633,1.487,6.951,6.951,0,0,0,1.536,1.358.942.942,0,0,0,.485.129.4.4,0,0,0,.388-.356.357.357,0,0,0-.356-.388.376.376,0,0,0-.372.372v.032a8.771,8.771,0,0,1-1.035-1.083c.873-.5,1.972-1.212,3.217-1.988,1.245.776,2.344,1.487,3.217,1.988a9.856,9.856,0,0,1-1.051,1.083v-.032a.364.364,0,1,0-.727.016.387.387,0,0,0,.388.356.907.907,0,0,0,.485-.129,7.482,7.482,0,0,0,1.536-1.358,9.757,9.757,0,0,1,1.633-1.487l-.016.081a.364.364,0,0,0,.727-.016.365.365,0,0,0-.242-.339c-.129-.048-.647-.259-2.037,1.083-.873-.6-1.908-1.293-2.813-1.924,3.621-2.182,8-4.4,10.96-3.217-3.136-3.524-10.556,1.439-11.445,2.037m-8.277,4.623c-.113-.048-.226-.113-.291-.129-.049,0-.081,0-.1.032a.121.121,0,0,0,0,.146,1.029,1.029,0,0,0,.178.21c.485.42,1.455.792,4.041-.647l-.242-.242c-.178-.178-.323-.339-.453-.469-1.39.857-2.473,1.374-3.136,1.1m15.39,0c-.663.275-1.746-.242-3.1-1.1-.129.129-.291.291-.453.469l-.242.242c2.57,1.439,3.54,1.067,4.025.647a.557.557,0,0,0,.178-.21.154.154,0,0,0,0-.146.119.119,0,0,0-.1-.032,2.132,2.132,0,0,0-.307.129" transform="translate(-100.244 -410.893)" fill="#877049" fill-rule="evenodd"/>
    <path id="Path_2164" data-name="Path 2164" d="M317.172,424.447l1.067,1.115,1.067-1.115-1.067-1.115Zm-4.51-14.032-1.067-1.115-1.067,1.115,1.067,1.115Zm1.714,14.032,1.083,1.115,1.067-1.115-1.067-1.115Zm1.1-14.032-1.083-1.115-1.067,1.115,1.067,1.115Zm51.713,1.083v7.856a2.394,2.394,0,0,1-.194,1.1,1.254,1.254,0,0,1-1.18.6,1.283,1.283,0,0,1-1.2-.6,2.152,2.152,0,0,1-.21-1.1v-5.674h-1.843v5.642h-2.312v-5.642h-1.827v5.642h-2.312v-5.642h-1.827v5.642h-7.081c-2.037-.146-2.522-1.229-2.522-2.247,0-1.423,1.261-1.972,2.651-1.972h3.007v-1.423h-2.667c-2.166,0-3.993.889-3.993,3.152a2.664,2.664,0,0,0,1.229,2.489h-4.639v-7a8.016,8.016,0,0,0-7.21,8.438h5.383v1.746c0,.663.081,1.94-.889,2.134v.76a3.276,3.276,0,0,0,2.263-1.358,4.455,4.455,0,0,0,.469-2.57v-.711h22.551a2.6,2.6,0,0,0,.291.55,3.805,3.805,0,0,0,5.415,0,3.3,3.3,0,0,0,.517-2.1v-7.695h-1.875Zm-28.775,7.84h-3.767v-.275a5.959,5.959,0,0,1,3.767-5.529Zm33.172,1.423h1.827V411.5h-1.827Zm-44.406-7.113h-2.635v1.439h2.215c1.7,0,3.459.081,3.459,2.053,0,1.762-1.293,2.15-3.589,2.15H322.2v1.439h4.753c2.861,0,4.268-.873,4.268-3.573,0-2.716-1.665-3.508-4.041-3.508m-8.939,5.69a2.189,2.189,0,0,1-.21,1.1,1.487,1.487,0,0,1-2.36,0,2.189,2.189,0,0,1-.21-1.1v-7.016c-4.365.42-7.194,3.864-7.194,8.438h5.577a3.257,3.257,0,0,0,.291.517,3.247,3.247,0,0,0,5.933-2.1v-6.111h-1.827Zm-4.623,0h-3.75V419.1a6,6,0,0,1,3.75-5.561Zm22.179,19.124a5.663,5.663,0,0,1-4.009-1.18,3.623,3.623,0,0,1-1.083-3.039v-6.531h1.956v6.806a2.741,2.741,0,0,0,.63,2.085,4.022,4.022,0,0,0,4.963,0,2.7,2.7,0,0,0,.63-2.085v-6.806h1.972v6.531a3.673,3.673,0,0,1-1.083,3.039,5.6,5.6,0,0,1-3.977,1.18M348.21,427.5a23.21,23.21,0,0,0-5.076.63l.162.776a12.256,12.256,0,0,1,1.422-.307v9.635a36.717,36.717,0,0,0,5.415-.129,5.358,5.358,0,0,0,4.963-5.173c0-4.138-3.7-5.5-6.886-5.432m.388,9.829a3.21,3.21,0,0,1-1.617-.339c-.291-.259-.307-.679-.307-1.309v-7.291c3.023-.275,6.353.63,6.353,4.591,0,3.168-2.069,4.348-4.429,4.348m9.2.905h1.972V427.712H357.8Zm-28.37,0h-2.231a6.5,6.5,0,0,0-6.256-3.686l-1.794,3.686h-1.39l5.5-10.7h.7Zm-8.067-4.575a6.967,6.967,0,0,1,4.219,1.2l-2.392-4.914Zm52.1,4.575h-2.231a6.5,6.5,0,0,0-6.256-3.686l-1.794,3.686h-1.39l5.5-10.7h.7Zm-8.05-4.575a6.9,6.9,0,0,1,4.2,1.2l-2.393-4.914ZM316.2,428.084a8.324,8.324,0,0,0-3.427-.711c-2.57.065-4.284,1.115-4.3,3.007a2.343,2.343,0,0,0,.307,1.261c1.245,2.134,6.4,1.778,6.4,4.058,0,.647-.63,1.73-2.392,1.73a6.755,6.755,0,0,1-4.09-1.439l-.5,1.536a10.489,10.489,0,0,0,4.51.889,5.048,5.048,0,0,0,3.071-.954A2.917,2.917,0,0,0,316.994,435c0-3.783-6.6-2.829-6.6-5.205a1.261,1.261,0,0,1,.291-.776,2.746,2.746,0,0,1,2.134-.744,4.511,4.511,0,0,1,2.861,1.083Z" transform="translate(-274.583 -409.3)" fill="#2c2a6f" fill-rule="evenodd"/>
  </g>
</svg>
