<svg xmlns="http://www.w3.org/2000/svg" width="118.231" height="40.174" viewBox="0 0 118.231 40.174">
  <g id="Riyadh-airports-01" style="isolation: isolate">
    <path id="Path_2131" data-name="Path 2131" d="M111.32,364.5v10.62H100.7l9.777-10.62Z" transform="translate(-100.7 -364.5)" fill="#06a7e0"/>
    <path id="Path_2132" data-name="Path 2132" d="M100.7,446.92V436.3h10.62l-9.763,10.62Z" transform="translate(-100.7 -425.68)" fill="#2574bb"/>
    <g id="Group_2235" data-name="Group 2235" transform="translate(17.691 25.826)">
      <path id="Path_2133" data-name="Path 2133" d="M221.616,539.1a1.266,1.266,0,0,0-1.316,1.316,1.31,1.31,0,0,0,1.316,1.316,1.316,1.316,0,0,0,0-2.633" transform="translate(-220.3 -539.1)" fill="#55575a"/>
    </g>
    <g id="Group_2236" data-name="Group 2236" transform="translate(71.03 25.826)">
      <path id="Path_2134" data-name="Path 2134" d="M582.216,539.1a1.266,1.266,0,0,0-1.316,1.316,1.31,1.31,0,0,0,1.316,1.316,1.266,1.266,0,0,0,1.316-1.316,1.339,1.339,0,0,0-1.316-1.316" transform="translate(-580.9 -539.1)" fill="#55575a"/>
    </g>
    <g id="Group_2237" data-name="Group 2237" transform="translate(90.037 29.154)">
      <path id="Path_2135" data-name="Path 2135" d="M713.512,567.576a1.974,1.974,0,0,1-2.012-2.1,2.012,2.012,0,1,1,4.023,0,1.982,1.982,0,0,1-2.012,2.1m0-5.976a3.77,3.77,0,0,0-4.112,3.875,3.826,3.826,0,0,0,4.112,3.949,3.914,3.914,0,1,0,0-7.825" transform="translate(-709.4 -561.6)" fill="#55575a"/>
    </g>
    <g id="Group_2238" data-name="Group 2238" transform="translate(30.397 29.3)">
      <path id="Path_2136" data-name="Path 2136" d="M311.865,564.375v4.038a11.373,11.373,0,0,1-1.7.074c-1.39,0-1.864-.932-1.864-2.1s.547-2.1,1.864-2.1a13.406,13.406,0,0,1,1.7.089m-5.665,1.938c.074,2.411,1.316,3.875,3.639,3.875a37.509,37.509,0,0,0,4.112-.311V562.9a25.234,25.234,0,0,0-4.112-.311c-2.322-.074-3.55,1.479-3.639,3.727" transform="translate(-306.2 -562.583)" fill="#55575a"/>
    </g>
    <g id="Group_2239" data-name="Group 2239" transform="translate(61.652 29.3)">
      <path id="Path_2137" data-name="Path 2137" d="M523.165,564.375v4.038a11.374,11.374,0,0,1-1.7.074c-1.39,0-1.864-.932-1.864-2.1s.547-2.1,1.864-2.1a13.57,13.57,0,0,1,1.7.089m-5.665,1.938c.074,2.411,1.316,3.875,3.639,3.875a37.51,37.51,0,0,0,4.112-.311V562.9a25.234,25.234,0,0,0-4.112-.311c-2.322-.074-3.565,1.479-3.639,3.727" transform="translate(-517.5 -562.583)" fill="#55575a"/>
    </g>
    <g id="Group_2240" data-name="Group 2240" transform="translate(11.789 13.801)">
      <path id="Path_2138" data-name="Path 2138" d="M195.206,463.391h-5.266v-2.485l3.328-.932a9.166,9.166,0,0,1,1.864-.237c1.316,0,2.1.7,2.1,1.79a1.933,1.933,0,0,1-2.026,1.864m-.074-5.591a7.209,7.209,0,0,0-2.322.385l-2.87.858V457.8h-1.169l-.932,1.006V464a2.508,2.508,0,0,1-2.707,2.8c-1.7,0-2.633-1.006-2.633-2.944a8.472,8.472,0,0,1,.311-2.248l.074-.458-1.006-.237-1.243.858a10.2,10.2,0,0,0-.237,2.174,4.539,4.539,0,0,0,4.733,4.807,5.141,5.141,0,0,0,1.864-.311,4.143,4.143,0,0,0,2.8-3.18h5.34a3.732,3.732,0,0,0,4.038-3.8c.074-2.1-1.553-3.654-4.038-3.654" transform="translate(-180.4 -457.8)" fill="#55575a"/>
    </g>
    <g id="Group_2241" data-name="Group 2241" transform="translate(37.689 22.409)">
      <path id="Path_2139" data-name="Path 2139" d="M357.985,517.242a1.242,1.242,0,1,0-1.242,1.243,1.231,1.231,0,0,0,1.242-1.243" transform="translate(-355.5 -516)" fill="#55575a"/>
    </g>
    <g id="Group_2242" data-name="Group 2242" transform="translate(34.82 22.409)">
      <path id="Path_2140" data-name="Path 2140" d="M336.1,517.242A1.242,1.242,0,1,0,337.342,516a1.231,1.231,0,0,0-1.242,1.242" transform="translate(-336.1 -516)" fill="#55575a"/>
    </g>
    <g id="Group_2243" data-name="Group 2243" transform="translate(22.167 11.079)">
      <path id="Path_2141" data-name="Path 2141" d="M251.808,441.885a1.243,1.243,0,1,0-1.242-1.243,1.18,1.18,0,0,0,1.242,1.243" transform="translate(-250.559 -439.4)" fill="#55575a"/>
    </g>
    <g id="Group_2244" data-name="Group 2244" transform="translate(85.585 10.68)">
      <path id="Path_2142" data-name="Path 2142" d="M709.963,445.412h-1.627c-1.627,0-1.864-1.08-1.864-1.7v-.148a1.555,1.555,0,0,1,1.7-1.7,1.578,1.578,0,0,1,1.7,1.7v1.864Zm-15.043,0h-5.266v-2.485l3.328-.932a9.169,9.169,0,0,1,1.864-.237c1.316,0,2.1.7,2.1,1.79a1.841,1.841,0,0,1-2.026,1.864m13.327-5.591h0a3.57,3.57,0,0,0-3.875,3.491v.148a1.738,1.738,0,0,1-1.864,1.938h-1.79a1.779,1.779,0,0,1-1.864-1.938c0-2.248-1.627-3.565-4.112-3.565a7.207,7.207,0,0,0-2.322.385l-2.87.858v-4.423h-1.169l-.932,1.006v7.751h-4.26a1.628,1.628,0,0,1-1.79-1.864V436.7h-1.169l-.932,1.006V443.7a3.568,3.568,0,0,0,3.8,3.728H694.89a4.038,4.038,0,0,0,2.944-1.08,3.8,3.8,0,0,0,2.8,1.08h2.012a3.7,3.7,0,0,0,2.707-1.006,4.077,4.077,0,0,0,2.8,1.006,18.129,18.129,0,0,0,3.8-.459v-3.491a3.49,3.49,0,0,0-3.7-3.654" transform="translate(-679.3 -436.7)" fill="#55575a"/>
    </g>
    <path id="Path_2143" data-name="Path 2143" d="M624.486,436.3h-1.169l-.917,1.006v9.7h2.086Z" transform="translate(-545.232 -425.68)" fill="#55575a"/>
    <g id="Group_2245" data-name="Group 2245" transform="translate(41.55 10.62)">
      <path id="Path_2144" data-name="Path 2144" d="M392.709,443.045V436.3H391.54l-.932,1.006v5.739a1.762,1.762,0,0,1-1.864,2.012h-.858a1.863,1.863,0,0,1-1.864-2.1v-3.417h-1.169l-.932,1.006v6.36a1,1,0,0,1-.074.459,2.08,2.08,0,0,1-1.627,1.08l-.621.148.237,1.006,1.316.769a3.723,3.723,0,0,0,2.87-3.328v-.547a4.248,4.248,0,0,0,1.79.385h1.08c2.263.133,3.816-1.42,3.816-3.831" transform="translate(-381.6 -436.3)" fill="#55575a"/>
    </g>
    <g id="Group_2246" data-name="Group 2246" transform="translate(79.328 13.875)">
      <path id="Path_2145" data-name="Path 2145" d="M641.423,465.282V458.3h-1.169l-.932,1.006v6.36a1,1,0,0,1-.074.458,2.079,2.079,0,0,1-1.627,1.08l-.621.148.237,1.006,1.316.769a3.616,3.616,0,0,0,2.87-3.846" transform="translate(-637 -458.3)" fill="#55575a"/>
    </g>
    <g id="Group_2247" data-name="Group 2247" transform="translate(68.781 12.632)">
      <path id="Path_2146" data-name="Path 2146" d="M566.943,452.385a1.243,1.243,0,1,0-1.242-1.242,1.231,1.231,0,0,0,1.242,1.242" transform="translate(-565.7 -449.9)" fill="#55575a"/>
    </g>
    <g id="Group_2248" data-name="Group 2248" transform="translate(65.979 12.632)">
      <path id="Path_2147" data-name="Path 2147" d="M548,452.385a1.243,1.243,0,1,0-1.243-1.242A1.142,1.142,0,0,0,548,452.385" transform="translate(-546.755 -449.9)" fill="#55575a"/>
    </g>
    <g id="Group_2249" data-name="Group 2249" transform="translate(61.637 13.801)">
      <path id="Path_2148" data-name="Path 2148" d="M528.657,458.88v2.707a1.614,1.614,0,0,1-1.79,1.79h-5.5a1.761,1.761,0,0,1-1.864-1.7,7.365,7.365,0,0,1,.385-2.012l.148-.547-1.006-.237-1.316.932a8.275,8.275,0,0,0-.311,1.79c0,2.322,1.627,3.728,4.112,3.728h5.443a3.626,3.626,0,0,0,3.8-3.8V457.8h-1.169Z" transform="translate(-517.4 -457.8)" fill="#55575a"/>
    </g>
    <path id="Path_2149" data-name="Path 2149" d="M469.8,437.306v9.7h2.1V436.3h-1.169Z" transform="translate(-415.204 -425.68)" fill="#55575a"/>
    <g id="Group_2250" data-name="Group 2250" transform="translate(31.861 10.561)">
      <path id="Path_2150" data-name="Path 2150" d="M319.99,446.668h2.174a3.646,3.646,0,0,0,3.8-3.875v-3.639H324.8l-.932,1.006v2.559A1.738,1.738,0,0,1,322,444.657h-1.938a1.738,1.738,0,0,1-1.864-1.938V435.9h-1.169l-.932,1.006v5.887a3.808,3.808,0,0,0,3.89,3.875" transform="translate(-316.1 -435.9)" fill="#55575a"/>
    </g>
    <g id="Group_2251" data-name="Group 2251" transform="translate(11.789 29.317)">
      <path id="Path_2151" data-name="Path 2151" d="M181.332,562.922,180.4,564v6.139h2.1v-5.355c.858-.074,1.7-.074,2.559-.074V562.7c-.769,0-1.7.074-2.559.148-.4,0-.784.074-1.169.074" transform="translate(-180.4 -562.7)" fill="#55575a"/>
    </g>
    <g id="Group_2252" data-name="Group 2252" transform="translate(75.305 29.317)">
      <path id="Path_2152" data-name="Path 2152" d="M610.732,562.922l-.932,1.006v6.124h2.1v-5.266c.858-.074,1.7-.074,2.559-.074V562.7c-.769,0-1.7.074-2.559.148-.4,0-.784.074-1.169.074" transform="translate(-609.8 -562.7)" fill="#55575a"/>
    </g>
    <g id="Group_2253" data-name="Group 2253" transform="translate(99.726 29.317)">
      <path id="Path_2153" data-name="Path 2153" d="M775.832,562.922l-.932,1.006v6.124H777v-5.266c.858-.074,1.7-.074,2.559-.074V562.7c-.769,0-1.7.074-2.559.148-.4,0-.784.074-1.169.074" transform="translate(-774.9 -562.7)" fill="#55575a"/>
    </g>
    <path id="Path_2154" data-name="Path 2154" d="M222.4,564.78v6.139h2.086V563.7h-1.169Z" transform="translate(-204.399 -534.235)" fill="#55575a"/>
    <path id="Path_2155" data-name="Path 2155" d="M582.5,564.78v6.139h2.1V563.7h-1.095Z" transform="translate(-511.234 -534.235)" fill="#55575a"/>
    <g id="Group_2254" data-name="Group 2254" transform="translate(105.835 26.995)">
      <path id="Path_2156" data-name="Path 2156" d="M819.469,555.061c-.858,0-1.169-.458-1.169-1.242v-2.485h2.248v-2.012H818.3V547h-1.169l-.932,1.006v6.2A2.567,2.567,0,0,0,819,557a8.374,8.374,0,0,0,2.1-.237l-.237-1.7h-1.39" transform="translate(-816.2 -547)" fill="#55575a"/>
    </g>
    <path id="Path_2157" data-name="Path 2157" d="M252.039,563.7l-.237.473-1.79,3.875-2.248-4.349h-.843l-1.021,1.08h0l2.958,5.665-1.864,3.964h2.322l4.423-9.23.148-.4-.917-1.08Z" transform="translate(-224.422 -534.235)" fill="#55575a"/>
    <g id="Group_2255" data-name="Group 2255" transform="translate(111.589 29.243)">
      <path id="Path_2158" data-name="Path 2158" d="M859.286,565.292c-1.08-.237-1.864-.237-1.864-.769,0-.385.385-.621,1.006-.621a10.218,10.218,0,0,1,2.8.547l.148-.621-.148-.237-.547-1.006a1.594,1.594,0,0,1-.458-.148,6.98,6.98,0,0,0-1.79-.237c-1.938,0-3.18.858-3.18,2.411,0,1.243.858,1.864,2.485,2.174.932.148,1.938.237,1.938.858,0,.385-.547.547-1.243.547a8.469,8.469,0,0,1-2.943-.621l-.385,1.7a9.7,9.7,0,0,0,3.254.621c1.938,0,3.254-.769,3.254-2.411.237-1.331-.607-1.8-2.322-2.189" transform="translate(-855.1 -562.2)" fill="#55575a"/>
    </g>
    <g id="Group_2256" data-name="Group 2256" transform="translate(49.404 25.959)">
      <path id="Path_2159" data-name="Path 2159" d="M438.96,543.269c-.7,0-1.479.074-2.248.148V540h-1.08l-.932,1.006v9.689h2.1V545.34a14.71,14.71,0,0,1,1.7-.148,1.323,1.323,0,0,1,1.39,1.479v4.038h2.1v-4.645a2.8,2.8,0,0,0-3.032-2.8" transform="translate(-434.7 -540)" fill="#55575a"/>
    </g>
    <g id="Group_2257" data-name="Group 2257" transform="translate(39.627 26.004)">
      <path id="Path_2160" data-name="Path 2160" d="M374.265,549.427a11.374,11.374,0,0,1-1.7.074c-1.39,0-1.864-.932-1.864-2.1v-.074a1.758,1.758,0,0,1,2.012-2.012,12.415,12.415,0,0,1,1.553.148Zm0-8.061v2.411a14.426,14.426,0,0,0-1.864-.148,3.471,3.471,0,0,0-3.8,3.8v.074c.074,2.322,1.316,3.8,3.639,3.8a37.493,37.493,0,0,0,4.112-.311V540.3h-1.169Z" transform="translate(-368.6 -540.3)" fill="#55575a"/>
    </g>
    <g id="Group_2258" data-name="Group 2258" transform="translate(81.192 29.228)">
      <path id="Path_2161" data-name="Path 2161" d="M653.549,567.928a10.217,10.217,0,0,1-1.864-.148V563.9a11.372,11.372,0,0,1,1.7-.074,2.06,2.06,0,0,1,.163,4.1m.163-5.828a19.587,19.587,0,0,0-3.18.237l-.932,1.006v9.689h2.1V569.54c.858.074,1.479.074,2.174.074a3.453,3.453,0,0,0,3.491-3.727c-.089-2.234-1.331-3.787-3.654-3.787" transform="translate(-649.6 -562.1)" fill="#55575a"/>
    </g>
  </g>
</svg>
