<svg xmlns="http://www.w3.org/2000/svg" width="91.985" height="45.951" viewBox="0 0 91.985 45.951">
  <path id="STC" d="M239.012,408.051c4.8,0,8.73-1.5,11.313-4.015a10.433,10.433,0,0,0,3.082-7.514,9.724,9.724,0,0,0-2.866-7.014,14.917,14.917,0,0,0-7.881-3.865l-5.515-1.066c-2.283-.433-3.582-1.566-3.582-3.149,0-2.066,2-3.5,5.232-3.5a6.832,6.832,0,0,1,4.865,1.783,5.4,5.4,0,0,1,1.366,2.932l7.947-1.783a9.66,9.66,0,0,0-2.932-5.948,15.851,15.851,0,0,0-11.313-4.215,15.473,15.473,0,0,0-10.53,3.715,10.444,10.444,0,0,0-3.365,7.731,8.953,8.953,0,0,0,2.582,6.581,15.673,15.673,0,0,0,7.514,3.8l5.448,1.283c2.716.65,3.932,1.65,3.932,3.432,0,2.216-2,3.516-5.3,3.516a7.406,7.406,0,0,1-5.515-2.083,4.928,4.928,0,0,1-1.433-3.3l-8.164,1.783a10.173,10.173,0,0,0,3.082,6.3c2.732,2.882,7.1,4.6,12.029,4.6m60.413,0a17,17,0,0,0,12.162-4.648,15.884,15.884,0,0,0,4.3-7.231l-8.381-2.8a7.957,7.957,0,0,1-2.216,3.715,8.175,8.175,0,0,1-5.865,2.216,9.007,9.007,0,0,1-6.381-2.582,10.394,10.394,0,0,1-2.649-7.381,10.238,10.238,0,0,1,2.649-7.364,8.74,8.74,0,0,1,6.3-2.5,7.58,7.58,0,0,1,5.648,2.149,9.324,9.324,0,0,1,2.149,3.8l8.514-2.866a16,16,0,0,0-4.015-7.081,17.41,17.41,0,0,0-12.529-4.8,18.169,18.169,0,0,0-12.962,5.232,19.076,19.076,0,0,0-5.248,13.462,18.789,18.789,0,0,0,5.431,13.462,18.427,18.427,0,0,0,13.1,5.215m-28.907,0c3.715,0,6.364-1.15,7.514-2.149v-7.731a8.259,8.259,0,0,1-4.8,1.433,5.036,5.036,0,0,1-3.582-1.15,4.978,4.978,0,0,1-1.066-3.582V362.1h-9.447v9.663h18.894v9.164h-18.91v16.244a10.843,10.843,0,0,0,2.8,7.8c2,2.016,4.932,3.082,8.6,3.082" transform="translate(-223.9 -362.1)" fill="#502c84"/>
</svg>
