<svg xmlns="http://www.w3.org/2000/svg" width="54.718" height="67.403" viewBox="0 0 54.718 67.403">
  <g id="Alarabiya-Oud-01" transform="translate(0)" style="isolation: isolate">
    <g id="Group_2228" data-name="Group 2228" transform="translate(0 0)">
      <g id="Group_2227" data-name="Group 2227">
        <g id="Group_2226" data-name="Group 2226">
          <path id="Path_2099" data-name="Path 2099" d="M228.26,114.07c-.227.236-.438.438-.615.606-.034.025-.067.059-.1.084l2.569.5.4-.741Zm-12.121-2.249a.677.677,0,0,0-.076-.118l-5.778-1.112v-.952l-4.17.893a8.157,8.157,0,0,1-.649,1.3,5.44,5.44,0,0,1-.337.708l5.155-1.1,6.267,1.2a5.393,5.393,0,0,1-.413-.825m4.279,25.851-10.133-.034V136.7l-9.1-.194v.868H185.411v.952h16.695l8.187.168,10.133.025v-.851Zm.741-6-10.874-.691v-.91l-10.4.4.4.767H184.493l.489.952h15.777l9.527-.345,10.42.64ZM214.4,107.837l-4.119-.48v-1.028l-2.872.733c-.244.7-.48,1.365-.708,1.971l3.58-.91v.008l4.422.514q-.139-.392-.3-.809m-1.221-3.369-2.9-.345V103.2l-1.744.472c-.219.657-.43,1.322-.649,1.971l2.392-.64v-.034l3.209.371c-.1-.286-.2-.581-.312-.876m-1.221-3.555-1.676-.295V99.7l-.531.16c-.194.615-.4,1.289-.623,1.988l1.154-.354v-.034l1.979.345c-.1-.3-.211-.606-.3-.893m-1.676,58.98L198.063,153.9l-.211.665H181.444l-.362.952H197.6l12.685,6.174,13.081-6.09-.2-.8-12.879,6.039Zm0-6.629-10.639-4.3-.219.691H183.314l-.362.952h16.215l11.119,4.464,11.953-3.875-.211-.809-11.734,3.833v-.952Zm0-3.31-9.864-3.42-.244.75H184.215l-.362.952h16.24l10.2,3.5,11.4-2.7-.211-.825-11.178,2.67v-.918Zm0-3.31-9.1-2.519v.034l-.227.708H185.133l-.362.952h15.987l9.527,2.611,10.8-1.676-.211-.825-10.588,1.651Zm-9.1-5.1v.834H185.411v.952h15.777v.025l9.1,1.769,10.142-.918-.008-.042v-.817l-10.133.91v-.918Zm9.1-1.525-9.1-.943v.876H185.411v.952H201.39l8.895.918,10.133.034V141l-10.133-.034Zm-9.1-6.621v.842H185.411v.952h15.777v.008h9.1l10.133.691v-.834l-10.133-.7v-.977Zm9.1-6.621-11.793,1.011.387.758H183.095l.489.952h15.895l10.807-.918v.008l11.776,1.432.43-.783-12.205-1.508Zm0-3.319-13.115,1.752.354.682H181.738l.489.952h15.785l12.273-1.592v.017l13.359,1.853.421-.775-13.78-1.921v-.969Zm0-3.31-14.6,2.19.362.716H180.273l.489.952h15.962v-.034l13.561-2.022,14.926,2.316.413-.767L210.285,121.1v-.96Zm0-3.31-16.1,2.586.362.7H178.773l.489.952h15.971v-.042l15.061-2.4v.034l16.661,2.4.421-.767-17.082-2.485v-.977Zm0-3.6-7.092,1.289a8.7,8.7,0,0,1-6.806,1.238l-3.723.674.354.682H177.232l.489.952h15.937v-.042l16.628-3v.042l18.245,3.1.413-.758-18.649-3.192v-.986Zm-11.4,38.115-.211.649H182.421l-.362.952h16.307l-.008.008,11.919,5.433,12.584-4.725-.2-.8-12.374,4.7v-.977Zm-4.54-36.675a10.442,10.442,0,0,1-1.162-1.39l-1.937.413.328.64H175.8l.489.952h15.785v.008l.008-.008h.152v-.034l2.257-.48a.554.554,0,0,1-.143-.1" transform="translate(-175.8 -99.7)" fill="#9a8657"/>
          <path id="Path_2100" data-name="Path 2100" d="M729.613,779v7.842H728.4V779.5Z" transform="translate(-681.853 -721.781)" fill="#9a8657"/>
          <path id="Path_2101" data-name="Path 2101" d="M586.591,794.464v4.818h-3.656a6.59,6.59,0,0,1-.194-.64,1.006,1.006,0,0,1,1.853-.75c0,.034.64-.927.64-.927a2.144,2.144,0,0,0-3.849,1.533,3.391,3.391,0,0,0,.152.783h-1.6v-1.474l-1.213.4v2.173c.059,1.752-1.12,1.752-2.224,1.112,0,1.6,3.268,2.038,3.428-1H587.8v-6.6Z" transform="translate(-542.748 -735.425)" fill="#9a8657"/>
          <path id="Path_2102" data-name="Path 2102" d="M182.693,816.18s-.253-2.4-.472-3.3c-.539-2.333-3.016-1.786-3.016-1.786l-.573,1.044s2.333-.169,2.519,1.263c.084.6.143,1.129.194,1.567h-4.38l-.665,1.213h6.393Z" transform="translate(-176.258 -751.119)" fill="#9a8657"/>
          <path id="Path_2103" data-name="Path 2103" d="M265.333,784.8h0s-1.1.034-1.1,0c-.034-2.03.682-2,1.1-2.207.042.034,0,2.207,0,2.207m10.773-6.7v6.7h-.893v-6.7H274v6.7h-3.529c-.118-.371-.253-.825-.362-1.289a1.025,1.025,0,0,1,1.92-.674c0,.034.64-.817.64-.817a2.113,2.113,0,0,0-3.849,1.533,8.666,8.666,0,0,0,.227,1.247h-2.493v-3.8S263,780.922,263,784.1v1.921h2.342c.211.7-.674,1.457-2.266,1,1.255,1.828,3.251.758,3.454-1h10.79V778.1Z" transform="translate(-255.655 -720.957)" fill="#9a8657"/>
          <path id="Path_2104" data-name="Path 2104" d="M448.589,824.641h0c0,.034,1.39,0,1.39,0s.034-1.6,0-1.643c-.5.11-1.39.152-1.39,1.643m9.485-1.044v2.258H447.3v-1.213c0-2.813,2.813-2.569,3.765-3.041v3.041h2.3v-3l1.213.43v2.569h2.283v-1.516Z" transform="translate(-424.431 -760.792)" fill="#9a8657"/>
          <path id="Path_2105" data-name="Path 2105" d="M452.492,799.692l-.792.8-.8-.8.8-.792Z" transform="translate(-427.728 -740.005)" fill="#9a8657"/>
          <path id="Path_2106" data-name="Path 2106" d="M475.392,799.692l-.8.8-.792-.8.792-.792Z" transform="translate(-448.699 -740.005)" fill="#9a8657"/>
          <path id="Path_2107" data-name="Path 2107" d="M500.3,881.8l-.8.792-.8-.792.8-.8Z" transform="translate(-471.501 -815.189)" fill="#9a8657"/>
          <path id="Path_2108" data-name="Path 2108" d="M523.192,881.8l-.792.792-.8-.792.8-.8Z" transform="translate(-492.472 -815.189)" fill="#9a8657"/>
          <path id="Path_2109" data-name="Path 2109" d="M554.092,881.8l-.792.792-.8-.792.8-.8Z" transform="translate(-520.77 -815.189)" fill="#9a8657"/>
        </g>
      </g>
    </g>
  </g>
</svg>
