<svg xmlns="http://www.w3.org/2000/svg" width="86.565" height="66.97" viewBox="0 0 86.565 66.97">
  <g id="Najran-University-01" transform="translate(0)" style="isolation: isolate">
    <path id="Path_2419" data-name="Path 2419" d="M293.9,338.1c6.958,3.065,12.83,7.227,14.82,15.272l3.28-.075a36.194,36.194,0,0,1,3.538-8.486,36.388,36.388,0,0,1,3.538,8.486l3.28.075c1.99-8.045,7.862-12.2,14.82-15.272-5.636.828-11.024,3.958-15.863,12.142a52.865,52.865,0,0,0-4.5-7.464c5.055-7.378,12.411-11.443,20.208-14.874-7.668,1.99-15.078,5.216-21.488,13.2-6.41-7.991-13.82-11.206-21.488-13.2,7.786,3.441,15.154,7.5,20.208,14.874a53.9,53.9,0,0,0-4.5,7.464c-4.84-8.184-10.228-11.314-15.863-12.142Z" transform="translate(-272.939 -312.994)" fill="#e0b42f" fill-rule="evenodd"/>
    <path id="Path_2420" data-name="Path 2420" d="M296.6,374.426c6.958,3.065,16.627,9.163,19.585,20.262l3.28-.075c3.356-11.293,11.83-16.347,19.886-20.413-10.1,2.624-15.229,6.259-21.467,17.283-5.657-12.207-15.648-16.229-21.284-17.057Z" transform="translate(-275.349 -354.314)" fill="#2d588c" fill-rule="evenodd"/>
    <path id="Path_2421" data-name="Path 2421" d="M395.08,207.927a17.528,17.528,0,0,0-2.312-5.291,25.775,25.775,0,0,0-2.388,5.582,29.3,29.3,0,0,1-.516-6.625,33.978,33.978,0,0,0-5.367,2.527,16.238,16.238,0,0,1,3.2-5.141,21.829,21.829,0,0,0-7.3-1.71,21,21,0,0,1,8.27-1.71,34.836,34.836,0,0,0-2.527-6.259,27.362,27.362,0,0,1,6.625,4.614,25.41,25.41,0,0,1,6.625-4.474L396.93,195.4a23.9,23.9,0,0,1,8.421,1.861,23.513,23.513,0,0,0-7.3,1.635,13.8,13.8,0,0,1,2.753,5.141,14.481,14.481,0,0,0-5.141-2.312,26.326,26.326,0,0,1-.581,6.205Z" transform="translate(-350.136 -189.3)" fill="#2d588c" fill-rule="evenodd"/>
    <path id="Path_2422" data-name="Path 2422" d="M175.777,597.6l-2.237,2.226a14.771,14.771,0,0,0,3.947,3.947l-6.109.075.075-9.238a1.432,1.432,0,0,0-1.269-1.194h-1.118l-.075,12.508h17.3l-.4-2.086c-5.313.226-8.582-2.086-10.12-6.238Zm-58.334,8.023a5.167,5.167,0,0,1-1.667,2.839l2.269,1.377c1.248-1.409,1.656-4.194,1.7-5.367.753,1.118.678,1.14,2.022,1.14h13.39v-7.4h-1.118a1.089,1.089,0,0,0-1.194,1.119V603.7c-4.27-.237-6.636-2.1-8.744-6.141l-2.129,2.13a14.633,14.633,0,0,0,4.044,3.958l-6.281.021v-5.453h-1.1a1.089,1.089,0,0,0-1.194,1.119v6.292Zm45.665-1.775h-1.42v-3.463c3.786-.022,4.216,3.463,1.42,3.463Zm-3.42,0h-6.969c-3.506-1.968,2.9-4.775,4.27-5.367l-2.377-2.065c-3.463,1.57-6.464,4.452-5.539,7.442h-2.947v-5.474c-3.108,0-6.41.151-8.464,2.925a3.637,3.637,0,0,0-.129,2.732c.624,1.441,2.086,1.85,3.571,1.828h22.564c2.8-.107,4.571-2.861,2.947-5.012-1.775-2.355-4.108-2.388-6.937-2.388v5.377Zm-15.573,0-3.011-.022c-1.764-.344-1.721-2.108-.215-2.775a7.088,7.088,0,0,1,3.226-.441v3.237Zm-4.409-6.679h2.312v-2.463H140.9a1.089,1.089,0,0,0-1.194,1.119v1.344Zm2.979,0H145v-2.463h-1.118a1.089,1.089,0,0,0-1.194,1.119v1.344Zm-37.835,0h2.312v-2.463h-1.118a1.089,1.089,0,0,0-1.194,1.119v1.344Zm6.259,8.636v-7.453h-1.118a1.089,1.089,0,0,0-1.194,1.119v4.409a10.793,10.793,0,0,1-3.882-.312,3.591,3.591,0,0,1-2.5-3.71c-3.011,2.269-.108,4.85,1.861,5.55,2.1.753,4.668.4,6.829.4Zm1.71,0h2.312V593.3h-1.118a1.089,1.089,0,0,0-1.194,1.119v11.389Zm10.873,3.732H126v-2.463h-1.118a1.089,1.089,0,0,0-1.194,1.119v1.344Zm5.657-12.368h2.312v-2.463h-1.118a1.089,1.089,0,0,0-1.194,1.119v1.344ZM176.7,609.443h2.312V606.98H177.9A1.089,1.089,0,0,0,176.7,608.1v1.344Z" transform="translate(-100.891 -549.851)" fill="#2d588c" fill-rule="evenodd"/>
    <path id="Path_2423" data-name="Path 2423" d="M99,762.7h1.377l2.108,3.764-.054-3.764h1.108v5.238H102.28l-2.215-3.969.054,3.969H99V762.7Zm81.521,0h1.226l1.269,2,1.291-2h1.258l-1.99,2.925v2.312h-1.086v-2.312l-1.968-2.925Zm-2.99.914h-1.667V762.7h4.463v.914H178.65v4.323h-1.118v-4.323Zm-2.7,4.323H173.7V762.7h1.129v5.238Zm-2.7-4.3h-2.678a1.02,1.02,0,0,0-.635.161.608.608,0,0,0-.2.516.516.516,0,0,0,.172.43.8.8,0,0,0,.516.14h1.43a1.886,1.886,0,0,1,1.269.344,1.5,1.5,0,0,1,.376,1.14,1.515,1.515,0,0,1-.43,1.194,2.013,2.013,0,0,1-1.366.376h-2.893V767h2.721a1.12,1.12,0,0,0,.656-.14.515.515,0,0,0,.194-.452.543.543,0,0,0-.172-.462.938.938,0,0,0-.592-.14h-1.28a1.9,1.9,0,0,1-1.3-.366,1.436,1.436,0,0,1-.409-1.14,1.52,1.52,0,0,1,.43-1.215,2.043,2.043,0,0,1,1.377-.387h2.818v.936Zm-7.829,0h-1.334v1.312H164.3a1.385,1.385,0,0,0,.753-.151.586.586,0,0,0,.215-.516.573.573,0,0,0-.2-.505,1.448,1.448,0,0,0-.764-.14Zm-2.409-.936h2.667a2.072,2.072,0,0,1,1.366.376,1.515,1.515,0,0,1,.43,1.194,1.621,1.621,0,0,1-.269.979,1.241,1.241,0,0,1-.774.495l1.291,2.194h-1.226l-1.14-2.065h-1.28v2.065h-1.086V762.7Zm-3.226.914a1.213,1.213,0,0,0-.893.3,1.392,1.392,0,0,0-.333.914h3v.914h-3.011a1.365,1.365,0,0,0,.29.979,1.223,1.223,0,0,0,.936.3h1.785v.914H158.6a3.253,3.253,0,0,1-.957-.108,2.174,2.174,0,0,1-.656-.355,1.9,1.9,0,0,1-.592-.839,3.492,3.492,0,0,1-.194-1.226,3,3,0,0,1,.592-2.054,2.355,2.355,0,0,1,1.839-.656h1.807v.914Zm-6.173,4.323-2.248-5.238h1.237l1.549,3.9,1.592-3.9h1.151l-2.151,5.238Zm-3.054,0h-1.129V762.7h1.129v5.238Zm-7.227-5.238h1.377l2.108,3.764-.054-3.764h1.108v5.238h-1.258l-2.215-3.969.054,3.969h-1.108V762.7Zm-4.947,0v3.14a1.558,1.558,0,0,0,.258,1.022,1.167,1.167,0,0,0,.9.29,1.183,1.183,0,0,0,.9-.29,1.558,1.558,0,0,0,.258-1.022V762.7h1.086v3.162a3.992,3.992,0,0,1-.075.893,1.324,1.324,0,0,1-.226.527,1.823,1.823,0,0,1-.774.549,4.005,4.005,0,0,1-2.323,0,1.926,1.926,0,0,1-.785-.549,1.223,1.223,0,0,1-.226-.505,4.711,4.711,0,0,1-.075-.9v-3.162h1.075Zm-10.432,0h1.377l2.108,3.764-.054-3.764h1.108v5.238h-1.258l-2.215-3.969.054,3.969h-1.108V762.7Zm-3.667,1.043-.753,2.022h1.538l-.785-2.022Zm-.538-1.043h1.151l2.2,5.238h-1.2l-.473-1.247h-2.248l-.462,1.247h-1.151l2.183-5.238Zm-4.947.936h-1.334v1.312h1.334a1.385,1.385,0,0,0,.753-.151.586.586,0,0,0,.215-.516.573.573,0,0,0-.2-.505,1.448,1.448,0,0,0-.764-.14Zm-2.409-.936h2.667a2.072,2.072,0,0,1,1.366.376,1.515,1.515,0,0,1,.43,1.194,1.621,1.621,0,0,1-.269.979,1.241,1.241,0,0,1-.774.495l1.291,2.194h-1.226l-1.14-2.065h-1.28v2.065H115.25V762.7Zm-5.066,4.367h1.269a1.185,1.185,0,0,0,.936-.29,2.042,2.042,0,0,0,.247-1.2V762.7h1.129v3.119a3.392,3.392,0,0,1-.108.936,1.638,1.638,0,0,1-.344.635,1.52,1.52,0,0,1-.624.43,3.437,3.437,0,0,1-1.075.118h-1.42v-.871Zm-3.119-3.323-.753,2.022h1.538l-.785-2.022Zm-.527-1.043h1.151l2.2,5.238h-1.2l-.473-1.247h-2.248l-.462,1.247h-1.151l2.183-5.238Z" transform="translate(-99 -701.032)" fill="#2d588c" fill-rule="evenodd"/>
  </g>
</svg>
