<svg xmlns="http://www.w3.org/2000/svg" width="15" height="15" viewBox="0 0 15 15">
  <path id="Path_106" data-name="Path 106" d="M421.452,269.282a7.5,7.5,0,1,0,7.5,7.5A7.5,7.5,0,0,0,421.452,269.282Zm6.119,9.1a19.463,19.463,0,0,1-2.63.658,20.468,20.468,0,0,0,0-4.509,19.521,19.521,0,0,1,2.62.656.465.465,0,0,0,.139.023,6.231,6.231,0,0,1,0,3.16A.511.511,0,0,0,427.571,278.38Zm-12.368-.013a6.252,6.252,0,0,1,0-3.166.5.5,0,0,0,.132-.017,19.456,19.456,0,0,1,2.632-.658,20.519,20.519,0,0,0,0,4.51,19.468,19.468,0,0,1-2.624-.657A.505.505,0,0,0,415.2,278.367Zm3.836-4a19.488,19.488,0,0,1,4.829,0,19.478,19.478,0,0,1,0,4.832,19.522,19.522,0,0,1-4.829,0A19.446,19.446,0,0,1,419.039,274.365Zm8.234-.35a20.535,20.535,0,0,0-2.468-.583,20.562,20.562,0,0,0-.581-2.47A6.471,6.471,0,0,1,427.273,274.016Zm-4.24-3.482a.517.517,0,0,0,.017.13,19.411,19.411,0,0,1,.657,2.63,20.44,20.44,0,0,0-4.506,0,19.528,19.528,0,0,1,.656-2.621.509.509,0,0,0,.013-.138,6.223,6.223,0,0,1,3.164,0Zm-4.456.477a.515.515,0,0,0,.073.016,20.469,20.469,0,0,0-.535,2.4,20.519,20.519,0,0,0-2.486.585A6.473,6.473,0,0,1,418.577,271.01Zm-2.9,8.648a.613.613,0,0,0,.015-.071,20.388,20.388,0,0,0,2.417.541,20.417,20.417,0,0,0,.536,2.41.489.489,0,0,0-.072.016A6.468,6.468,0,0,1,415.681,279.658Zm4.187,3.374a.516.516,0,0,0-.012-.131,19.38,19.38,0,0,1-.657-2.626,18.811,18.811,0,0,0,4.5,0,19.381,19.381,0,0,1-.655,2.619l0,.006a.505.505,0,0,0-.016.133,6.252,6.252,0,0,1-3.163,0Zm4.347-.424a20.342,20.342,0,0,0,.586-2.482,20.459,20.459,0,0,0,2.414-.539.594.594,0,0,0,.013.061A6.469,6.469,0,0,1,424.215,282.608Z" transform="translate(-413.952 -269.282)" fill="#834BA4"/>
</svg>
