<svg xmlns="http://www.w3.org/2000/svg" width="14.911" height="15" viewBox="0 0 14.911 15">
  <path id="path4" d="M12.936,10.982c-.15-.075-1.124-.524-1.273-.6a.353.353,0,0,0-.449.075c-.15.15-.449.6-.6.749-.075.15-.225.15-.375.075a6.124,6.124,0,0,1-1.5-.9A8.623,8.623,0,0,1,7.693,9.11a.329.329,0,0,1,.075-.375c.075-.075.15-.225.3-.3a.568.568,0,0,0,.15-.3.228.228,0,0,0,0-.3,13.315,13.315,0,0,1-.6-1.348c-.075-.524-.225-.524-.375-.524H6.869a.854.854,0,0,0-.449.225,2.156,2.156,0,0,0-.674,1.573,3.924,3.924,0,0,0,.749,1.948A7.986,7.986,0,0,0,9.64,12.481a5.871,5.871,0,0,0,1.049.375,2.139,2.139,0,0,0,1.2.075,1.941,1.941,0,0,0,1.273-.9,1.253,1.253,0,0,0,.075-.9l-.3-.15m1.873-6.816a7.467,7.467,0,0,0-11.76,8.989L2,16.975l3.97-1.049a7.456,7.456,0,0,0,3.521.9h0a7.385,7.385,0,0,0,7.416-7.416,7.3,7.3,0,0,0-2.1-5.243M12.787,14.653a6.286,6.286,0,0,1-3.3.974h0A6.569,6.569,0,0,1,6.345,14.8l-.225-.15-2.322.6L4.4,13l-.15-.225A6.29,6.29,0,0,1,6.27,4.166a6.093,6.093,0,0,1,8.464,1.948,6.181,6.181,0,0,1-1.948,8.539" transform="translate(-2 -1.975)" fill="#834BA4"/>
</svg>
