<svg xmlns="http://www.w3.org/2000/svg" width="16" height="13.767" viewBox="0 0 16 13.767">
  <path id="Path_66" data-name="Path 66" d="M516.333,291.934v5.209a3.9,3.9,0,0,1-4.279,4.279h-7.442a.558.558,0,1,1,0-1.116h7.442c2.128,0,3.163-1.034,3.163-3.163v-5.209c0-2.128-1.034-3.163-3.163-3.163h-7.442c-2.128,0-3.163,1.034-3.163,3.163a.558.558,0,1,1-1.116,0,3.9,3.9,0,0,1,4.279-4.279h7.442A3.9,3.9,0,0,1,516.333,291.934Zm-8,3.252a2.737,2.737,0,0,0,1.734-.588l2.329-1.86.01-.009a.549.549,0,0,0,.079-.772l-.009-.011a.549.549,0,0,0-.772-.078l-2.329,1.86a1.776,1.776,0,0,1-2.091,0l-2.329-1.86a.556.556,0,1,0-.692.871l2.329,1.86A2.766,2.766,0,0,0,508.333,295.186Zm-2.419,2.7a.562.562,0,0,0-.558-.558h-4.465a.558.558,0,0,0,0,1.116h4.465A.562.562,0,0,0,505.914,297.888Zm-5.023-2.419h2.233a.558.558,0,0,0,0-1.116h-2.233a.558.558,0,0,0,0,1.116Z" transform="translate(-500.333 -287.655)" fill="#834BA4"/>
</svg>
