<svg id="Component_44_32" data-name="Component 44 – 32" xmlns="http://www.w3.org/2000/svg" width="30" height="30" viewBox="0 0 30 30">
  <circle id="Ellipse_27" data-name="Ellipse 27" cx="15" cy="15" r="15" fill="#582e80"/>
  <path id="twitter-alt" d="M14.987,3.474a.636.636,0,0,0-.961-.547,4.758,4.758,0,0,1-1.192.5,3.278,3.278,0,0,0-2.146-.79A3.329,3.329,0,0,0,7.365,5.863a7.018,7.018,0,0,1-4.335-2.5.644.644,0,0,0-.545-.232.635.635,0,0,0-.5.318,3.356,3.356,0,0,0-.154,3.034h0a.662.662,0,0,0-.315.565,1.935,1.935,0,0,0,.017.28,3.3,3.3,0,0,0,1,2.107.635.635,0,0,0-.042.49,3.311,3.311,0,0,0,1.5,1.859,4.749,4.749,0,0,1-2.284.285.636.636,0,0,0-.423,1.166A8.233,8.233,0,0,0,5.742,14.55a8.135,8.135,0,0,0,7.93-5.957,8.157,8.157,0,0,0,.34-2.32c0-.042,0-.084,0-.127a3.67,3.67,0,0,0,.975-2.673Zm-2.1,2.043a.633.633,0,0,0-.148.447c.006.1.006.211.006.31a6.886,6.886,0,0,1-.289,1.96,6.8,6.8,0,0,1-6.709,5.044,6.958,6.958,0,0,1-1.623-.191,6.03,6.03,0,0,0,1.872-.995.636.636,0,0,0-.383-1.136A2.041,2.041,0,0,1,4.2,10.361q.143-.027.283-.067a.636.636,0,0,0-.051-1.236A2.035,2.035,0,0,1,3,7.96a3.372,3.372,0,0,0,.347.029.649.649,0,0,0,.626-.443.636.636,0,0,0-.255-.723,2.033,2.033,0,0,1-.906-1.7c0-.042,0-.084,0-.126A8.279,8.279,0,0,0,8.039,7.21a.649.649,0,0,0,.52-.228A.636.636,0,0,0,8.69,6.43a2.008,2.008,0,0,1-.055-.463,2.055,2.055,0,0,1,2.053-2.053,2.026,2.026,0,0,1,1.492.649.632.632,0,0,0,.586.19,5.9,5.9,0,0,0,.771-.205A4.25,4.25,0,0,1,12.883,5.517Z" transform="translate(7.009 6.358)" fill="#fff"/>
</svg>
