<svg xmlns="http://www.w3.org/2000/svg" width="44" height="44" viewBox="0 0 44 44">
  <circle id="Ellipse_87" data-name="Ellipse 87" cx="22" cy="22" r="22" fill="#834ba4" opacity="0.12"/>
  <path id="Path_216" data-name="Path 216" d="M817.27,69.044a4.041,4.041,0,0,0-2.717-3.023,4.437,4.437,0,0,0-4.411,1.151,4.019,4.019,0,0,0-.986,3.665A2.8,2.8,0,0,0,810,76.259h6.234a3.661,3.661,0,0,0,2.475-.958,3.565,3.565,0,0,0,1.023-3.786A3.618,3.618,0,0,0,817.27,69.044Zm-1.061,5.82h-6.16l-.047,0a1.33,1.33,0,0,1-1.265-1.393v-.006a1.343,1.343,0,0,1,1.293-1.39.6.6,0,0,0,.233-.034h0a.7.7,0,0,0,.417-.892,2.79,2.79,0,0,1,.465-3,3.04,3.04,0,0,1,2.987-.781,2.78,2.78,0,0,1,1.852,2.388.7.7,0,0,0,.6.577,2.178,2.178,0,0,1,1.805,1.591,2.269,2.269,0,0,1-2.187,2.949Zm-4.773,5.6a.691.691,0,0,1,.009.7.727.727,0,0,1-.614.353,7.223,7.223,0,0,1-7.211-7.209.7.7,0,0,1,1.4,0,5.825,5.825,0,0,0,4.494,5.665l-.251-.419a.7.7,0,0,1,1.2-.716Zm12.184-11.74a.688.688,0,0,1-.679.7h-.013a.7.7,0,0,1-.7-.7,5.824,5.824,0,0,0-4.494-5.665l.251.419a.7.7,0,0,1-1.2.716l-.977-1.628a.693.693,0,0,1-.006-.7.681.681,0,0,1,.6-.353A7.222,7.222,0,0,1,823.62,68.727Z" transform="translate(-791.62 -49.518)" fill="#834ba4"/>
</svg>
