<svg xmlns="http://www.w3.org/2000/svg" width="44" height="44" viewBox="0 0 44 44">
  <circle id="Ellipse_89" data-name="Ellipse 89" cx="22" cy="22" r="22" fill="#834ba4" opacity="0.12"/>
  <path id="Path_96" data-name="Path 96" d="M585.371,292.524l-3.24-3.239a7.179,7.179,0,1,0-12.548-.016l-3.256,3.255a1.638,1.638,0,0,0-.418,1.6,1.613,1.613,0,0,0,1.188,1.132l1.531.362a.244.244,0,0,1,.176.176l.325,1.364a1.6,1.6,0,0,0,1.207,1.206,1.693,1.693,0,0,0,.38.046,1.606,1.606,0,0,0,1.234-.578l3.9-4.492,3.9,4.485a1.62,1.62,0,0,0,2.821-.668l.325-1.364a.243.243,0,0,1,.176-.176l1.531-.362a1.613,1.613,0,0,0,1.188-1.132A1.638,1.638,0,0,0,585.371,292.524Zm-9.522-12.529a5.789,5.789,0,0,1,.845,11.517,4.82,4.82,0,0,1-1.717,0l-.058-.011a5.9,5.9,0,0,1-.835-.2c-.076-.024-.153-.045-.227-.072a5.565,5.565,0,0,1-.727-.325c-.092-.048-.182-.1-.27-.151a5.876,5.876,0,0,1-.635-.433c-.075-.059-.144-.125-.215-.188a5.638,5.638,0,0,1-.451-.442c-.058-.063-.12-.122-.175-.188a5.784,5.784,0,0,1,4.466-9.5Zm-4.956,16.944a.231.231,0,0,1-.232.074.236.236,0,0,1-.176-.176l-.325-1.364a1.6,1.6,0,0,0-1.207-1.206l-1.531-.362a.205.205,0,0,1-.167-.158.217.217,0,0,1,.056-.232l3.053-3.053a7.161,7.161,0,0,0,1.126,1.036c.064.049.134.093.2.14a7.145,7.145,0,0,0,.814.5c.164.087.333.166.5.241s.314.133.476.189a7.289,7.289,0,0,0,.771.22c.065.015.126.042.192.055Zm13.392-3.044-1.531.362a1.6,1.6,0,0,0-1.207,1.207l-.325,1.364a.234.234,0,0,1-.176.176.219.219,0,0,1-.241-.084l-3.553-4.081c.078-.016.149-.047.227-.065a7.243,7.243,0,0,0,.82-.234c.11-.04.214-.087.321-.132a6.953,6.953,0,0,0,.736-.351c.118-.065.229-.137.343-.209a7.192,7.192,0,0,0,.6-.421c.129-.1.252-.207.373-.316.157-.141.306-.288.449-.443.071-.075.152-.138.22-.217L584.4,293.5a.239.239,0,0,1,.059.107A.234.234,0,0,1,584.285,293.895Zm-11.03-7.134-.218.956a1.306,1.306,0,0,0,.4,1.476,1.32,1.32,0,0,0,1.531-.065l.882-.52.882.529a1.677,1.677,0,0,0,.872.269,1.033,1.033,0,0,0,.65-.213,1.306,1.306,0,0,0,.4-1.476l-.241-.863.77-.77a1.229,1.229,0,0,0-.705-2.2l-.919-.111-.548-1.1a1.225,1.225,0,0,0-2.32-.009l-.478,1.039-.993.167a1.315,1.315,0,0,0-1.123.854,1.334,1.334,0,0,0,.418,1.346Zm1.179-1.652a1.368,1.368,0,0,0,.947-.705l.464-.928.464.91a1.38,1.38,0,0,0,.956.705l.807.139-.64.64a1.365,1.365,0,0,0-.343,1.206l.167.742-.742-.436a1.352,1.352,0,0,0-1.327,0l-.742.436.176-.742a1.376,1.376,0,0,0-.353-1.206l-.64-.64Z" transform="translate(-553.849 -266.61)" fill="#834ba4"/>
</svg>
