<svg xmlns="http://www.w3.org/2000/svg" width="44" height="44" viewBox="0 0 44 44">
  <circle id="Ellipse_86" data-name="Ellipse 86" cx="22" cy="22" r="22" fill="#834ba4" opacity="0.12"/>
  <path id="Path_97" data-name="Path 97" d="M587.842,329.046H584.25v-3.9a2.518,2.518,0,0,0-2.52-2.516h-2.45a2.519,2.519,0,0,0-2.516,2.52V326.3h-3.587a2.519,2.519,0,0,0-2.516,2.52v5.5a.692.692,0,0,0,.687.687h18.328a.691.691,0,0,0,.687-.687v-2.753A2.518,2.518,0,0,0,587.842,329.046Zm-15.808-.229a1.146,1.146,0,0,1,1.146-1.146h3.583v5.957h-4.729Zm6.112-1.833v-1.833a1.146,1.146,0,0,1,1.146-1.145h2.447a1.145,1.145,0,0,1,1.145,1.145v4.538c0,.016-.009.028-.009.044v3.895h-4.729Zm10.841,6.644H584.25V330.42h3.592a1.145,1.145,0,0,1,1.145,1.146Zm-10.859-14.159-.174.761a1.153,1.153,0,0,0,1.814,1.32l.742-.44.751.449a1.6,1.6,0,0,0,.806.247.925.925,0,0,0,.6-.194,1.247,1.247,0,0,0,.385-1.384l-.174-.761.623-.623a1.248,1.248,0,0,0,.385-1.265,1.235,1.235,0,0,0-1.045-.806l-.8-.137-.449-.9a1.177,1.177,0,0,0-2.181,0l-.449.9-.8.137a1.247,1.247,0,0,0-1.045.806,1.234,1.234,0,0,0,.385,1.265Zm1.145-1.475a1.281,1.281,0,0,0,.889-.66l.348-.687.357.687a1.283,1.283,0,0,0,.889.66l.577.1-.467.467a1.274,1.274,0,0,0-.33,1.136l.11.495-.513-.3a1.218,1.218,0,0,0-.623-.165,1.153,1.153,0,0,0-.614.156l-.513.3.11-.495a1.3,1.3,0,0,0-.33-1.136l-.467-.467Z" transform="translate(-558.66 -303.002)" fill="#834ba4"/>
</svg>
