<svg xmlns="http://www.w3.org/2000/svg" width="44" height="44" viewBox="0 0 44 44">
  <circle id="Ellipse_88" data-name="Ellipse 88" cx="22" cy="22" r="22" fill="#834ba4" opacity="0.12"/>
  <path id="Path_95" data-name="Path 95" d="M504.19,287.047v1.926a.7.7,0,0,1-.695.7h0a.7.7,0,0,1-.7-.7v-1.926a.7.7,0,1,1,1.4,0Zm4.065-2.633a.7.7,0,0,0-.7.7v3.86a.7.7,0,0,0,.7.7h0a.7.7,0,0,0,.695-.7v-3.86A.7.7,0,0,0,508.255,284.415Zm4.763-1.926a.7.7,0,0,0-.7.7v5.786a.7.7,0,0,0,.7.7h.014a.69.69,0,0,0,.684-.7v-5.786A.7.7,0,0,0,513.018,282.489Zm0-5.656h-2.726a.7.7,0,1,0,0,1.4h1.165a16.848,16.848,0,0,1-8.131,4.744l-.007,0a.7.7,0,0,0-.5.845.7.7,0,0,0,.678.53.506.506,0,0,0,.167-.019,18.138,18.138,0,0,0,8.66-4.975v.891a.7.7,0,0,0,.7.7h.008a.688.688,0,0,0,.689-.688v-2.726A.7.7,0,0,0,513.018,276.833Zm5.237,3.628v5.581c0,5.051-2.158,7.209-7.209,7.209h-5.581c-5.05,0-7.209-2.158-7.209-7.209v-5.581c0-5.051,2.159-7.209,7.209-7.209h5.581C516.1,273.252,518.255,275.41,518.255,280.461Zm-1.4,0c0-4.288-1.526-5.814-5.814-5.814h-5.581c-4.287,0-5.814,1.526-5.814,5.814v5.581c0,4.288,1.526,5.814,5.814,5.814h5.581c4.288,0,5.814-1.526,5.814-5.814Z" transform="translate(-486.255 -261.252)" fill="#834ba4"/>
</svg>
