<svg xmlns="http://www.w3.org/2000/svg" width="44" height="44" viewBox="0 0 44 44">
  <circle id="Ellipse_57" data-name="Ellipse 57" cx="22" cy="22" r="22" fill="#834ba4" opacity="0.12"/>
  <path id="Path_24" data-name="Path 24" d="M430.554,194.36h-7.442c-4.112,0-6.279,2.161-6.279,6.262v4.638c0,5.213,2.4,6.262,6.279,6.262h.465a.44.44,0,0,1,.186.093l1.4,1.855a2.019,2.019,0,0,0,3.349,0l1.4-1.855a.243.243,0,0,1,.186-.093h.465c4.112,0,6.279-2.161,6.279-6.262v-4.638C436.833,196.521,434.666,194.36,430.554,194.36Zm4.884,10.9c0,3.321-1.553,4.87-4.884,4.87h-.465a1.629,1.629,0,0,0-1.3.649l-1.4,1.855a.646.646,0,0,1-1.116,0l-1.4-1.855a1.747,1.747,0,0,0-1.3-.649h-.465c-3.442,0-4.884-.677-4.884-4.87v-4.638c0-3.321,1.553-4.87,4.884-4.87h7.442c3.33,0,4.884,1.549,4.884,4.87Zm-11.833-.74a.7.7,0,0,1-.986.983l-1.86-1.855a.7.7,0,0,1,0-.983l1.86-1.855a.7.7,0,0,1,.986.983l-1.367,1.364Zm9.3-1.857a.7.7,0,0,1,0,.983l-1.86,1.855a.7.7,0,1,1-.986-.981l1.367-1.364-1.367-1.366a.7.7,0,0,1,.985-.982Zm-4.5-1.4-1.86,4.332a.7.7,0,0,1-.642.417.756.756,0,0,1-.279-.056.691.691,0,0,1-.368-.906l.006-.012,1.86-4.332a.7.7,0,0,1,1.284.557Z" transform="translate(-404.833 -182.36)" fill="#834ba4"/>
</svg>
