<svg xmlns="http://www.w3.org/2000/svg" width="44" height="44" viewBox="0 0 44 44">
  <circle id="Ellipse_85" data-name="Ellipse 85" cx="22" cy="22" r="22" fill="#834ba4" opacity="0.12"/>
  <path id="Path_98" data-name="Path 98" d="M651.276,324.629h-6.719c.126,1.947.789,2.324,3.193,2.324h3.481c.015,0,.029-.009.045-.009a.7.7,0,0,1,.7.7v4.211a.7.7,0,0,1-.7.7h-3.034a.7.7,0,1,1,0-1.394h2.335v-2.807H647.75c-3.46,0-4.564-1.039-4.609-4.394a.177.177,0,0,1,0-.021c0-.007,0-.011,0-.018,0-.06,0-.116,0-.178V318.16c0-3.532,1.079-4.611,4.614-4.611h9.8c3.535,0,4.614,1.078,4.614,4.611a.7.7,0,0,1-1.4,0c0-2.733-.484-3.216-3.219-3.216h-9.8c-2.735,0-3.219.483-3.219,3.216v5.075h6.744a.7.7,0,1,1,0,1.394Zm11.86-.837V329.1c0,2.584-.874,3.449-3.451,3.449h-3.3c-2.577,0-3.451-.874-3.451-3.449v-5.308c0-2.575.874-3.449,3.451-3.449h3.3C662.262,320.344,663.136,321.218,663.136,323.793Zm-1.4,0c0-1.822-.233-2.054-2.056-2.054h-3.3c-1.823,0-2.056.232-2.056,2.054V329.1c0,1.822.233,2.054,2.056,2.054h3.3c1.823,0,2.056-.232,2.056-2.054Zm-3.163,4.034c-.047-.028-.1-.056-.158-.084l-.167-.056a.97.97,0,0,0-.846.264.938.938,0,0,0-.27.651,1.009,1.009,0,0,0,.074.363.918.918,0,0,0,.2.3.938.938,0,0,0,.66.27.658.658,0,0,0,.186-.019,1.17,1.17,0,0,0,.167-.046.874.874,0,0,0,.158-.093.568.568,0,0,0,.149-.112.933.933,0,0,0,.2-.3A1.009,1.009,0,0,0,659,328.6.922.922,0,0,0,658.578,327.827Z" transform="translate(-631.136 -300.549)" fill="#834ba4"/>
</svg>
