<svg xmlns="http://www.w3.org/2000/svg" width="12.129" height="17" viewBox="0 0 12.129 17">
  <path id="Path_1981" data-name="Path 1981" d="M902.721,146.02a.437.437,0,0,1,.144,0h.088a4.122,4.122,0,1,0-.232,0Zm.08-7.106a2.954,2.954,0,0,1,.144,5.9,1.246,1.246,0,0,0-.256,0,2.953,2.953,0,0,1,.112-5.9Zm4.478,8.957a8.482,8.482,0,0,0-8.684,0,3.222,3.222,0,0,0,0,5.7,8.446,8.446,0,0,0,8.684,0,3.222,3.222,0,0,0,0-5.7Zm-.665,4.711a7.243,7.243,0,0,1-7.354,0,2.037,2.037,0,0,1,0-3.7,7.277,7.277,0,0,1,7.354,0,2.037,2.037,0,0,1,0,3.7Z" transform="translate(-896.873 -137.778)" fill="#2c2a4a"/>
</svg>
