<svg xmlns="http://www.w3.org/2000/svg" width="31.112" height="32" viewBox="0 0 31.112 32">
  <path id="Path_103" data-name="Path 103" d="M233.311,521.616a.824.824,0,0,1,.271,0h.166a7.759,7.759,0,1,0-.437,0Zm.151-13.377a5.56,5.56,0,0,1,.271,11.115,2.6,2.6,0,0,0-.483,0,5.559,5.559,0,0,1,.211-11.115Zm15.322,6.928a4.152,4.152,0,0,0-4.147-3.927,1.117,1.117,0,0,1-1.131-1.1v-.014a1.139,1.139,0,0,1,1.131-1.131,6.412,6.412,0,0,1,.241,12.819h-.045a.379.379,0,0,1-.136-.015,1.193,1.193,0,0,1-1.318-1,1.1,1.1,0,0,1,.926-1.249l.015,0c.181-.015.377-.015.543-.015A4.149,4.149,0,0,0,248.784,515.167Zm-6.892,9.932a15.974,15.974,0,0,0-16.348,0,6.541,6.541,0,0,0-3.242,5.384,6.472,6.472,0,0,0,3.242,5.354,15.9,15.9,0,0,0,16.348,0,6.066,6.066,0,0,0,0-10.738Zm-1.252,8.868a13.628,13.628,0,0,1-13.844,0,3.835,3.835,0,0,1,0-6.967,13.7,13.7,0,0,1,13.844,0,3.835,3.835,0,0,1,0,6.967Zm12.773-4.253a5.248,5.248,0,0,1-2.217,4.132,8.13,8.13,0,0,1-3.408,1.508.686.686,0,0,1-.241.03,1.113,1.113,0,0,1-1.1-.9,1.147,1.147,0,0,1,.875-1.342,6.083,6.083,0,0,0,2.5-1.1,2.69,2.69,0,0,0,.015-4.63,6.311,6.311,0,0,0-2.473-1.1,1.136,1.136,0,0,1,.5-2.217,8.425,8.425,0,0,1,3.348,1.508A5.186,5.186,0,0,1,253.414,529.714Z" transform="translate(-222.302 -506.102)" fill="#582e80"/>
</svg>
