<svg xmlns="http://www.w3.org/2000/svg" width="33.563" height="32" viewBox="0 0 33.563 32">
  <path id="Path_104" data-name="Path 104" d="M138.658,510.995c-1.3-2.076-3.606-3.434-7.259-4.293l-2.607-.609c-3.54-.832-8.469-1.31-11.213,3.707-.47.109-.941.215-1.4.367l-2.466.8c-6.837,2.217-8.82,6.088-6.6,12.957l2,6.172c1.639,5.073,4.2,7.477,8.211,7.477a16.06,16.06,0,0,0,4.761-.849l2.466-.812a15.425,15.425,0,0,0,3.587-1.619c.287.019.573.044.862.042,4.621,0,7.415-2.7,8.757-8.414l1.53-6.525C140.141,515.74,139.954,513.071,138.658,510.995Zm-17.312,23.5c-5.573,1.8-8.2.453-10.006-5.12l-2-6.166c-1.8-5.588-.468-8.211,5.1-10.006l2.012-.656c-.144.468-.287.935-.389,1.414l-1.53,6.541c-1.477,6.285.145,9.986,5.4,11.953a20.147,20.147,0,0,0,2.485.745l1.116.264.535.126c-.092.031-.17.062-.262.094Zm15.637-15.63-1.53,6.525c-1.186,5.1-3.294,6.962-7.54,6.541a16.038,16.038,0,0,1-2.357-.39l-2.622-.624a12.638,12.638,0,0,1-4.3-1.719c-2.292-1.614-2.75-4.1-1.8-8.149l1.53-6.541a14.514,14.514,0,0,1,1.062-3.184c.008-.019,0-.041.009-.059a5.394,5.394,0,0,1,5.356-3.358,14.921,14.921,0,0,1,3.455.468l2.6.609c3.028.7,4.87,1.733,5.807,3.247S137.686,515.851,136.983,518.864Zm-4.235-.51a1.164,1.164,0,0,1-1.13.884h0a2.129,2.129,0,0,1-.3-.031l-7.566-1.92a1.168,1.168,0,0,1,.578-2.263l7.571,1.92A1.165,1.165,0,0,1,132.748,518.353Zm-4.58,5.286a1.138,1.138,0,0,1-1.124.874,2.1,2.1,0,0,1-.3-.031l-4.543-1.155a1.168,1.168,0,0,1,.578-2.263l4.543,1.155A1.171,1.171,0,0,1,128.168,523.639Z" transform="translate(-106.244 -505.57)" fill="#582e80"/>
</svg>
