<svg xmlns="http://www.w3.org/2000/svg" width="29.985" height="32" viewBox="0 0 29.985 32">
  <path id="Path_105" data-name="Path 105" d="M160.562,522.572a8.4,8.4,0,1,0-8.4-8.4A8.41,8.41,0,0,0,160.562,522.572Zm0-14.612a6.21,6.21,0,1,1-6.21,6.21A6.222,6.222,0,0,1,160.562,507.961Zm3.741,19.492a13.821,13.821,0,0,0-3.741-.5c-6.312,0-11.454,4.091-11.454,9.132a1.1,1.1,0,1,1-2.192,0c0-6.239,6.122-11.324,13.646-11.324a15.917,15.917,0,0,1,4.327.584,1.092,1.092,0,1,1-.586,2.1Zm12.53,2.966a2.108,2.108,0,0,0-1.767-1.344l-1.448-.175-.861-1.724a1.929,1.929,0,0,0-3.653-.015l-.753,1.636-1.565.263a2.069,2.069,0,0,0-1.767,1.344,2.1,2.1,0,0,0,.656,2.119l1.17,1.081-.345,1.505a1.93,1.93,0,0,0,3.041,2.221l1.388-.818,1.388.833a2.647,2.647,0,0,0,1.374.424,1.623,1.623,0,0,0,1.021-.336,2.06,2.06,0,0,0,.63-2.323l-.38-1.359,1.211-1.213A2.1,2.1,0,0,0,176.832,530.419Zm-3.41,1.783a2.144,2.144,0,0,0-.542,1.9l.264,1.169-1.17-.687a2.129,2.129,0,0,0-2.089,0l-1.167.687.278-1.169a2.171,2.171,0,0,0-.555-1.9l-1.008-1.008,1.27-.19a2.158,2.158,0,0,0,1.492-1.11l.731-1.461.731,1.432a2.169,2.169,0,0,0,1.5,1.11l1.273.219Z" transform="translate(-146.916 -505.769)" fill="#582e80"/>
</svg>
