<svg xmlns="http://www.w3.org/2000/svg" width="32" height="32" viewBox="0 0 32 32">
  <path id="Path_102" data-name="Path 102" d="M238.366,518.943a.668.668,0,0,0,.183-.007,1.262,1.262,0,0,0,.142.009l.042,0a4.97,4.97,0,1,0-.367,0Zm.183-7.686v0l.1,0a2.728,2.728,0,0,1,.079,5.45,1.93,1.93,0,0,0-.356,0,2.73,2.73,0,0,1,.175-5.454Zm4.979,17.321a9.364,9.364,0,0,1-4.834,1.333,9.525,9.525,0,0,1-1.741-.16,1.115,1.115,0,1,1,.406-2.194,7.278,7.278,0,0,0,5.09-.93,1.751,1.751,0,0,0,.873-2.323l-.017-.035a1.734,1.734,0,0,0-.775-.775,7.44,7.44,0,0,0-5.214-.958,1.116,1.116,0,1,1-.414-2.194,9.568,9.568,0,0,1,6.7,1.2,3.906,3.906,0,0,1,1.7,1.737A3.958,3.958,0,0,1,243.528,528.578Zm-22.813-9.633h.037a.523.523,0,0,0,.118-.013,1.176,1.176,0,0,0,.212.013,4.97,4.97,0,1,0-.367,0Zm.006-7.679a2.728,2.728,0,1,1,.356,5.444,1.45,1.45,0,0,0-.177-.007h0c-.061,0-.12,0-.179.007a2.728,2.728,0,0,1,0-5.444Zm1.776,18.487a9.355,9.355,0,0,1-1.726.158,9.531,9.531,0,0,1-4.926-1.372,3.931,3.931,0,0,1-1.7-5.264,3.982,3.982,0,0,1,1.78-1.774,9.495,9.495,0,0,1,6.619-1.155,1.116,1.116,0,1,1-.415,2.194,7.35,7.35,0,0,0-5.133.915,1.843,1.843,0,0,0-.851.816,1.728,1.728,0,0,0,.775,2.315,7.379,7.379,0,0,0,5.171.972,1.115,1.115,0,1,1,.4,2.194Zm6.927.3a.763.763,0,0,0,.183-.009,1.235,1.235,0,0,0,.142.009h.042a4.972,4.972,0,1,0-.367,0Zm.181-7.684v0a.669.669,0,0,1,.1.006,2.728,2.728,0,0,1,.079,5.45,1.958,1.958,0,0,0-.362,0,2.729,2.729,0,0,1,.179-5.452Zm5.051,10.294a9.682,9.682,0,0,0-9.782-.018,3.959,3.959,0,0,0-1.741,5.288,3.913,3.913,0,0,0,1.706,1.737,9.633,9.633,0,0,0,4.93,1.357,9.392,9.392,0,0,0,4.817-1.319,3.951,3.951,0,0,0,.07-7.045Zm-.2,4.052a1.784,1.784,0,0,1-.942,1.039,7.4,7.4,0,0,1-7.6-.041,1.726,1.726,0,0,1,0-3.091.772.772,0,0,0,.068-.037,7.365,7.365,0,0,1,3.752-1.022v0a7.63,7.63,0,0,1,3.861,1.063,1.752,1.752,0,0,1,.775.775A1.7,1.7,0,0,1,234.459,536.715Z" transform="translate(-213.722 -509.027)" fill="#582e80"/>
</svg>
