<svg xmlns="http://www.w3.org/2000/svg" xmlns:xlink="http://www.w3.org/1999/xlink" width="120.442" height="38" viewBox="0 0 120.442 38">
  <defs>
    <clipPath id="clip-path">
      <path id="Path_24" data-name="Path 24" d="M133.833,162.951l-14.016,8.093a2.814,2.814,0,0,0-1.407,2.437v16.185a2.816,2.816,0,0,0,1.407,2.438l14.016,8.092a2.813,2.813,0,0,0,2.815,0l14.017-8.092a2.817,2.817,0,0,0,1.408-2.438V173.482a2.815,2.815,0,0,0-1.408-2.437l-14.017-8.093a2.815,2.815,0,0,0-2.815,0" transform="translate(-118.409 -162.574)" fill="none"/>
    </clipPath>
  </defs>
  <g id="Group_892" data-name="Group 892" transform="translate(-118.409 -162.574)">
    <g id="Group_13" data-name="Group 13" transform="translate(118.409 162.574)">
      <g id="Group_12" data-name="Group 12" clip-path="url(#clip-path)">
        <path id="Path_18" data-name="Path 18" d="M119.816,171.044l14.016-8.093a2.816,2.816,0,0,1,2.815,0l14.017,8.093a2.815,2.815,0,0,1,1.407,2.437v16.185a2.816,2.816,0,0,1-1.407,2.438L136.648,200.2a2.816,2.816,0,0,1-2.815,0L119.816,192.1a2.815,2.815,0,0,1-1.407-2.438V173.482a2.814,2.814,0,0,1,1.407-2.437" transform="translate(-118.409 -162.574)" fill="#38b449"/>
        <path id="Path_19" data-name="Path 19" d="M151.6,189.536a3.609,3.609,0,0,0-.642-.574,1.818,1.818,0,0,1-.749-1.5v-2.327a1.818,1.818,0,0,1,.749-1.5,3.614,3.614,0,1,0-5.67-3.262,1.842,1.842,0,0,1-.931,1.43l-12.093,6.982a.911.911,0,0,1-.91,0l-.013-.007a.918.918,0,0,1-.46-.8V185.18a2,2,0,0,1,.833-1.6,3.6,3.6,0,0,0,1.435-2.537,1.84,1.84,0,0,1,.925-1.4l1.945-1.123a1.83,1.83,0,0,1,1.679-.1,3.618,3.618,0,1,0-2.072-3.607,1.837,1.837,0,0,1-.927,1.413l-1.9,1.1a1.832,1.832,0,0,1-1.7.094,3.614,3.614,0,0,0-4.247,5.669,3.663,3.663,0,0,0,.624.555,1.826,1.826,0,0,1,.752,1.5V187.2a1.994,1.994,0,0,1-.753,1.762,3.673,3.673,0,0,0-.767.727,3.614,3.614,0,0,0,5.388,4.8,3.589,3.589,0,0,0,1.055-2.271,1.831,1.831,0,0,1,.929-1.422l12.093-6.982a.912.912,0,0,1,.911,0l.013.007a.92.92,0,0,1,.46.8v2.8a1.893,1.893,0,0,1-.763,1.553,3.542,3.542,0,0,0-.456.383,3.587,3.587,0,0,0-1.049,2.211,1.832,1.832,0,0,1-.925,1.393l-1.945,1.123a1.83,1.83,0,0,1-1.679.1,3.62,3.62,0,1,0,2.072,3.607,1.839,1.839,0,0,1,.928-1.413l1.9-1.1a1.836,1.836,0,0,1,1.7-.092,3.614,3.614,0,0,0,4.258-5.654" transform="translate(-122.39 -167.3)" fill="#fff"/>
        <path id="Path_20" data-name="Path 20" d="M152.881,184.6a3.628,3.628,0,0,1,.467.383c.028.027.056.055.083.083a3.611,3.611,0,0,1-.524,5.474,1.817,1.817,0,0,0-.748,1.5v2.328a1.817,1.817,0,0,0,.748,1.5,3.638,3.638,0,0,1,.6,5.394l-.018.02-.03.032-.022.023a3.6,3.6,0,0,1-2.565,1.1h-.059a3.614,3.614,0,0,1-1.52-.345l-.056-.025a1.752,1.752,0,0,0-.669-.141h-.04a1.9,1.9,0,0,0-.838.205l-.016.008-.081.044-1.9,1.1a1.841,1.841,0,0,0-.928,1.413,3.586,3.586,0,0,1-1.028,2.213l-.017.017h0l-.048.047a3.6,3.6,0,0,1-2.473,1.007h-.041a3.6,3.6,0,0,1-2.513-1.029l-.051-.051-.024-.024-.043-.045a3.644,3.644,0,0,1-.078-4.844c.05-.058.1-.113.156-.167a3.6,3.6,0,0,1,2.555-1.067h.016a3.624,3.624,0,0,1,1.517.336l.079.034a1.717,1.717,0,0,0,.624.124h.039a1.912,1.912,0,0,0,.84-.207h0l.019-.01.077-.042,1.944-1.123a1.833,1.833,0,0,0,.926-1.394,3.6,3.6,0,0,1,1.5-2.594,1.893,1.893,0,0,0,.764-1.553v-2.8a.92.92,0,0,0-.461-.8l-.012-.007-.04-.022-.014-.007a.917.917,0,0,0-.394-.093h-.015a.912.912,0,0,0-.448.122L136.034,197.7a1.831,1.831,0,0,0-.929,1.422,3.585,3.585,0,0,1-1.055,2.271c-.077.076-.157.149-.238.217a3.616,3.616,0,0,1-4.172.312l0,.006,15.105,8.649,11.851-6.843A2.816,2.816,0,0,0,158,201.294V187.53Z" transform="translate(-124.335 -174.201)" fill="#298336"/>
        <path id="Path_21" data-name="Path 21" d="M152.88,184.592a3.71,3.71,0,0,1,.473.386,3.669,3.669,0,0,0-.467-.383Zm1.56,2.984a3.565,3.565,0,0,1-1.527,2.959,1.819,1.819,0,0,0-.749,1.5,1.819,1.819,0,0,1,.749-1.5,3.565,3.565,0,0,0,1.527-2.959m-5.852,3.012h0m-.008,0a.917.917,0,0,0-.449.122l-12.093,6.983a1.828,1.828,0,0,0-.929,1.421,3.593,3.593,0,0,1-1.055,2.272,3.59,3.59,0,0,0,1.055-2.272,1.828,1.828,0,0,1,.929-1.421l12.093-6.983a.917.917,0,0,1,.449-.122m.3.047a1,1,0,0,1,.11.045,1,1,0,0,0-.11-.045m.125.053.04.021.013.007a.919.919,0,0,1,.46.8v0a.919.919,0,0,0-.46-.8l-.013-.007-.04-.021m5.439,8.123a3.6,3.6,0,0,1-.931,2.442,3.6,3.6,0,0,0,.931-2.442m-13.268,1.933h0m-.008,0a3.6,3.6,0,0,0-2.555,1.067,3.6,3.6,0,0,1,2.555-1.067m3.134.278-.019.01.019-.01m-.02.011a1.916,1.916,0,0,1-.84.206,1.916,1.916,0,0,0,.84-.206m-1.582.048.079.034-.079-.034m.7.158h0m10.092.034-.03.032.03-.032m-.052.055a3.6,3.6,0,0,1-2.566,1.1,3.6,3.6,0,0,0,2.566-1.1m-19.625.274a3.61,3.61,0,0,1-4.17.308l0,0a3.616,3.616,0,0,0,4.172-.312m14.732.319h0m-.016,0a1.9,1.9,0,0,0-.838.205,1.9,1.9,0,0,1,.838-.205m.708.141.056.025-.056-.025m-1.563.073c-.027.014-.054.028-.081.044l-1.9,1.1a1.838,1.838,0,0,0-.928,1.413,3.582,3.582,0,0,1-1.028,2.213,3.582,3.582,0,0,0,1.028-2.213,1.838,1.838,0,0,1,.928-1.413l1.9-1.1c.026-.016.054-.03.081-.044m3.139.3h0m-13.244,1.941a3.606,3.606,0,0,0,.961,2.448l.043.045-.043-.045a3.606,3.606,0,0,1-.961-2.448m1.027,2.517.051.051-.051-.051m5.126.027h0Zm-.048.047a3.606,3.606,0,0,1-2.473,1.006,3.606,3.606,0,0,0,2.473-1.006m-2.514,1.006h0" transform="translate(-124.34 -174.197)" fill="#bababa"/>
        <path id="Path_22" data-name="Path 22" d="M146.823,172.919c.062.044.123.09.183.138h0l.014.011.008.008.007.006.013.011,0,0a3.73,3.73,0,0,1,.333.315,3.644,3.644,0,0,1,.078,4.843l-.017.019-.073.08-.027.028-.006.007a3.6,3.6,0,0,1-2.588,1.1h-.016a3.618,3.618,0,0,1-1.426-.3l-.034-.015-.019-.008-.037-.017-.073-.032a1.729,1.729,0,0,0-.63-.126h-.039a1.91,1.91,0,0,0-.937.259l-1.945,1.122a1.842,1.842,0,0,0-.925,1.4,3.6,3.6,0,0,1-1.436,2.537,2.006,2.006,0,0,0-.833,1.6v2.807a.918.918,0,0,0,.46.8l.013.007.024.014h0a.912.912,0,0,0,.427.107h.008a.907.907,0,0,0,.448-.122l12.093-6.982a1.842,1.842,0,0,0,.931-1.43,3.587,3.587,0,0,1,1.031-2.242q.116-.118.239-.221a3.616,3.616,0,0,1,3.856-.511Z" transform="translate(-127.908 -168.035)" fill="#298336"/>
        <path id="Path_23" data-name="Path 23" d="M146.821,172.917c.063.044.124.091.185.139q-.09-.072-.183-.138Zm.185.139.014.012-.014-.012m.023.019.008.006-.008-.006m.02.017,0,0,0,0m1.3,2.766a3.6,3.6,0,0,1-.882,2.4l-.017.019.017-.019a3.6,3.6,0,0,0,.882-2.4m6.062,1.941a3.605,3.605,0,0,0-2.327.849,3.616,3.616,0,0,1,3.906-.482l-.05-.029a3.61,3.61,0,0,0-1.528-.338m-7.034.553-.027.029.027-.029m-.034.035a3.6,3.6,0,0,1-2.588,1.1,3.6,3.6,0,0,0,2.588-1.1m-4.847.606h0m-.016,0a1.917,1.917,0,0,0-.937.259l-1.945,1.123a1.84,1.84,0,0,0-.925,1.4,3.6,3.6,0,0,1-1.435,2.538,2,2,0,0,0-.833,1.6,2,2,0,0,1,.833-1.6,3.6,3.6,0,0,0,1.435-2.538,1.84,1.84,0,0,1,.925-1.4l1.945-1.123a1.917,1.917,0,0,1,.937-.259m.668.126.073.032.038.017-.038-.017-.073-.032m.13.058.034.015-.034-.015m1.459.311h0m-6.951,10.035a.912.912,0,0,1-.449.122.912.912,0,0,0,.449-.122m-.885.015h0m.43.108" transform="translate(-127.908 -168.034)" fill="#bababa"/>
      </g>
    </g>
    <path id="Path_25" data-name="Path 25" d="M183.177,234.029v-.252h1.272v.252h-.5v1.461h-.279v-1.461Z" transform="translate(-34.191 -37.588)" fill="#23393f"/>
    <path id="Path_26" data-name="Path 26" d="M187.816,233.767h.1v1.718h-.286v-1.072l-.494.634H187.1l-.5-.634v1.072h-.287v-1.718h.106l.7.886Z" transform="translate(-35.849 -37.582)" fill="#23393f"/>
    <g id="Group_15" data-name="Group 15" transform="translate(160.463 169.42)">
      <path id="Path_27" data-name="Path 27" d="M209.774,180.78v-.019a1.683,1.683,0,0,1,3.364,0v.057a.57.57,0,0,0,.643.642h.813a.64.64,0,0,0,.718-.718V180.7a3.516,3.516,0,0,0-3.856-3.629c-2.268,0-3.856,1.342-3.856,3.61v.019c0,4.857,5.689,3.421,5.689,6.294v.019c0,1.172-.812,1.644-1.814,1.644A1.6,1.6,0,0,1,209.661,187v-.057a.571.571,0,0,0-.643-.643h-.812a.64.64,0,0,0-.718.719v.076c0,2.268,1.663,3.629,3.931,3.629,2.382,0,4.045-1.3,4.045-3.61v-.019c0-4.857-5.689-3.44-5.689-6.313" transform="translate(-207.487 -177.075)" fill="#23393f"/>
      <path id="Path_28" data-name="Path 28" d="M232.216,180.365a2.3,2.3,0,0,0-1.871.794v-3.364a.6.6,0,0,0-.68-.681h-.68a.6.6,0,0,0-.68.681v12.059a.6.6,0,0,0,.68.681h.68a.6.6,0,0,0,.68-.681v-6.01c0-1.21.567-1.569,1.267-1.569s1.266.359,1.266,1.569v6.01a.6.6,0,0,0,.681.681h.68a.6.6,0,0,0,.681-.681v-6.37c0-2.116-1.153-3.118-2.7-3.118" transform="translate(-218.476 -177.096)" fill="#23393f"/>
      <path id="Path_29" data-name="Path 29" d="M250.411,190.9c0,1.21-.567,1.569-1.266,1.569a1.3,1.3,0,0,1,0-2.609h1.266Zm-1.266-6.9a2.838,2.838,0,0,0-3.119,2.816.6.6,0,0,0,.68.68h.775a.528.528,0,0,0,.586-.586.974.974,0,0,1,1.078-1c.7,0,1.266.359,1.266,1.569v.85h-1.266c-2.136,0-3.308,1.116-3.308,3.005v.038c0,1.89,1.4,3.005,3.308,3.005a3.077,3.077,0,0,0,3.307-3.345v-3.686A3.076,3.076,0,0,0,249.145,184" transform="translate(-227.732 -180.731)" fill="#23393f"/>
      <path id="Path_30" data-name="Path 30" d="M267.681,184.317a4.6,4.6,0,0,0-.964-.075c-1.89,0-2.987.794-2.987,2.948v6.426a.6.6,0,0,0,.681.68h.68a.6.6,0,0,0,.681-.68v-6.275c0-.889.359-1.191,1.228-1.191a3.355,3.355,0,0,1,.586.057c.454.076.68-.208.68-.661V185a.614.614,0,0,0-.586-.68" transform="translate(-237.177 -180.858)" fill="#23393f"/>
      <path id="Path_31" data-name="Path 31" d="M279.833,188.1H277.3v-.624c0-1.21.567-1.569,1.266-1.569s1.266.359,1.266,1.569Zm-1.266-4.1a3.076,3.076,0,0,0-3.308,3.345v3.686a3.077,3.077,0,0,0,3.308,3.345,2.9,2.9,0,0,0,3.213-2.873.6.6,0,0,0-.68-.681h-.775a.529.529,0,0,0-.586.586,1.046,1.046,0,0,1-1.172,1.059c-.7,0-1.266-.359-1.266-1.569v-1.266h3.893a.6.6,0,0,0,.68-.68v-1.607A3.076,3.076,0,0,0,278.567,184" transform="translate(-243.264 -180.731)" fill="#23393f"/>
      <path id="Path_32" data-name="Path 32" d="M297.326,187.264c0,1.21-.567,1.569-1.266,1.569s-1.266-.359-1.266-1.569v-3.421c0-1.21.567-1.569,1.266-1.569s1.266.359,1.266,1.569Zm1.361-10.15h-.68a.6.6,0,0,0-.681.68v3.364a2.326,2.326,0,0,0-1.87-.793c-1.55,0-2.7,1-2.7,3.118V187.4a3.308,3.308,0,1,0,6.615,0v-9.6a.6.6,0,0,0-.681-.68" transform="translate(-252.498 -177.096)" fill="#23393f"/>
      <path id="Path_33" data-name="Path 33" d="M316.911,177.515h-6.6a.64.64,0,0,0-.718.718v.624a.64.64,0,0,0,.718.719h2.211v10.452a.64.64,0,0,0,.718.718h.737a.64.64,0,0,0,.719-.718V179.575h2.211a.64.64,0,0,0,.718-.719v-.624a.64.64,0,0,0-.718-.718" transform="translate(-261.39 -177.307)" fill="#23393f"/>
      <path id="Path_34" data-name="Path 34" d="M332.224,188.1h-2.532v-.624c0-1.21.567-1.569,1.266-1.569s1.266.359,1.266,1.569Zm-1.266-4.1a3.076,3.076,0,0,0-3.308,3.345v3.686a3.077,3.077,0,0,0,3.308,3.345,2.9,2.9,0,0,0,3.213-2.873.6.6,0,0,0-.68-.681h-.775a.529.529,0,0,0-.586.586,1.046,1.046,0,0,1-1.172,1.059c-.7,0-1.266-.359-1.266-1.569v-1.266h3.893a.6.6,0,0,0,.68-.68v-1.607A3.076,3.076,0,0,0,330.958,184" transform="translate(-270.921 -180.731)" fill="#23393f"/>
      <path id="Path_35" data-name="Path 35" d="M346.85,185.91a1.133,1.133,0,0,1,1.172,1.248.529.529,0,0,0,.586.586h.775a.6.6,0,0,0,.68-.681A2.978,2.978,0,0,0,346.85,184a3.076,3.076,0,0,0-3.308,3.345v3.686a3.077,3.077,0,0,0,3.308,3.345,2.978,2.978,0,0,0,3.213-3.062.6.6,0,0,0-.68-.68h-.775a.528.528,0,0,0-.586.586,1.133,1.133,0,0,1-1.172,1.248c-.7,0-1.266-.359-1.266-1.569v-3.421c0-1.21.567-1.569,1.266-1.569" transform="translate(-279.31 -180.731)" fill="#23393f"/>
      <path id="Path_36" data-name="Path 36" d="M363.427,180.365a2.3,2.3,0,0,0-1.871.794v-3.364a.6.6,0,0,0-.68-.681H360.2a.6.6,0,0,0-.68.681v12.059a.6.6,0,0,0,.68.681h.681a.6.6,0,0,0,.68-.681v-6.01c0-1.21.568-1.569,1.267-1.569s1.266.359,1.266,1.569v6.01a.6.6,0,0,0,.681.681h.68a.6.6,0,0,0,.681-.681v-6.37c0-2.116-1.153-3.118-2.7-3.118" transform="translate(-287.742 -177.096)" fill="#23393f"/>
    </g>
    <g id="Group_16" data-name="Group 16" transform="translate(160.463 185.398)">
      <rect id="Rectangle_20" data-name="Rectangle 20" width="0.858" height="0.88" transform="translate(0.745 1.159)" fill="#415961"/>
      <rect id="Rectangle_21" data-name="Rectangle 21" width="0.858" height="0.88" transform="translate(2.017 1.159)" fill="#415961"/>
      <path id="Path_37" data-name="Path 37" d="M210.038,216.866a.822.822,0,0,1-.256.662.921.921,0,0,1-.617.219.861.861,0,0,1-.58-.2.8.8,0,0,1-.233-.643.983.983,0,0,1,.245-.708.8.8,0,0,1,.6-.256h.843Zm9.764-1.189a1.412,1.412,0,0,0-.591-.365,2.755,2.755,0,0,0-.884-.125H216l1.783-1.813h-1.038l-1.806,1.813v.76h3.423a.958.958,0,0,1,.707.271,1.2,1.2,0,0,1,.271.873v.888h-7.837a.585.585,0,0,1-.448-.173.893.893,0,0,1-.162-.609v-2.009h-1.7a1.985,1.985,0,0,0-.753.132,1.438,1.438,0,0,0-.534.365,1.534,1.534,0,0,0-.316.546,2.1,2.1,0,0,0-.105.674,1.568,1.568,0,0,0,.154.722,1.467,1.467,0,0,0,.4.493,1.657,1.657,0,0,0,.542.282,2.025,2.025,0,0,0,.584.09,1.2,1.2,0,0,0,.662-.185,1.656,1.656,0,0,0,.459-.425,1.674,1.674,0,0,0,.173.339,1.13,1.13,0,0,0,.26.275,1.351,1.351,0,0,0,.35.188,1.265,1.265,0,0,0,.437.072h8.725v-1.663a2.98,2.98,0,0,0-.1-.816,1.426,1.426,0,0,0-.327-.6" transform="translate(-207.487 -212.215)" fill="#415961"/>
      <rect id="Rectangle_22" data-name="Rectangle 22" width="0.858" height="0.88" transform="translate(18.235 1.159)" fill="#415961"/>
      <rect id="Rectangle_23" data-name="Rectangle 23" width="0.858" height="0.88" transform="translate(19.507 1.159)" fill="#415961"/>
      <rect id="Rectangle_24" data-name="Rectangle 24" width="0.858" height="0.88" transform="translate(25.767 1.159)" fill="#415961"/>
      <rect id="Rectangle_25" data-name="Rectangle 25" width="0.858" height="0.88" transform="translate(24.495 1.159)" fill="#415961"/>
      <path id="Path_38" data-name="Path 38" d="M261.832,210.919h-.858l-.248.88h.858Z" transform="translate(-235.592 -210.919)" fill="#415961"/>
      <path id="Path_39" data-name="Path 39" d="M256.2,217.934a1.044,1.044,0,0,1-1.467,0,1.2,1.2,0,0,1-.252-.8,1.228,1.228,0,0,1,.249-.8,1.044,1.044,0,0,1,1.475,0,1.23,1.23,0,0,1,.248.8,1.2,1.2,0,0,1-.252.8m4.292.045h-2.437a.866.866,0,0,1-.271-.042.574.574,0,0,1-.226-.135.67.67,0,0,1-.158-.256,1.192,1.192,0,0,1-.06-.41,2.177,2.177,0,0,0-.139-.813,1.577,1.577,0,0,0-.391-.579,1.608,1.608,0,0,0-.595-.347,2.539,2.539,0,0,0-1.5,0,1.608,1.608,0,0,0-.595.347,1.571,1.571,0,0,0-.391.579,2.168,2.168,0,0,0-.139.813,1.191,1.191,0,0,1-.06.41.675.675,0,0,1-.158.256.574.574,0,0,1-.226.135.866.866,0,0,1-.271.042h-1.759a.623.623,0,0,1-.173-.026.457.457,0,0,1-.169-.094.527.527,0,0,1-.132-.181.651.651,0,0,1-.053-.279v-1.851h-.858v1.873a.5.5,0,0,1-.207.463.957.957,0,0,1-.5.124,1.076,1.076,0,0,1-.55-.124.493.493,0,0,1-.211-.463v-1.716h-.858v1.716a.637.637,0,0,1-.057.286.5.5,0,0,1-.147.181.538.538,0,0,1-.211.094,1.2,1.2,0,0,1-.256.026,1.352,1.352,0,0,1-.271-.026.577.577,0,0,1-.222-.094.489.489,0,0,1-.151-.181.643.643,0,0,1-.056-.286V215.85h-.858v1.542a.672.672,0,0,1-.053.286.526.526,0,0,1-.132.181.457.457,0,0,1-.169.094.6.6,0,0,1-.166.026h-1.872a.646.646,0,0,1-.263-.06.912.912,0,0,1-.252-.169.879.879,0,0,1-.192-.267.807.807,0,0,1-.076-.354v-1.58h-.858v1.843a.671.671,0,0,1-.053.286.526.526,0,0,1-.132.181.456.456,0,0,1-.169.094.6.6,0,0,1-.166.026h-2.4a1.773,1.773,0,0,1-.312-.026.646.646,0,0,1-.256-.1.542.542,0,0,1-.173-.2.7.7,0,0,1-.064-.32v-1.783h-.858v3.235a3.052,3.052,0,0,1-.038.534.928.928,0,0,1-.105.313.345.345,0,0,1-.166.147.636.636,0,0,1-.226.037,1.156,1.156,0,0,1-.564-.128v.722a1.156,1.156,0,0,0,.173.068,1.143,1.143,0,0,0,.2.049,1.858,1.858,0,0,0,.278.018,1.108,1.108,0,0,0,1-.455,2.389,2.389,0,0,0,.3-1.306v-.5h.03a.614.614,0,0,0,.128.2.79.79,0,0,0,.192.147,1.117,1.117,0,0,0,.226.094.8.8,0,0,0,.222.034h2.4a1.514,1.514,0,0,0,.674-.169,1.221,1.221,0,0,0,.538-.531.974.974,0,0,0,.139.245,1.24,1.24,0,0,0,.222.226,1.186,1.186,0,0,0,.278.166.8.8,0,0,0,.316.064h2.271a.848.848,0,0,0,.8-.4h.03a.65.65,0,0,0,.4.32,2.027,2.027,0,0,0,.673.1,1.92,1.92,0,0,0,.711-.109.854.854,0,0,0,.41-.335h.03a.611.611,0,0,0,.376.335,2.127,2.127,0,0,0,.745.109,1.972,1.972,0,0,0,.734-.113.911.911,0,0,0,.425-.339h.03a.5.5,0,0,0,.12.2.8.8,0,0,0,.181.136.774.774,0,0,0,.2.075.967.967,0,0,0,.2.023h1.767a1.016,1.016,0,0,0,.553-.155.958.958,0,0,0,.372-.47,1.441,1.441,0,0,0,.651.64,2.487,2.487,0,0,0,2.005,0,1.441,1.441,0,0,0,.655-.64.958.958,0,0,0,.372.47,1.015,1.015,0,0,0,.553.155h3.3v-5.381h-.858Z" transform="translate(-222.258 -212.215)" fill="#415961"/>
      <rect id="Rectangle_26" data-name="Rectangle 26" width="0.858" height="5.38" transform="translate(40.45 1.159)" fill="#415961"/>
      <rect id="Rectangle_27" data-name="Rectangle 27" width="0.858" height="0.88" transform="translate(45.98 1.814)" fill="#415961"/>
      <rect id="Rectangle_28" data-name="Rectangle 28" width="0.858" height="0.88" transform="translate(47.252 1.814)" fill="#415961"/>
      <path id="Path_40" data-name="Path 40" d="M305.9,220.411h-4.109q-.888,0-.888-.956v-1.475h-.783v1.467a2.106,2.106,0,0,0,.139.813,1.463,1.463,0,0,0,.373.538,1.391,1.391,0,0,0,.534.3,2.154,2.154,0,0,0,.625.091h4.967v-3.206H305.9Z" transform="translate(-256.385 -214.647)" fill="#415961"/>
      <rect id="Rectangle_29" data-name="Rectangle 29" width="0.858" height="0.88" transform="translate(59.04 7.254)" fill="#415961"/>
      <rect id="Rectangle_30" data-name="Rectangle 30" width="0.858" height="0.88" transform="translate(57.768 7.254)" fill="#415961"/>
      <rect id="Rectangle_31" data-name="Rectangle 31" width="0.858" height="0.88" transform="translate(61.936 1.159)" fill="#415961"/>
      <rect id="Rectangle_32" data-name="Rectangle 32" width="0.858" height="0.88" transform="translate(66.172 1.159)" fill="#415961"/>
      <rect id="Rectangle_33" data-name="Rectangle 33" width="0.858" height="0.88" transform="translate(67.443 1.159)" fill="#415961"/>
      <rect id="Rectangle_34" data-name="Rectangle 34" width="0.858" height="0.88" transform="translate(71.777 1.159)" fill="#415961"/>
      <rect id="Rectangle_35" data-name="Rectangle 35" width="0.858" height="0.88" transform="translate(70.506 1.159)" fill="#415961"/>
      <path id="Path_41" data-name="Path 41" d="M333.036,217.708a1.045,1.045,0,0,1-1.467,0,1.2,1.2,0,0,1-.252-.8,1.227,1.227,0,0,1,.248-.8,1.045,1.045,0,0,1,1.475,0,1.228,1.228,0,0,1,.248.8,1.2,1.2,0,0,1-.252.8m7.369.271h-2.512a.647.647,0,0,1-.263-.06.912.912,0,0,1-.252-.169.888.888,0,0,1-.192-.267.814.814,0,0,1-.076-.354v-1.58h-.858v1.843a.679.679,0,0,1-.052.286.526.526,0,0,1-.132.181.458.458,0,0,1-.17.094.6.6,0,0,1-.166.026h-2.046v-.03a.619.619,0,0,0,.154-.139,1.184,1.184,0,0,0,.158-.245,2.053,2.053,0,0,0,.124-.312,1.14,1.14,0,0,0,.053-.343,2.091,2.091,0,0,0-.139-.794,1.624,1.624,0,0,0-.391-.58,1.666,1.666,0,0,0-.594-.357,2.388,2.388,0,0,0-1.5,0,1.666,1.666,0,0,0-.594.357,1.618,1.618,0,0,0-.391.58,2.091,2.091,0,0,0-.139.794,1.156,1.156,0,0,0,.053.343,2.05,2.05,0,0,0,.124.312,1.2,1.2,0,0,0,.158.245.62.62,0,0,0,.154.139v.03h-2.264a.647.647,0,0,1-.263-.06.911.911,0,0,1-.252-.169.888.888,0,0,1-.192-.267.814.814,0,0,1-.076-.354v-1.58h-.858v1.843a.68.68,0,0,1-.052.286.539.539,0,0,1-.132.181.458.458,0,0,1-.169.094.6.6,0,0,1-.166.026h-1.414a.646.646,0,0,1-.263-.06.913.913,0,0,1-.252-.169.88.88,0,0,1-.192-.267.807.807,0,0,1-.076-.354v-1.58h-.858v1.843a.671.671,0,0,1-.053.286.532.532,0,0,1-.131.181.458.458,0,0,1-.169.094.6.6,0,0,1-.166.026h-5.452v-4.605h-.858v5.381h6.3a1.514,1.514,0,0,0,.674-.169,1.219,1.219,0,0,0,.538-.531.987.987,0,0,0,.139.245,1.239,1.239,0,0,0,.222.226,1.186,1.186,0,0,0,.278.166.8.8,0,0,0,.316.064h1.407a1.512,1.512,0,0,0,.673-.169,1.219,1.219,0,0,0,.538-.531.973.973,0,0,0,.139.245,1.238,1.238,0,0,0,.222.226,1.19,1.19,0,0,0,.279.166.794.794,0,0,0,.316.064h7.072a1.514,1.514,0,0,0,.674-.169,1.219,1.219,0,0,0,.538-.531.973.973,0,0,0,.139.245,1.254,1.254,0,0,0,.222.226,1.179,1.179,0,0,0,.279.166.792.792,0,0,0,.316.064h3.37v-5.381h-.858Z" transform="translate(-265.093 -212.215)" fill="#415961"/>
      <rect id="Rectangle_36" data-name="Rectangle 36" width="0.858" height="5.38" transform="translate(77.53 1.159)" fill="#415961"/>
    </g>
  </g>
</svg>
