<svg xmlns="http://www.w3.org/2000/svg" width="40" height="28" viewBox="0 0 40 28">
  <path id="quote-right-solid" d="M8.571,96a8.4,8.4,0,1,0,0,16.8,8.645,8.645,0,0,0,2.857-.514v.514a5.663,5.663,0,0,1-5.714,5.6,2.8,2.8,0,1,0,0,5.6,11.329,11.329,0,0,0,11.429-11.2v-8.4A8.439,8.439,0,0,0,8.571,96ZM40,104.4a8.573,8.573,0,1,0-8.571,8.4,8.645,8.645,0,0,0,2.857-.514v.514a5.663,5.663,0,0,1-5.714,5.6,2.8,2.8,0,1,0,0,5.6A11.329,11.329,0,0,0,40,112.8Z" transform="translate(40 124) rotate(180)" fill="#d1d6dd"/>
</svg>
