<svg xmlns="http://www.w3.org/2000/svg" width="16" height="16" viewBox="0 0 16 16">
  <path id="Path_207" data-name="Path 207" d="M948.978,158.692a6.867,6.867,0,0,1-1.682-.216.561.561,0,0,0-.024-.145,20.438,20.438,0,0,1-.7-2.791,21.911,21.911,0,0,0,2.405.147.558.558,0,0,0,0-1.116,20.876,20.876,0,0,1-2.579-.179,20.827,20.827,0,0,1,0-5.161,20.836,20.836,0,0,1,5.162,0,20.881,20.881,0,0,1,.179,2.578.558.558,0,1,0,1.116,0v0a21.936,21.936,0,0,0-.15-2.405,20.419,20.419,0,0,1,2.794.7.54.54,0,0,0,.15.025,6.878,6.878,0,0,1,.214,1.677.558.558,0,0,0,1.116,0,8,8,0,1,0-8,8,.558.558,0,0,0,0-1.116Zm6.2-9.853a21.518,21.518,0,0,0-2.626-.6,21.749,21.749,0,0,0-.608-2.629A6.9,6.9,0,0,1,955.181,148.838Zm-4.518-3.7a.516.516,0,0,0,.018.146,20.777,20.777,0,0,1,.7,2.8,21.922,21.922,0,0,0-4.817,0,20.4,20.4,0,0,1,.7-2.8.549.549,0,0,0,.018-.146,6.673,6.673,0,0,1,3.371,0Zm-4.752.512a.5.5,0,0,0,.074.016,21.5,21.5,0,0,0-.575,2.565,21.526,21.526,0,0,0-2.634.605A6.9,6.9,0,0,1,945.911,145.652Zm-.661,8.565a20.656,20.656,0,0,1-2.8-.705.547.547,0,0,0-.143-.018,6.667,6.667,0,0,1,0-3.37.54.54,0,0,0,.144-.018,20.412,20.412,0,0,1,2.795-.7A21.965,21.965,0,0,0,945.25,154.217Zm-2.43.655a.5.5,0,0,0,.016-.07,21.819,21.819,0,0,0,2.573.578,21.469,21.469,0,0,0,.575,2.569.525.525,0,0,0-.072.016A6.9,6.9,0,0,1,942.82,154.872Zm13.586-.265a3.294,3.294,0,0,1,.56,1.858,3.337,3.337,0,1,1-3.4-3.337.552.552,0,0,1,.091-.723.56.56,0,0,1,.787.053l.93,1.064c.005.007.006.016.012.022s.014.011.02.018a.587.587,0,0,1,.037.081.54.54,0,0,1,.046.1.577.577,0,0,1,.013.109.552.552,0,0,1,0,.1.667.667,0,0,1-.027.1.584.584,0,0,1-.037.1l-.12.156a.179.179,0,0,1-.023.014c-.006,0-.009.012-.016.017l-1.087.789a.555.555,0,0,1-.677-.88,2.225,2.225,0,1,0,2.329,2.215,2.185,2.185,0,0,0-.373-1.234.559.559,0,0,1,.927-.624Z" transform="translate(-940.978 -143.808)" fill="#2c2a4a"/>
</svg>
