<svg xmlns="http://www.w3.org/2000/svg" xmlns:xlink="http://www.w3.org/1999/xlink" width="386" height="157" viewBox="0 0 386 157">
  <defs>
    <linearGradient id="linear-gradient" x1="0.008" y1="0.014" x2="0.986" y2="0.974" gradientUnits="objectBoundingBox">
      <stop offset="0" stop-color="#834ba4"/>
      <stop offset="1" stop-color="#582e80"/>
    </linearGradient>
  </defs>
  <g id="Group_1196" data-name="Group 1196" transform="translate(-927.282 -841.02)">
    <g id="Group_1185" data-name="Group 1185" transform="translate(905.282 994.02)">
      <rect id="Rectangle_476" data-name="Rectangle 476" width="308" height="4" rx="2" transform="translate(61)" fill="#582e80"/>
      <rect id="Rectangle_484" data-name="Rectangle 484" width="27" height="4" rx="2" transform="translate(381)" fill="#582e80"/>
      <rect id="Rectangle_485" data-name="Rectangle 485" width="27" height="4" rx="2" transform="translate(22)" fill="#582e80"/>
    </g>
    <g id="Group_1194" data-name="Group 1194" transform="translate(988.282 841.02)">
      <g id="Group_1186" data-name="Group 1186" transform="translate(19.658)">
        <path id="Path_240" data-name="Path 240" d="M7.388,0H218a7.39,7.39,0,0,1,7.388,7.391V132.075A7.39,7.39,0,0,1,218,139.467H7.388A7.389,7.389,0,0,1,0,132.075V7.391A7.389,7.389,0,0,1,7.388,0Z" fill="url(#linear-gradient)"/>
      </g>
      <g id="Group_1187" data-name="Group 1187" transform="translate(26.152 7.28)">
        <rect id="Rectangle_479" data-name="Rectangle 479" width="212.403" height="123.732" fill="#fff"/>
      </g>
      <g id="Group_1189" data-name="Group 1189" transform="translate(26.152 7.28)">
        <path id="Path_232" data-name="Path 232" d="M1938.029,905.167l-81.568,81.617v33.071l114.632-114.7Z" transform="translate(-1856.46 -905.158)" fill="#f2eef5"/>
        <path id="Path_233" data-name="Path 233" d="M2302.754,886.413v30.876l-94.505,92.855h-73.222l124.435-122.262v-1.47Z" transform="translate(-2090.351 -886.413)" fill="#f2eef5"/>
        <path id="Path_234" data-name="Path 234" d="M2729.581,1142.431v19.629l-62.979,62.979h-19.63Z" transform="translate(-2517.178 -1101.307)" fill="#f2eef5"/>
      </g>
      <g id="Group_1192" data-name="Group 1192" transform="translate(0 140.975)">
        <path id="Rectangle_483" data-name="Rectangle 483" d="M0,0H264.75a0,0,0,0,1,0,0V0a12.025,12.025,0,0,1-12.025,12.025H12.025A12.025,12.025,0,0,1,0,0V0A0,0,0,0,1,0,0Z" fill="#834ba4"/>
      </g>
      <g id="Group_1193" data-name="Group 1193" transform="translate(12.029 138.316)">
        <path id="Path_235" data-name="Path 235" d="M1987.6,1703.062H1752.27a2.659,2.659,0,0,0-2.659,2.659H1990.26A2.659,2.659,0,0,0,1987.6,1703.062Z" transform="translate(-1749.611 -1703.062)" fill="#e9a7ff"/>
      </g>
      <path id="Path_236" data-name="Path 236" d="M2379.4,1719.8h-27.676l2.055,2.693a3.055,3.055,0,0,0,2.429,1.2H2394.8a3.056,3.056,0,0,0,2.43-1.2l2.055-2.693Z" transform="translate(-2243.126 -1578.797)" fill="#fff"/>
    </g>
    <g id="Group_1195" data-name="Group 1195" transform="translate(1060.282 889.564)">
      <path id="Path_237" data-name="Path 237" d="M2162.578,1174.549a10.517,10.517,0,0,0-4.269-.732h-1.118v-25.606c0-4.08-1.821-6.151-5.415-6.151a4.121,4.121,0,0,0-2.917,1.144,27.3,27.3,0,0,0-2.9,3.441l-17.753,23.748q-.737.974-1.241,1.644c-.34.453-.67.927-.983,1.407a6.987,6.987,0,0,0-.737,1.441,4.114,4.114,0,0,0-.255,1.4,5.354,5.354,0,0,0,1.7,4.158,7.243,7.243,0,0,0,4.991,1.525h16.493v5.908a5.858,5.858,0,0,0,1.239,4.018,4.585,4.585,0,0,0,6.558.034,5.883,5.883,0,0,0,1.223-4.052v-5.908h1.721a7.036,7.036,0,0,0,4-.946,3.523,3.523,0,0,0,1.41-3.094C2164.325,1176.209,2163.739,1175.073,2162.578,1174.549Zm-14.407-.732h-13.442l13.442-18.162Z" transform="translate(-2124.99 -1142.06)" fill="#2c2a4a"/>
      <path id="Path_238" data-name="Path 238" d="M2425.092,1153.664a19.2,19.2,0,0,0-3.665-5.433,14.7,14.7,0,0,0-5.051-3.357,17.2,17.2,0,0,0-6.384-1.144,15.311,15.311,0,0,0-15.041,10.087,30.552,30.552,0,0,0-1.694,7.043,70.552,70.552,0,0,0-.538,9.154,51.761,51.761,0,0,0,.488,7.333,30.173,30.173,0,0,0,1.544,6.221,17.945,17.945,0,0,0,6.192,8.114,15.714,15.714,0,0,0,9.316,2.941,15.874,15.874,0,0,0,8.2-2.189,16.848,16.848,0,0,0,6.011-6.216,22.43,22.43,0,0,0,2.515-7.273,57.966,57.966,0,0,0,.676-9.5C2427.667,1162.685,2426.8,1157.377,2425.092,1153.664Zm-7.947,25.5a13.05,13.05,0,0,1-2.378,5.984,6.152,6.152,0,0,1-9.051.079,12.73,12.73,0,0,1-2.408-5.931,59.025,59.025,0,0,1-.731-10.259c0-6.118.574-10.7,1.7-13.618,1.107-2.859,3.02-4.25,5.847-4.25a5.79,5.79,0,0,1,4.58,1.884,12.091,12.091,0,0,1,2.406,5.744,55.824,55.824,0,0,1,.73,9.972A62.529,62.529,0,0,1,2417.145,1179.168Z" transform="translate(-2349.574 -1143.461)" fill="#2c2a4a"/>
      <path id="Path_239" data-name="Path 239" d="M2668.517,1174.549a10.512,10.512,0,0,0-4.269-.732h-1.119v-25.606c0-4.08-1.821-6.151-5.413-6.151a4.127,4.127,0,0,0-2.918,1.144,27.422,27.422,0,0,0-2.9,3.441l-17.753,23.748q-.738.974-1.241,1.644c-.338.453-.67.927-.983,1.407a6.974,6.974,0,0,0-.737,1.441,4.147,4.147,0,0,0-.253,1.4,5.349,5.349,0,0,0,1.7,4.158,7.236,7.236,0,0,0,4.99,1.525h16.494v5.908a5.859,5.859,0,0,0,1.238,4.018,4.587,4.587,0,0,0,6.559.034,5.893,5.893,0,0,0,1.221-4.052v-5.908h1.721a7.032,7.032,0,0,0,4-.946,3.523,3.523,0,0,0,1.412-3.094C2670.266,1176.209,2669.677,1175.073,2668.517,1174.549Zm-14.406-.732h-13.442l13.442-18.162Z" transform="translate(-2549.395 -1142.06)" fill="#2c2a4a"/>
    </g>
  </g>
</svg>
