<svg xmlns="http://www.w3.org/2000/svg" width="16" height="16" viewBox="0 0 16 16">
  <path id="vuesax_outline_info-circle" data-name="vuesax outline info-circle" d="M294.923,426.148a8,8,0,1,1,8-8A8,8,0,0,1,294.923,426.148Zm0-14.884a6.884,6.884,0,1,0,6.884,6.884A6.884,6.884,0,0,0,294.923,411.264Zm0,8.186a.562.562,0,0,1-.558-.558v-3.721a.558.558,0,1,1,1.116,0v3.721A.561.561,0,0,1,294.923,419.45Zm0,2.422a.759.759,0,0,1-.283-.06.873.873,0,0,1-.246-.164.788.788,0,0,1-.156-.246.746.746,0,0,1-.06-.275.759.759,0,0,1,.06-.286.867.867,0,0,1,.156-.246.877.877,0,0,1,.246-.156.745.745,0,0,1,.566,0,.856.856,0,0,1,.246.156.836.836,0,0,1,.156.246.732.732,0,0,1,.06.286.724.724,0,0,1-.06.283.762.762,0,0,1-.156.246.858.858,0,0,1-.246.156A.753.753,0,0,1,294.923,421.873Z" transform="translate(-286.923 -410.148)" fill="#dc1e27"/>
</svg>
