<svg xmlns="http://www.w3.org/2000/svg" width="16" height="16" viewBox="0 0 16 16">
  <path id="Path_227" data-name="Path 227" d="M1392.179,1979.354a1.3,1.3,0,1,1-1.3-1.3A1.3,1.3,0,0,1,1392.179,1979.354Zm6.7-.744v1.488c0,3.28-1,4.28-4.28,4.28h-7.44c-3.28,0-4.28-1-4.28-4.28v-1.488c0-2.792.736-3.928,2.976-4.208v-1c0-2.16.52-5.024,5.024-5.024s5.024,2.864,5.024,5.024v1C1398.139,1974.682,1398.875,1975.818,1398.875,1978.61Zm-5.584.744a2.416,2.416,0,1,0-2.416,2.416A2.416,2.416,0,0,0,1393.291,1979.354Zm1.488-5.952c0-2.344-.664-3.9-3.9-3.9s-3.9,1.56-3.9,3.9v.928h.184v.008h7.624Z" transform="translate(-1382.875 -1968.378)" fill="#E53835"/>
</svg>
